<?xml version="1.0" encoding="utf-8" standalone="no"?>
<!DOCTYPE svg PUBLIC "-//W3C//DTD SVG 1.1//EN"
  "http://www.w3.org/Graphics/SVG/1.1/DTD/svg11.dtd">
<svg xmlns:xlink="http://www.w3.org/1999/xlink" width="568.8pt" height="540.12875pt" viewBox="0 0 568.8 540.12875" xmlns="http://www.w3.org/2000/svg" version="1.1">
 <metadata>
  <rdf:RDF xmlns:dc="http://purl.org/dc/elements/1.1/" xmlns:cc="http://creativecommons.org/ns#" xmlns:rdf="http://www.w3.org/1999/02/22-rdf-syntax-ns#">
   <cc:Work>
    <dc:type rdf:resource="http://purl.org/dc/dcmitype/StillImage"/>
    <dc:date>2025-10-24T12:52:26.888744</dc:date>
    <dc:format>image/svg+xml</dc:format>
    <dc:creator>
     <cc:Agent>
      <dc:title>Matplotlib v3.10.6, https://matplotlib.org/</dc:title>
     </cc:Agent>
    </dc:creator>
   </cc:Work>
  </rdf:RDF>
 </metadata>
 <defs>
  <style type="text/css">*{stroke-linejoin: round; stroke-linecap: butt}</style>
 </defs>
 <g id="figure_1">
  <g id="patch_1">
   <path d="M 0 540.12875 
L 568.8 540.12875 
L 568.8 0 
L 0 0 
z
" style="fill: #ffffff"/>
  </g>
  <g id="axes_1">
   <g id="patch_2">
    <path d="M 7.2 532.92875 
L 561.6 532.92875 
L 561.6 26.075 
L 7.2 26.075 
z
" style="fill: #ffffff"/>
   </g>
   <g id="LineCollection_1">
    <path d="M 513.490909 279.501875 
L 482.798543 174.780026 
" clip-path="url(#p6e6cc723bb)" style="fill: none; stroke: #808080; stroke-opacity: 0.7"/>
    <path d="M 513.490909 279.501875 
L 398.945448 98.118302 
" clip-path="url(#p6e6cc723bb)" style="fill: none; stroke: #808080; stroke-opacity: 0.7"/>
    <path d="M 513.490909 279.501875 
L 284.39999 70.058177 
" clip-path="url(#p6e6cc723bb)" style="fill: none; stroke: #808080; stroke-opacity: 0.7"/>
    <path d="M 513.490909 279.501875 
L 284.400003 488.945573 
" clip-path="url(#p6e6cc723bb)" style="fill: none; stroke: #808080; stroke-opacity: 0.7"/>
    <path d="M 513.490909 279.501875 
L 398.945434 460.885448 
" clip-path="url(#p6e6cc723bb)" style="fill: none; stroke: #808080; stroke-opacity: 0.7"/>
    <path d="M 513.490909 279.501875 
L 482.79853 384.223762 
" clip-path="url(#p6e6cc723bb)" style="fill: none; stroke: #808080; stroke-opacity: 0.7"/>
    <path d="M 482.798543 174.780026 
L 398.945448 98.118302 
" clip-path="url(#p6e6cc723bb)" style="fill: none; stroke: #808080; stroke-opacity: 0.7"/>
    <path d="M 482.798543 174.780026 
L 284.39999 70.058177 
" clip-path="url(#p6e6cc723bb)" style="fill: none; stroke: #808080; stroke-opacity: 0.7"/>
    <path d="M 482.798543 174.780026 
L 169.854532 98.118315 
" clip-path="url(#p6e6cc723bb)" style="fill: none; stroke: #808080; stroke-opacity: 0.7"/>
    <path d="M 482.798543 174.780026 
L 86.001457 174.780013 
" clip-path="url(#p6e6cc723bb)" style="fill: none; stroke: #808080; stroke-opacity: 0.7"/>
    <path d="M 482.798543 174.780026 
L 55.309091 279.501893 
" clip-path="url(#p6e6cc723bb)" style="fill: none; stroke: #808080; stroke-opacity: 0.7"/>
    <path d="M 482.798543 174.780026 
L 284.400003 488.945573 
" clip-path="url(#p6e6cc723bb)" style="fill: none; stroke: #808080; stroke-opacity: 0.7"/>
    <path d="M 482.798543 174.780026 
L 398.945434 460.885448 
" clip-path="url(#p6e6cc723bb)" style="fill: none; stroke: #808080; stroke-opacity: 0.7"/>
    <path d="M 482.798543 174.780026 
L 482.79853 384.223762 
" clip-path="url(#p6e6cc723bb)" style="fill: none; stroke: #808080; stroke-opacity: 0.7"/>
    <path d="M 398.945448 98.118302 
L 284.39999 70.058177 
" clip-path="url(#p6e6cc723bb)" style="fill: none; stroke: #808080; stroke-opacity: 0.7"/>
    <path d="M 398.945448 98.118302 
L 169.854532 98.118315 
" clip-path="url(#p6e6cc723bb)" style="fill: none; stroke: #808080; stroke-opacity: 0.7"/>
    <path d="M 398.945448 98.118302 
L 86.001457 174.780013 
" clip-path="url(#p6e6cc723bb)" style="fill: none; stroke: #808080; stroke-opacity: 0.7"/>
    <path d="M 398.945448 98.118302 
L 55.309091 279.501893 
" clip-path="url(#p6e6cc723bb)" style="fill: none; stroke: #808080; stroke-opacity: 0.7"/>
    <path d="M 398.945448 98.118302 
L 86.001443 384.223718 
" clip-path="url(#p6e6cc723bb)" style="fill: none; stroke: #808080; stroke-opacity: 0.7"/>
    <path d="M 398.945448 98.118302 
L 284.400003 488.945573 
" clip-path="url(#p6e6cc723bb)" style="fill: none; stroke: #808080; stroke-opacity: 0.7"/>
    <path d="M 398.945448 98.118302 
L 398.945434 460.885448 
" clip-path="url(#p6e6cc723bb)" style="fill: none; stroke: #808080; stroke-opacity: 0.7"/>
    <path d="M 398.945448 98.118302 
L 482.79853 384.223762 
" clip-path="url(#p6e6cc723bb)" style="fill: none; stroke: #808080; stroke-opacity: 0.7"/>
    <path d="M 284.39999 70.058177 
L 169.854532 98.118315 
" clip-path="url(#p6e6cc723bb)" style="fill: none; stroke: #808080; stroke-opacity: 0.7"/>
    <path d="M 284.39999 70.058177 
L 86.001457 174.780013 
" clip-path="url(#p6e6cc723bb)" style="fill: none; stroke: #808080; stroke-opacity: 0.7"/>
    <path d="M 284.39999 70.058177 
L 55.309091 279.501893 
" clip-path="url(#p6e6cc723bb)" style="fill: none; stroke: #808080; stroke-opacity: 0.7"/>
    <path d="M 284.39999 70.058177 
L 398.945434 460.885448 
" clip-path="url(#p6e6cc723bb)" style="fill: none; stroke: #808080; stroke-opacity: 0.7"/>
    <path d="M 169.854532 98.118315 
L 86.001457 174.780013 
" clip-path="url(#p6e6cc723bb)" style="fill: none; stroke: #808080; stroke-opacity: 0.7"/>
    <path d="M 169.854532 98.118315 
L 55.309091 279.501893 
" clip-path="url(#p6e6cc723bb)" style="fill: none; stroke: #808080; stroke-opacity: 0.7"/>
    <path d="M 169.854532 98.118315 
L 86.001443 384.223718 
" clip-path="url(#p6e6cc723bb)" style="fill: none; stroke: #808080; stroke-opacity: 0.7"/>
    <path d="M 86.001457 174.780013 
L 55.309091 279.501893 
" clip-path="url(#p6e6cc723bb)" style="fill: none; stroke: #808080; stroke-opacity: 0.7"/>
    <path d="M 86.001457 174.780013 
L 86.001443 384.223718 
" clip-path="url(#p6e6cc723bb)" style="fill: none; stroke: #808080; stroke-opacity: 0.7"/>
    <path d="M 86.001457 174.780013 
L 169.854566 460.885448 
" clip-path="url(#p6e6cc723bb)" style="fill: none; stroke: #808080; stroke-opacity: 0.7"/>
    <path d="M 86.001457 174.780013 
L 284.400003 488.945573 
" clip-path="url(#p6e6cc723bb)" style="fill: none; stroke: #808080; stroke-opacity: 0.7"/>
    <path d="M 86.001457 174.780013 
L 398.945434 460.885448 
" clip-path="url(#p6e6cc723bb)" style="fill: none; stroke: #808080; stroke-opacity: 0.7"/>
    <path d="M 55.309091 279.501893 
L 86.001443 384.223718 
" clip-path="url(#p6e6cc723bb)" style="fill: none; stroke: #808080; stroke-opacity: 0.7"/>
    <path d="M 55.309091 279.501893 
L 169.854566 460.885448 
" clip-path="url(#p6e6cc723bb)" style="fill: none; stroke: #808080; stroke-opacity: 0.7"/>
    <path d="M 55.309091 279.501893 
L 284.400003 488.945573 
" clip-path="url(#p6e6cc723bb)" style="fill: none; stroke: #808080; stroke-opacity: 0.7"/>
    <path d="M 55.309091 279.501893 
L 398.945434 460.885448 
" clip-path="url(#p6e6cc723bb)" style="fill: none; stroke: #808080; stroke-opacity: 0.7"/>
    <path d="M 55.309091 279.501893 
L 482.79853 384.223762 
" clip-path="url(#p6e6cc723bb)" style="fill: none; stroke: #808080; stroke-opacity: 0.7"/>
    <path d="M 86.001443 384.223718 
L 169.854566 460.885448 
" clip-path="url(#p6e6cc723bb)" style="fill: none; stroke: #808080; stroke-opacity: 0.7"/>
    <path d="M 86.001443 384.223718 
L 284.400003 488.945573 
" clip-path="url(#p6e6cc723bb)" style="fill: none; stroke: #808080; stroke-opacity: 0.7"/>
    <path d="M 86.001443 384.223718 
L 398.945434 460.885448 
" clip-path="url(#p6e6cc723bb)" style="fill: none; stroke: #808080; stroke-opacity: 0.7"/>
    <path d="M 169.854566 460.885448 
L 284.400003 488.945573 
" clip-path="url(#p6e6cc723bb)" style="fill: none; stroke: #808080; stroke-opacity: 0.7"/>
    <path d="M 169.854566 460.885448 
L 398.945434 460.885448 
" clip-path="url(#p6e6cc723bb)" style="fill: none; stroke: #808080; stroke-opacity: 0.7"/>
    <path d="M 169.854566 460.885448 
L 482.79853 384.223762 
" clip-path="url(#p6e6cc723bb)" style="fill: none; stroke: #808080; stroke-opacity: 0.7"/>
    <path d="M 284.400003 488.945573 
L 398.945434 460.885448 
" clip-path="url(#p6e6cc723bb)" style="fill: none; stroke: #808080; stroke-opacity: 0.7"/>
    <path d="M 284.400003 488.945573 
L 482.79853 384.223762 
" clip-path="url(#p6e6cc723bb)" style="fill: none; stroke: #808080; stroke-opacity: 0.7"/>
    <path d="M 398.945434 460.885448 
L 482.79853 384.223762 
" clip-path="url(#p6e6cc723bb)" style="fill: none; stroke: #808080; stroke-opacity: 0.7"/>
   </g>
   <g id="matplotlib.axis_1">
    <g id="xtick_1"/>
    <g id="xtick_2"/>
    <g id="xtick_3"/>
    <g id="xtick_4"/>
    <g id="xtick_5"/>
   </g>
   <g id="matplotlib.axis_2">
    <g id="ytick_1"/>
    <g id="ytick_2"/>
    <g id="ytick_3"/>
    <g id="ytick_4"/>
    <g id="ytick_5"/>
   </g>
   <g id="PathCollection_1">
    <path d="M 513.490909 285.751875 
C 515.148428 285.751875 516.738283 285.093336 517.910326 283.921292 
C 519.08237 282.749249 519.740909 281.159394 519.740909 279.501875 
C 519.740909 277.844356 519.08237 276.254501 517.910326 275.082458 
C 516.738283 273.910414 515.148428 273.251875 513.490909 273.251875 
C 511.83339 273.251875 510.243535 273.910414 509.071492 275.082458 
C 507.899449 276.254501 507.240909 277.844356 507.240909 279.501875 
C 507.240909 281.159394 507.899449 282.749249 509.071492 283.921292 
C 510.243535 285.093336 511.83339 285.751875 513.490909 285.751875 
z
" clip-path="url(#p6e6cc723bb)" style="fill: #87ceeb; stroke: #87ceeb"/>
    <path d="M 482.798543 184.299742 
C 485.323202 184.299742 487.744796 183.296685 489.529999 181.511482 
C 491.315202 179.726279 492.31826 177.304684 492.31826 174.780026 
C 492.31826 172.255368 491.315202 169.833773 489.529999 168.04857 
C 487.744796 166.263367 485.323202 165.260309 482.798543 165.260309 
C 480.273885 165.260309 477.85229 166.263367 476.067087 168.04857 
C 474.281884 169.833773 473.278827 172.255368 473.278827 174.780026 
C 473.278827 177.304684 474.281884 179.726279 476.067087 181.511482 
C 477.85229 183.296685 480.273885 184.299742 482.798543 184.299742 
z
" clip-path="url(#p6e6cc723bb)" style="fill: #87ceeb; stroke: #87ceeb"/>
    <path d="M 398.945448 108.724904 
C 401.758351 108.724904 404.456424 107.607326 406.445448 105.618302 
C 408.434471 103.629279 409.552049 100.931206 409.552049 98.118302 
C 409.552049 95.305399 408.434471 92.607326 406.445448 90.618302 
C 404.456424 88.629279 401.758351 87.511701 398.945448 87.511701 
C 396.132544 87.511701 393.434471 88.629279 391.445448 90.618302 
C 389.456424 92.607326 388.338846 95.305399 388.338846 98.118302 
C 388.338846 100.931206 389.456424 103.629279 391.445448 105.618302 
C 393.434471 107.607326 396.132544 108.724904 398.945448 108.724904 
z
" clip-path="url(#p6e6cc723bb)" style="fill: #87ceeb; stroke: #87ceeb"/>
    <path d="M 284.39999 73.593711 
C 285.337625 73.593711 286.236982 73.221184 286.89999 72.558177 
C 287.562998 71.895169 287.935524 70.995811 287.935524 70.058177 
C 287.935524 69.120542 287.562998 68.221184 286.89999 67.558177 
C 286.236982 66.895169 285.337625 66.522643 284.39999 66.522643 
C 283.462355 66.522643 282.562998 66.895169 281.89999 67.558177 
C 281.236982 68.221184 280.864456 69.120542 280.864456 70.058177 
C 280.864456 70.995811 281.236982 71.895169 281.89999 72.558177 
C 282.562998 73.221184 283.462355 73.593711 284.39999 73.593711 
z
" clip-path="url(#p6e6cc723bb)" style="fill: #87ceeb; stroke: #87ceeb"/>
    <path d="M 169.854532 104.368315 
C 171.512051 104.368315 173.101906 103.709775 174.273949 102.537732 
C 175.445992 101.365689 176.104532 99.775834 176.104532 98.118315 
C 176.104532 96.460795 175.445992 94.870941 174.273949 93.698897 
C 173.101906 92.526854 171.512051 91.868315 169.854532 91.868315 
C 168.197012 91.868315 166.607158 92.526854 165.435114 93.698897 
C 164.263071 94.870941 163.604532 96.460795 163.604532 98.118315 
C 163.604532 99.775834 164.263071 101.365689 165.435114 102.537732 
C 166.607158 103.709775 168.197012 104.368315 169.854532 104.368315 
z
" clip-path="url(#p6e6cc723bb)" style="fill: #87ceeb; stroke: #87ceeb"/>
    <path d="M 86.001457 184.29973 
C 88.526115 184.29973 90.94771 183.296672 92.732913 181.511469 
C 94.518116 179.726266 95.521173 177.304672 95.521173 174.780013 
C 95.521173 172.255355 94.518116 169.83376 92.732913 168.048557 
C 90.94771 166.263354 88.526115 165.260297 86.001457 165.260297 
C 83.476798 165.260297 81.055204 166.263354 79.270001 168.048557 
C 77.484798 169.83376 76.48174 172.255355 76.48174 174.780013 
C 76.48174 177.304672 77.484798 179.726266 79.270001 181.511469 
C 81.055204 183.296672 83.476798 184.29973 86.001457 184.29973 
z
" clip-path="url(#p6e6cc723bb)" style="fill: #87ceeb; stroke: #87ceeb"/>
    <path d="M 55.309091 290.108495 
C 58.121995 290.108495 60.820068 288.990917 62.809091 287.001893 
C 64.798114 285.01287 65.915693 282.314797 65.915693 279.501893 
C 65.915693 276.68899 64.798114 273.990917 62.809091 272.001893 
C 60.820068 270.01287 58.121995 268.895292 55.309091 268.895292 
C 52.496187 268.895292 49.798114 270.01287 47.809091 272.001893 
C 45.820068 273.990917 44.702489 276.68899 44.702489 279.501893 
C 44.702489 282.314797 45.820068 285.01287 47.809091 287.001893 
C 49.798114 288.990917 52.496187 290.108495 55.309091 290.108495 
z
" clip-path="url(#p6e6cc723bb)" style="fill: #87ceeb; stroke: #87ceeb"/>
    <path d="M 86.001443 387.759252 
C 86.939077 387.759252 87.838435 387.386726 88.501443 386.723718 
C 89.164451 386.06071 89.536977 385.161352 89.536977 384.223718 
C 89.536977 383.286083 89.164451 382.386726 88.501443 381.723718 
C 87.838435 381.06071 86.939077 380.688184 86.001443 380.688184 
C 85.063808 380.688184 84.164451 381.06071 83.501443 381.723718 
C 82.838435 382.386726 82.465909 383.286083 82.465909 384.223718 
C 82.465909 385.161352 82.838435 386.06071 83.501443 386.723718 
C 84.164451 387.386726 85.063808 387.759252 86.001443 387.759252 
z
" clip-path="url(#p6e6cc723bb)" style="fill: #87ceeb; stroke: #87ceeb"/>
    <path d="M 169.854566 467.135448 
C 171.512085 467.135448 173.10194 466.476908 174.273983 465.304865 
C 175.446027 464.132822 176.104566 462.542967 176.104566 460.885448 
C 176.104566 459.227928 175.446027 457.638073 174.273983 456.46603 
C 173.10194 455.293987 171.512085 454.635448 169.854566 454.635448 
C 168.197047 454.635448 166.607192 455.293987 165.435149 456.46603 
C 164.263105 457.638073 163.604566 459.227928 163.604566 460.885448 
C 163.604566 462.542967 164.263105 464.132822 165.435149 465.304865 
C 166.607192 466.476908 168.197047 467.135448 169.854566 467.135448 
z
" clip-path="url(#p6e6cc723bb)" style="fill: #87ceeb; stroke: #87ceeb"/>
    <path d="M 284.400003 498.46529 
C 286.924661 498.46529 289.346256 497.462232 291.131459 495.677029 
C 292.916662 493.891826 293.919719 491.470232 293.919719 488.945573 
C 293.919719 486.420915 292.916662 483.99932 291.131459 482.214117 
C 289.346256 480.428914 286.924661 479.425857 284.400003 479.425857 
C 281.875344 479.425857 279.45375 480.428914 277.668547 482.214117 
C 275.883344 483.99932 274.880286 486.420915 274.880286 488.945573 
C 274.880286 491.470232 275.883344 493.891826 277.668547 495.677029 
C 279.45375 497.462232 281.875344 498.46529 284.400003 498.46529 
z
" clip-path="url(#p6e6cc723bb)" style="fill: #87ceeb; stroke: #87ceeb"/>
    <path d="M 398.945434 471.492049 
C 401.758338 471.492049 404.456411 470.374471 406.445434 468.385448 
C 408.434457 466.396424 409.552036 463.698351 409.552036 460.885448 
C 409.552036 458.072544 408.434457 455.374471 406.445434 453.385448 
C 404.456411 451.396424 401.758338 450.278846 398.945434 450.278846 
C 396.13253 450.278846 393.434457 451.396424 391.445434 453.385448 
C 389.456411 455.374471 388.338832 458.072544 388.338832 460.885448 
C 388.338832 463.698351 389.456411 466.396424 391.445434 468.385448 
C 393.434457 470.374471 396.13253 471.492049 398.945434 471.492049 
z
" clip-path="url(#p6e6cc723bb)" style="fill: #87ceeb; stroke: #87ceeb"/>
    <path d="M 482.79853 387.759296 
C 483.736164 387.759296 484.635522 387.386769 485.29853 386.723762 
C 485.961538 386.060754 486.334064 385.161396 486.334064 384.223762 
C 486.334064 383.286127 485.961538 382.386769 485.29853 381.723762 
C 484.635522 381.060754 483.736164 380.688228 482.79853 380.688228 
C 481.860895 380.688228 480.961538 381.060754 480.29853 381.723762 
C 479.635522 382.386769 479.262996 383.286127 479.262996 384.223762 
C 479.262996 385.161396 479.635522 386.060754 480.29853 386.723762 
C 480.961538 387.386769 481.860895 387.759296 482.79853 387.759296 
z
" clip-path="url(#p6e6cc723bb)" style="fill: #87ceeb; stroke: #87ceeb"/>
   </g>
   <g id="patch_3">
    <path d="M 7.2 532.92875 
L 7.2 26.075 
" style="fill: none; stroke: #000000; stroke-width: 0.8; stroke-linejoin: miter; stroke-linecap: square"/>
   </g>
   <g id="patch_4">
    <path d="M 561.6 532.92875 
L 561.6 26.075 
" style="fill: none; stroke: #000000; stroke-width: 0.8; stroke-linejoin: miter; stroke-linecap: square"/>
   </g>
   <g id="patch_5">
    <path d="M 7.2 532.92875 
L 561.6 532.92875 
" style="fill: none; stroke: #000000; stroke-width: 0.8; stroke-linejoin: miter; stroke-linecap: square"/>
   </g>
   <g id="patch_6">
    <path d="M 7.2 26.075 
L 561.6 26.075 
" style="fill: none; stroke: #000000; stroke-width: 0.8; stroke-linejoin: miter; stroke-linecap: square"/>
   </g>
   <g id="text_1">
    <g clip-path="url(#p6e6cc723bb)">
     <!-- 0 -->
     <g transform="translate(510.490909 282.876875) scale(0.12 -0.12)">
      <defs>
       <path id="SimHei-30" d="M 225 2537 
Q 250 3200 412 3587 
Q 575 3975 875 4225 
Q 1175 4475 1612 4475 
Q 2050 4475 2375 4112 
Q 2700 3750 2800 3200 
Q 2900 2650 2862 1937 
Q 2825 1225 2612 775 
Q 2400 325 1975 150 
Q 1550 -25 1125 187 
Q 700 400 525 750 
Q 350 1100 275 1487 
Q 200 1875 225 2537 
z
M 750 2687 
Q 675 2000 800 1462 
Q 925 925 1212 700 
Q 1500 475 1800 612 
Q 2100 750 2237 1162 
Q 2375 1575 2375 2062 
Q 2375 2550 2337 2950 
Q 2300 3350 2112 3675 
Q 1925 4000 1612 4012 
Q 1300 4025 1062 3700 
Q 825 3375 750 2687 
z
" transform="scale(0.015625)"/>
      </defs>
      <use xlink:href="#SimHei-30"/>
     </g>
    </g>
   </g>
   <g id="text_2">
    <g clip-path="url(#p6e6cc723bb)">
     <!-- 1 -->
     <g transform="translate(479.798543 178.155026) scale(0.12 -0.12)">
      <defs>
       <path id="SimHei-31" d="M 1400 3600 
Q 1075 3275 575 2975 
L 575 3450 
Q 1200 3875 1600 4450 
L 1900 4450 
L 1900 150 
L 1400 150 
L 1400 3600 
z
" transform="scale(0.015625)"/>
      </defs>
      <use xlink:href="#SimHei-31"/>
     </g>
    </g>
   </g>
   <g id="text_3">
    <g clip-path="url(#p6e6cc723bb)">
     <!-- 2 -->
     <g transform="translate(395.945448 101.493302) scale(0.12 -0.12)">
      <defs>
       <path id="SimHei-32" d="M 300 250 
Q 325 625 650 925 
Q 975 1225 1475 1862 
Q 1975 2500 2125 2850 
Q 2275 3200 2237 3450 
Q 2200 3700 2000 3862 
Q 1800 4025 1537 4000 
Q 1275 3975 1037 3800 
Q 800 3625 675 3275 
L 200 3350 
Q 400 3925 712 4187 
Q 1025 4450 1450 4475 
Q 1700 4500 1900 4462 
Q 2100 4425 2312 4287 
Q 2525 4150 2662 3875 
Q 2800 3600 2762 3212 
Q 2725 2825 2375 2287 
Q 2025 1750 1025 600 
L 2825 600 
L 2825 150 
L 300 150 
L 300 250 
z
" transform="scale(0.015625)"/>
      </defs>
      <use xlink:href="#SimHei-32"/>
     </g>
    </g>
   </g>
   <g id="text_4">
    <g clip-path="url(#p6e6cc723bb)">
     <!-- 3 -->
     <g transform="translate(281.39999 73.433177) scale(0.12 -0.12)">
      <defs>
       <path id="SimHei-33" d="M 250 1225 
L 700 1300 
Q 800 975 1025 762 
Q 1250 550 1587 562 
Q 1925 575 2125 837 
Q 2325 1100 2300 1437 
Q 2275 1775 2037 1962 
Q 1800 2150 1275 2225 
L 1275 2550 
Q 1800 2600 2037 2825 
Q 2275 3050 2250 3412 
Q 2225 3775 1925 3937 
Q 1625 4100 1287 3975 
Q 950 3850 750 3275 
L 300 3350 
Q 450 3800 712 4100 
Q 975 4400 1425 4450 
Q 1875 4500 2212 4337 
Q 2550 4175 2687 3837 
Q 2825 3500 2725 3100 
Q 2625 2700 2150 2400 
Q 2500 2250 2687 1950 
Q 2875 1650 2812 1162 
Q 2750 675 2375 375 
Q 2000 75 1525 87 
Q 1050 100 700 387 
Q 350 675 250 1225 
z
" transform="scale(0.015625)"/>
      </defs>
      <use xlink:href="#SimHei-33"/>
     </g>
    </g>
   </g>
   <g id="text_5">
    <g clip-path="url(#p6e6cc723bb)">
     <!-- 4 -->
     <g transform="translate(166.854532 101.493315) scale(0.12 -0.12)">
      <defs>
       <path id="SimHei-34" d="M 2000 1100 
L 75 1100 
L 75 1525 
L 2100 4450 
L 2475 4450 
L 2475 1525 
L 3075 1525 
L 3075 1100 
L 2475 1100 
L 2475 150 
L 2000 150 
L 2000 1100 
z
M 2000 1525 
L 2000 3500 
L 600 1525 
L 2000 1525 
z
" transform="scale(0.015625)"/>
      </defs>
      <use xlink:href="#SimHei-34"/>
     </g>
    </g>
   </g>
   <g id="text_6">
    <g clip-path="url(#p6e6cc723bb)">
     <!-- 5 -->
     <g transform="translate(83.001457 178.155013) scale(0.12 -0.12)">
      <defs>
       <path id="SimHei-35" d="M 550 1325 
Q 725 650 1150 575 
Q 1575 500 1837 662 
Q 2100 825 2212 1087 
Q 2325 1350 2312 1675 
Q 2300 2000 2137 2225 
Q 1975 2450 1725 2525 
Q 1475 2600 1162 2525 
Q 850 2450 650 2175 
L 225 2225 
Q 275 2375 700 4375 
L 2675 4375 
L 2675 3925 
L 1075 3925 
Q 950 3250 825 2850 
Q 1200 3025 1525 3012 
Q 1850 3000 2150 2862 
Q 2450 2725 2587 2487 
Q 2725 2250 2787 2012 
Q 2850 1775 2837 1500 
Q 2825 1225 2725 937 
Q 2625 650 2425 462 
Q 2225 275 1937 162 
Q 1650 50 1275 75 
Q 900 100 562 350 
Q 225 600 100 1200 
L 550 1325 
z
" transform="scale(0.015625)"/>
      </defs>
      <use xlink:href="#SimHei-35"/>
     </g>
    </g>
   </g>
   <g id="text_7">
    <g clip-path="url(#p6e6cc723bb)">
     <!-- 6 -->
     <g transform="translate(52.309091 282.876893) scale(0.12 -0.12)">
      <defs>
       <path id="SimHei-36" d="M 250 1612 
Q 275 1975 387 2225 
Q 500 2475 725 2850 
L 1750 4450 
L 2325 4450 
L 1275 2800 
Q 1950 2975 2350 2750 
Q 2750 2525 2887 2237 
Q 3025 1950 3037 1612 
Q 3050 1275 2937 950 
Q 2825 625 2537 362 
Q 2250 100 1737 75 
Q 1225 50 862 262 
Q 500 475 362 862 
Q 225 1250 250 1612 
z
M 1025 787 
Q 1250 550 1625 525 
Q 2000 500 2250 775 
Q 2500 1050 2500 1575 
Q 2500 2100 2187 2300 
Q 1875 2500 1487 2450 
Q 1100 2400 925 2075 
Q 750 1750 775 1387 
Q 800 1025 1025 787 
z
" transform="scale(0.015625)"/>
      </defs>
      <use xlink:href="#SimHei-36"/>
     </g>
    </g>
   </g>
   <g id="text_8">
    <g clip-path="url(#p6e6cc723bb)">
     <!-- 7 -->
     <g transform="translate(83.001443 387.598718) scale(0.12 -0.12)">
      <defs>
       <path id="SimHei-37" d="M 850 150 
Q 1300 2050 2425 3925 
L 275 3925 
L 275 4375 
L 2950 4375 
L 2950 3950 
Q 1775 2050 1400 150 
L 850 150 
z
" transform="scale(0.015625)"/>
      </defs>
      <use xlink:href="#SimHei-37"/>
     </g>
    </g>
   </g>
   <g id="text_9">
    <g clip-path="url(#p6e6cc723bb)">
     <!-- 8 -->
     <g transform="translate(166.854566 464.260448) scale(0.12 -0.12)">
      <defs>
       <path id="SimHei-38" d="M 175 1375 
Q 175 1675 325 1962 
Q 475 2250 825 2425 
Q 525 2600 425 2812 
Q 325 3025 312 3300 
Q 300 3575 387 3775 
Q 475 3975 650 4150 
Q 825 4325 1037 4387 
Q 1250 4450 1500 4450 
Q 1750 4450 1950 4400 
Q 2150 4350 2375 4187 
Q 2600 4025 2700 3725 
Q 2800 3425 2687 3025 
Q 2575 2625 2100 2400 
Q 2525 2275 2700 2012 
Q 2875 1750 2875 1375 
Q 2875 1000 2762 775 
Q 2650 550 2512 400 
Q 2375 250 2137 162 
Q 1900 75 1537 75 
Q 1175 75 912 162 
Q 650 250 475 425 
Q 300 600 237 837 
Q 175 1075 175 1375 
z
M 687 1400 
Q 675 1100 787 875 
Q 900 650 1200 587 
Q 1500 525 1825 600 
Q 2150 675 2275 950 
Q 2400 1225 2362 1500 
Q 2325 1775 2050 1962 
Q 1775 2150 1450 2125 
Q 1125 2100 912 1900 
Q 700 1700 687 1400 
z
M 775 3350 
Q 775 3100 950 2875 
Q 1125 2650 1500 2650 
Q 1875 2650 2062 2875 
Q 2250 3100 2237 3412 
Q 2225 3725 2012 3875 
Q 1800 4025 1437 4000 
Q 1075 3975 925 3787 
Q 775 3600 775 3350 
z
" transform="scale(0.015625)"/>
      </defs>
      <use xlink:href="#SimHei-38"/>
     </g>
    </g>
   </g>
   <g id="text_10">
    <g clip-path="url(#p6e6cc723bb)">
     <!-- 9 -->
     <g transform="translate(281.400003 492.320573) scale(0.12 -0.12)">
      <defs>
       <path id="SimHei-39" d="M 800 75 
Q 1350 1000 1700 1750 
Q 1075 1650 662 1912 
Q 250 2175 162 2625 
Q 75 3075 175 3437 
Q 275 3800 487 4037 
Q 700 4275 1000 4375 
Q 1300 4475 1537 4475 
Q 1775 4475 2025 4375 
Q 2275 4275 2475 4075 
Q 2675 3875 2750 3662 
Q 2825 3450 2825 3112 
Q 2825 2775 2575 2250 
Q 2325 1725 1350 75 
L 800 75 
z
M 662 2875 
Q 700 2550 937 2337 
Q 1175 2125 1450 2150 
Q 1725 2175 1887 2300 
Q 2050 2425 2200 2725 
Q 2300 3100 2250 3362 
Q 2200 3625 1987 3800 
Q 1775 3975 1525 3975 
Q 1375 4000 1137 3900 
Q 900 3800 762 3500 
Q 625 3200 662 2875 
z
" transform="scale(0.015625)"/>
      </defs>
      <use xlink:href="#SimHei-39"/>
     </g>
    </g>
   </g>
   <g id="text_11">
    <g clip-path="url(#p6e6cc723bb)">
     <!-- 10 -->
     <g transform="translate(392.945434 464.260448) scale(0.12 -0.12)">
      <use xlink:href="#SimHei-31"/>
      <use xlink:href="#SimHei-30" transform="translate(50 0)"/>
     </g>
    </g>
   </g>
   <g id="text_12">
    <g clip-path="url(#p6e6cc723bb)">
     <!-- 11 -->
     <g transform="translate(476.79853 387.598762) scale(0.12 -0.12)">
      <use xlink:href="#SimHei-31"/>
      <use xlink:href="#SimHei-31" transform="translate(50 0)"/>
     </g>
    </g>
   </g>
   <g id="text_13">
    <!-- 环形有限穿越可视图 (CLPVG, N=1) -->
    <g transform="translate(160.4 20.075) scale(0.16 -0.16)">
     <defs>
      <path id="SimHei-73af" d="M 5175 4850 
Q 5550 4850 6025 4875 
L 6025 4400 
Q 5600 4425 5175 4425 
L 4700 4425 
Q 4475 3625 4400 3325 
L 4400 275 
Q 4400 -225 4425 -625 
L 3900 -625 
Q 3925 -250 3925 275 
L 3925 2275 
Q 3400 1250 2650 550 
Q 2500 700 2200 875 
Q 2550 1125 2862 1512 
Q 3175 1900 3475 2425 
Q 3775 2950 3912 3400 
Q 4050 3850 4175 4425 
L 3475 4425 
Q 3075 4425 2650 4400 
L 2650 4875 
Q 3075 4850 3475 4850 
L 5175 4850 
z
M 1875 4850 
Q 2125 4850 2450 4875 
L 2450 4425 
Q 2125 4450 1875 4450 
L 1700 4450 
L 1700 3250 
Q 2050 3250 2475 3275 
L 2475 2825 
Q 2025 2850 1700 2850 
L 1700 1425 
Q 1925 1475 2450 1725 
Q 2450 1525 2475 1250 
Q 1725 975 1337 850 
Q 950 725 500 525 
Q 400 775 250 1050 
Q 425 1050 1250 1275 
L 1250 2850 
Q 825 2850 450 2800 
L 450 3275 
Q 825 3250 1250 3250 
L 1250 4450 
L 1025 4450 
Q 700 4450 375 4425 
L 375 4875 
Q 700 4850 1000 4850 
L 1875 4850 
z
M 5000 3125 
Q 5775 2075 6175 1425 
Q 5925 1275 5700 1125 
Q 5325 1800 5112 2125 
Q 4900 2450 4600 2825 
Q 4825 2950 5000 3125 
z
" transform="scale(0.015625)"/>
      <path id="SimHei-5f62" d="M 2750 4850 
Q 3350 4850 3675 4875 
L 3675 4425 
Q 3400 4450 2950 4450 
L 2950 2700 
Q 3475 2700 3725 2725 
L 3725 2250 
Q 3500 2275 2950 2275 
L 2950 500 
Q 2950 -50 2975 -350 
L 2475 -350 
Q 2500 0 2500 475 
L 2500 2275 
L 1650 2275 
Q 1600 1075 1325 437 
Q 1050 -200 825 -500 
Q 550 -300 300 -250 
Q 700 150 937 762 
Q 1175 1375 1200 2275 
Q 775 2275 425 2250 
L 425 2725 
Q 775 2700 1225 2700 
L 1225 4450 
Q 800 4450 600 4425 
L 600 4875 
Q 800 4850 1375 4850 
L 2750 4850 
z
M 6100 1275 
Q 5850 1050 5150 462 
Q 4450 -125 3800 -525 
Q 3650 -300 3400 -100 
Q 4050 175 4725 750 
Q 5400 1325 5625 1650 
Q 5800 1450 6100 1275 
z
M 2500 2700 
L 2500 4450 
L 1675 4450 
L 1675 2700 
L 2500 2700 
z
M 5875 2975 
Q 5650 2825 5187 2300 
Q 4725 1775 3900 1175 
Q 3750 1375 3475 1550 
Q 4175 1950 4625 2412 
Q 5075 2875 5375 3325 
Q 5700 3050 5875 2975 
z
M 5675 4800 
Q 5425 4575 5062 4087 
Q 4700 3600 4075 2975 
Q 3850 3150 3625 3275 
Q 4175 3750 4475 4125 
Q 4775 4500 5125 5100 
Q 5250 5025 5675 4800 
z
" transform="scale(0.015625)"/>
      <path id="SimHei-6709" d="M 275 1625 
Q 850 1975 1400 2537 
Q 1950 3100 2400 3925 
L 1500 3925 
Q 1150 3925 625 3900 
L 625 4375 
Q 1275 4350 1600 4350 
L 2550 4350 
Q 2750 4950 2775 5225 
Q 3150 5125 3375 5075 
Q 3300 5000 3125 4350 
L 5150 4350 
Q 5575 4350 6025 4375 
L 6025 3900 
Q 5575 3925 5225 3925 
L 2975 3925 
Q 2800 3600 2600 3275 
L 5475 3275 
Q 5450 2650 5450 2150 
L 5450 125 
Q 5450 -225 5250 -387 
Q 5050 -550 4400 -600 
Q 4375 -325 4225 0 
Q 4600 -50 4775 -25 
Q 4950 0 4950 250 
L 4950 750 
L 2350 750 
L 2350 -575 
L 1800 -575 
Q 1825 50 1825 500 
L 1825 2275 
Q 1300 1675 725 1225 
Q 625 1400 275 1625 
z
M 4950 2175 
L 4950 2875 
L 2350 2875 
L 2350 2175 
L 4950 2175 
z
M 4950 1150 
L 4950 1775 
L 2350 1775 
L 2350 1150 
L 4950 1150 
z
" transform="scale(0.015625)"/>
      <path id="SimHei-9650" d="M 5550 4950 
Q 5525 4500 5525 3700 
Q 5525 2925 5550 2475 
L 4375 2475 
Q 4375 2000 4625 1475 
Q 5275 1900 5475 2250 
Q 5675 1950 5850 1800 
Q 5400 1575 4750 1150 
Q 5025 775 5325 500 
Q 5625 225 6200 25 
Q 5900 -125 5750 -450 
Q 5150 -75 4812 312 
Q 4475 700 4262 1212 
Q 4050 1725 3975 2475 
L 3400 2475 
L 3400 200 
Q 3800 400 4125 675 
Q 4150 450 4225 150 
Q 4000 25 3637 -175 
Q 3275 -375 3025 -575 
Q 2925 -375 2750 -125 
Q 2900 25 2950 325 
L 2950 3850 
Q 2950 4350 2925 4950 
L 5550 4950 
z
M 2500 4950 
Q 2050 3475 1875 2950 
Q 2375 2350 2450 1850 
Q 2525 1350 2237 1025 
Q 1950 700 1525 575 
Q 1500 900 1300 1150 
Q 1750 1150 1875 1325 
Q 2000 1500 1975 1887 
Q 1950 2275 1375 2925 
Q 1775 4050 1875 4550 
L 1125 4550 
L 1125 -500 
L 650 -500 
Q 675 200 675 875 
L 675 3800 
Q 675 4250 650 4950 
L 2500 4950 
z
M 5075 2875 
L 5075 3550 
L 3400 3550 
L 3400 2875 
L 5075 2875 
z
M 5075 3925 
L 5075 4550 
L 3400 4550 
L 3400 3925 
L 5075 3925 
z
" transform="scale(0.015625)"/>
      <path id="SimHei-7a7f" d="M 4825 2900 
Q 5100 2900 5600 2925 
L 5600 2475 
Q 5100 2500 4825 2500 
L 4525 2500 
L 4525 1700 
L 5100 1700 
Q 5525 1700 6000 1725 
L 6000 1275 
Q 5425 1300 5100 1300 
L 4525 1300 
L 4525 0 
Q 4525 -425 4212 -500 
Q 3900 -575 3425 -625 
Q 3375 -325 3200 0 
Q 3725 -25 3875 0 
Q 4025 25 4025 400 
L 4025 1300 
L 3850 1300 
Q 3525 975 3225 737 
Q 2925 500 2562 300 
Q 2200 100 1775 -62 
Q 1350 -225 725 -425 
Q 575 -200 350 50 
Q 825 100 1262 237 
Q 1700 375 2050 537 
Q 2400 700 2687 887 
Q 2975 1075 3200 1300 
Q 2525 1300 2025 1287 
Q 1525 1275 1150 1200 
Q 1050 1450 950 1675 
Q 1200 1775 1337 2025 
Q 1475 2275 1575 2500 
Q 1250 2500 825 2475 
L 825 2925 
Q 1225 2900 1550 2900 
L 4825 2900 
z
M 3325 5275 
Q 3425 5000 3575 4550 
L 5950 4550 
Q 5925 4300 5925 4025 
Q 5925 3775 5950 3475 
L 5450 3475 
L 5450 4150 
L 1125 4150 
L 1125 3500 
L 600 3500 
Q 625 3800 625 4050 
Q 625 4325 600 4550 
L 3000 4550 
Q 2950 4775 2800 5100 
Q 3050 5150 3325 5275 
z
M 4025 1700 
L 4025 2500 
L 2125 2500 
Q 1825 1950 1650 1700 
L 4025 1700 
z
M 4000 4050 
Q 4325 3900 4650 3762 
Q 4975 3625 5375 3450 
Q 5225 3250 5050 3000 
Q 4800 3150 4475 3325 
Q 4150 3500 3700 3700 
Q 3875 3875 4000 4050 
z
M 2875 3625 
Q 2675 3575 2287 3387 
Q 1900 3200 1475 2975 
Q 1300 3225 1175 3400 
Q 1675 3550 1950 3700 
Q 2225 3850 2475 4050 
Q 2625 3875 2875 3625 
z
" transform="scale(0.015625)"/>
      <path id="SimHei-8d8a" d="M 1275 1875 
Q 1225 1525 1175 1125 
Q 1400 825 1750 600 
L 1750 2550 
Q 975 2550 500 2525 
L 500 2925 
Q 975 2900 1625 2900 
L 1625 3850 
Q 1075 3850 700 3825 
L 700 4225 
Q 1075 4200 1625 4200 
Q 1625 4700 1600 5125 
L 2075 5125 
Q 2050 4750 2050 4200 
Q 2475 4200 2850 4225 
L 2850 3825 
Q 2475 3850 2050 3850 
L 2050 2900 
Q 2450 2900 2900 2925 
L 2900 2525 
Q 2475 2550 2175 2550 
L 2175 1700 
Q 2450 1700 2800 1725 
L 2800 1350 
Q 2450 1375 2175 1375 
L 2175 350 
Q 2925 0 4162 -25 
Q 5400 -50 6025 50 
Q 5850 -250 5825 -475 
Q 4900 -475 4137 -462 
Q 3375 -450 2825 -312 
Q 2275 -175 1850 50 
Q 1425 275 1100 650 
Q 925 -75 675 -525 
Q 450 -325 350 -250 
Q 575 175 662 537 
Q 750 900 787 1287 
Q 825 1675 825 2000 
Q 1075 1900 1275 1875 
z
M 4600 5000 
Q 4550 4725 4550 4500 
L 4550 3975 
Q 5350 3975 5825 4000 
L 5825 3625 
Q 5350 3650 4575 3650 
Q 4600 3400 4650 2837 
Q 4700 2275 4800 1875 
Q 5100 2550 5225 3200 
Q 5425 3050 5675 2950 
Q 5550 2800 5400 2387 
Q 5250 1975 5000 1375 
Q 5100 1125 5300 937 
Q 5500 750 5600 1425 
Q 5800 1200 6000 1125 
Q 5800 500 5525 350 
Q 5250 200 4725 1025 
Q 4375 600 4000 225 
Q 3825 400 3625 475 
Q 3850 625 4087 850 
Q 4325 1075 4500 1425 
Q 4300 2075 4175 3650 
L 3550 3650 
L 3550 1525 
Q 3750 1650 4025 1900 
Q 4075 1675 4175 1475 
Q 3975 1325 3737 1150 
Q 3500 975 3250 775 
Q 3150 950 3000 1150 
Q 3150 1250 3150 1475 
L 3150 3200 
Q 3150 3525 3125 3975 
L 4150 3975 
Q 4125 4650 4100 5075 
Q 4375 5000 4600 5000 
z
M 5100 4975 
Q 5300 4800 5750 4425 
Q 5600 4325 5475 4125 
Q 5150 4475 4825 4700 
Q 4975 4825 5100 4975 
z
" transform="scale(0.015625)"/>
      <path id="SimHei-53ef" d="M 3600 3500 
Q 3575 3175 3575 2775 
L 3575 1550 
Q 3575 1125 3600 825 
L 3075 825 
L 3075 1275 
L 1650 1275 
L 1650 600 
L 1150 600 
Q 1175 775 1175 1175 
L 1175 2775 
Q 1175 3175 1150 3500 
L 3600 3500 
z
M 5200 4675 
Q 5600 4675 6050 4700 
L 6050 4225 
Q 5650 4250 5225 4250 
L 5075 4250 
L 5075 125 
Q 5075 -325 4812 -462 
Q 4550 -600 3750 -675 
Q 3700 -350 3550 -75 
Q 4075 -100 4300 -50 
Q 4525 0 4525 225 
L 4525 4250 
L 1525 4250 
Q 875 4250 350 4225 
L 350 4700 
Q 875 4675 1500 4675 
L 5200 4675 
z
M 3075 1700 
L 3075 3075 
L 1650 3075 
L 1650 1700 
L 3075 1700 
z
" transform="scale(0.015625)"/>
      <path id="SimHei-89c6" d="M 4500 3875 
Q 4400 3700 4375 3187 
Q 4350 2675 4225 1750 
L 4675 1750 
Q 4650 1500 4650 1075 
L 4650 400 
Q 4650 25 4825 12 
Q 5000 0 5225 0 
Q 5475 0 5537 100 
Q 5600 200 5650 725 
Q 5925 550 6175 500 
Q 6000 -425 5600 -425 
L 4600 -425 
Q 4200 -400 4200 100 
L 4200 1600 
Q 3900 800 3525 325 
Q 3150 -150 2500 -650 
Q 2300 -425 2050 -325 
Q 2750 100 3150 625 
Q 3550 1150 3712 1725 
Q 3875 2300 3900 2875 
Q 3925 3450 3875 3975 
Q 4175 3925 4500 3875 
z
M 5525 4875 
Q 5500 4475 5500 3925 
L 5500 2550 
Q 5500 2100 5525 1625 
L 5050 1625 
L 5050 4475 
L 3275 4475 
L 3275 1600 
L 2800 1600 
Q 2825 2025 2825 2525 
L 2825 3900 
Q 2825 4425 2800 4875 
L 5525 4875 
z
M 2275 3900 
Q 2200 3650 2062 3287 
Q 1925 2925 1650 2475 
L 1650 475 
Q 1650 25 1675 -625 
L 1175 -625 
Q 1200 75 1200 500 
L 1200 1875 
Q 950 1525 500 1125 
Q 350 1375 200 1525 
Q 725 1925 1100 2475 
Q 1475 3025 1650 3500 
L 1025 3500 
Q 650 3500 350 3475 
L 350 3925 
Q 725 3900 1025 3900 
L 2275 3900 
z
M 1350 5225 
Q 1675 4750 1900 4400 
Q 1725 4275 1450 4100 
Q 1250 4550 950 4950 
Q 1175 5075 1350 5225 
z
M 2025 2500 
Q 2325 2075 2550 1675 
Q 2350 1575 2150 1375 
Q 1925 1825 1675 2225 
Q 1850 2350 2025 2500 
z
" transform="scale(0.015625)"/>
      <path id="SimHei-56fe" d="M 5800 4975 
Q 5775 4350 5775 3600 
L 5775 925 
Q 5775 150 5800 -600 
L 5300 -600 
L 5300 -275 
L 1125 -275 
L 1125 -650 
L 625 -650 
Q 650 125 650 950 
L 650 3600 
Q 650 4325 625 4975 
L 5800 4975 
z
M 5300 150 
L 5300 4575 
L 1125 4575 
L 1125 150 
L 5300 150 
z
M 3225 4250 
Q 3075 4100 2950 3925 
L 4625 3925 
Q 4525 3700 4300 3375 
Q 4075 3050 3600 2600 
Q 4350 2225 5075 2150 
Q 4900 1925 4775 1675 
Q 3850 1950 3225 2350 
Q 2500 1875 1675 1650 
Q 1600 1875 1400 2075 
Q 2200 2200 2875 2600 
Q 2525 2925 2375 3150 
Q 2150 2900 1900 2650 
Q 1725 2850 1525 2950 
Q 1950 3300 2250 3737 
Q 2550 4175 2675 4475 
Q 2925 4350 3225 4250 
z
M 2450 1275 
Q 3550 950 4100 725 
Q 3975 525 3850 300 
Q 2825 725 2275 850 
Q 2375 1050 2450 1275 
z
M 2925 2050 
Q 3775 1700 4075 1600 
Q 3950 1400 3850 1150 
Q 3000 1550 2700 1650 
Q 2825 1825 2925 2050 
z
M 2625 3450 
Q 3000 3025 3275 2850 
Q 3600 3100 3875 3525 
L 2675 3525 
L 2625 3450 
z
" transform="scale(0.015625)"/>
      <path id="SimHei-20" transform="scale(0.015625)"/>
      <path id="SimHei-28" d="M 2975 -200 
L 2700 -475 
Q 2075 125 1762 775 
Q 1450 1425 1450 2250 
Q 1450 3075 1762 3725 
Q 2075 4375 2700 5000 
L 2975 4725 
Q 2400 4175 2112 3587 
Q 1825 3000 1825 2250 
Q 1825 1500 2112 912 
Q 2400 325 2975 -200 
z
" transform="scale(0.015625)"/>
      <path id="SimHei-43" d="M 2975 1825 
Q 2950 875 2575 475 
Q 2200 75 1675 75 
Q 1075 75 650 562 
Q 225 1050 225 2125 
Q 225 3300 637 3875 
Q 1050 4450 1700 4450 
Q 2250 4450 2612 4037 
Q 2975 3625 2950 2875 
L 2400 2875 
Q 2400 3425 2225 3700 
Q 2050 3975 1700 3975 
Q 1300 3975 1062 3562 
Q 825 3150 825 2175 
Q 825 1275 1062 912 
Q 1300 550 1675 550 
Q 1950 550 2175 812 
Q 2400 1075 2400 1825 
L 2975 1825 
z
" transform="scale(0.015625)"/>
      <path id="SimHei-4c" d="M 2900 125 
L 300 125 
L 300 4400 
L 875 4400 
L 875 600 
L 2900 600 
L 2900 125 
z
" transform="scale(0.015625)"/>
      <path id="SimHei-50" d="M 2950 3100 
Q 2950 2500 2600 2150 
Q 2250 1800 1625 1800 
L 900 1800 
L 900 125 
L 325 125 
L 325 4400 
L 1625 4400 
Q 2250 4400 2600 4050 
Q 2950 3700 2950 3100 
z
M 2375 3100 
Q 2375 3575 2150 3750 
Q 1925 3925 1475 3925 
L 900 3925 
L 900 2275 
L 1475 2275 
Q 1925 2275 2150 2450 
Q 2375 2625 2375 3100 
z
" transform="scale(0.015625)"/>
      <path id="SimHei-56" d="M 3050 4400 
L 1800 75 
L 1300 75 
L 50 4400 
L 650 4400 
L 1525 1125 
L 1575 1125 
L 2450 4400 
L 3050 4400 
z
" transform="scale(0.015625)"/>
      <path id="SimHei-47" d="M 2850 75 
L 2425 75 
L 2350 425 
Q 2250 275 2037 175 
Q 1825 75 1575 75 
Q 1050 75 637 562 
Q 225 1050 225 2125 
Q 225 3300 600 3875 
Q 975 4450 1625 4450 
Q 2200 4450 2525 4025 
Q 2850 3600 2850 2925 
L 2300 2925 
Q 2300 3450 2125 3712 
Q 1950 3975 1625 3975 
Q 1225 3975 1025 3562 
Q 825 3150 825 2175 
Q 825 1250 1075 900 
Q 1325 550 1650 550 
Q 1975 550 2162 787 
Q 2350 1025 2350 1525 
L 2350 1800 
L 1575 1800 
L 1575 2275 
L 2850 2275 
L 2850 75 
z
" transform="scale(0.015625)"/>
      <path id="SimHei-2c" d="M 1100 125 
L 775 -550 
L 525 -550 
L 775 125 
L 525 125 
L 525 675 
L 1100 675 
L 1100 125 
z
" transform="scale(0.015625)"/>
      <path id="SimHei-4e" d="M 2850 125 
L 2225 125 
L 850 3225 
L 825 3225 
L 825 125 
L 250 125 
L 250 4400 
L 875 4400 
L 2250 1300 
L 2275 1300 
L 2275 4400 
L 2850 4400 
L 2850 125 
z
" transform="scale(0.015625)"/>
      <path id="SimHei-3d" d="M 2975 2900 
L 125 2900 
L 125 3300 
L 2975 3300 
L 2975 2900 
z
M 2975 1375 
L 125 1375 
L 125 1775 
L 2975 1775 
L 2975 1375 
z
" transform="scale(0.015625)"/>
      <path id="SimHei-29" d="M 1675 2250 
Q 1675 1425 1362 775 
Q 1050 125 425 -475 
L 150 -200 
Q 725 325 1012 912 
Q 1300 1500 1300 2250 
Q 1300 3000 1012 3587 
Q 725 4175 150 4725 
L 425 5000 
Q 1050 4375 1362 3725 
Q 1675 3075 1675 2250 
z
" transform="scale(0.015625)"/>
     </defs>
     <use xlink:href="#SimHei-73af"/>
     <use xlink:href="#SimHei-5f62" transform="translate(100 0)"/>
     <use xlink:href="#SimHei-6709" transform="translate(200 0)"/>
     <use xlink:href="#SimHei-9650" transform="translate(300 0)"/>
     <use xlink:href="#SimHei-7a7f" transform="translate(400 0)"/>
     <use xlink:href="#SimHei-8d8a" transform="translate(500 0)"/>
     <use xlink:href="#SimHei-53ef" transform="translate(600 0)"/>
     <use xlink:href="#SimHei-89c6" transform="translate(700 0)"/>
     <use xlink:href="#SimHei-56fe" transform="translate(800 0)"/>
     <use xlink:href="#SimHei-20" transform="translate(900 0)"/>
     <use xlink:href="#SimHei-28" transform="translate(950 0)"/>
     <use xlink:href="#SimHei-43" transform="translate(1000 0)"/>
     <use xlink:href="#SimHei-4c" transform="translate(1050 0)"/>
     <use xlink:href="#SimHei-50" transform="translate(1100 0)"/>
     <use xlink:href="#SimHei-56" transform="translate(1150 0)"/>
     <use xlink:href="#SimHei-47" transform="translate(1200 0)"/>
     <use xlink:href="#SimHei-2c" transform="translate(1250 0)"/>
     <use xlink:href="#SimHei-20" transform="translate(1300 0)"/>
     <use xlink:href="#SimHei-4e" transform="translate(1350 0)"/>
     <use xlink:href="#SimHei-3d" transform="translate(1400 0)"/>
     <use xlink:href="#SimHei-31" transform="translate(1450 0)"/>
     <use xlink:href="#SimHei-29" transform="translate(1500 0)"/>
    </g>
   </g>
  </g>
 </g>
 <defs>
  <clipPath id="p6e6cc723bb">
   <rect x="7.2" y="26.075" width="554.4" height="506.85375"/>
  </clipPath>
 </defs>
</svg>
