<?xml version="1.0" encoding="utf-8" standalone="no"?>
<!DOCTYPE svg PUBLIC "-//W3C//DTD SVG 1.1//EN"
  "http://www.w3.org/Graphics/SVG/1.1/DTD/svg11.dtd">
<svg xmlns:xlink="http://www.w3.org/1999/xlink" width="712.84875pt" height="638.64pt" viewBox="0 0 712.84875 638.64" xmlns="http://www.w3.org/2000/svg" version="1.1">
 <metadata>
  <rdf:RDF xmlns:dc="http://purl.org/dc/elements/1.1/" xmlns:cc="http://creativecommons.org/ns#" xmlns:rdf="http://www.w3.org/1999/02/22-rdf-syntax-ns#">
   <cc:Work>
    <dc:type rdf:resource="http://purl.org/dc/dcmitype/StillImage"/>
    <dc:date>2025-10-24T12:52:41.915398</dc:date>
    <dc:format>image/svg+xml</dc:format>
    <dc:creator>
     <cc:Agent>
      <dc:title>Matplotlib v3.10.6, https://matplotlib.org/</dc:title>
     </cc:Agent>
    </dc:creator>
   </cc:Work>
  </rdf:RDF>
 </metadata>
 <defs>
  <style type="text/css">*{stroke-linejoin: round; stroke-linecap: butt}</style>
 </defs>
 <g id="figure_1">
  <g id="patch_1">
   <path d="M 0 638.64 
L 712.84875 638.64 
L 712.84875 0 
L 0 0 
z
" style="fill: #ffffff"/>
  </g>
  <g id="axes_1">
   <g id="patch_2">
    <path d="M 43.8875 326.009375 
L 705.64875 326.009375 
L 705.64875 79.02375 
L 43.8875 79.02375 
z
" style="fill: #ffffff"/>
   </g>
   <g id="patch_3">
    <path d="M 67.903029 326.009375 
L 94.586951 326.009375 
L 94.586951 239.564406 
L 67.903029 239.564406 
z
" clip-path="url(#p599a1e3179)" style="fill: #d3d3d3; stroke: #696969; stroke-linejoin: miter"/>
   </g>
   <g id="patch_4">
    <path d="M 121.270872 326.009375 
L 147.954793 326.009375 
L 147.954793 158.05915 
L 121.270872 158.05915 
z
" clip-path="url(#p599a1e3179)" style="fill: #d3d3d3; stroke: #696969; stroke-linejoin: miter"/>
   </g>
   <g id="patch_5">
    <path d="M 174.638715 326.009375 
L 201.322636 326.009375 
L 201.322636 123.481162 
L 174.638715 123.481162 
z
" clip-path="url(#p599a1e3179)" style="fill: #d3d3d3; stroke: #696969; stroke-linejoin: miter"/>
   </g>
   <g id="patch_6">
    <path d="M 228.006557 326.009375 
L 254.690479 326.009375 
L 254.690479 281.551962 
L 228.006557 281.551962 
z
" clip-path="url(#p599a1e3179)" style="fill: #d3d3d3; stroke: #696969; stroke-linejoin: miter"/>
   </g>
   <g id="patch_7">
    <path d="M 281.3744 326.009375 
L 308.058322 326.009375 
L 308.058322 239.564406 
L 281.3744 239.564406 
z
" clip-path="url(#p599a1e3179)" style="fill: #d3d3d3; stroke: #696969; stroke-linejoin: miter"/>
   </g>
   <g id="patch_8">
    <path d="M 334.742243 326.009375 
L 361.426164 326.009375 
L 361.426164 158.05915 
L 334.742243 158.05915 
z
" clip-path="url(#p599a1e3179)" style="fill: #d3d3d3; stroke: #696969; stroke-linejoin: miter"/>
   </g>
   <g id="patch_9">
    <path d="M 388.110086 326.009375 
L 414.794007 326.009375 
L 414.794007 123.481162 
L 388.110086 123.481162 
z
" clip-path="url(#p599a1e3179)" style="fill: #d3d3d3; stroke: #696969; stroke-linejoin: miter"/>
   </g>
   <g id="patch_10">
    <path d="M 441.477928 326.009375 
L 468.16185 326.009375 
L 468.16185 281.551962 
L 441.477928 281.551962 
z
" clip-path="url(#p599a1e3179)" style="fill: #d3d3d3; stroke: #696969; stroke-linejoin: miter"/>
   </g>
   <g id="patch_11">
    <path d="M 494.845771 326.009375 
L 521.529693 326.009375 
L 521.529693 239.564406 
L 494.845771 239.564406 
z
" clip-path="url(#p599a1e3179)" style="fill: #d3d3d3; stroke: #696969; stroke-linejoin: miter"/>
   </g>
   <g id="patch_12">
    <path d="M 548.213614 326.009375 
L 574.897535 326.009375 
L 574.897535 158.05915 
L 548.213614 158.05915 
z
" clip-path="url(#p599a1e3179)" style="fill: #d3d3d3; stroke: #696969; stroke-linejoin: miter"/>
   </g>
   <g id="patch_13">
    <path d="M 601.581457 326.009375 
L 628.265378 326.009375 
L 628.265378 123.481162 
L 601.581457 123.481162 
z
" clip-path="url(#p599a1e3179)" style="fill: #d3d3d3; stroke: #696969; stroke-linejoin: miter"/>
   </g>
   <g id="patch_14">
    <path d="M 654.949299 326.009375 
L 681.633221 326.009375 
L 681.633221 281.551962 
L 654.949299 281.551962 
z
" clip-path="url(#p599a1e3179)" style="fill: #d3d3d3; stroke: #696969; stroke-linejoin: miter"/>
   </g>
   <g id="patch_15">
    <path d="M 294.716361 239.564406 
L 284.864577 266.105058 
L 284.198233 247.964888 
L 241.35299 281.673709 
L 241.344046 281.430216 
L 284.189289 247.721396 
L 283.522945 229.581225 
z
" clip-path="url(#p599a1e3179)" style="stroke: #000000; stroke-width: 1.2; stroke-linejoin: miter"/>
   </g>
   <g id="patch_16">
    <path d="M 401.452046 123.481162 
L 391.977195 152.814331 
L 391.067635 134.901863 
L 294.722465 239.684624 
L 294.710256 239.444188 
L 391.055426 134.661427 
L 390.145866 116.74896 
z
" clip-path="url(#p599a1e3179)" style="stroke: #000000; stroke-width: 1.2; stroke-linejoin: miter"/>
   </g>
   <g id="patch_17">
    <path d="M 454.819889 281.551962 
L 443.494236 287.542244 
L 444.458535 269.691206 
L 348.077732 158.178956 
L 348.090675 157.939344 
L 444.471478 269.451594 
L 445.435777 251.600556 
z
" clip-path="url(#p599a1e3179)" style="stroke: #000000; stroke-width: 1.2; stroke-linejoin: miter"/>
   </g>
   <g id="patch_18">
    <path d="M 187.980675 123.481162 
L 178.505824 152.814331 
L 177.596264 134.901863 
L 81.251094 239.684624 
L 81.238885 239.444188 
L 177.584055 134.661427 
L 176.674495 116.74896 
z
" clip-path="url(#p599a1e3179)" style="stroke: #000000; stroke-width: 1.2; stroke-linejoin: miter"/>
   </g>
   <g id="patch_19">
    <path d="M 561.555575 158.05915 
L 552.673969 191.129942 
L 551.42801 173.656368 
L 508.196094 239.681679 
L 508.17937 239.447134 
L 551.411286 173.421823 
L 550.165327 155.948248 
z
" clip-path="url(#p599a1e3179)" style="stroke: #000000; stroke-width: 1.2; stroke-linejoin: miter"/>
   </g>
   <g id="patch_20">
    <path d="M 668.29126 281.551962 
L 656.965607 287.542244 
L 657.929906 269.691206 
L 561.549103 158.178956 
L 561.562046 157.939344 
L 657.942849 269.451594 
L 658.907148 251.600556 
z
" clip-path="url(#p599a1e3179)" style="stroke: #000000; stroke-width: 1.2; stroke-linejoin: miter"/>
   </g>
   <g id="patch_21">
    <path d="M 348.084204 158.05915 
L 337.235654 174.260241 
L 337.420995 155.879815 
L 187.979432 123.604521 
L 187.981919 123.357804 
L 337.423482 155.633098 
L 337.608823 137.252673 
z
" clip-path="url(#p599a1e3179)" style="stroke: #000000; stroke-width: 1.2; stroke-linejoin: miter"/>
   </g>
   <g id="patch_22">
    <path d="M 241.348518 281.551962 
L 230.022865 287.542244 
L 230.987164 269.691206 
L 134.606361 158.178956 
L 134.619304 157.939344 
L 231.000107 269.451594 
L 231.964406 251.600556 
z
" clip-path="url(#p599a1e3179)" style="stroke: #000000; stroke-width: 1.2; stroke-linejoin: miter"/>
   </g>
   <g id="patch_23">
    <path d="M 614.923417 123.481162 
L 605.319838 151.903566 
L 604.490311 133.908078 
L 454.825456 281.672738 
L 454.814322 281.431187 
L 604.479176 133.666528 
L 603.64965 115.67104 
z
" clip-path="url(#p599a1e3179)" style="stroke: #000000; stroke-width: 1.2; stroke-linejoin: miter"/>
   </g>
   <g id="patch_24">
    <path d="M 508.187732 239.564406 
L 496.881552 246.296609 
L 497.791112 228.384141 
L 401.445942 123.60138 
L 401.458151 123.360945 
L 497.80332 228.143706 
L 498.71288 210.231238 
z
" clip-path="url(#p599a1e3179)" style="stroke: #000000; stroke-width: 1.2; stroke-linejoin: miter"/>
   </g>
   <g id="patch_25">
    <path d="M 348.084204 158.05915 
L 339.202598 191.129942 
L 337.956639 173.656368 
L 294.724723 239.681679 
L 294.707999 239.447134 
L 337.939915 173.421823 
L 336.693956 155.948248 
z
" clip-path="url(#p599a1e3179)" style="stroke: #000000; stroke-width: 1.2; stroke-linejoin: miter"/>
   </g>
   <g id="patch_26">
    <path d="M 401.452046 123.481162 
L 391.436516 148.674981 
L 390.885266 130.452267 
L 348.087903 158.18145 
L 348.080504 157.93685 
L 390.877866 130.207667 
L 390.326616 111.984954 
z
" clip-path="url(#p599a1e3179)" style="stroke: #000000; stroke-width: 1.2; stroke-linejoin: miter"/>
   </g>
   <g id="patch_27">
    <path d="M 401.452046 123.481162 
L 391.848467 151.903566 
L 391.01894 133.908078 
L 241.354085 281.672738 
L 241.342951 281.431187 
L 391.007805 133.666528 
L 390.178279 115.67104 
z
" clip-path="url(#p599a1e3179)" style="stroke: #000000; stroke-width: 1.2; stroke-linejoin: miter"/>
   </g>
   <g id="patch_28">
    <path d="M 134.612833 158.05915 
L 125.731227 191.129942 
L 124.485268 173.656368 
L 81.253352 239.681679 
L 81.236628 239.447134 
L 124.468544 173.421823 
L 123.222585 155.948248 
z
" clip-path="url(#p599a1e3179)" style="stroke: #000000; stroke-width: 1.2; stroke-linejoin: miter"/>
   </g>
   <g id="patch_29">
    <path d="M 614.923417 123.481162 
L 604.907887 148.674981 
L 604.356636 130.452267 
L 561.559274 158.18145 
L 561.551875 157.93685 
L 604.349237 130.207667 
L 603.797987 111.984954 
z
" clip-path="url(#p599a1e3179)" style="stroke: #000000; stroke-width: 1.2; stroke-linejoin: miter"/>
   </g>
   <g id="patch_30">
    <path d="M 294.716361 239.564406 
L 283.410181 246.296609 
L 284.319741 228.384141 
L 187.974571 123.60138 
L 187.98678 123.360945 
L 284.33195 228.143706 
L 285.241509 210.231238 
z
" clip-path="url(#p599a1e3179)" style="stroke: #000000; stroke-width: 1.2; stroke-linejoin: miter"/>
   </g>
   <g id="patch_31">
    <path d="M 187.980675 123.481162 
L 177.965145 148.674981 
L 177.413895 130.452267 
L 134.616532 158.18145 
L 134.609133 157.93685 
L 177.406495 130.207667 
L 176.855245 111.984954 
z
" clip-path="url(#p599a1e3179)" style="stroke: #000000; stroke-width: 1.2; stroke-linejoin: miter"/>
   </g>
   <g id="patch_32">
    <path d="M 668.29126 281.551962 
L 657.143609 270.526429 
L 659.286834 255.028274 
L 614.909033 123.585177 
L 614.937801 123.377148 
L 659.315603 254.820245 
L 661.458829 239.32209 
z
" clip-path="url(#p599a1e3179)" style="stroke: #000000; stroke-width: 1.2; stroke-linejoin: miter"/>
   </g>
   <g id="patch_33">
    <path d="M 561.555575 158.05915 
L 552.171462 188.010556 
L 551.207164 170.159518 
L 454.826361 281.671768 
L 454.813417 281.432157 
L 551.19422 169.919907 
L 550.229922 152.068869 
z
" clip-path="url(#p599a1e3179)" style="stroke: #000000; stroke-width: 1.2; stroke-linejoin: miter"/>
   </g>
   <g id="patch_34">
    <path d="M 454.819889 281.551962 
L 443.672238 270.526429 
L 445.815464 255.028274 
L 401.437662 123.585177 
L 401.46643 123.377148 
L 445.844232 254.820245 
L 447.987458 239.32209 
z
" clip-path="url(#p599a1e3179)" style="stroke: #000000; stroke-width: 1.2; stroke-linejoin: miter"/>
   </g>
   <g id="patch_35">
    <path d="M 614.923417 123.481162 
L 604.249849 142.005084 
L 604.249849 123.604655 
L 401.452046 123.604655 
L 401.452046 123.35767 
L 604.249849 123.35767 
L 604.249849 104.957241 
z
" clip-path="url(#p599a1e3179)" style="stroke: #000000; stroke-width: 1.2; stroke-linejoin: miter"/>
   </g>
   <g id="patch_36">
    <path d="M 348.084204 158.05915 
L 338.700091 188.010556 
L 337.735793 170.159518 
L 241.35499 281.671768 
L 241.342046 281.432157 
L 337.722849 169.919907 
L 336.758551 152.068869 
z
" clip-path="url(#p599a1e3179)" style="stroke: #000000; stroke-width: 1.2; stroke-linejoin: miter"/>
   </g>
   <g id="patch_37">
    <path d="M 614.923417 123.481162 
L 605.448566 152.814331 
L 604.539006 134.901863 
L 508.193836 239.684624 
L 508.181627 239.444188 
L 604.526797 134.661427 
L 603.617237 116.74896 
z
" clip-path="url(#p599a1e3179)" style="stroke: #000000; stroke-width: 1.2; stroke-linejoin: miter"/>
   </g>
   <g id="patch_38">
    <path d="M 241.348518 281.551962 
L 230.200867 270.526429 
L 232.344093 255.028274 
L 187.966291 123.585177 
L 187.995059 123.377148 
L 232.372861 254.820245 
L 234.516087 239.32209 
z
" clip-path="url(#p599a1e3179)" style="stroke: #000000; stroke-width: 1.2; stroke-linejoin: miter"/>
   </g>
   <g id="patch_39">
    <path d="M 401.452046 123.481162 
L 390.778478 142.005084 
L 390.778478 123.604655 
L 187.980675 123.604655 
L 187.980675 123.35767 
L 390.778478 123.35767 
L 390.778478 104.957241 
z
" clip-path="url(#p599a1e3179)" style="stroke: #000000; stroke-width: 1.2; stroke-linejoin: miter"/>
   </g>
   <g id="patch_40">
    <path d="M 561.555575 158.05915 
L 550.707025 174.260241 
L 550.892366 155.879815 
L 401.450802 123.604521 
L 401.45329 123.357804 
L 550.894853 155.633098 
L 551.080194 137.252673 
z
" clip-path="url(#p599a1e3179)" style="stroke: #000000; stroke-width: 1.2; stroke-linejoin: miter"/>
   </g>
   <g id="patch_41">
    <path d="M 508.187732 239.564406 
L 498.335948 266.105058 
L 497.669604 247.964888 
L 454.824361 281.673709 
L 454.815417 281.430216 
L 497.66066 247.721396 
L 496.994316 229.581225 
z
" clip-path="url(#p599a1e3179)" style="stroke: #000000; stroke-width: 1.2; stroke-linejoin: miter"/>
   </g>
   <g id="patch_42">
    <path d="M 454.819889 281.551962 
L 443.724513 293.654313 
L 444.229311 275.402793 
L 187.977288 123.603656 
L 187.984063 123.358669 
L 444.236086 275.157806 
L 444.740884 256.906286 
z
" clip-path="url(#p599a1e3179)" style="fill: #0000ff; stroke-dasharray: 4.44,1.92; stroke-dashoffset: 0; stroke: #0000ff; stroke-width: 1.2; stroke-linejoin: miter"/>
   </g>
   <g id="patch_43">
    <path d="M 668.29126 281.551962 
L 657.195884 293.654313 
L 657.700682 275.402793 
L 401.448658 123.603656 
L 401.455434 123.358669 
L 657.707457 275.157806 
L 658.212255 256.906286 
z
" clip-path="url(#p599a1e3179)" style="fill: #0000ff; stroke-dasharray: 4.44,1.92; stroke-dashoffset: 0; stroke: #0000ff; stroke-width: 1.2; stroke-linejoin: miter"/>
   </g>
   <g id="patch_44">
    <path d="M 348.084204 158.05915 
L 337.410635 176.583072 
L 337.410635 158.182643 
L 134.612833 158.182643 
L 134.612833 157.935657 
L 337.410635 157.935657 
L 337.410635 139.535228 
z
" clip-path="url(#p599a1e3179)" style="fill: #0000ff; stroke-dasharray: 4.44,1.92; stroke-dashoffset: 0; stroke: #0000ff; stroke-width: 1.2; stroke-linejoin: miter"/>
   </g>
   <g id="patch_45">
    <path d="M 508.187732 239.564406 
L 497.140513 252.57616 
L 497.575241 234.286053 
L 348.081286 158.181902 
L 348.087121 157.936398 
L 497.581076 234.040549 
L 498.015803 215.750442 
z
" clip-path="url(#p599a1e3179)" style="fill: #0000ff; stroke-dasharray: 4.44,1.92; stroke-dashoffset: 0; stroke: #0000ff; stroke-width: 1.2; stroke-linejoin: miter"/>
   </g>
   <g id="patch_46">
    <path d="M 614.923417 123.481162 
L 604.249849 142.005084 
L 604.249849 123.604655 
L 187.980675 123.604655 
L 187.980675 123.35767 
L 604.249849 123.35767 
L 604.249849 104.957241 
z
" clip-path="url(#p599a1e3179)" style="fill: #0000ff; stroke-dasharray: 4.44,1.92; stroke-dashoffset: 0; stroke: #0000ff; stroke-width: 1.2; stroke-linejoin: miter"/>
   </g>
   <g id="patch_47">
    <path d="M 241.348518 281.551962 
L 230.465595 297.251528 
L 230.690536 278.880571 
L 81.24348 239.687701 
L 81.2465 239.441111 
L 230.693555 278.63398 
L 230.918495 260.263023 
z
" clip-path="url(#p599a1e3179)" style="fill: #0000ff; stroke-dasharray: 4.44,1.92; stroke-dashoffset: 0; stroke: #0000ff; stroke-width: 1.2; stroke-linejoin: miter"/>
   </g>
   <g id="patch_48">
    <path d="M 294.716361 239.564406 
L 283.669142 252.57616 
L 284.10387 234.286053 
L 134.609915 158.181902 
L 134.61575 157.936398 
L 284.109705 234.040549 
L 284.544432 215.750442 
z
" clip-path="url(#p599a1e3179)" style="fill: #0000ff; stroke-dasharray: 4.44,1.92; stroke-dashoffset: 0; stroke: #0000ff; stroke-width: 1.2; stroke-linejoin: miter"/>
   </g>
   <g id="patch_49">
    <path d="M 561.555575 158.05915 
L 550.804104 175.591623 
L 550.883607 157.194873 
L 187.980142 123.604631 
L 187.981209 123.357694 
L 550.884674 156.947937 
L 550.964176 138.551187 
z
" clip-path="url(#p599a1e3179)" style="fill: #0000ff; stroke-dasharray: 4.44,1.92; stroke-dashoffset: 0; stroke: #0000ff; stroke-width: 1.2; stroke-linejoin: miter"/>
   </g>
   <g id="patch_50">
    <path d="M 614.923417 123.481162 
L 604.366059 143.380405 
L 604.254777 124.987185 
L 348.08495 158.182594 
L 348.083457 157.935706 
L 604.253284 124.740296 
L 604.142002 106.347075 
z
" clip-path="url(#p599a1e3179)" style="fill: #0000ff; stroke-dasharray: 4.44,1.92; stroke-dashoffset: 0; stroke: #0000ff; stroke-width: 1.2; stroke-linejoin: miter"/>
   </g>
   <g id="patch_51">
    <path d="M 561.555575 158.05915 
L 550.882006 176.583072 
L 550.882006 158.182643 
L 348.084204 158.182643 
L 348.084204 157.935657 
L 550.882006 157.935657 
L 550.882006 139.535228 
z
" clip-path="url(#p599a1e3179)" style="fill: #0000ff; stroke-dasharray: 4.44,1.92; stroke-dashoffset: 0; stroke: #0000ff; stroke-width: 1.2; stroke-linejoin: miter"/>
   </g>
   <g id="patch_52">
    <path d="M 401.452046 123.481162 
L 390.894688 143.380405 
L 390.783406 124.987185 
L 134.61358 158.182594 
L 134.612086 157.935706 
L 390.781913 124.740296 
L 390.670631 106.347075 
z
" clip-path="url(#p599a1e3179)" style="fill: #0000ff; stroke-dasharray: 4.44,1.92; stroke-dashoffset: 0; stroke: #0000ff; stroke-width: 1.2; stroke-linejoin: miter"/>
   </g>
   <g id="patch_53">
    <path d="M 454.819889 281.551962 
L 443.936966 297.251528 
L 444.161907 278.880571 
L 294.714851 239.687701 
L 294.717871 239.441111 
L 444.164926 278.63398 
L 444.389866 260.263023 
z
" clip-path="url(#p599a1e3179)" style="fill: #0000ff; stroke-dasharray: 4.44,1.92; stroke-dashoffset: 0; stroke: #0000ff; stroke-width: 1.2; stroke-linejoin: miter"/>
   </g>
   <g id="patch_54">
    <path d="M 668.29126 281.551962 
L 657.408337 297.251528 
L 657.633278 278.880571 
L 508.186222 239.687701 
L 508.189242 239.441111 
L 657.636297 278.63398 
L 657.861237 260.263023 
z
" clip-path="url(#p599a1e3179)" style="fill: #0000ff; stroke-dasharray: 4.44,1.92; stroke-dashoffset: 0; stroke: #0000ff; stroke-width: 1.2; stroke-linejoin: miter"/>
   </g>
   <g id="matplotlib.axis_1">
    <g id="xtick_1">
     <g id="line2d_1">
      <defs>
       <path id="mff389cd028" d="M 0 0 
L 0 3.5 
" style="stroke: #000000; stroke-width: 0.8"/>
      </defs>
      <g>
       <use xlink:href="#mff389cd028" x="81.24499" y="326.009375" style="stroke: #000000; stroke-width: 0.8"/>
      </g>
     </g>
     <g id="text_1">
      <!-- 1 -->
      <g transform="translate(78.74499 339.884375) scale(0.1 -0.1)">
       <defs>
        <path id="SimHei-31" d="M 1400 3600 
Q 1075 3275 575 2975 
L 575 3450 
Q 1200 3875 1600 4450 
L 1900 4450 
L 1900 150 
L 1400 150 
L 1400 3600 
z
" transform="scale(0.015625)"/>
       </defs>
       <use xlink:href="#SimHei-31"/>
      </g>
     </g>
    </g>
    <g id="xtick_2">
     <g id="line2d_2">
      <g>
       <use xlink:href="#mff389cd028" x="134.612833" y="326.009375" style="stroke: #000000; stroke-width: 0.8"/>
      </g>
     </g>
     <g id="text_2">
      <!-- 2 -->
      <g transform="translate(132.112833 339.884375) scale(0.1 -0.1)">
       <defs>
        <path id="SimHei-32" d="M 300 250 
Q 325 625 650 925 
Q 975 1225 1475 1862 
Q 1975 2500 2125 2850 
Q 2275 3200 2237 3450 
Q 2200 3700 2000 3862 
Q 1800 4025 1537 4000 
Q 1275 3975 1037 3800 
Q 800 3625 675 3275 
L 200 3350 
Q 400 3925 712 4187 
Q 1025 4450 1450 4475 
Q 1700 4500 1900 4462 
Q 2100 4425 2312 4287 
Q 2525 4150 2662 3875 
Q 2800 3600 2762 3212 
Q 2725 2825 2375 2287 
Q 2025 1750 1025 600 
L 2825 600 
L 2825 150 
L 300 150 
L 300 250 
z
" transform="scale(0.015625)"/>
       </defs>
       <use xlink:href="#SimHei-32"/>
      </g>
     </g>
    </g>
    <g id="xtick_3">
     <g id="line2d_3">
      <g>
       <use xlink:href="#mff389cd028" x="187.980675" y="326.009375" style="stroke: #000000; stroke-width: 0.8"/>
      </g>
     </g>
     <g id="text_3">
      <!-- 3 -->
      <g transform="translate(185.480675 339.884375) scale(0.1 -0.1)">
       <defs>
        <path id="SimHei-33" d="M 250 1225 
L 700 1300 
Q 800 975 1025 762 
Q 1250 550 1587 562 
Q 1925 575 2125 837 
Q 2325 1100 2300 1437 
Q 2275 1775 2037 1962 
Q 1800 2150 1275 2225 
L 1275 2550 
Q 1800 2600 2037 2825 
Q 2275 3050 2250 3412 
Q 2225 3775 1925 3937 
Q 1625 4100 1287 3975 
Q 950 3850 750 3275 
L 300 3350 
Q 450 3800 712 4100 
Q 975 4400 1425 4450 
Q 1875 4500 2212 4337 
Q 2550 4175 2687 3837 
Q 2825 3500 2725 3100 
Q 2625 2700 2150 2400 
Q 2500 2250 2687 1950 
Q 2875 1650 2812 1162 
Q 2750 675 2375 375 
Q 2000 75 1525 87 
Q 1050 100 700 387 
Q 350 675 250 1225 
z
" transform="scale(0.015625)"/>
       </defs>
       <use xlink:href="#SimHei-33"/>
      </g>
     </g>
    </g>
    <g id="xtick_4">
     <g id="line2d_4">
      <g>
       <use xlink:href="#mff389cd028" x="241.348518" y="326.009375" style="stroke: #000000; stroke-width: 0.8"/>
      </g>
     </g>
     <g id="text_4">
      <!-- 4 -->
      <g transform="translate(238.848518 339.884375) scale(0.1 -0.1)">
       <defs>
        <path id="SimHei-34" d="M 2000 1100 
L 75 1100 
L 75 1525 
L 2100 4450 
L 2475 4450 
L 2475 1525 
L 3075 1525 
L 3075 1100 
L 2475 1100 
L 2475 150 
L 2000 150 
L 2000 1100 
z
M 2000 1525 
L 2000 3500 
L 600 1525 
L 2000 1525 
z
" transform="scale(0.015625)"/>
       </defs>
       <use xlink:href="#SimHei-34"/>
      </g>
     </g>
    </g>
    <g id="xtick_5">
     <g id="line2d_5">
      <g>
       <use xlink:href="#mff389cd028" x="294.716361" y="326.009375" style="stroke: #000000; stroke-width: 0.8"/>
      </g>
     </g>
     <g id="text_5">
      <!-- 5 -->
      <g transform="translate(292.216361 339.884375) scale(0.1 -0.1)">
       <defs>
        <path id="SimHei-35" d="M 550 1325 
Q 725 650 1150 575 
Q 1575 500 1837 662 
Q 2100 825 2212 1087 
Q 2325 1350 2312 1675 
Q 2300 2000 2137 2225 
Q 1975 2450 1725 2525 
Q 1475 2600 1162 2525 
Q 850 2450 650 2175 
L 225 2225 
Q 275 2375 700 4375 
L 2675 4375 
L 2675 3925 
L 1075 3925 
Q 950 3250 825 2850 
Q 1200 3025 1525 3012 
Q 1850 3000 2150 2862 
Q 2450 2725 2587 2487 
Q 2725 2250 2787 2012 
Q 2850 1775 2837 1500 
Q 2825 1225 2725 937 
Q 2625 650 2425 462 
Q 2225 275 1937 162 
Q 1650 50 1275 75 
Q 900 100 562 350 
Q 225 600 100 1200 
L 550 1325 
z
" transform="scale(0.015625)"/>
       </defs>
       <use xlink:href="#SimHei-35"/>
      </g>
     </g>
    </g>
    <g id="xtick_6">
     <g id="line2d_6">
      <g>
       <use xlink:href="#mff389cd028" x="348.084204" y="326.009375" style="stroke: #000000; stroke-width: 0.8"/>
      </g>
     </g>
     <g id="text_6">
      <!-- 6 -->
      <g transform="translate(345.584204 339.884375) scale(0.1 -0.1)">
       <defs>
        <path id="SimHei-36" d="M 250 1612 
Q 275 1975 387 2225 
Q 500 2475 725 2850 
L 1750 4450 
L 2325 4450 
L 1275 2800 
Q 1950 2975 2350 2750 
Q 2750 2525 2887 2237 
Q 3025 1950 3037 1612 
Q 3050 1275 2937 950 
Q 2825 625 2537 362 
Q 2250 100 1737 75 
Q 1225 50 862 262 
Q 500 475 362 862 
Q 225 1250 250 1612 
z
M 1025 787 
Q 1250 550 1625 525 
Q 2000 500 2250 775 
Q 2500 1050 2500 1575 
Q 2500 2100 2187 2300 
Q 1875 2500 1487 2450 
Q 1100 2400 925 2075 
Q 750 1750 775 1387 
Q 800 1025 1025 787 
z
" transform="scale(0.015625)"/>
       </defs>
       <use xlink:href="#SimHei-36"/>
      </g>
     </g>
    </g>
    <g id="xtick_7">
     <g id="line2d_7">
      <g>
       <use xlink:href="#mff389cd028" x="401.452046" y="326.009375" style="stroke: #000000; stroke-width: 0.8"/>
      </g>
     </g>
     <g id="text_7">
      <!-- 7 -->
      <g transform="translate(398.952046 339.884375) scale(0.1 -0.1)">
       <defs>
        <path id="SimHei-37" d="M 850 150 
Q 1300 2050 2425 3925 
L 275 3925 
L 275 4375 
L 2950 4375 
L 2950 3950 
Q 1775 2050 1400 150 
L 850 150 
z
" transform="scale(0.015625)"/>
       </defs>
       <use xlink:href="#SimHei-37"/>
      </g>
     </g>
    </g>
    <g id="xtick_8">
     <g id="line2d_8">
      <g>
       <use xlink:href="#mff389cd028" x="454.819889" y="326.009375" style="stroke: #000000; stroke-width: 0.8"/>
      </g>
     </g>
     <g id="text_8">
      <!-- 8 -->
      <g transform="translate(452.319889 339.884375) scale(0.1 -0.1)">
       <defs>
        <path id="SimHei-38" d="M 175 1375 
Q 175 1675 325 1962 
Q 475 2250 825 2425 
Q 525 2600 425 2812 
Q 325 3025 312 3300 
Q 300 3575 387 3775 
Q 475 3975 650 4150 
Q 825 4325 1037 4387 
Q 1250 4450 1500 4450 
Q 1750 4450 1950 4400 
Q 2150 4350 2375 4187 
Q 2600 4025 2700 3725 
Q 2800 3425 2687 3025 
Q 2575 2625 2100 2400 
Q 2525 2275 2700 2012 
Q 2875 1750 2875 1375 
Q 2875 1000 2762 775 
Q 2650 550 2512 400 
Q 2375 250 2137 162 
Q 1900 75 1537 75 
Q 1175 75 912 162 
Q 650 250 475 425 
Q 300 600 237 837 
Q 175 1075 175 1375 
z
M 687 1400 
Q 675 1100 787 875 
Q 900 650 1200 587 
Q 1500 525 1825 600 
Q 2150 675 2275 950 
Q 2400 1225 2362 1500 
Q 2325 1775 2050 1962 
Q 1775 2150 1450 2125 
Q 1125 2100 912 1900 
Q 700 1700 687 1400 
z
M 775 3350 
Q 775 3100 950 2875 
Q 1125 2650 1500 2650 
Q 1875 2650 2062 2875 
Q 2250 3100 2237 3412 
Q 2225 3725 2012 3875 
Q 1800 4025 1437 4000 
Q 1075 3975 925 3787 
Q 775 3600 775 3350 
z
" transform="scale(0.015625)"/>
       </defs>
       <use xlink:href="#SimHei-38"/>
      </g>
     </g>
    </g>
    <g id="xtick_9">
     <g id="line2d_9">
      <g>
       <use xlink:href="#mff389cd028" x="508.187732" y="326.009375" style="stroke: #000000; stroke-width: 0.8"/>
      </g>
     </g>
     <g id="text_9">
      <!-- 9 -->
      <g transform="translate(505.687732 339.884375) scale(0.1 -0.1)">
       <defs>
        <path id="SimHei-39" d="M 800 75 
Q 1350 1000 1700 1750 
Q 1075 1650 662 1912 
Q 250 2175 162 2625 
Q 75 3075 175 3437 
Q 275 3800 487 4037 
Q 700 4275 1000 4375 
Q 1300 4475 1537 4475 
Q 1775 4475 2025 4375 
Q 2275 4275 2475 4075 
Q 2675 3875 2750 3662 
Q 2825 3450 2825 3112 
Q 2825 2775 2575 2250 
Q 2325 1725 1350 75 
L 800 75 
z
M 662 2875 
Q 700 2550 937 2337 
Q 1175 2125 1450 2150 
Q 1725 2175 1887 2300 
Q 2050 2425 2200 2725 
Q 2300 3100 2250 3362 
Q 2200 3625 1987 3800 
Q 1775 3975 1525 3975 
Q 1375 4000 1137 3900 
Q 900 3800 762 3500 
Q 625 3200 662 2875 
z
" transform="scale(0.015625)"/>
       </defs>
       <use xlink:href="#SimHei-39"/>
      </g>
     </g>
    </g>
    <g id="xtick_10">
     <g id="line2d_10">
      <g>
       <use xlink:href="#mff389cd028" x="561.555575" y="326.009375" style="stroke: #000000; stroke-width: 0.8"/>
      </g>
     </g>
     <g id="text_10">
      <!-- 10 -->
      <g transform="translate(556.555575 339.884375) scale(0.1 -0.1)">
       <defs>
        <path id="SimHei-30" d="M 225 2537 
Q 250 3200 412 3587 
Q 575 3975 875 4225 
Q 1175 4475 1612 4475 
Q 2050 4475 2375 4112 
Q 2700 3750 2800 3200 
Q 2900 2650 2862 1937 
Q 2825 1225 2612 775 
Q 2400 325 1975 150 
Q 1550 -25 1125 187 
Q 700 400 525 750 
Q 350 1100 275 1487 
Q 200 1875 225 2537 
z
M 750 2687 
Q 675 2000 800 1462 
Q 925 925 1212 700 
Q 1500 475 1800 612 
Q 2100 750 2237 1162 
Q 2375 1575 2375 2062 
Q 2375 2550 2337 2950 
Q 2300 3350 2112 3675 
Q 1925 4000 1612 4012 
Q 1300 4025 1062 3700 
Q 825 3375 750 2687 
z
" transform="scale(0.015625)"/>
       </defs>
       <use xlink:href="#SimHei-31"/>
       <use xlink:href="#SimHei-30" transform="translate(50 0)"/>
      </g>
     </g>
    </g>
    <g id="xtick_11">
     <g id="line2d_11">
      <g>
       <use xlink:href="#mff389cd028" x="614.923417" y="326.009375" style="stroke: #000000; stroke-width: 0.8"/>
      </g>
     </g>
     <g id="text_11">
      <!-- 11 -->
      <g transform="translate(609.923417 339.884375) scale(0.1 -0.1)">
       <use xlink:href="#SimHei-31"/>
       <use xlink:href="#SimHei-31" transform="translate(50 0)"/>
      </g>
     </g>
    </g>
    <g id="xtick_12">
     <g id="line2d_12">
      <g>
       <use xlink:href="#mff389cd028" x="668.29126" y="326.009375" style="stroke: #000000; stroke-width: 0.8"/>
      </g>
     </g>
     <g id="text_12">
      <!-- 12 -->
      <g transform="translate(663.29126 339.884375) scale(0.1 -0.1)">
       <use xlink:href="#SimHei-31"/>
       <use xlink:href="#SimHei-32" transform="translate(50 0)"/>
      </g>
     </g>
    </g>
    <g id="text_13">
     <!-- 序号 -->
     <g transform="translate(362.768125 354.696875) scale(0.12 -0.12)">
      <defs>
       <path id="SimHei-5e8f" d="M 4000 2075 
L 5975 2075 
Q 5750 1525 5575 1025 
Q 5325 1100 5050 1150 
Q 5175 1450 5275 1700 
L 4050 1700 
L 4050 150 
Q 4050 -375 3762 -462 
Q 3475 -550 2950 -575 
Q 2875 -300 2750 0 
Q 3350 -75 3475 25 
Q 3600 125 3575 375 
L 3575 1700 
L 2450 1700 
Q 2050 1700 1675 1675 
L 1675 2100 
Q 2100 2075 2425 2075 
L 3675 2075 
Q 3325 2400 2875 2775 
Q 2975 2875 3250 3100 
Q 3400 2975 3725 2725 
L 4575 3275 
L 3000 3275 
Q 2400 3275 1950 3250 
L 1950 3700 
Q 2400 3675 3000 3675 
L 5400 3675 
L 5400 3250 
Q 4700 2875 4025 2450 
L 4275 2250 
L 4000 2075 
z
M 3725 5275 
Q 3825 4925 3925 4525 
L 4850 4525 
Q 5425 4525 6000 4550 
L 6000 4125 
Q 5425 4150 4850 4150 
L 1400 4150 
Q 1400 2750 1362 2137 
Q 1325 1525 1200 887 
Q 1075 250 775 -350 
Q 625 -250 250 -125 
Q 475 300 600 700 
Q 725 1100 800 1637 
Q 875 2175 875 2825 
Q 875 3500 850 4525 
L 3350 4525 
Q 3275 4825 3150 5150 
Q 3425 5200 3725 5275 
z
" transform="scale(0.015625)"/>
       <path id="SimHei-53f7" d="M 5025 4925 
Q 5000 4550 5000 4075 
Q 5000 3600 5025 3175 
L 1400 3175 
Q 1425 3525 1425 4000 
Q 1425 4500 1400 4925 
L 5025 4925 
z
M 5175 2625 
Q 5650 2625 6025 2650 
L 6025 2200 
Q 5650 2225 5175 2225 
L 2450 2225 
Q 2350 1875 2225 1450 
L 5175 1450 
Q 5100 1050 5062 775 
Q 5025 500 4950 112 
Q 4875 -275 4650 -412 
Q 4425 -550 3225 -625 
Q 3125 -350 2975 -50 
Q 3875 -75 4112 -50 
Q 4350 -25 4425 212 
Q 4500 450 4575 1025 
L 1600 1025 
Q 1825 1625 1950 2225 
L 1350 2225 
Q 825 2225 375 2200 
L 375 2650 
Q 825 2625 1350 2625 
L 5175 2625 
z
M 4525 3575 
L 4525 4525 
L 1900 4525 
L 1900 3575 
L 4525 3575 
z
" transform="scale(0.015625)"/>
      </defs>
      <use xlink:href="#SimHei-5e8f"/>
      <use xlink:href="#SimHei-53f7" transform="translate(100 0)"/>
     </g>
    </g>
   </g>
   <g id="matplotlib.axis_2">
    <g id="ytick_1">
     <g id="line2d_13">
      <defs>
       <path id="mc39c45e334" d="M 0 0 
L -3.5 0 
" style="stroke: #000000; stroke-width: 0.8"/>
      </defs>
      <g>
       <use xlink:href="#mc39c45e334" x="43.8875" y="326.009375" style="stroke: #000000; stroke-width: 0.8"/>
      </g>
     </g>
     <g id="text_14">
      <!-- 0.0 -->
      <g transform="translate(21.8875 329.446875) scale(0.1 -0.1)">
       <defs>
        <path id="SimHei-2e" d="M 1075 125 
L 500 125 
L 500 675 
L 1075 675 
L 1075 125 
z
" transform="scale(0.015625)"/>
       </defs>
       <use xlink:href="#SimHei-30"/>
       <use xlink:href="#SimHei-2e" transform="translate(50 0)"/>
       <use xlink:href="#SimHei-30" transform="translate(100 0)"/>
      </g>
     </g>
    </g>
    <g id="ytick_2">
     <g id="line2d_14">
      <g>
       <use xlink:href="#mc39c45e334" x="43.8875" y="276.61225" style="stroke: #000000; stroke-width: 0.8"/>
      </g>
     </g>
     <g id="text_15">
      <!-- 0.2 -->
      <g transform="translate(21.8875 280.04975) scale(0.1 -0.1)">
       <use xlink:href="#SimHei-30"/>
       <use xlink:href="#SimHei-2e" transform="translate(50 0)"/>
       <use xlink:href="#SimHei-32" transform="translate(100 0)"/>
      </g>
     </g>
    </g>
    <g id="ytick_3">
     <g id="line2d_15">
      <g>
       <use xlink:href="#mc39c45e334" x="43.8875" y="227.215125" style="stroke: #000000; stroke-width: 0.8"/>
      </g>
     </g>
     <g id="text_16">
      <!-- 0.4 -->
      <g transform="translate(21.8875 230.652625) scale(0.1 -0.1)">
       <use xlink:href="#SimHei-30"/>
       <use xlink:href="#SimHei-2e" transform="translate(50 0)"/>
       <use xlink:href="#SimHei-34" transform="translate(100 0)"/>
      </g>
     </g>
    </g>
    <g id="ytick_4">
     <g id="line2d_16">
      <g>
       <use xlink:href="#mc39c45e334" x="43.8875" y="177.818" style="stroke: #000000; stroke-width: 0.8"/>
      </g>
     </g>
     <g id="text_17">
      <!-- 0.6 -->
      <g transform="translate(21.8875 181.2555) scale(0.1 -0.1)">
       <use xlink:href="#SimHei-30"/>
       <use xlink:href="#SimHei-2e" transform="translate(50 0)"/>
       <use xlink:href="#SimHei-36" transform="translate(100 0)"/>
      </g>
     </g>
    </g>
    <g id="ytick_5">
     <g id="line2d_17">
      <g>
       <use xlink:href="#mc39c45e334" x="43.8875" y="128.420875" style="stroke: #000000; stroke-width: 0.8"/>
      </g>
     </g>
     <g id="text_18">
      <!-- 0.8 -->
      <g transform="translate(21.8875 131.858375) scale(0.1 -0.1)">
       <use xlink:href="#SimHei-30"/>
       <use xlink:href="#SimHei-2e" transform="translate(50 0)"/>
       <use xlink:href="#SimHei-38" transform="translate(100 0)"/>
      </g>
     </g>
    </g>
    <g id="ytick_6">
     <g id="line2d_18">
      <g>
       <use xlink:href="#mc39c45e334" x="43.8875" y="79.02375" style="stroke: #000000; stroke-width: 0.8"/>
      </g>
     </g>
     <g id="text_19">
      <!-- 1.0 -->
      <g transform="translate(21.8875 82.46125) scale(0.1 -0.1)">
       <use xlink:href="#SimHei-31"/>
       <use xlink:href="#SimHei-2e" transform="translate(50 0)"/>
       <use xlink:href="#SimHei-30" transform="translate(100 0)"/>
      </g>
     </g>
    </g>
    <g id="text_20">
     <!-- 值 -->
     <g transform="translate(16.3875 208.516562) rotate(-90) scale(0.12 -0.12)">
      <defs>
       <path id="SimHei-503c" d="M 3675 4450 
L 3675 5100 
Q 3975 5075 4350 5050 
Q 4225 4875 4200 4450 
L 5125 4450 
Q 5550 4450 5875 4475 
L 5875 4025 
Q 5525 4050 5125 4050 
L 4175 4050 
L 4125 3500 
L 5400 3500 
Q 5375 3200 5375 2700 
L 5375 150 
Q 5875 150 6100 175 
L 6100 -275 
Q 5775 -250 5200 -250 
L 2850 -250 
Q 2275 -250 1900 -275 
L 1900 175 
Q 2125 150 2600 150 
L 2600 2700 
Q 2600 3175 2575 3500 
L 3600 3500 
L 3650 4050 
L 3200 4050 
Q 2575 4050 2225 4025 
L 2225 4475 
Q 2550 4450 3200 4450 
L 3675 4450 
z
M 2225 4900 
Q 2025 4675 1650 3750 
L 1650 450 
Q 1650 -75 1675 -550 
L 1150 -550 
Q 1175 -125 1175 375 
L 1175 2950 
Q 875 2450 625 2150 
Q 425 2425 250 2575 
Q 500 2825 937 3537 
Q 1375 4250 1625 5150 
Q 1975 4975 2225 4900 
z
M 4925 2650 
L 4925 3150 
L 3075 3150 
L 3075 2650 
L 4925 2650 
z
M 4925 150 
L 4925 625 
L 3075 625 
L 3075 150 
L 4925 150 
z
M 4925 1000 
L 4925 1450 
L 3075 1450 
L 3075 1000 
L 4925 1000 
z
M 4925 1825 
L 4925 2275 
L 3075 2275 
L 3075 1825 
L 4925 1825 
z
" transform="scale(0.015625)"/>
      </defs>
      <use xlink:href="#SimHei-503c"/>
     </g>
    </g>
   </g>
   <g id="patch_55">
    <path d="M 43.8875 326.009375 
L 43.8875 79.02375 
" style="fill: none; stroke: #000000; stroke-width: 0.8; stroke-linejoin: miter; stroke-linecap: square"/>
   </g>
   <g id="patch_56">
    <path d="M 705.64875 326.009375 
L 705.64875 79.02375 
" style="fill: none; stroke: #000000; stroke-width: 0.8; stroke-linejoin: miter; stroke-linecap: square"/>
   </g>
   <g id="patch_57">
    <path d="M 43.8875 326.009375 
L 705.64875 326.009375 
" style="fill: none; stroke: #000000; stroke-width: 0.8; stroke-linejoin: miter; stroke-linecap: square"/>
   </g>
   <g id="patch_58">
    <path d="M 43.8875 79.02375 
L 705.64875 79.02375 
" style="fill: none; stroke: #000000; stroke-width: 0.8; stroke-linejoin: miter; stroke-linecap: square"/>
   </g>
   <g id="text_21">
    <!-- 0.35 -->
    <g transform="translate(71.24499 218.555556) scale(0.1 -0.1)">
     <use xlink:href="#SimHei-30"/>
     <use xlink:href="#SimHei-2e" transform="translate(50 0)"/>
     <use xlink:href="#SimHei-33" transform="translate(100 0)"/>
     <use xlink:href="#SimHei-35" transform="translate(150 0)"/>
    </g>
   </g>
   <g id="text_22">
    <!-- 0.68 -->
    <g transform="translate(124.612833 137.0503) scale(0.1 -0.1)">
     <use xlink:href="#SimHei-30"/>
     <use xlink:href="#SimHei-2e" transform="translate(50 0)"/>
     <use xlink:href="#SimHei-36" transform="translate(100 0)"/>
     <use xlink:href="#SimHei-38" transform="translate(150 0)"/>
    </g>
   </g>
   <g id="text_23">
    <!-- 0.82 -->
    <g transform="translate(177.980675 112.351737) scale(0.1 -0.1)">
     <use xlink:href="#SimHei-30"/>
     <use xlink:href="#SimHei-2e" transform="translate(50 0)"/>
     <use xlink:href="#SimHei-38" transform="translate(100 0)"/>
     <use xlink:href="#SimHei-32" transform="translate(150 0)"/>
    </g>
   </g>
   <g id="text_24">
    <!-- 0.18 -->
    <g transform="translate(231.348518 260.543112) scale(0.1 -0.1)">
     <use xlink:href="#SimHei-30"/>
     <use xlink:href="#SimHei-2e" transform="translate(50 0)"/>
     <use xlink:href="#SimHei-31" transform="translate(100 0)"/>
     <use xlink:href="#SimHei-38" transform="translate(150 0)"/>
    </g>
   </g>
   <g id="text_25">
    <!-- 0.35 -->
    <g transform="translate(284.716361 218.555556) scale(0.1 -0.1)">
     <use xlink:href="#SimHei-30"/>
     <use xlink:href="#SimHei-2e" transform="translate(50 0)"/>
     <use xlink:href="#SimHei-33" transform="translate(100 0)"/>
     <use xlink:href="#SimHei-35" transform="translate(150 0)"/>
    </g>
   </g>
   <g id="text_26">
    <!-- 0.68 -->
    <g transform="translate(338.084204 137.0503) scale(0.1 -0.1)">
     <use xlink:href="#SimHei-30"/>
     <use xlink:href="#SimHei-2e" transform="translate(50 0)"/>
     <use xlink:href="#SimHei-36" transform="translate(100 0)"/>
     <use xlink:href="#SimHei-38" transform="translate(150 0)"/>
    </g>
   </g>
   <g id="text_27">
    <!-- 0.82 -->
    <g transform="translate(391.452046 112.351737) scale(0.1 -0.1)">
     <use xlink:href="#SimHei-30"/>
     <use xlink:href="#SimHei-2e" transform="translate(50 0)"/>
     <use xlink:href="#SimHei-38" transform="translate(100 0)"/>
     <use xlink:href="#SimHei-32" transform="translate(150 0)"/>
    </g>
   </g>
   <g id="text_28">
    <!-- 0.18 -->
    <g transform="translate(444.819889 260.543112) scale(0.1 -0.1)">
     <use xlink:href="#SimHei-30"/>
     <use xlink:href="#SimHei-2e" transform="translate(50 0)"/>
     <use xlink:href="#SimHei-31" transform="translate(100 0)"/>
     <use xlink:href="#SimHei-38" transform="translate(150 0)"/>
    </g>
   </g>
   <g id="text_29">
    <!-- 0.35 -->
    <g transform="translate(498.187732 218.555556) scale(0.1 -0.1)">
     <use xlink:href="#SimHei-30"/>
     <use xlink:href="#SimHei-2e" transform="translate(50 0)"/>
     <use xlink:href="#SimHei-33" transform="translate(100 0)"/>
     <use xlink:href="#SimHei-35" transform="translate(150 0)"/>
    </g>
   </g>
   <g id="text_30">
    <!-- 0.68 -->
    <g transform="translate(551.555575 137.0503) scale(0.1 -0.1)">
     <use xlink:href="#SimHei-30"/>
     <use xlink:href="#SimHei-2e" transform="translate(50 0)"/>
     <use xlink:href="#SimHei-36" transform="translate(100 0)"/>
     <use xlink:href="#SimHei-38" transform="translate(150 0)"/>
    </g>
   </g>
   <g id="text_31">
    <!-- 0.82 -->
    <g transform="translate(604.923417 112.351737) scale(0.1 -0.1)">
     <use xlink:href="#SimHei-30"/>
     <use xlink:href="#SimHei-2e" transform="translate(50 0)"/>
     <use xlink:href="#SimHei-38" transform="translate(100 0)"/>
     <use xlink:href="#SimHei-32" transform="translate(150 0)"/>
    </g>
   </g>
   <g id="text_32">
    <!-- 0.18 -->
    <g transform="translate(658.29126 260.543112) scale(0.1 -0.1)">
     <use xlink:href="#SimHei-30"/>
     <use xlink:href="#SimHei-2e" transform="translate(50 0)"/>
     <use xlink:href="#SimHei-31" transform="translate(100 0)"/>
     <use xlink:href="#SimHei-38" transform="translate(150 0)"/>
    </g>
   </g>
   <g id="text_33">
    <!-- (a) 直方条 -->
    <g transform="translate(344.768125 73.02375) scale(0.12 -0.12)">
     <defs>
      <path id="SimHei-28" d="M 2975 -200 
L 2700 -475 
Q 2075 125 1762 775 
Q 1450 1425 1450 2250 
Q 1450 3075 1762 3725 
Q 2075 4375 2700 5000 
L 2975 4725 
Q 2400 4175 2112 3587 
Q 1825 3000 1825 2250 
Q 1825 1500 2112 912 
Q 2400 325 2975 -200 
z
" transform="scale(0.015625)"/>
      <path id="SimHei-61" d="M 2875 125 
L 2275 125 
Q 2225 175 2200 262 
Q 2175 350 2175 475 
Q 2000 275 1750 175 
Q 1500 75 1225 75 
Q 825 75 550 275 
Q 275 475 275 850 
Q 275 1225 525 1450 
Q 775 1675 1300 1750 
Q 1650 1800 1912 1875 
Q 2175 1950 2175 2075 
Q 2175 2225 2062 2375 
Q 1950 2525 1575 2525 
Q 1275 2525 1137 2412 
Q 1000 2300 950 2100 
L 400 2100 
Q 450 2500 762 2737 
Q 1075 2975 1575 2975 
Q 2125 2975 2400 2725 
Q 2675 2475 2675 2025 
L 2675 650 
Q 2675 500 2725 375 
Q 2775 250 2875 125 
z
M 2175 1050 
L 2175 1550 
Q 2025 1500 1887 1462 
Q 1750 1425 1425 1375 
Q 1050 1325 937 1200 
Q 825 1075 825 900 
Q 825 750 937 637 
Q 1050 525 1275 525 
Q 1500 525 1762 650 
Q 2025 775 2175 1050 
z
" transform="scale(0.015625)"/>
      <path id="SimHei-29" d="M 1675 2250 
Q 1675 1425 1362 775 
Q 1050 125 425 -475 
L 150 -200 
Q 725 325 1012 912 
Q 1300 1500 1300 2250 
Q 1300 3000 1012 3587 
Q 725 4175 150 4725 
L 425 5000 
Q 1050 4375 1362 3725 
Q 1675 3075 1675 2250 
z
" transform="scale(0.015625)"/>
      <path id="SimHei-20" transform="scale(0.015625)"/>
      <path id="SimHei-76f4" d="M 3550 5025 
Q 3475 4875 3400 4525 
L 4825 4525 
Q 5225 4525 5775 4550 
L 5775 4100 
Q 5250 4125 4825 4125 
L 3350 4125 
Q 3300 3775 3275 3525 
L 5100 3525 
Q 5075 3075 5075 2525 
L 5075 100 
L 5300 100 
Q 5650 100 6100 125 
L 6100 -350 
Q 5675 -325 5300 -325 
L 1225 -325 
Q 800 -325 325 -350 
L 325 125 
Q 825 100 1225 100 
L 1375 100 
L 1375 2525 
Q 1375 3175 1350 3525 
L 2775 3525 
Q 2825 3825 2850 4125 
L 1550 4125 
Q 1075 4125 600 4100 
L 600 4550 
Q 1075 4525 1525 4525 
L 2875 4525 
Q 2900 4800 2875 5075 
Q 3275 5025 3550 5025 
z
M 4600 975 
L 4600 1450 
L 1850 1450 
L 1850 975 
L 4600 975 
z
M 4600 100 
L 4600 575 
L 1850 575 
L 1850 100 
L 4600 100 
z
M 4600 2650 
L 4600 3125 
L 1850 3125 
L 1850 2650 
L 4600 2650 
z
M 4600 1825 
L 4600 2275 
L 1850 2275 
L 1850 1825 
L 4600 1825 
z
" transform="scale(0.015625)"/>
      <path id="SimHei-65b9" d="M 425 3975 
Q 825 3950 1300 3950 
L 5025 3950 
Q 5625 3950 6000 3975 
L 6000 3475 
Q 5675 3500 5100 3500 
L 2525 3500 
Q 2525 3225 2500 2500 
L 5300 2500 
Q 5250 2175 5200 1550 
L 5050 175 
Q 5000 -275 4625 -412 
Q 4250 -550 3525 -625 
Q 3500 -300 3325 -50 
Q 3900 -75 4200 0 
Q 4500 75 4575 425 
L 4725 2050 
L 2475 2050 
Q 2375 1350 2162 875 
Q 1950 400 1575 0 
Q 1200 -400 825 -700 
Q 725 -550 375 -350 
Q 700 -175 1062 200 
Q 1425 575 1662 1050 
Q 1900 1525 1962 2100 
Q 2025 2675 2025 3500 
L 1325 3500 
Q 775 3500 425 3475 
L 425 3975 
z
M 3075 4075 
Q 2850 4575 2575 5000 
Q 2800 5125 3025 5275 
Q 3300 4850 3575 4350 
Q 3325 4250 3075 4075 
z
" transform="scale(0.015625)"/>
      <path id="SimHei-6761" d="M 2700 5075 
Q 2600 5000 2400 4700 
L 5225 4700 
Q 4975 4300 4625 3875 
Q 4275 3450 3750 3050 
Q 4100 2850 4750 2687 
Q 5400 2525 6200 2525 
Q 5950 2275 5925 2000 
Q 5000 2100 4387 2300 
Q 3775 2500 3275 2825 
Q 2500 2375 1837 2175 
Q 1175 1975 575 1850 
Q 500 2125 275 2300 
Q 1250 2400 1912 2625 
Q 2575 2850 2825 3075 
Q 2400 3425 1925 3975 
Q 1600 3550 1150 3075 
Q 925 3300 725 3350 
Q 1225 3775 1625 4350 
Q 2025 4925 2125 5300 
Q 2525 5125 2700 5075 
z
M 2950 1775 
Q 2950 2000 2925 2400 
L 3475 2400 
Q 3450 1975 3450 1775 
L 4500 1775 
Q 5025 1775 5550 1800 
L 5550 1325 
Q 5025 1350 4525 1350 
L 3450 1350 
L 3450 -50 
Q 3475 -575 2450 -625 
Q 2375 -375 2225 -75 
Q 2975 -150 2950 200 
L 2950 1350 
L 1850 1350 
Q 1350 1350 825 1325 
L 825 1800 
Q 1350 1775 1850 1775 
L 2950 1775 
z
M 3300 3300 
Q 4025 3775 4325 4275 
L 2250 4275 
Q 2700 3675 3300 3300 
z
M 4200 1000 
Q 4950 575 5800 0 
Q 5650 -175 5500 -400 
Q 5150 -150 4787 100 
Q 4425 350 3925 600 
Q 4075 775 4200 1000 
z
M 2375 700 
Q 2275 600 1800 250 
Q 1325 -100 850 -400 
Q 700 -200 500 -50 
Q 825 100 1287 437 
Q 1750 775 1950 1050 
L 2375 700 
z
" transform="scale(0.015625)"/>
     </defs>
     <use xlink:href="#SimHei-28"/>
     <use xlink:href="#SimHei-61" transform="translate(50 0)"/>
     <use xlink:href="#SimHei-29" transform="translate(100 0)"/>
     <use xlink:href="#SimHei-20" transform="translate(150 0)"/>
     <use xlink:href="#SimHei-76f4" transform="translate(200 0)"/>
     <use xlink:href="#SimHei-65b9" transform="translate(300 0)"/>
     <use xlink:href="#SimHei-6761" transform="translate(400 0)"/>
    </g>
   </g>
  </g>
  <g id="axes_2">
   <g id="patch_59">
    <path d="M 281.362307 575.661103 
Q 298.772425 588.424556 314.830007 576.652822 
" clip-path="url(#p38a5896e80)" style="fill: none; stroke: #000000; stroke-width: 1.5; stroke-linecap: round"/>
    <path d="M 308.217311 577.780764 
L 314.830007 576.652822 
L 311.764743 582.619744 
" clip-path="url(#p38a5896e80)" style="fill: none; stroke: #000000; stroke-width: 1.5; stroke-linecap: round"/>
   </g>
   <g id="patch_60">
    <path d="M 319.34618 575.677003 
Q 355.769648 603.608183 390.862325 576.696898 
" clip-path="url(#p38a5896e80)" style="fill: none; stroke: #000000; stroke-width: 1.5; stroke-linecap: round"/>
    <path d="M 384.275549 577.967484 
L 390.862325 576.696898 
L 387.926728 582.72867 
" clip-path="url(#p38a5896e80)" style="fill: none; stroke: #000000; stroke-width: 1.5; stroke-linecap: round"/>
   </g>
   <g id="patch_61">
    <path d="M 357.343968 575.677003 
Q 393.767437 603.608183 428.860113 576.696898 
" clip-path="url(#p38a5896e80)" style="fill: none; stroke: #000000; stroke-width: 1.5; stroke-linecap: round"/>
    <path d="M 422.273338 577.967484 
L 428.860113 576.696898 
L 425.924516 582.72867 
" clip-path="url(#p38a5896e80)" style="fill: none; stroke: #000000; stroke-width: 1.5; stroke-linecap: round"/>
   </g>
   <g id="patch_62">
    <path d="M 167.355026 575.677003 
Q 203.778494 603.608183 238.871171 576.696898 
" clip-path="url(#p38a5896e80)" style="fill: none; stroke: #000000; stroke-width: 1.5; stroke-linecap: round"/>
    <path d="M 232.284395 577.967484 
L 238.871171 576.696898 
L 235.935574 582.72867 
" clip-path="url(#p38a5896e80)" style="fill: none; stroke: #000000; stroke-width: 1.5; stroke-linecap: round"/>
   </g>
   <g id="patch_63">
    <path d="M 471.351249 575.661103 
Q 488.761367 588.424556 504.818949 576.652822 
" clip-path="url(#p38a5896e80)" style="fill: none; stroke: #000000; stroke-width: 1.5; stroke-linecap: round"/>
    <path d="M 498.206253 577.780764 
L 504.818949 576.652822 
L 501.753685 582.619744 
" clip-path="url(#p38a5896e80)" style="fill: none; stroke: #000000; stroke-width: 1.5; stroke-linecap: round"/>
   </g>
   <g id="patch_64">
    <path d="M 509.335122 575.677003 
Q 545.75859 603.608183 580.851267 576.696898 
" clip-path="url(#p38a5896e80)" style="fill: none; stroke: #000000; stroke-width: 1.5; stroke-linecap: round"/>
    <path d="M 574.264491 577.967484 
L 580.851267 576.696898 
L 577.91567 582.72867 
" clip-path="url(#p38a5896e80)" style="fill: none; stroke: #000000; stroke-width: 1.5; stroke-linecap: round"/>
   </g>
   <g id="patch_65">
    <path d="M 243.344805 575.681194 
Q 298.773052 618.803179 352.877654 576.710196 
" clip-path="url(#p38a5896e80)" style="fill: none; stroke: #000000; stroke-width: 1.5; stroke-linecap: round"/>
    <path d="M 346.299895 578.026664 
L 352.877654 576.710196 
L 349.984172 582.762284 
" clip-path="url(#p38a5896e80)" style="fill: none; stroke: #000000; stroke-width: 1.5; stroke-linecap: round"/>
   </g>
   <g id="patch_66">
    <path d="M 205.352814 575.677003 
Q 241.776283 603.608183 276.868959 576.696898 
" clip-path="url(#p38a5896e80)" style="fill: none; stroke: #000000; stroke-width: 1.5; stroke-linecap: round"/>
    <path d="M 270.282184 577.967484 
L 276.868959 576.696898 
L 273.933363 582.72867 
" clip-path="url(#p38a5896e80)" style="fill: none; stroke: #000000; stroke-width: 1.5; stroke-linecap: round"/>
   </g>
   <g id="patch_67">
    <path d="M 433.333747 575.681194 
Q 488.761995 618.803179 542.866596 576.710196 
" clip-path="url(#p38a5896e80)" style="fill: none; stroke: #000000; stroke-width: 1.5; stroke-linecap: round"/>
    <path d="M 536.288837 578.026664 
L 542.866596 576.710196 
L 539.973115 582.762284 
" clip-path="url(#p38a5896e80)" style="fill: none; stroke: #000000; stroke-width: 1.5; stroke-linecap: round"/>
   </g>
   <g id="patch_68">
    <path d="M 395.341757 575.677003 
Q 431.765225 603.608183 466.857902 576.696898 
" clip-path="url(#p38a5896e80)" style="fill: none; stroke: #000000; stroke-width: 1.5; stroke-linecap: round"/>
    <path d="M 460.271126 577.967484 
L 466.857902 576.696898 
L 463.922305 582.72867 
" clip-path="url(#p38a5896e80)" style="fill: none; stroke: #000000; stroke-width: 1.5; stroke-linecap: round"/>
   </g>
   <g id="patch_69">
    <path d="M 319.360095 575.661103 
Q 336.770213 588.424556 352.827795 576.652822 
" clip-path="url(#p38a5896e80)" style="fill: none; stroke: #000000; stroke-width: 1.5; stroke-linecap: round"/>
    <path d="M 346.215099 577.780764 
L 352.827795 576.652822 
L 349.762531 582.619744 
" clip-path="url(#p38a5896e80)" style="fill: none; stroke: #000000; stroke-width: 1.5; stroke-linecap: round"/>
   </g>
   <g id="patch_70">
    <path d="M 357.357883 575.661103 
Q 374.768001 588.424556 390.825584 576.652822 
" clip-path="url(#p38a5896e80)" style="fill: none; stroke: #000000; stroke-width: 1.5; stroke-linecap: round"/>
    <path d="M 384.212888 577.780764 
L 390.825584 576.652822 
L 387.76032 582.619744 
" clip-path="url(#p38a5896e80)" style="fill: none; stroke: #000000; stroke-width: 1.5; stroke-linecap: round"/>
   </g>
   <g id="patch_71">
    <path d="M 281.342593 575.681194 
Q 336.770841 618.803179 390.875442 576.710196 
" clip-path="url(#p38a5896e80)" style="fill: none; stroke: #000000; stroke-width: 1.5; stroke-linecap: round"/>
    <path d="M 384.297683 578.026664 
L 390.875442 576.710196 
L 387.981961 582.762284 
" clip-path="url(#p38a5896e80)" style="fill: none; stroke: #000000; stroke-width: 1.5; stroke-linecap: round"/>
   </g>
   <g id="patch_72">
    <path d="M 167.368941 575.661103 
Q 184.779059 588.424556 200.836641 576.652822 
" clip-path="url(#p38a5896e80)" style="fill: none; stroke: #000000; stroke-width: 1.5; stroke-linecap: round"/>
    <path d="M 194.223945 577.780764 
L 200.836641 576.652822 
L 197.771378 582.619744 
" clip-path="url(#p38a5896e80)" style="fill: none; stroke: #000000; stroke-width: 1.5; stroke-linecap: round"/>
   </g>
   <g id="patch_73">
    <path d="M 509.349037 575.661103 
Q 526.759155 588.424556 542.816737 576.652822 
" clip-path="url(#p38a5896e80)" style="fill: none; stroke: #000000; stroke-width: 1.5; stroke-linecap: round"/>
    <path d="M 536.204042 577.780764 
L 542.816737 576.652822 
L 539.751474 582.619744 
" clip-path="url(#p38a5896e80)" style="fill: none; stroke: #000000; stroke-width: 1.5; stroke-linecap: round"/>
   </g>
   <g id="patch_74">
    <path d="M 243.350603 575.677003 
Q 279.774071 603.608183 314.866748 576.696898 
" clip-path="url(#p38a5896e80)" style="fill: none; stroke: #000000; stroke-width: 1.5; stroke-linecap: round"/>
    <path d="M 308.279972 577.967484 
L 314.866748 576.696898 
L 311.931151 582.72867 
" clip-path="url(#p38a5896e80)" style="fill: none; stroke: #000000; stroke-width: 1.5; stroke-linecap: round"/>
   </g>
   <g id="patch_75">
    <path d="M 205.36673 575.661103 
Q 222.776848 588.424556 238.83443 576.652822 
" clip-path="url(#p38a5896e80)" style="fill: none; stroke: #000000; stroke-width: 1.5; stroke-linecap: round"/>
    <path d="M 232.221734 577.780764 
L 238.83443 576.652822 
L 235.769166 582.619744 
" clip-path="url(#p38a5896e80)" style="fill: none; stroke: #000000; stroke-width: 1.5; stroke-linecap: round"/>
   </g>
   <g id="patch_76">
    <path d="M 547.346826 575.661103 
Q 564.756944 588.424556 580.814526 576.652822 
" clip-path="url(#p38a5896e80)" style="fill: none; stroke: #000000; stroke-width: 1.5; stroke-linecap: round"/>
    <path d="M 574.20183 577.780764 
L 580.814526 576.652822 
L 577.749262 582.619744 
" clip-path="url(#p38a5896e80)" style="fill: none; stroke: #000000; stroke-width: 1.5; stroke-linecap: round"/>
   </g>
   <g id="patch_77">
    <path d="M 433.339545 575.677003 
Q 469.763014 603.608183 504.85569 576.696898 
" clip-path="url(#p38a5896e80)" style="fill: none; stroke: #000000; stroke-width: 1.5; stroke-linecap: round"/>
    <path d="M 498.268914 577.967484 
L 504.85569 576.696898 
L 501.920093 582.72867 
" clip-path="url(#p38a5896e80)" style="fill: none; stroke: #000000; stroke-width: 1.5; stroke-linecap: round"/>
   </g>
   <g id="patch_78">
    <path d="M 395.355672 575.661103 
Q 412.76579 588.424556 428.823372 576.652822 
" clip-path="url(#p38a5896e80)" style="fill: none; stroke: #000000; stroke-width: 1.5; stroke-linecap: round"/>
    <path d="M 422.210676 577.780764 
L 428.823372 576.652822 
L 425.758108 582.619744 
" clip-path="url(#p38a5896e80)" style="fill: none; stroke: #000000; stroke-width: 1.5; stroke-linecap: round"/>
   </g>
   <g id="patch_79">
    <path d="M 395.337118 575.686421 
Q 469.76382 633.997634 542.870406 576.718811 
" clip-path="url(#p38a5896e80)" style="fill: none; stroke: #000000; stroke-width: 1.5; stroke-linecap: round"/>
    <path d="M 536.297187 578.057767 
L 542.870406 576.718811 
L 539.99764 582.780759 
" clip-path="url(#p38a5896e80)" style="fill: none; stroke: #000000; stroke-width: 1.5; stroke-linecap: round"/>
   </g>
   <g id="patch_80">
    <path d="M 281.348391 575.677003 
Q 317.77186 603.608183 352.864536 576.696898 
" clip-path="url(#p38a5896e80)" style="fill: none; stroke: #000000; stroke-width: 1.5; stroke-linecap: round"/>
    <path d="M 346.277761 577.967484 
L 352.864536 576.696898 
L 349.928939 582.72867 
" clip-path="url(#p38a5896e80)" style="fill: none; stroke: #000000; stroke-width: 1.5; stroke-linecap: round"/>
   </g>
   <g id="patch_81">
    <path d="M 471.337334 575.677003 
Q 507.760802 603.608183 542.853478 576.696898 
" clip-path="url(#p38a5896e80)" style="fill: none; stroke: #000000; stroke-width: 1.5; stroke-linecap: round"/>
    <path d="M 536.266703 577.967484 
L 542.853478 576.696898 
L 539.917882 582.72867 
" clip-path="url(#p38a5896e80)" style="fill: none; stroke: #000000; stroke-width: 1.5; stroke-linecap: round"/>
   </g>
   <g id="patch_82">
    <path d="M 243.364518 575.661103 
Q 260.774636 588.424556 276.832218 576.652822 
" clip-path="url(#p38a5896e80)" style="fill: none; stroke: #000000; stroke-width: 1.5; stroke-linecap: round"/>
    <path d="M 270.219522 577.780764 
L 276.832218 576.652822 
L 273.766955 582.619744 
" clip-path="url(#p38a5896e80)" style="fill: none; stroke: #000000; stroke-width: 1.5; stroke-linecap: round"/>
   </g>
   <g id="patch_83">
    <path d="M 243.345964 575.686421 
Q 317.772666 633.997634 390.879252 576.718811 
" clip-path="url(#p38a5896e80)" style="fill: none; stroke: #000000; stroke-width: 1.5; stroke-linecap: round"/>
    <path d="M 384.306034 578.057767 
L 390.879252 576.718811 
L 388.006486 582.780759 
" clip-path="url(#p38a5896e80)" style="fill: none; stroke: #000000; stroke-width: 1.5; stroke-linecap: round"/>
   </g>
   <g id="patch_84">
    <path d="M 395.335959 575.681194 
Q 450.764206 618.803179 504.868808 576.710196 
" clip-path="url(#p38a5896e80)" style="fill: none; stroke: #000000; stroke-width: 1.5; stroke-linecap: round"/>
    <path d="M 498.291049 578.026664 
L 504.868808 576.710196 
L 501.975326 582.762284 
" clip-path="url(#p38a5896e80)" style="fill: none; stroke: #000000; stroke-width: 1.5; stroke-linecap: round"/>
   </g>
   <g id="patch_85">
    <path d="M 433.35346 575.661103 
Q 450.763578 588.424556 466.821161 576.652822 
" clip-path="url(#p38a5896e80)" style="fill: none; stroke: #000000; stroke-width: 1.5; stroke-linecap: round"/>
    <path d="M 460.208465 577.780764 
L 466.821161 576.652822 
L 463.755897 582.619744 
" clip-path="url(#p38a5896e80)" style="fill: none; stroke: #000000; stroke-width: 1.5; stroke-linecap: round"/>
   </g>
   <g id="patch_86">
    <path d="M 243.344225 575.687648 
Q 336.77106 649.195133 428.879897 576.723516 
" clip-path="url(#p38a5896e80)" style="fill: none; stroke-dasharray: 5.55,2.4; stroke-dashoffset: 0; stroke: #0000ff; stroke-width: 1.5; stroke-linecap: round"/>
    <path d="M 422.309431 578.075916 
L 428.879897 576.723516 
L 426.019538 582.791328 
" clip-path="url(#p38a5896e80)" style="fill: none; stroke-dasharray: 5.55,2.4; stroke-dashoffset: 0; stroke: #0000ff; stroke-width: 1.5; stroke-linecap: round"/>
   </g>
   <g id="patch_87">
    <path d="M 395.335379 575.687648 
Q 488.762214 649.195133 580.871051 576.723516 
" clip-path="url(#p38a5896e80)" style="fill: none; stroke-dasharray: 5.55,2.4; stroke-dashoffset: 0; stroke: #0000ff; stroke-width: 1.5; stroke-linecap: round"/>
    <path d="M 574.300585 578.075916 
L 580.871051 576.723516 
L 578.010691 582.791328 
" clip-path="url(#p38a5896e80)" style="fill: none; stroke-dasharray: 5.55,2.4; stroke-dashoffset: 0; stroke: #0000ff; stroke-width: 1.5; stroke-linecap: round"/>
   </g>
   <g id="patch_88">
    <path d="M 205.348176 575.686421 
Q 279.774878 633.997634 352.881463 576.718811 
" clip-path="url(#p38a5896e80)" style="fill: none; stroke-dasharray: 5.55,2.4; stroke-dashoffset: 0; stroke: #0000ff; stroke-width: 1.5; stroke-linecap: round"/>
    <path d="M 346.308245 578.057767 
L 352.881463 576.718811 
L 350.008697 582.780759 
" clip-path="url(#p38a5896e80)" style="fill: none; stroke-dasharray: 5.55,2.4; stroke-dashoffset: 0; stroke: #0000ff; stroke-width: 1.5; stroke-linecap: round"/>
   </g>
   <g id="patch_89">
    <path d="M 357.33817 575.681194 
Q 412.766418 618.803179 466.871019 576.710196 
" clip-path="url(#p38a5896e80)" style="fill: none; stroke-dasharray: 5.55,2.4; stroke-dashoffset: 0; stroke: #0000ff; stroke-width: 1.5; stroke-linecap: round"/>
    <path d="M 460.29326 578.026664 
L 466.871019 576.710196 
L 463.977538 582.762284 
" clip-path="url(#p38a5896e80)" style="fill: none; stroke-dasharray: 5.55,2.4; stroke-dashoffset: 0; stroke: #0000ff; stroke-width: 1.5; stroke-linecap: round"/>
   </g>
   <g id="patch_90">
    <path d="M 243.341326 575.689236 
Q 393.766436 694.789859 542.876716 576.731182 
" clip-path="url(#p38a5896e80)" style="fill: none; stroke-dasharray: 5.55,2.4; stroke-dashoffset: 0; stroke: #0000ff; stroke-width: 1.5; stroke-linecap: round"/>
    <path d="M 536.310406 578.103615 
L 542.876716 576.731182 
L 540.034877 582.807689 
" clip-path="url(#p38a5896e80)" style="fill: none; stroke-dasharray: 5.55,2.4; stroke-dashoffset: 0; stroke: #0000ff; stroke-width: 1.5; stroke-linecap: round"/>
   </g>
   <g id="patch_91">
    <path d="M 167.349228 575.681194 
Q 222.777475 618.803179 276.882077 576.710196 
" clip-path="url(#p38a5896e80)" style="fill: none; stroke-dasharray: 5.55,2.4; stroke-dashoffset: 0; stroke: #0000ff; stroke-width: 1.5; stroke-linecap: round"/>
    <path d="M 270.304318 578.026664 
L 276.882077 576.710196 
L 273.988596 582.762284 
" clip-path="url(#p38a5896e80)" style="fill: none; stroke-dasharray: 5.55,2.4; stroke-dashoffset: 0; stroke: #0000ff; stroke-width: 1.5; stroke-linecap: round"/>
   </g>
   <g id="patch_92">
    <path d="M 205.347016 575.681194 
Q 260.775264 618.803179 314.879865 576.710196 
" clip-path="url(#p38a5896e80)" style="fill: none; stroke-dasharray: 5.55,2.4; stroke-dashoffset: 0; stroke: #0000ff; stroke-width: 1.5; stroke-linecap: round"/>
    <path d="M 308.302106 578.026664 
L 314.879865 576.710196 
L 311.986384 582.762284 
" clip-path="url(#p38a5896e80)" style="fill: none; stroke-dasharray: 5.55,2.4; stroke-dashoffset: 0; stroke: #0000ff; stroke-width: 1.5; stroke-linecap: round"/>
   </g>
   <g id="patch_93">
    <path d="M 243.340456 575.687627 
Q 374.768692 679.593263 504.881357 576.726815 
" clip-path="url(#p38a5896e80)" style="fill: none; stroke-dasharray: 5.55,2.4; stroke-dashoffset: 0; stroke: #0000ff; stroke-width: 1.5; stroke-linecap: round"/>
    <path d="M 498.31407 578.094567 
L 504.881357 576.726815 
L 502.035187 582.801296 
" clip-path="url(#p38a5896e80)" style="fill: none; stroke-dasharray: 5.55,2.4; stroke-dashoffset: 0; stroke: #0000ff; stroke-width: 1.5; stroke-linecap: round"/>
   </g>
   <g id="patch_94">
    <path d="M 357.33759 575.687648 
Q 450.764425 649.195133 542.873262 576.723516 
" clip-path="url(#p38a5896e80)" style="fill: none; stroke-dasharray: 5.55,2.4; stroke-dashoffset: 0; stroke: #0000ff; stroke-width: 1.5; stroke-linecap: round"/>
    <path d="M 536.302797 578.075916 
L 542.873262 576.723516 
L 540.012903 582.791328 
" clip-path="url(#p38a5896e80)" style="fill: none; stroke-dasharray: 5.55,2.4; stroke-dashoffset: 0; stroke: #0000ff; stroke-width: 1.5; stroke-linecap: round"/>
   </g>
   <g id="patch_95">
    <path d="M 357.33933 575.686421 
Q 431.766032 633.997634 504.872617 576.718811 
" clip-path="url(#p38a5896e80)" style="fill: none; stroke-dasharray: 5.55,2.4; stroke-dashoffset: 0; stroke: #0000ff; stroke-width: 1.5; stroke-linecap: round"/>
    <path d="M 498.299399 578.057767 
L 504.872617 576.718811 
L 501.999851 582.780759 
" clip-path="url(#p38a5896e80)" style="fill: none; stroke-dasharray: 5.55,2.4; stroke-dashoffset: 0; stroke: #0000ff; stroke-width: 1.5; stroke-linecap: round"/>
   </g>
   <g id="patch_96">
    <path d="M 205.346437 575.687648 
Q 298.773271 649.195133 390.882108 576.723516 
" clip-path="url(#p38a5896e80)" style="fill: none; stroke-dasharray: 5.55,2.4; stroke-dashoffset: 0; stroke: #0000ff; stroke-width: 1.5; stroke-linecap: round"/>
    <path d="M 384.311643 578.075916 
L 390.882108 576.723516 
L 388.021749 582.791328 
" clip-path="url(#p38a5896e80)" style="fill: none; stroke-dasharray: 5.55,2.4; stroke-dashoffset: 0; stroke: #0000ff; stroke-width: 1.5; stroke-linecap: round"/>
   </g>
   <g id="patch_97">
    <path d="M 319.340382 575.681194 
Q 374.768629 618.803179 428.873231 576.710196 
" clip-path="url(#p38a5896e80)" style="fill: none; stroke-dasharray: 5.55,2.4; stroke-dashoffset: 0; stroke: #0000ff; stroke-width: 1.5; stroke-linecap: round"/>
    <path d="M 422.295472 578.026664 
L 428.873231 576.710196 
L 425.979749 582.762284 
" clip-path="url(#p38a5896e80)" style="fill: none; stroke-dasharray: 5.55,2.4; stroke-dashoffset: 0; stroke: #0000ff; stroke-width: 1.5; stroke-linecap: round"/>
   </g>
   <g id="patch_98">
    <path d="M 471.331536 575.681194 
Q 526.759783 618.803179 580.864384 576.710196 
" clip-path="url(#p38a5896e80)" style="fill: none; stroke-dasharray: 5.55,2.4; stroke-dashoffset: 0; stroke: #0000ff; stroke-width: 1.5; stroke-linecap: round"/>
    <path d="M 574.286626 578.026664 
L 580.864384 576.710196 
L 577.970903 582.762284 
" clip-path="url(#p38a5896e80)" style="fill: none; stroke-dasharray: 5.55,2.4; stroke-dashoffset: 0; stroke: #0000ff; stroke-width: 1.5; stroke-linecap: round"/>
   </g>
   <g id="line2d_19">
    <defs>
     <path id="ma4dedda066" d="M 0 3 
C 0.795609 3 1.55874 2.683901 2.12132 2.12132 
C 2.683901 1.55874 3 0.795609 3 0 
C 3 -0.795609 2.683901 -1.55874 2.12132 -2.12132 
C 1.55874 -2.683901 0.795609 -3 0 -3 
C -0.795609 -3 -1.55874 -2.683901 -2.12132 -2.12132 
C -2.683901 -1.55874 -3 -0.795609 -3 0 
C -3 0.795609 -2.683901 1.55874 -2.12132 2.12132 
C -1.55874 2.683901 -0.795609 3 0 3 
z
" style="stroke: #000000"/>
    </defs>
    <g clip-path="url(#p38a5896e80)">
     <use xlink:href="#ma4dedda066" x="165.780288" y="574.443317" style="stroke: #000000"/>
     <use xlink:href="#ma4dedda066" x="203.778077" y="574.443317" style="stroke: #000000"/>
     <use xlink:href="#ma4dedda066" x="241.775865" y="574.443317" style="stroke: #000000"/>
     <use xlink:href="#ma4dedda066" x="279.773654" y="574.443317" style="stroke: #000000"/>
     <use xlink:href="#ma4dedda066" x="317.771442" y="574.443317" style="stroke: #000000"/>
     <use xlink:href="#ma4dedda066" x="355.769231" y="574.443317" style="stroke: #000000"/>
     <use xlink:href="#ma4dedda066" x="393.767019" y="574.443317" style="stroke: #000000"/>
     <use xlink:href="#ma4dedda066" x="431.764808" y="574.443317" style="stroke: #000000"/>
     <use xlink:href="#ma4dedda066" x="469.762596" y="574.443317" style="stroke: #000000"/>
     <use xlink:href="#ma4dedda066" x="507.760385" y="574.443317" style="stroke: #000000"/>
     <use xlink:href="#ma4dedda066" x="545.758173" y="574.443317" style="stroke: #000000"/>
     <use xlink:href="#ma4dedda066" x="583.755962" y="574.443317" style="stroke: #000000"/>
    </g>
   </g>
   <g id="text_34">
    <!-- (b) 网络连边 -->
    <g transform="translate(338.768125 378.454375) scale(0.12 -0.12)">
     <defs>
      <path id="SimHei-62" d="M 2825 1525 
Q 2825 800 2475 437 
Q 2125 75 1625 75 
Q 1350 75 1150 175 
Q 950 275 800 500 
L 800 125 
L 300 125 
L 300 4400 
L 800 4400 
L 800 2550 
Q 950 2775 1150 2887 
Q 1350 3000 1625 3000 
Q 2125 3000 2475 2625 
Q 2825 2250 2825 1525 
z
M 2275 1525 
Q 2275 2000 2087 2275 
Q 1900 2550 1525 2550 
Q 1225 2550 1012 2275 
Q 800 2000 800 1525 
Q 800 1050 1012 787 
Q 1225 525 1525 525 
Q 1900 525 2087 787 
Q 2275 1050 2275 1525 
z
" transform="scale(0.015625)"/>
      <path id="SimHei-7f51" d="M 5875 4900 
Q 5825 4575 5825 3975 
L 5825 0 
Q 5825 -400 5537 -462 
Q 5250 -525 4775 -600 
Q 4725 -350 4525 -50 
Q 5025 -75 5175 -25 
Q 5325 25 5325 250 
L 5325 4475 
L 1100 4475 
L 1100 -600 
L 550 -600 
Q 600 -100 600 250 
L 600 3975 
Q 600 4375 550 4900 
L 5875 4900 
z
M 3675 3525 
Q 4050 2800 4175 2600 
Q 4475 3625 4550 4050 
Q 4825 3900 5100 3775 
Q 4975 3600 4825 3150 
Q 4675 2700 4450 2100 
Q 4725 1575 5125 875 
Q 4850 800 4625 675 
L 4175 1575 
Q 4000 1225 3825 962 
Q 3650 700 3350 300 
Q 3175 500 2850 575 
Q 3075 800 3337 1125 
Q 3600 1450 3925 2075 
Q 3575 2800 3200 3300 
Q 3400 3375 3675 3525 
z
M 1725 3800 
Q 1875 3525 2037 3237 
Q 2200 2950 2375 2675 
Q 2675 3675 2725 4050 
Q 3000 3950 3325 3850 
Q 3175 3675 3050 3312 
Q 2925 2950 2650 2200 
Q 2875 1850 3200 1300 
Q 2950 1150 2775 975 
Q 2525 1500 2400 1700 
Q 1950 775 1600 325 
Q 1400 500 1175 575 
Q 1575 1000 2150 2175 
Q 1550 3250 1250 3600 
Q 1475 3700 1725 3800 
z
" transform="scale(0.015625)"/>
      <path id="SimHei-7edc" d="M 2400 3100 
Q 2675 3400 2850 3700 
Q 3025 4000 3187 4362 
Q 3350 4725 3450 5200 
Q 3725 5075 4050 5025 
Q 3900 4800 3725 4450 
L 5750 4450 
Q 5375 3700 5125 3325 
Q 4875 2950 4600 2650 
Q 4925 2425 5375 2275 
Q 5825 2125 6200 2050 
Q 6075 1850 5950 1525 
Q 5700 1600 5500 1675 
Q 5450 1325 5450 1025 
L 5450 125 
Q 5450 -250 5475 -650 
L 5000 -650 
L 5000 -175 
L 3500 -175 
L 3500 -700 
L 3025 -700 
Q 3050 -325 3050 0 
L 3050 1000 
Q 3050 1200 3025 1675 
Q 2875 1600 2600 1500 
Q 2500 1775 2325 1975 
Q 2700 2075 3162 2262 
Q 3625 2450 3900 2675 
Q 3575 3100 3350 3625 
Q 3075 3200 2800 2825 
Q 2650 2975 2400 3100 
z
M 1825 4725 
Q 1650 4500 1425 4037 
Q 1200 3575 900 3050 
L 1600 3050 
Q 1875 3575 2000 3975 
Q 2250 3775 2500 3650 
Q 2350 3475 2050 2937 
Q 1750 2400 1225 1525 
Q 1975 1650 2300 1700 
Q 2275 1375 2300 1225 
Q 1700 1150 1375 1087 
Q 1050 1025 625 925 
Q 550 1200 450 1400 
Q 700 1500 937 1850 
Q 1175 2200 1425 2700 
Q 750 2675 400 2525 
Q 325 2750 225 3025 
Q 525 3175 825 3787 
Q 1125 4400 1275 5000 
Q 1550 4825 1825 4725 
z
M 5000 225 
L 5000 1300 
L 3500 1300 
L 3500 225 
L 5000 225 
z
M 2375 700 
Q 2425 450 2425 250 
Q 2150 200 1637 25 
Q 1125 -150 650 -350 
Q 550 -50 425 200 
Q 1050 325 1462 425 
Q 1875 525 2375 700 
z
M 4275 2975 
Q 4425 3125 4637 3425 
Q 4850 3725 5000 4050 
L 3650 4050 
Q 3900 3425 4275 2975 
z
M 5475 1700 
Q 5125 1850 4812 2000 
Q 4500 2150 4225 2350 
Q 3925 2150 3662 2000 
Q 3400 1850 3075 1700 
L 5475 1700 
z
" transform="scale(0.015625)"/>
      <path id="SimHei-8fde" d="M 3175 4350 
Q 3425 4925 3475 5200 
Q 3875 5025 4050 4975 
Q 3925 4875 3675 4350 
L 5025 4350 
Q 5550 4350 5850 4375 
L 5850 3925 
Q 5525 3950 5100 3950 
L 3475 3950 
Q 3350 3700 2875 2925 
L 3875 2925 
Q 3875 3400 3850 3725 
L 4350 3725 
Q 4325 3450 4325 2925 
Q 5575 2925 5650 2950 
L 5650 2475 
Q 5500 2525 4325 2525 
L 4325 1700 
L 5250 1700 
Q 5800 1700 5950 1725 
L 5950 1275 
Q 5650 1300 5250 1300 
L 4325 1300 
Q 4325 600 4350 75 
L 3850 75 
Q 3875 600 3875 1300 
Q 2150 1300 1975 1275 
L 1975 1725 
Q 2650 1700 3875 1700 
L 3875 2525 
L 3075 2525 
Q 2525 2500 2375 2450 
L 2200 2900 
Q 2400 3025 2587 3275 
Q 2775 3525 2975 3950 
Q 2325 3950 1975 3925 
L 1975 4375 
Q 2300 4350 3175 4350 
z
M 1625 2925 
Q 1600 2425 1600 2100 
L 1600 550 
Q 2325 -75 3825 -75 
Q 5350 -75 6175 0 
Q 6025 -250 5975 -550 
Q 4975 -550 4175 -537 
Q 3375 -525 2750 -412 
Q 2125 -300 1762 -50 
Q 1400 200 1175 -12 
Q 950 -225 675 -550 
Q 525 -350 275 -175 
Q 850 300 1100 475 
L 1100 2525 
Q 775 2525 400 2500 
L 400 2950 
Q 800 2925 1125 2925 
L 1625 2925 
z
M 975 4950 
Q 1450 4275 1775 3750 
Q 1550 3675 1300 3500 
Q 1175 3875 550 4650 
Q 775 4850 975 4950 
z
" transform="scale(0.015625)"/>
      <path id="SimHei-8fb9" d="M 3450 3950 
Q 3450 4750 3425 5250 
Q 3800 5175 4050 5175 
Q 3975 4825 3950 3950 
L 5725 3950 
Q 5650 3525 5625 3100 
L 5500 1150 
Q 5475 725 5062 612 
Q 4650 500 4300 400 
Q 4275 725 4050 1050 
Q 4650 1075 4837 1137 
Q 5025 1200 5050 1450 
L 5175 3500 
L 3925 3500 
Q 3825 2500 3525 1837 
Q 3225 1175 2625 500 
Q 2400 725 2075 900 
Q 2625 1275 2987 1937 
Q 3350 2600 3425 3500 
Q 2825 3500 2275 3450 
L 2275 3975 
Q 2725 3950 3450 3950 
z
M 1625 2900 
Q 1600 2475 1600 2125 
L 1600 675 
Q 2225 50 3775 0 
Q 5325 -50 6200 50 
Q 5950 -150 5925 -550 
Q 5125 -550 4350 -525 
Q 3575 -500 2925 -387 
Q 2275 -275 1850 75 
Q 1425 425 1187 175 
Q 950 -75 725 -550 
Q 500 -325 225 -150 
Q 875 350 1100 625 
L 1100 2450 
Q 650 2450 225 2425 
L 225 2925 
Q 725 2900 1150 2900 
L 1625 2900 
z
M 1150 5075 
Q 1600 4200 1700 3900 
Q 1450 3825 1175 3675 
Q 1150 3925 650 4875 
Q 925 4975 1150 5075 
z
" transform="scale(0.015625)"/>
     </defs>
     <use xlink:href="#SimHei-28"/>
     <use xlink:href="#SimHei-62" transform="translate(50 0)"/>
     <use xlink:href="#SimHei-29" transform="translate(100 0)"/>
     <use xlink:href="#SimHei-20" transform="translate(150 0)"/>
     <use xlink:href="#SimHei-7f51" transform="translate(200 0)"/>
     <use xlink:href="#SimHei-7edc" transform="translate(300 0)"/>
     <use xlink:href="#SimHei-8fde" transform="translate(400 0)"/>
     <use xlink:href="#SimHei-8fb9" transform="translate(500 0)"/>
    </g>
   </g>
  </g>
  <g id="text_35">
   <!-- 有向有限穿越可视图 (DLPVG, N=1) - O(n^2) 逻辑实现 -->
   <g transform="translate(160.44875 20.075) scale(0.16 -0.16)">
    <defs>
     <path id="SimHei-6709" d="M 275 1625 
Q 850 1975 1400 2537 
Q 1950 3100 2400 3925 
L 1500 3925 
Q 1150 3925 625 3900 
L 625 4375 
Q 1275 4350 1600 4350 
L 2550 4350 
Q 2750 4950 2775 5225 
Q 3150 5125 3375 5075 
Q 3300 5000 3125 4350 
L 5150 4350 
Q 5575 4350 6025 4375 
L 6025 3900 
Q 5575 3925 5225 3925 
L 2975 3925 
Q 2800 3600 2600 3275 
L 5475 3275 
Q 5450 2650 5450 2150 
L 5450 125 
Q 5450 -225 5250 -387 
Q 5050 -550 4400 -600 
Q 4375 -325 4225 0 
Q 4600 -50 4775 -25 
Q 4950 0 4950 250 
L 4950 750 
L 2350 750 
L 2350 -575 
L 1800 -575 
Q 1825 50 1825 500 
L 1825 2275 
Q 1300 1675 725 1225 
Q 625 1400 275 1625 
z
M 4950 2175 
L 4950 2875 
L 2350 2875 
L 2350 2175 
L 4950 2175 
z
M 4950 1150 
L 4950 1775 
L 2350 1775 
L 2350 1150 
L 4950 1150 
z
" transform="scale(0.015625)"/>
     <path id="SimHei-5411" d="M 2025 4150 
Q 2125 4400 2187 4637 
Q 2250 4875 2300 5175 
Q 2750 5025 2925 5000 
Q 2650 4400 2550 4150 
L 5850 4150 
Q 5825 3700 5825 3275 
L 5825 225 
Q 5825 -325 5487 -412 
Q 5150 -500 4700 -525 
Q 4625 -175 4450 50 
Q 5075 25 5212 50 
Q 5350 75 5325 325 
L 5325 3700 
L 1250 3700 
L 1250 -500 
L 725 -500 
Q 725 150 750 550 
L 750 3250 
Q 725 3700 725 4150 
L 2025 4150 
z
M 4450 2825 
Q 4425 2500 4425 2175 
L 4425 1600 
Q 4425 1275 4450 900 
L 2025 900 
Q 2050 1250 2050 1600 
L 2050 2225 
Q 2050 2525 2025 2825 
L 4450 2825 
z
M 3900 1300 
L 3900 2425 
L 2550 2425 
L 2550 1300 
L 3900 1300 
z
" transform="scale(0.015625)"/>
     <path id="SimHei-9650" d="M 5550 4950 
Q 5525 4500 5525 3700 
Q 5525 2925 5550 2475 
L 4375 2475 
Q 4375 2000 4625 1475 
Q 5275 1900 5475 2250 
Q 5675 1950 5850 1800 
Q 5400 1575 4750 1150 
Q 5025 775 5325 500 
Q 5625 225 6200 25 
Q 5900 -125 5750 -450 
Q 5150 -75 4812 312 
Q 4475 700 4262 1212 
Q 4050 1725 3975 2475 
L 3400 2475 
L 3400 200 
Q 3800 400 4125 675 
Q 4150 450 4225 150 
Q 4000 25 3637 -175 
Q 3275 -375 3025 -575 
Q 2925 -375 2750 -125 
Q 2900 25 2950 325 
L 2950 3850 
Q 2950 4350 2925 4950 
L 5550 4950 
z
M 2500 4950 
Q 2050 3475 1875 2950 
Q 2375 2350 2450 1850 
Q 2525 1350 2237 1025 
Q 1950 700 1525 575 
Q 1500 900 1300 1150 
Q 1750 1150 1875 1325 
Q 2000 1500 1975 1887 
Q 1950 2275 1375 2925 
Q 1775 4050 1875 4550 
L 1125 4550 
L 1125 -500 
L 650 -500 
Q 675 200 675 875 
L 675 3800 
Q 675 4250 650 4950 
L 2500 4950 
z
M 5075 2875 
L 5075 3550 
L 3400 3550 
L 3400 2875 
L 5075 2875 
z
M 5075 3925 
L 5075 4550 
L 3400 4550 
L 3400 3925 
L 5075 3925 
z
" transform="scale(0.015625)"/>
     <path id="SimHei-7a7f" d="M 4825 2900 
Q 5100 2900 5600 2925 
L 5600 2475 
Q 5100 2500 4825 2500 
L 4525 2500 
L 4525 1700 
L 5100 1700 
Q 5525 1700 6000 1725 
L 6000 1275 
Q 5425 1300 5100 1300 
L 4525 1300 
L 4525 0 
Q 4525 -425 4212 -500 
Q 3900 -575 3425 -625 
Q 3375 -325 3200 0 
Q 3725 -25 3875 0 
Q 4025 25 4025 400 
L 4025 1300 
L 3850 1300 
Q 3525 975 3225 737 
Q 2925 500 2562 300 
Q 2200 100 1775 -62 
Q 1350 -225 725 -425 
Q 575 -200 350 50 
Q 825 100 1262 237 
Q 1700 375 2050 537 
Q 2400 700 2687 887 
Q 2975 1075 3200 1300 
Q 2525 1300 2025 1287 
Q 1525 1275 1150 1200 
Q 1050 1450 950 1675 
Q 1200 1775 1337 2025 
Q 1475 2275 1575 2500 
Q 1250 2500 825 2475 
L 825 2925 
Q 1225 2900 1550 2900 
L 4825 2900 
z
M 3325 5275 
Q 3425 5000 3575 4550 
L 5950 4550 
Q 5925 4300 5925 4025 
Q 5925 3775 5950 3475 
L 5450 3475 
L 5450 4150 
L 1125 4150 
L 1125 3500 
L 600 3500 
Q 625 3800 625 4050 
Q 625 4325 600 4550 
L 3000 4550 
Q 2950 4775 2800 5100 
Q 3050 5150 3325 5275 
z
M 4025 1700 
L 4025 2500 
L 2125 2500 
Q 1825 1950 1650 1700 
L 4025 1700 
z
M 4000 4050 
Q 4325 3900 4650 3762 
Q 4975 3625 5375 3450 
Q 5225 3250 5050 3000 
Q 4800 3150 4475 3325 
Q 4150 3500 3700 3700 
Q 3875 3875 4000 4050 
z
M 2875 3625 
Q 2675 3575 2287 3387 
Q 1900 3200 1475 2975 
Q 1300 3225 1175 3400 
Q 1675 3550 1950 3700 
Q 2225 3850 2475 4050 
Q 2625 3875 2875 3625 
z
" transform="scale(0.015625)"/>
     <path id="SimHei-8d8a" d="M 1275 1875 
Q 1225 1525 1175 1125 
Q 1400 825 1750 600 
L 1750 2550 
Q 975 2550 500 2525 
L 500 2925 
Q 975 2900 1625 2900 
L 1625 3850 
Q 1075 3850 700 3825 
L 700 4225 
Q 1075 4200 1625 4200 
Q 1625 4700 1600 5125 
L 2075 5125 
Q 2050 4750 2050 4200 
Q 2475 4200 2850 4225 
L 2850 3825 
Q 2475 3850 2050 3850 
L 2050 2900 
Q 2450 2900 2900 2925 
L 2900 2525 
Q 2475 2550 2175 2550 
L 2175 1700 
Q 2450 1700 2800 1725 
L 2800 1350 
Q 2450 1375 2175 1375 
L 2175 350 
Q 2925 0 4162 -25 
Q 5400 -50 6025 50 
Q 5850 -250 5825 -475 
Q 4900 -475 4137 -462 
Q 3375 -450 2825 -312 
Q 2275 -175 1850 50 
Q 1425 275 1100 650 
Q 925 -75 675 -525 
Q 450 -325 350 -250 
Q 575 175 662 537 
Q 750 900 787 1287 
Q 825 1675 825 2000 
Q 1075 1900 1275 1875 
z
M 4600 5000 
Q 4550 4725 4550 4500 
L 4550 3975 
Q 5350 3975 5825 4000 
L 5825 3625 
Q 5350 3650 4575 3650 
Q 4600 3400 4650 2837 
Q 4700 2275 4800 1875 
Q 5100 2550 5225 3200 
Q 5425 3050 5675 2950 
Q 5550 2800 5400 2387 
Q 5250 1975 5000 1375 
Q 5100 1125 5300 937 
Q 5500 750 5600 1425 
Q 5800 1200 6000 1125 
Q 5800 500 5525 350 
Q 5250 200 4725 1025 
Q 4375 600 4000 225 
Q 3825 400 3625 475 
Q 3850 625 4087 850 
Q 4325 1075 4500 1425 
Q 4300 2075 4175 3650 
L 3550 3650 
L 3550 1525 
Q 3750 1650 4025 1900 
Q 4075 1675 4175 1475 
Q 3975 1325 3737 1150 
Q 3500 975 3250 775 
Q 3150 950 3000 1150 
Q 3150 1250 3150 1475 
L 3150 3200 
Q 3150 3525 3125 3975 
L 4150 3975 
Q 4125 4650 4100 5075 
Q 4375 5000 4600 5000 
z
M 5100 4975 
Q 5300 4800 5750 4425 
Q 5600 4325 5475 4125 
Q 5150 4475 4825 4700 
Q 4975 4825 5100 4975 
z
" transform="scale(0.015625)"/>
     <path id="SimHei-53ef" d="M 3600 3500 
Q 3575 3175 3575 2775 
L 3575 1550 
Q 3575 1125 3600 825 
L 3075 825 
L 3075 1275 
L 1650 1275 
L 1650 600 
L 1150 600 
Q 1175 775 1175 1175 
L 1175 2775 
Q 1175 3175 1150 3500 
L 3600 3500 
z
M 5200 4675 
Q 5600 4675 6050 4700 
L 6050 4225 
Q 5650 4250 5225 4250 
L 5075 4250 
L 5075 125 
Q 5075 -325 4812 -462 
Q 4550 -600 3750 -675 
Q 3700 -350 3550 -75 
Q 4075 -100 4300 -50 
Q 4525 0 4525 225 
L 4525 4250 
L 1525 4250 
Q 875 4250 350 4225 
L 350 4700 
Q 875 4675 1500 4675 
L 5200 4675 
z
M 3075 1700 
L 3075 3075 
L 1650 3075 
L 1650 1700 
L 3075 1700 
z
" transform="scale(0.015625)"/>
     <path id="SimHei-89c6" d="M 4500 3875 
Q 4400 3700 4375 3187 
Q 4350 2675 4225 1750 
L 4675 1750 
Q 4650 1500 4650 1075 
L 4650 400 
Q 4650 25 4825 12 
Q 5000 0 5225 0 
Q 5475 0 5537 100 
Q 5600 200 5650 725 
Q 5925 550 6175 500 
Q 6000 -425 5600 -425 
L 4600 -425 
Q 4200 -400 4200 100 
L 4200 1600 
Q 3900 800 3525 325 
Q 3150 -150 2500 -650 
Q 2300 -425 2050 -325 
Q 2750 100 3150 625 
Q 3550 1150 3712 1725 
Q 3875 2300 3900 2875 
Q 3925 3450 3875 3975 
Q 4175 3925 4500 3875 
z
M 5525 4875 
Q 5500 4475 5500 3925 
L 5500 2550 
Q 5500 2100 5525 1625 
L 5050 1625 
L 5050 4475 
L 3275 4475 
L 3275 1600 
L 2800 1600 
Q 2825 2025 2825 2525 
L 2825 3900 
Q 2825 4425 2800 4875 
L 5525 4875 
z
M 2275 3900 
Q 2200 3650 2062 3287 
Q 1925 2925 1650 2475 
L 1650 475 
Q 1650 25 1675 -625 
L 1175 -625 
Q 1200 75 1200 500 
L 1200 1875 
Q 950 1525 500 1125 
Q 350 1375 200 1525 
Q 725 1925 1100 2475 
Q 1475 3025 1650 3500 
L 1025 3500 
Q 650 3500 350 3475 
L 350 3925 
Q 725 3900 1025 3900 
L 2275 3900 
z
M 1350 5225 
Q 1675 4750 1900 4400 
Q 1725 4275 1450 4100 
Q 1250 4550 950 4950 
Q 1175 5075 1350 5225 
z
M 2025 2500 
Q 2325 2075 2550 1675 
Q 2350 1575 2150 1375 
Q 1925 1825 1675 2225 
Q 1850 2350 2025 2500 
z
" transform="scale(0.015625)"/>
     <path id="SimHei-56fe" d="M 5800 4975 
Q 5775 4350 5775 3600 
L 5775 925 
Q 5775 150 5800 -600 
L 5300 -600 
L 5300 -275 
L 1125 -275 
L 1125 -650 
L 625 -650 
Q 650 125 650 950 
L 650 3600 
Q 650 4325 625 4975 
L 5800 4975 
z
M 5300 150 
L 5300 4575 
L 1125 4575 
L 1125 150 
L 5300 150 
z
M 3225 4250 
Q 3075 4100 2950 3925 
L 4625 3925 
Q 4525 3700 4300 3375 
Q 4075 3050 3600 2600 
Q 4350 2225 5075 2150 
Q 4900 1925 4775 1675 
Q 3850 1950 3225 2350 
Q 2500 1875 1675 1650 
Q 1600 1875 1400 2075 
Q 2200 2200 2875 2600 
Q 2525 2925 2375 3150 
Q 2150 2900 1900 2650 
Q 1725 2850 1525 2950 
Q 1950 3300 2250 3737 
Q 2550 4175 2675 4475 
Q 2925 4350 3225 4250 
z
M 2450 1275 
Q 3550 950 4100 725 
Q 3975 525 3850 300 
Q 2825 725 2275 850 
Q 2375 1050 2450 1275 
z
M 2925 2050 
Q 3775 1700 4075 1600 
Q 3950 1400 3850 1150 
Q 3000 1550 2700 1650 
Q 2825 1825 2925 2050 
z
M 2625 3450 
Q 3000 3025 3275 2850 
Q 3600 3100 3875 3525 
L 2675 3525 
L 2625 3450 
z
" transform="scale(0.015625)"/>
     <path id="SimHei-44" d="M 2925 2250 
Q 2925 1100 2437 612 
Q 1950 125 1125 125 
L 275 125 
L 275 4400 
L 1125 4400 
Q 2050 4400 2487 3900 
Q 2925 3400 2925 2250 
z
M 2325 2250 
Q 2325 3175 2025 3550 
Q 1725 3925 1125 3925 
L 850 3925 
L 850 600 
L 1125 600 
Q 1725 600 2025 962 
Q 2325 1325 2325 2250 
z
" transform="scale(0.015625)"/>
     <path id="SimHei-4c" d="M 2900 125 
L 300 125 
L 300 4400 
L 875 4400 
L 875 600 
L 2900 600 
L 2900 125 
z
" transform="scale(0.015625)"/>
     <path id="SimHei-50" d="M 2950 3100 
Q 2950 2500 2600 2150 
Q 2250 1800 1625 1800 
L 900 1800 
L 900 125 
L 325 125 
L 325 4400 
L 1625 4400 
Q 2250 4400 2600 4050 
Q 2950 3700 2950 3100 
z
M 2375 3100 
Q 2375 3575 2150 3750 
Q 1925 3925 1475 3925 
L 900 3925 
L 900 2275 
L 1475 2275 
Q 1925 2275 2150 2450 
Q 2375 2625 2375 3100 
z
" transform="scale(0.015625)"/>
     <path id="SimHei-56" d="M 3050 4400 
L 1800 75 
L 1300 75 
L 50 4400 
L 650 4400 
L 1525 1125 
L 1575 1125 
L 2450 4400 
L 3050 4400 
z
" transform="scale(0.015625)"/>
     <path id="SimHei-47" d="M 2850 75 
L 2425 75 
L 2350 425 
Q 2250 275 2037 175 
Q 1825 75 1575 75 
Q 1050 75 637 562 
Q 225 1050 225 2125 
Q 225 3300 600 3875 
Q 975 4450 1625 4450 
Q 2200 4450 2525 4025 
Q 2850 3600 2850 2925 
L 2300 2925 
Q 2300 3450 2125 3712 
Q 1950 3975 1625 3975 
Q 1225 3975 1025 3562 
Q 825 3150 825 2175 
Q 825 1250 1075 900 
Q 1325 550 1650 550 
Q 1975 550 2162 787 
Q 2350 1025 2350 1525 
L 2350 1800 
L 1575 1800 
L 1575 2275 
L 2850 2275 
L 2850 75 
z
" transform="scale(0.015625)"/>
     <path id="SimHei-2c" d="M 1100 125 
L 775 -550 
L 525 -550 
L 775 125 
L 525 125 
L 525 675 
L 1100 675 
L 1100 125 
z
" transform="scale(0.015625)"/>
     <path id="SimHei-4e" d="M 2850 125 
L 2225 125 
L 850 3225 
L 825 3225 
L 825 125 
L 250 125 
L 250 4400 
L 875 4400 
L 2250 1300 
L 2275 1300 
L 2275 4400 
L 2850 4400 
L 2850 125 
z
" transform="scale(0.015625)"/>
     <path id="SimHei-3d" d="M 2975 2900 
L 125 2900 
L 125 3300 
L 2975 3300 
L 2975 2900 
z
M 2975 1375 
L 125 1375 
L 125 1775 
L 2975 1775 
L 2975 1375 
z
" transform="scale(0.015625)"/>
     <path id="SimHei-2d" d="M 2975 2125 
L 125 2125 
L 125 2525 
L 2975 2525 
L 2975 2125 
z
" transform="scale(0.015625)"/>
     <path id="SimHei-4f" d="M 2950 2275 
Q 2950 1100 2587 587 
Q 2225 75 1575 75 
Q 925 75 550 587 
Q 175 1100 175 2275 
Q 175 3450 550 3950 
Q 925 4450 1575 4450 
Q 2225 4450 2587 3950 
Q 2950 3450 2950 2275 
z
M 2350 2275 
Q 2350 3325 2125 3650 
Q 1900 3975 1575 3975 
Q 1250 3975 1012 3650 
Q 775 3325 775 2275 
Q 775 1225 1012 887 
Q 1250 550 1575 550 
Q 1900 550 2125 887 
Q 2350 1225 2350 2275 
z
" transform="scale(0.015625)"/>
     <path id="SimHei-6e" d="M 2800 125 
L 2300 125 
L 2300 1925 
Q 2300 2225 2150 2400 
Q 2000 2575 1750 2575 
Q 1425 2575 1137 2237 
Q 850 1900 850 1400 
L 850 125 
L 350 125 
L 350 2925 
L 850 2925 
L 850 2400 
Q 1050 2675 1287 2825 
Q 1525 2975 1900 2975 
Q 2350 2975 2575 2725 
Q 2800 2475 2800 2100 
L 2800 125 
z
" transform="scale(0.015625)"/>
     <path id="SimHei-5e" d="M 2750 4125 
L 2300 4125 
L 1550 4750 
L 800 4125 
L 350 4125 
L 1250 5150 
L 1850 5150 
L 2750 4125 
z
" transform="scale(0.015625)"/>
     <path id="SimHei-903b" d="M 3825 3025 
Q 3625 2875 3450 2675 
L 5675 2675 
Q 5175 1600 4625 1150 
Q 4075 700 3625 512 
Q 3175 325 2400 150 
Q 2300 450 2075 675 
Q 2500 725 2962 812 
Q 3425 900 3775 1100 
Q 3400 1425 3050 1650 
Q 3275 1875 3375 2025 
Q 3875 1675 4175 1400 
Q 4600 1725 4900 2275 
L 3200 2275 
Q 2800 1850 2350 1475 
Q 2125 1700 1925 1850 
Q 2825 2450 3275 3325 
L 2075 3325 
Q 2100 3800 2100 4200 
Q 2100 4625 2075 5075 
L 5800 5075 
Q 5775 4775 5775 4175 
Q 5775 3600 5800 3325 
L 3350 3325 
Q 3575 3150 3825 3025 
z
M 1450 3200 
Q 1425 2700 1425 2275 
L 1425 575 
Q 2150 -25 3700 -25 
Q 5275 -25 6175 75 
Q 6000 -225 5950 -525 
Q 4850 -525 4137 -512 
Q 3425 -500 2937 -437 
Q 2450 -375 2162 -287 
Q 1875 -200 1600 -12 
Q 1325 175 1150 0 
Q 975 -175 650 -550 
Q 500 -350 225 -175 
Q 600 100 975 425 
L 975 2800 
Q 650 2800 275 2775 
L 275 3225 
Q 650 3200 1450 3200 
z
M 3225 3700 
L 3225 4675 
L 2575 4675 
L 2575 3700 
L 3225 3700 
z
M 1150 5225 
Q 1425 4350 1500 4050 
Q 1225 3975 1025 3850 
Q 875 4475 650 5100 
Q 875 5150 1150 5225 
z
M 5300 3700 
L 5300 4675 
L 4675 4675 
L 4675 3700 
L 5300 3700 
z
M 4250 3700 
L 4250 4675 
L 3650 4675 
L 3650 3700 
L 4250 3700 
z
" transform="scale(0.015625)"/>
     <path id="SimHei-8f91" d="M 6100 700 
Q 6075 450 6075 300 
Q 6000 300 5500 225 
Q 5500 -200 5525 -675 
L 5050 -675 
Q 5075 -275 5075 150 
Q 3325 -50 2800 -200 
L 2650 300 
L 3150 350 
L 3150 2725 
Q 2900 2725 2650 2700 
L 2650 3125 
Q 3025 3100 3450 3100 
L 5500 3100 
Q 5725 3100 6025 3125 
L 6025 2700 
Q 5800 2725 5500 2725 
L 5500 600 
Q 5750 650 6100 700 
z
M 2875 1000 
Q 2550 900 2050 750 
Q 2050 75 2075 -650 
L 1600 -650 
Q 1625 75 1625 650 
Q 775 425 475 325 
Q 425 450 300 800 
Q 600 825 1625 1075 
L 1625 2000 
L 1025 2000 
Q 725 2000 525 1925 
L 350 2375 
Q 575 2450 762 2887 
Q 950 3325 1125 3950 
Q 900 3950 325 3925 
L 325 4350 
Q 1000 4325 1225 4325 
Q 1375 4800 1450 5200 
Q 1650 5100 1950 5050 
Q 1800 4700 1675 4325 
Q 2375 4325 2925 4350 
L 2925 3925 
Q 2300 3950 1575 3950 
Q 1400 3425 1025 2400 
L 1625 2400 
Q 1625 2925 1600 3300 
L 2075 3300 
Q 2050 2950 2050 2400 
L 2775 2400 
L 2775 2000 
L 2050 2000 
L 2050 1150 
Q 2525 1275 2875 1400 
L 2875 1000 
z
M 5600 4825 
Q 5575 4550 5575 4150 
Q 5575 3775 5600 3500 
L 3150 3500 
Q 3175 3850 3175 4200 
Q 3175 4550 3150 4825 
L 5600 4825 
z
M 5150 3850 
L 5150 4475 
L 3575 4475 
L 3575 3850 
L 5150 3850 
z
M 5075 1325 
L 5075 1850 
L 3575 1850 
L 3575 1325 
L 5075 1325 
z
M 5075 2200 
L 5075 2725 
L 3575 2725 
L 3575 2200 
L 5075 2200 
z
M 5075 550 
L 5075 975 
L 3575 975 
L 3575 375 
L 5075 550 
z
" transform="scale(0.015625)"/>
     <path id="SimHei-5b9e" d="M 4125 3500 
Q 4050 3200 4000 2675 
Q 3950 2150 3850 1550 
L 5025 1550 
Q 5475 1550 5975 1575 
L 5975 1100 
Q 5450 1125 5000 1125 
L 3725 1125 
Q 3500 625 3050 250 
Q 2600 -125 2000 -337 
Q 1400 -550 925 -675 
Q 825 -375 500 -200 
Q 1225 -125 2050 212 
Q 2875 550 3200 1125 
L 1425 1125 
Q 975 1125 425 1100 
L 425 1575 
Q 1000 1550 1425 1550 
L 3375 1550 
Q 3450 1975 3487 2462 
Q 3525 2950 3500 3650 
Q 3800 3550 4125 3500 
z
M 3250 5250 
Q 3450 4850 3600 4375 
L 5775 4375 
Q 5750 4100 5750 3825 
Q 5750 3575 5775 3275 
L 5200 3275 
L 5200 3975 
L 1225 3975 
L 1225 3225 
L 675 3225 
Q 700 3525 700 3800 
Q 700 4100 675 4375 
L 2975 4375 
Q 2900 4675 2700 5075 
Q 2900 5150 3250 5250 
z
M 4000 825 
Q 4550 525 5050 262 
Q 5550 0 5925 -225 
Q 5750 -425 5550 -650 
Q 5100 -325 4575 -37 
Q 4050 250 3675 400 
Q 3875 650 4000 825 
z
M 1175 2750 
Q 1600 2550 2350 2050 
Q 2250 1900 2050 1650 
Q 1350 2175 925 2350 
Q 1075 2500 1175 2750 
z
M 3150 2825 
Q 2975 2625 2850 2425 
Q 2050 3000 1675 3125 
Q 1800 3300 1950 3525 
L 3150 2825 
z
" transform="scale(0.015625)"/>
     <path id="SimHei-73b0" d="M 4650 3850 
Q 4550 3575 4512 2975 
Q 4475 2375 4350 1700 
L 4850 1700 
Q 4825 1450 4825 1025 
L 4825 225 
Q 4825 -150 4962 -175 
Q 5100 -200 5275 -187 
Q 5450 -175 5525 -12 
Q 5600 150 5625 575 
Q 5875 425 6175 375 
Q 6050 -150 5925 -337 
Q 5800 -525 5400 -575 
L 4900 -575 
Q 4350 -575 4350 -100 
L 4350 1650 
Q 4125 850 3700 312 
Q 3275 -225 2425 -675 
Q 2300 -475 2000 -325 
Q 2800 0 3175 387 
Q 3550 775 3775 1375 
Q 4000 1975 4037 2625 
Q 4075 3275 4050 3925 
Q 4375 3875 4650 3850 
z
M 1850 4625 
Q 2125 4625 2525 4650 
L 2525 4175 
Q 2125 4200 1675 4200 
L 1675 2825 
Q 2025 2825 2425 2850 
L 2425 2375 
Q 2025 2400 1675 2400 
L 1675 875 
Q 2100 975 2550 1125 
Q 2525 850 2525 650 
Q 1700 450 1200 275 
Q 700 100 450 -25 
Q 375 325 250 575 
Q 650 625 1225 750 
L 1225 2400 
Q 825 2400 450 2375 
L 450 2850 
Q 825 2825 1225 2825 
L 1225 4200 
Q 775 4200 425 4175 
L 425 4650 
Q 725 4625 1000 4625 
L 1850 4625 
z
M 5750 4875 
Q 5725 4475 5725 4075 
L 5725 2400 
Q 5725 1925 5750 1575 
L 5275 1575 
L 5275 4475 
L 3375 4475 
L 3375 1550 
L 2900 1550 
Q 2925 1975 2925 2500 
L 2925 3875 
Q 2925 4425 2900 4875 
L 5750 4875 
z
" transform="scale(0.015625)"/>
    </defs>
    <use xlink:href="#SimHei-6709"/>
    <use xlink:href="#SimHei-5411" transform="translate(100 0)"/>
    <use xlink:href="#SimHei-6709" transform="translate(200 0)"/>
    <use xlink:href="#SimHei-9650" transform="translate(300 0)"/>
    <use xlink:href="#SimHei-7a7f" transform="translate(400 0)"/>
    <use xlink:href="#SimHei-8d8a" transform="translate(500 0)"/>
    <use xlink:href="#SimHei-53ef" transform="translate(600 0)"/>
    <use xlink:href="#SimHei-89c6" transform="translate(700 0)"/>
    <use xlink:href="#SimHei-56fe" transform="translate(800 0)"/>
    <use xlink:href="#SimHei-20" transform="translate(900 0)"/>
    <use xlink:href="#SimHei-28" transform="translate(950 0)"/>
    <use xlink:href="#SimHei-44" transform="translate(1000 0)"/>
    <use xlink:href="#SimHei-4c" transform="translate(1050 0)"/>
    <use xlink:href="#SimHei-50" transform="translate(1100 0)"/>
    <use xlink:href="#SimHei-56" transform="translate(1150 0)"/>
    <use xlink:href="#SimHei-47" transform="translate(1200 0)"/>
    <use xlink:href="#SimHei-2c" transform="translate(1250 0)"/>
    <use xlink:href="#SimHei-20" transform="translate(1300 0)"/>
    <use xlink:href="#SimHei-4e" transform="translate(1350 0)"/>
    <use xlink:href="#SimHei-3d" transform="translate(1400 0)"/>
    <use xlink:href="#SimHei-31" transform="translate(1450 0)"/>
    <use xlink:href="#SimHei-29" transform="translate(1500 0)"/>
    <use xlink:href="#SimHei-20" transform="translate(1550 0)"/>
    <use xlink:href="#SimHei-2d" transform="translate(1600 0)"/>
    <use xlink:href="#SimHei-20" transform="translate(1650 0)"/>
    <use xlink:href="#SimHei-4f" transform="translate(1700 0)"/>
    <use xlink:href="#SimHei-28" transform="translate(1750 0)"/>
    <use xlink:href="#SimHei-6e" transform="translate(1800 0)"/>
    <use xlink:href="#SimHei-5e" transform="translate(1850 0)"/>
    <use xlink:href="#SimHei-32" transform="translate(1900 0)"/>
    <use xlink:href="#SimHei-29" transform="translate(1950 0)"/>
    <use xlink:href="#SimHei-20" transform="translate(2000 0)"/>
    <use xlink:href="#SimHei-903b" transform="translate(2050 0)"/>
    <use xlink:href="#SimHei-8f91" transform="translate(2150 0)"/>
    <use xlink:href="#SimHei-5b9e" transform="translate(2250 0)"/>
    <use xlink:href="#SimHei-73b0" transform="translate(2350 0)"/>
   </g>
  </g>
 </g>
 <defs>
  <clipPath id="p599a1e3179">
   <rect x="43.8875" y="79.02375" width="661.76125" height="246.985625"/>
  </clipPath>
  <clipPath id="p38a5896e80">
   <rect x="139.181837" y="384.454375" width="471.172577" height="246.985625"/>
  </clipPath>
 </defs>
</svg>
