<?xml version="1.0" encoding="utf-8" standalone="no"?>
<!DOCTYPE svg PUBLIC "-//W3C//DTD SVG 1.1//EN"
  "http://www.w3.org/Graphics/SVG/1.1/DTD/svg11.dtd">
<svg xmlns:xlink="http://www.w3.org/1999/xlink" width="712.84875pt" height="638.64pt" viewBox="0 0 712.84875 638.64" xmlns="http://www.w3.org/2000/svg" version="1.1">
 <metadata>
  <rdf:RDF xmlns:dc="http://purl.org/dc/elements/1.1/" xmlns:cc="http://creativecommons.org/ns#" xmlns:rdf="http://www.w3.org/1999/02/22-rdf-syntax-ns#">
   <cc:Work>
    <dc:type rdf:resource="http://purl.org/dc/dcmitype/StillImage"/>
    <dc:date>2025-10-24T12:53:02.315122</dc:date>
    <dc:format>image/svg+xml</dc:format>
    <dc:creator>
     <cc:Agent>
      <dc:title>Matplotlib v3.10.6, https://matplotlib.org/</dc:title>
     </cc:Agent>
    </dc:creator>
   </cc:Work>
  </rdf:RDF>
 </metadata>
 <defs>
  <style type="text/css">*{stroke-linejoin: round; stroke-linecap: butt}</style>
 </defs>
 <g id="figure_1">
  <g id="patch_1">
   <path d="M 0 638.64 
L 712.84875 638.64 
L 712.84875 0 
L 0 0 
z
" style="fill: #ffffff"/>
  </g>
  <g id="axes_1">
   <g id="patch_2">
    <path d="M 43.8875 326.065625 
L 705.64875 326.065625 
L 705.64875 79.13625 
L 43.8875 79.13625 
z
" style="fill: #ffffff"/>
   </g>
   <g id="line2d_1">
    <path d="M 294.716361 239.640344 
L 401.452046 123.583537 
" clip-path="url(#p04c41038a3)" style="fill: none; stroke: #000000; stroke-width: 1.2; stroke-linecap: square"/>
   </g>
   <g id="line2d_2">
    <path d="M 187.980675 123.583537 
L 241.348518 281.618337 
" clip-path="url(#p04c41038a3)" style="fill: none; stroke: #000000; stroke-width: 1.2; stroke-linecap: square"/>
   </g>
   <g id="line2d_3">
    <path d="M 187.980675 123.583537 
L 401.452046 123.583537 
" clip-path="url(#p04c41038a3)" style="fill: none; stroke: #000000; stroke-width: 1.2; stroke-linecap: square"/>
   </g>
   <g id="line2d_4">
    <path d="M 294.716361 239.640344 
L 348.084204 158.15365 
" clip-path="url(#p04c41038a3)" style="fill: none; stroke: #000000; stroke-width: 1.2; stroke-linecap: square"/>
   </g>
   <g id="line2d_5">
    <path d="M 561.555575 158.15365 
L 454.819889 281.618337 
" clip-path="url(#p04c41038a3)" style="fill: none; stroke: #000000; stroke-width: 1.2; stroke-linecap: square"/>
   </g>
   <g id="line2d_6">
    <path d="M 508.187732 239.640344 
L 454.819889 281.618337 
" clip-path="url(#p04c41038a3)" style="fill: none; stroke: #000000; stroke-width: 1.2; stroke-linecap: square"/>
   </g>
   <g id="line2d_7">
    <path d="M 614.923417 123.583537 
L 668.29126 281.618337 
" clip-path="url(#p04c41038a3)" style="fill: none; stroke: #000000; stroke-width: 1.2; stroke-linecap: square"/>
   </g>
   <g id="line2d_8">
    <path d="M 241.348518 281.618337 
L 294.716361 239.640344 
" clip-path="url(#p04c41038a3)" style="fill: none; stroke: #000000; stroke-width: 1.2; stroke-linecap: square"/>
   </g>
   <g id="line2d_9">
    <path d="M 561.555575 158.15365 
L 401.452046 123.583537 
" clip-path="url(#p04c41038a3)" style="fill: none; stroke: #000000; stroke-width: 1.2; stroke-linecap: square"/>
   </g>
   <g id="line2d_10">
    <path d="M 614.923417 123.583537 
L 454.819889 281.618337 
" clip-path="url(#p04c41038a3)" style="fill: none; stroke: #000000; stroke-width: 1.2; stroke-linecap: square"/>
   </g>
   <g id="line2d_11">
    <path d="M 81.24499 239.640344 
L 187.980675 123.583537 
" clip-path="url(#p04c41038a3)" style="fill: none; stroke: #000000; stroke-width: 1.2; stroke-linecap: square"/>
   </g>
   <g id="line2d_12">
    <path d="M 508.187732 239.640344 
L 614.923417 123.583537 
" clip-path="url(#p04c41038a3)" style="fill: none; stroke: #000000; stroke-width: 1.2; stroke-linecap: square"/>
   </g>
   <g id="line2d_13">
    <path d="M 187.980675 123.583537 
L 294.716361 239.640344 
" clip-path="url(#p04c41038a3)" style="fill: none; stroke: #000000; stroke-width: 1.2; stroke-linecap: square"/>
   </g>
   <g id="line2d_14">
    <path d="M 348.084204 158.15365 
L 401.452046 123.583537 
" clip-path="url(#p04c41038a3)" style="fill: none; stroke: #000000; stroke-width: 1.2; stroke-linecap: square"/>
   </g>
   <g id="line2d_15">
    <path d="M 561.555575 158.15365 
L 668.29126 281.618337 
" clip-path="url(#p04c41038a3)" style="fill: none; stroke: #000000; stroke-width: 1.2; stroke-linecap: square"/>
   </g>
   <g id="line2d_16">
    <path d="M 241.348518 281.618337 
L 348.084204 158.15365 
" clip-path="url(#p04c41038a3)" style="fill: none; stroke: #000000; stroke-width: 1.2; stroke-linecap: square"/>
   </g>
   <g id="line2d_17">
    <path d="M 134.612833 158.15365 
L 241.348518 281.618337 
" clip-path="url(#p04c41038a3)" style="fill: none; stroke: #000000; stroke-width: 1.2; stroke-linecap: square"/>
   </g>
   <g id="line2d_18">
    <path d="M 81.24499 239.640344 
L 134.612833 158.15365 
" clip-path="url(#p04c41038a3)" style="fill: none; stroke: #000000; stroke-width: 1.2; stroke-linecap: square"/>
   </g>
   <g id="line2d_19">
    <path d="M 241.348518 281.618337 
L 401.452046 123.583537 
" clip-path="url(#p04c41038a3)" style="fill: none; stroke: #000000; stroke-width: 1.2; stroke-linecap: square"/>
   </g>
   <g id="line2d_20">
    <path d="M 401.452046 123.583537 
L 454.819889 281.618337 
" clip-path="url(#p04c41038a3)" style="fill: none; stroke: #000000; stroke-width: 1.2; stroke-linecap: square"/>
   </g>
   <g id="line2d_21">
    <path d="M 508.187732 239.640344 
L 401.452046 123.583537 
" clip-path="url(#p04c41038a3)" style="fill: none; stroke: #000000; stroke-width: 1.2; stroke-linecap: square"/>
   </g>
   <g id="line2d_22">
    <path d="M 348.084204 158.15365 
L 454.819889 281.618337 
" clip-path="url(#p04c41038a3)" style="fill: none; stroke: #000000; stroke-width: 1.2; stroke-linecap: square"/>
   </g>
   <g id="line2d_23">
    <path d="M 561.555575 158.15365 
L 614.923417 123.583537 
" clip-path="url(#p04c41038a3)" style="fill: none; stroke: #000000; stroke-width: 1.2; stroke-linecap: square"/>
   </g>
   <g id="line2d_24">
    <path d="M 134.612833 158.15365 
L 187.980675 123.583537 
" clip-path="url(#p04c41038a3)" style="fill: none; stroke: #000000; stroke-width: 1.2; stroke-linecap: square"/>
   </g>
   <g id="line2d_25">
    <path d="M 508.187732 239.640344 
L 561.555575 158.15365 
" clip-path="url(#p04c41038a3)" style="fill: none; stroke: #000000; stroke-width: 1.2; stroke-linecap: square"/>
   </g>
   <g id="line2d_26">
    <path d="M 614.923417 123.583537 
L 401.452046 123.583537 
" clip-path="url(#p04c41038a3)" style="fill: none; stroke: #000000; stroke-width: 1.2; stroke-linecap: square"/>
   </g>
   <g id="line2d_27">
    <path d="M 187.980675 123.583537 
L 348.084204 158.15365 
" clip-path="url(#p04c41038a3)" style="fill: none; stroke: #000000; stroke-width: 1.2; stroke-linecap: square"/>
   </g>
   <g id="line2d_28">
    <path d="M 134.612833 158.15365 
L 294.716361 239.640344 
" clip-path="url(#p04c41038a3)" style="fill: none; stroke-dasharray: 4.44,1.92; stroke-dashoffset: 0; stroke: #0000ff; stroke-width: 1.2"/>
   </g>
   <g id="line2d_29">
    <path d="M 508.187732 239.640344 
L 668.29126 281.618337 
" clip-path="url(#p04c41038a3)" style="fill: none; stroke-dasharray: 4.44,1.92; stroke-dashoffset: 0; stroke: #0000ff; stroke-width: 1.2"/>
   </g>
   <g id="line2d_30">
    <path d="M 187.980675 123.583537 
L 614.923417 123.583537 
" clip-path="url(#p04c41038a3)" style="fill: none; stroke-dasharray: 4.44,1.92; stroke-dashoffset: 0; stroke: #0000ff; stroke-width: 1.2"/>
   </g>
   <g id="line2d_31">
    <path d="M 81.24499 239.640344 
L 241.348518 281.618337 
" clip-path="url(#p04c41038a3)" style="fill: none; stroke-dasharray: 4.44,1.92; stroke-dashoffset: 0; stroke: #0000ff; stroke-width: 1.2"/>
   </g>
   <g id="line2d_32">
    <path d="M 668.29126 281.618337 
L 401.452046 123.583537 
" clip-path="url(#p04c41038a3)" style="fill: none; stroke-dasharray: 4.44,1.92; stroke-dashoffset: 0; stroke: #0000ff; stroke-width: 1.2"/>
   </g>
   <g id="line2d_33">
    <path d="M 134.612833 158.15365 
L 348.084204 158.15365 
" clip-path="url(#p04c41038a3)" style="fill: none; stroke-dasharray: 4.44,1.92; stroke-dashoffset: 0; stroke: #0000ff; stroke-width: 1.2"/>
   </g>
   <g id="line2d_34">
    <path d="M 614.923417 123.583537 
L 348.084204 158.15365 
" clip-path="url(#p04c41038a3)" style="fill: none; stroke-dasharray: 4.44,1.92; stroke-dashoffset: 0; stroke: #0000ff; stroke-width: 1.2"/>
   </g>
   <g id="line2d_35">
    <path d="M 134.612833 158.15365 
L 401.452046 123.583537 
" clip-path="url(#p04c41038a3)" style="fill: none; stroke-dasharray: 4.44,1.92; stroke-dashoffset: 0; stroke: #0000ff; stroke-width: 1.2"/>
   </g>
   <g id="line2d_36">
    <path d="M 187.980675 123.583537 
L 454.819889 281.618337 
" clip-path="url(#p04c41038a3)" style="fill: none; stroke-dasharray: 4.44,1.92; stroke-dashoffset: 0; stroke: #0000ff; stroke-width: 1.2"/>
   </g>
   <g id="line2d_37">
    <path d="M 561.555575 158.15365 
L 187.980675 123.583537 
" clip-path="url(#p04c41038a3)" style="fill: none; stroke-dasharray: 4.44,1.92; stroke-dashoffset: 0; stroke: #0000ff; stroke-width: 1.2"/>
   </g>
   <g id="line2d_38">
    <path d="M 561.555575 158.15365 
L 348.084204 158.15365 
" clip-path="url(#p04c41038a3)" style="fill: none; stroke-dasharray: 4.44,1.92; stroke-dashoffset: 0; stroke: #0000ff; stroke-width: 1.2"/>
   </g>
   <g id="line2d_39">
    <path d="M 508.187732 239.640344 
L 348.084204 158.15365 
" clip-path="url(#p04c41038a3)" style="fill: none; stroke-dasharray: 4.44,1.92; stroke-dashoffset: 0; stroke: #0000ff; stroke-width: 1.2"/>
   </g>
   <g id="line2d_40">
    <path d="M 294.716361 239.640344 
L 454.819889 281.618337 
" clip-path="url(#p04c41038a3)" style="fill: none; stroke-dasharray: 4.44,1.92; stroke-dashoffset: 0; stroke: #0000ff; stroke-width: 1.2"/>
   </g>
   <g id="patch_3">
    <path d="M 67.903029 326.065625 
L 94.586951 326.065625 
L 94.586951 239.640344 
L 67.903029 239.640344 
z
" clip-path="url(#p04c41038a3)" style="fill: #d3d3d3; stroke: #696969; stroke-linejoin: miter"/>
   </g>
   <g id="patch_4">
    <path d="M 121.270872 326.065625 
L 147.954793 326.065625 
L 147.954793 158.15365 
L 121.270872 158.15365 
z
" clip-path="url(#p04c41038a3)" style="fill: #d3d3d3; stroke: #696969; stroke-linejoin: miter"/>
   </g>
   <g id="patch_5">
    <path d="M 174.638715 326.065625 
L 201.322636 326.065625 
L 201.322636 123.583537 
L 174.638715 123.583537 
z
" clip-path="url(#p04c41038a3)" style="fill: #d3d3d3; stroke: #696969; stroke-linejoin: miter"/>
   </g>
   <g id="patch_6">
    <path d="M 228.006557 326.065625 
L 254.690479 326.065625 
L 254.690479 281.618337 
L 228.006557 281.618337 
z
" clip-path="url(#p04c41038a3)" style="fill: #d3d3d3; stroke: #696969; stroke-linejoin: miter"/>
   </g>
   <g id="patch_7">
    <path d="M 281.3744 326.065625 
L 308.058322 326.065625 
L 308.058322 239.640344 
L 281.3744 239.640344 
z
" clip-path="url(#p04c41038a3)" style="fill: #d3d3d3; stroke: #696969; stroke-linejoin: miter"/>
   </g>
   <g id="patch_8">
    <path d="M 334.742243 326.065625 
L 361.426164 326.065625 
L 361.426164 158.15365 
L 334.742243 158.15365 
z
" clip-path="url(#p04c41038a3)" style="fill: #d3d3d3; stroke: #696969; stroke-linejoin: miter"/>
   </g>
   <g id="patch_9">
    <path d="M 388.110086 326.065625 
L 414.794007 326.065625 
L 414.794007 123.583537 
L 388.110086 123.583537 
z
" clip-path="url(#p04c41038a3)" style="fill: #d3d3d3; stroke: #696969; stroke-linejoin: miter"/>
   </g>
   <g id="patch_10">
    <path d="M 441.477928 326.065625 
L 468.16185 326.065625 
L 468.16185 281.618337 
L 441.477928 281.618337 
z
" clip-path="url(#p04c41038a3)" style="fill: #d3d3d3; stroke: #696969; stroke-linejoin: miter"/>
   </g>
   <g id="patch_11">
    <path d="M 494.845771 326.065625 
L 521.529693 326.065625 
L 521.529693 239.640344 
L 494.845771 239.640344 
z
" clip-path="url(#p04c41038a3)" style="fill: #d3d3d3; stroke: #696969; stroke-linejoin: miter"/>
   </g>
   <g id="patch_12">
    <path d="M 548.213614 326.065625 
L 574.897535 326.065625 
L 574.897535 158.15365 
L 548.213614 158.15365 
z
" clip-path="url(#p04c41038a3)" style="fill: #d3d3d3; stroke: #696969; stroke-linejoin: miter"/>
   </g>
   <g id="patch_13">
    <path d="M 601.581457 326.065625 
L 628.265378 326.065625 
L 628.265378 123.583537 
L 601.581457 123.583537 
z
" clip-path="url(#p04c41038a3)" style="fill: #d3d3d3; stroke: #696969; stroke-linejoin: miter"/>
   </g>
   <g id="patch_14">
    <path d="M 654.949299 326.065625 
L 681.633221 326.065625 
L 681.633221 281.618337 
L 654.949299 281.618337 
z
" clip-path="url(#p04c41038a3)" style="fill: #d3d3d3; stroke: #696969; stroke-linejoin: miter"/>
   </g>
   <g id="matplotlib.axis_1">
    <g id="xtick_1">
     <g id="line2d_41">
      <defs>
       <path id="mc3232db288" d="M 0 0 
L 0 3.5 
" style="stroke: #000000; stroke-width: 0.8"/>
      </defs>
      <g>
       <use xlink:href="#mc3232db288" x="81.24499" y="326.065625" style="stroke: #000000; stroke-width: 0.8"/>
      </g>
     </g>
     <g id="text_1">
      <!-- 1 -->
      <g transform="translate(78.74499 339.940625) scale(0.1 -0.1)">
       <defs>
        <path id="SimHei-31" d="M 1400 3600 
Q 1075 3275 575 2975 
L 575 3450 
Q 1200 3875 1600 4450 
L 1900 4450 
L 1900 150 
L 1400 150 
L 1400 3600 
z
" transform="scale(0.015625)"/>
       </defs>
       <use xlink:href="#SimHei-31"/>
      </g>
     </g>
    </g>
    <g id="xtick_2">
     <g id="line2d_42">
      <g>
       <use xlink:href="#mc3232db288" x="134.612833" y="326.065625" style="stroke: #000000; stroke-width: 0.8"/>
      </g>
     </g>
     <g id="text_2">
      <!-- 2 -->
      <g transform="translate(132.112833 339.940625) scale(0.1 -0.1)">
       <defs>
        <path id="SimHei-32" d="M 300 250 
Q 325 625 650 925 
Q 975 1225 1475 1862 
Q 1975 2500 2125 2850 
Q 2275 3200 2237 3450 
Q 2200 3700 2000 3862 
Q 1800 4025 1537 4000 
Q 1275 3975 1037 3800 
Q 800 3625 675 3275 
L 200 3350 
Q 400 3925 712 4187 
Q 1025 4450 1450 4475 
Q 1700 4500 1900 4462 
Q 2100 4425 2312 4287 
Q 2525 4150 2662 3875 
Q 2800 3600 2762 3212 
Q 2725 2825 2375 2287 
Q 2025 1750 1025 600 
L 2825 600 
L 2825 150 
L 300 150 
L 300 250 
z
" transform="scale(0.015625)"/>
       </defs>
       <use xlink:href="#SimHei-32"/>
      </g>
     </g>
    </g>
    <g id="xtick_3">
     <g id="line2d_43">
      <g>
       <use xlink:href="#mc3232db288" x="187.980675" y="326.065625" style="stroke: #000000; stroke-width: 0.8"/>
      </g>
     </g>
     <g id="text_3">
      <!-- 3 -->
      <g transform="translate(185.480675 339.940625) scale(0.1 -0.1)">
       <defs>
        <path id="SimHei-33" d="M 250 1225 
L 700 1300 
Q 800 975 1025 762 
Q 1250 550 1587 562 
Q 1925 575 2125 837 
Q 2325 1100 2300 1437 
Q 2275 1775 2037 1962 
Q 1800 2150 1275 2225 
L 1275 2550 
Q 1800 2600 2037 2825 
Q 2275 3050 2250 3412 
Q 2225 3775 1925 3937 
Q 1625 4100 1287 3975 
Q 950 3850 750 3275 
L 300 3350 
Q 450 3800 712 4100 
Q 975 4400 1425 4450 
Q 1875 4500 2212 4337 
Q 2550 4175 2687 3837 
Q 2825 3500 2725 3100 
Q 2625 2700 2150 2400 
Q 2500 2250 2687 1950 
Q 2875 1650 2812 1162 
Q 2750 675 2375 375 
Q 2000 75 1525 87 
Q 1050 100 700 387 
Q 350 675 250 1225 
z
" transform="scale(0.015625)"/>
       </defs>
       <use xlink:href="#SimHei-33"/>
      </g>
     </g>
    </g>
    <g id="xtick_4">
     <g id="line2d_44">
      <g>
       <use xlink:href="#mc3232db288" x="241.348518" y="326.065625" style="stroke: #000000; stroke-width: 0.8"/>
      </g>
     </g>
     <g id="text_4">
      <!-- 4 -->
      <g transform="translate(238.848518 339.940625) scale(0.1 -0.1)">
       <defs>
        <path id="SimHei-34" d="M 2000 1100 
L 75 1100 
L 75 1525 
L 2100 4450 
L 2475 4450 
L 2475 1525 
L 3075 1525 
L 3075 1100 
L 2475 1100 
L 2475 150 
L 2000 150 
L 2000 1100 
z
M 2000 1525 
L 2000 3500 
L 600 1525 
L 2000 1525 
z
" transform="scale(0.015625)"/>
       </defs>
       <use xlink:href="#SimHei-34"/>
      </g>
     </g>
    </g>
    <g id="xtick_5">
     <g id="line2d_45">
      <g>
       <use xlink:href="#mc3232db288" x="294.716361" y="326.065625" style="stroke: #000000; stroke-width: 0.8"/>
      </g>
     </g>
     <g id="text_5">
      <!-- 5 -->
      <g transform="translate(292.216361 339.940625) scale(0.1 -0.1)">
       <defs>
        <path id="SimHei-35" d="M 550 1325 
Q 725 650 1150 575 
Q 1575 500 1837 662 
Q 2100 825 2212 1087 
Q 2325 1350 2312 1675 
Q 2300 2000 2137 2225 
Q 1975 2450 1725 2525 
Q 1475 2600 1162 2525 
Q 850 2450 650 2175 
L 225 2225 
Q 275 2375 700 4375 
L 2675 4375 
L 2675 3925 
L 1075 3925 
Q 950 3250 825 2850 
Q 1200 3025 1525 3012 
Q 1850 3000 2150 2862 
Q 2450 2725 2587 2487 
Q 2725 2250 2787 2012 
Q 2850 1775 2837 1500 
Q 2825 1225 2725 937 
Q 2625 650 2425 462 
Q 2225 275 1937 162 
Q 1650 50 1275 75 
Q 900 100 562 350 
Q 225 600 100 1200 
L 550 1325 
z
" transform="scale(0.015625)"/>
       </defs>
       <use xlink:href="#SimHei-35"/>
      </g>
     </g>
    </g>
    <g id="xtick_6">
     <g id="line2d_46">
      <g>
       <use xlink:href="#mc3232db288" x="348.084204" y="326.065625" style="stroke: #000000; stroke-width: 0.8"/>
      </g>
     </g>
     <g id="text_6">
      <!-- 6 -->
      <g transform="translate(345.584204 339.940625) scale(0.1 -0.1)">
       <defs>
        <path id="SimHei-36" d="M 250 1612 
Q 275 1975 387 2225 
Q 500 2475 725 2850 
L 1750 4450 
L 2325 4450 
L 1275 2800 
Q 1950 2975 2350 2750 
Q 2750 2525 2887 2237 
Q 3025 1950 3037 1612 
Q 3050 1275 2937 950 
Q 2825 625 2537 362 
Q 2250 100 1737 75 
Q 1225 50 862 262 
Q 500 475 362 862 
Q 225 1250 250 1612 
z
M 1025 787 
Q 1250 550 1625 525 
Q 2000 500 2250 775 
Q 2500 1050 2500 1575 
Q 2500 2100 2187 2300 
Q 1875 2500 1487 2450 
Q 1100 2400 925 2075 
Q 750 1750 775 1387 
Q 800 1025 1025 787 
z
" transform="scale(0.015625)"/>
       </defs>
       <use xlink:href="#SimHei-36"/>
      </g>
     </g>
    </g>
    <g id="xtick_7">
     <g id="line2d_47">
      <g>
       <use xlink:href="#mc3232db288" x="401.452046" y="326.065625" style="stroke: #000000; stroke-width: 0.8"/>
      </g>
     </g>
     <g id="text_7">
      <!-- 7 -->
      <g transform="translate(398.952046 339.940625) scale(0.1 -0.1)">
       <defs>
        <path id="SimHei-37" d="M 850 150 
Q 1300 2050 2425 3925 
L 275 3925 
L 275 4375 
L 2950 4375 
L 2950 3950 
Q 1775 2050 1400 150 
L 850 150 
z
" transform="scale(0.015625)"/>
       </defs>
       <use xlink:href="#SimHei-37"/>
      </g>
     </g>
    </g>
    <g id="xtick_8">
     <g id="line2d_48">
      <g>
       <use xlink:href="#mc3232db288" x="454.819889" y="326.065625" style="stroke: #000000; stroke-width: 0.8"/>
      </g>
     </g>
     <g id="text_8">
      <!-- 8 -->
      <g transform="translate(452.319889 339.940625) scale(0.1 -0.1)">
       <defs>
        <path id="SimHei-38" d="M 175 1375 
Q 175 1675 325 1962 
Q 475 2250 825 2425 
Q 525 2600 425 2812 
Q 325 3025 312 3300 
Q 300 3575 387 3775 
Q 475 3975 650 4150 
Q 825 4325 1037 4387 
Q 1250 4450 1500 4450 
Q 1750 4450 1950 4400 
Q 2150 4350 2375 4187 
Q 2600 4025 2700 3725 
Q 2800 3425 2687 3025 
Q 2575 2625 2100 2400 
Q 2525 2275 2700 2012 
Q 2875 1750 2875 1375 
Q 2875 1000 2762 775 
Q 2650 550 2512 400 
Q 2375 250 2137 162 
Q 1900 75 1537 75 
Q 1175 75 912 162 
Q 650 250 475 425 
Q 300 600 237 837 
Q 175 1075 175 1375 
z
M 687 1400 
Q 675 1100 787 875 
Q 900 650 1200 587 
Q 1500 525 1825 600 
Q 2150 675 2275 950 
Q 2400 1225 2362 1500 
Q 2325 1775 2050 1962 
Q 1775 2150 1450 2125 
Q 1125 2100 912 1900 
Q 700 1700 687 1400 
z
M 775 3350 
Q 775 3100 950 2875 
Q 1125 2650 1500 2650 
Q 1875 2650 2062 2875 
Q 2250 3100 2237 3412 
Q 2225 3725 2012 3875 
Q 1800 4025 1437 4000 
Q 1075 3975 925 3787 
Q 775 3600 775 3350 
z
" transform="scale(0.015625)"/>
       </defs>
       <use xlink:href="#SimHei-38"/>
      </g>
     </g>
    </g>
    <g id="xtick_9">
     <g id="line2d_49">
      <g>
       <use xlink:href="#mc3232db288" x="508.187732" y="326.065625" style="stroke: #000000; stroke-width: 0.8"/>
      </g>
     </g>
     <g id="text_9">
      <!-- 9 -->
      <g transform="translate(505.687732 339.940625) scale(0.1 -0.1)">
       <defs>
        <path id="SimHei-39" d="M 800 75 
Q 1350 1000 1700 1750 
Q 1075 1650 662 1912 
Q 250 2175 162 2625 
Q 75 3075 175 3437 
Q 275 3800 487 4037 
Q 700 4275 1000 4375 
Q 1300 4475 1537 4475 
Q 1775 4475 2025 4375 
Q 2275 4275 2475 4075 
Q 2675 3875 2750 3662 
Q 2825 3450 2825 3112 
Q 2825 2775 2575 2250 
Q 2325 1725 1350 75 
L 800 75 
z
M 662 2875 
Q 700 2550 937 2337 
Q 1175 2125 1450 2150 
Q 1725 2175 1887 2300 
Q 2050 2425 2200 2725 
Q 2300 3100 2250 3362 
Q 2200 3625 1987 3800 
Q 1775 3975 1525 3975 
Q 1375 4000 1137 3900 
Q 900 3800 762 3500 
Q 625 3200 662 2875 
z
" transform="scale(0.015625)"/>
       </defs>
       <use xlink:href="#SimHei-39"/>
      </g>
     </g>
    </g>
    <g id="xtick_10">
     <g id="line2d_50">
      <g>
       <use xlink:href="#mc3232db288" x="561.555575" y="326.065625" style="stroke: #000000; stroke-width: 0.8"/>
      </g>
     </g>
     <g id="text_10">
      <!-- 10 -->
      <g transform="translate(556.555575 339.940625) scale(0.1 -0.1)">
       <defs>
        <path id="SimHei-30" d="M 225 2537 
Q 250 3200 412 3587 
Q 575 3975 875 4225 
Q 1175 4475 1612 4475 
Q 2050 4475 2375 4112 
Q 2700 3750 2800 3200 
Q 2900 2650 2862 1937 
Q 2825 1225 2612 775 
Q 2400 325 1975 150 
Q 1550 -25 1125 187 
Q 700 400 525 750 
Q 350 1100 275 1487 
Q 200 1875 225 2537 
z
M 750 2687 
Q 675 2000 800 1462 
Q 925 925 1212 700 
Q 1500 475 1800 612 
Q 2100 750 2237 1162 
Q 2375 1575 2375 2062 
Q 2375 2550 2337 2950 
Q 2300 3350 2112 3675 
Q 1925 4000 1612 4012 
Q 1300 4025 1062 3700 
Q 825 3375 750 2687 
z
" transform="scale(0.015625)"/>
       </defs>
       <use xlink:href="#SimHei-31"/>
       <use xlink:href="#SimHei-30" transform="translate(50 0)"/>
      </g>
     </g>
    </g>
    <g id="xtick_11">
     <g id="line2d_51">
      <g>
       <use xlink:href="#mc3232db288" x="614.923417" y="326.065625" style="stroke: #000000; stroke-width: 0.8"/>
      </g>
     </g>
     <g id="text_11">
      <!-- 11 -->
      <g transform="translate(609.923417 339.940625) scale(0.1 -0.1)">
       <use xlink:href="#SimHei-31"/>
       <use xlink:href="#SimHei-31" transform="translate(50 0)"/>
      </g>
     </g>
    </g>
    <g id="xtick_12">
     <g id="line2d_52">
      <g>
       <use xlink:href="#mc3232db288" x="668.29126" y="326.065625" style="stroke: #000000; stroke-width: 0.8"/>
      </g>
     </g>
     <g id="text_12">
      <!-- 12 -->
      <g transform="translate(663.29126 339.940625) scale(0.1 -0.1)">
       <use xlink:href="#SimHei-31"/>
       <use xlink:href="#SimHei-32" transform="translate(50 0)"/>
      </g>
     </g>
    </g>
    <g id="text_13">
     <!-- 序号 -->
     <g transform="translate(362.768125 354.753125) scale(0.12 -0.12)">
      <defs>
       <path id="SimHei-5e8f" d="M 4000 2075 
L 5975 2075 
Q 5750 1525 5575 1025 
Q 5325 1100 5050 1150 
Q 5175 1450 5275 1700 
L 4050 1700 
L 4050 150 
Q 4050 -375 3762 -462 
Q 3475 -550 2950 -575 
Q 2875 -300 2750 0 
Q 3350 -75 3475 25 
Q 3600 125 3575 375 
L 3575 1700 
L 2450 1700 
Q 2050 1700 1675 1675 
L 1675 2100 
Q 2100 2075 2425 2075 
L 3675 2075 
Q 3325 2400 2875 2775 
Q 2975 2875 3250 3100 
Q 3400 2975 3725 2725 
L 4575 3275 
L 3000 3275 
Q 2400 3275 1950 3250 
L 1950 3700 
Q 2400 3675 3000 3675 
L 5400 3675 
L 5400 3250 
Q 4700 2875 4025 2450 
L 4275 2250 
L 4000 2075 
z
M 3725 5275 
Q 3825 4925 3925 4525 
L 4850 4525 
Q 5425 4525 6000 4550 
L 6000 4125 
Q 5425 4150 4850 4150 
L 1400 4150 
Q 1400 2750 1362 2137 
Q 1325 1525 1200 887 
Q 1075 250 775 -350 
Q 625 -250 250 -125 
Q 475 300 600 700 
Q 725 1100 800 1637 
Q 875 2175 875 2825 
Q 875 3500 850 4525 
L 3350 4525 
Q 3275 4825 3150 5150 
Q 3425 5200 3725 5275 
z
" transform="scale(0.015625)"/>
       <path id="SimHei-53f7" d="M 5025 4925 
Q 5000 4550 5000 4075 
Q 5000 3600 5025 3175 
L 1400 3175 
Q 1425 3525 1425 4000 
Q 1425 4500 1400 4925 
L 5025 4925 
z
M 5175 2625 
Q 5650 2625 6025 2650 
L 6025 2200 
Q 5650 2225 5175 2225 
L 2450 2225 
Q 2350 1875 2225 1450 
L 5175 1450 
Q 5100 1050 5062 775 
Q 5025 500 4950 112 
Q 4875 -275 4650 -412 
Q 4425 -550 3225 -625 
Q 3125 -350 2975 -50 
Q 3875 -75 4112 -50 
Q 4350 -25 4425 212 
Q 4500 450 4575 1025 
L 1600 1025 
Q 1825 1625 1950 2225 
L 1350 2225 
Q 825 2225 375 2200 
L 375 2650 
Q 825 2625 1350 2625 
L 5175 2625 
z
M 4525 3575 
L 4525 4525 
L 1900 4525 
L 1900 3575 
L 4525 3575 
z
" transform="scale(0.015625)"/>
      </defs>
      <use xlink:href="#SimHei-5e8f"/>
      <use xlink:href="#SimHei-53f7" transform="translate(100 0)"/>
     </g>
    </g>
   </g>
   <g id="matplotlib.axis_2">
    <g id="ytick_1">
     <g id="line2d_53">
      <defs>
       <path id="m44dd593440" d="M 0 0 
L -3.5 0 
" style="stroke: #000000; stroke-width: 0.8"/>
      </defs>
      <g>
       <use xlink:href="#m44dd593440" x="43.8875" y="326.065625" style="stroke: #000000; stroke-width: 0.8"/>
      </g>
     </g>
     <g id="text_14">
      <!-- 0.0 -->
      <g transform="translate(21.8875 329.503125) scale(0.1 -0.1)">
       <defs>
        <path id="SimHei-2e" d="M 1075 125 
L 500 125 
L 500 675 
L 1075 675 
L 1075 125 
z
" transform="scale(0.015625)"/>
       </defs>
       <use xlink:href="#SimHei-30"/>
       <use xlink:href="#SimHei-2e" transform="translate(50 0)"/>
       <use xlink:href="#SimHei-30" transform="translate(100 0)"/>
      </g>
     </g>
    </g>
    <g id="ytick_2">
     <g id="line2d_54">
      <g>
       <use xlink:href="#m44dd593440" x="43.8875" y="276.67975" style="stroke: #000000; stroke-width: 0.8"/>
      </g>
     </g>
     <g id="text_15">
      <!-- 0.2 -->
      <g transform="translate(21.8875 280.11725) scale(0.1 -0.1)">
       <use xlink:href="#SimHei-30"/>
       <use xlink:href="#SimHei-2e" transform="translate(50 0)"/>
       <use xlink:href="#SimHei-32" transform="translate(100 0)"/>
      </g>
     </g>
    </g>
    <g id="ytick_3">
     <g id="line2d_55">
      <g>
       <use xlink:href="#m44dd593440" x="43.8875" y="227.293875" style="stroke: #000000; stroke-width: 0.8"/>
      </g>
     </g>
     <g id="text_16">
      <!-- 0.4 -->
      <g transform="translate(21.8875 230.731375) scale(0.1 -0.1)">
       <use xlink:href="#SimHei-30"/>
       <use xlink:href="#SimHei-2e" transform="translate(50 0)"/>
       <use xlink:href="#SimHei-34" transform="translate(100 0)"/>
      </g>
     </g>
    </g>
    <g id="ytick_4">
     <g id="line2d_56">
      <g>
       <use xlink:href="#m44dd593440" x="43.8875" y="177.908" style="stroke: #000000; stroke-width: 0.8"/>
      </g>
     </g>
     <g id="text_17">
      <!-- 0.6 -->
      <g transform="translate(21.8875 181.3455) scale(0.1 -0.1)">
       <use xlink:href="#SimHei-30"/>
       <use xlink:href="#SimHei-2e" transform="translate(50 0)"/>
       <use xlink:href="#SimHei-36" transform="translate(100 0)"/>
      </g>
     </g>
    </g>
    <g id="ytick_5">
     <g id="line2d_57">
      <g>
       <use xlink:href="#m44dd593440" x="43.8875" y="128.522125" style="stroke: #000000; stroke-width: 0.8"/>
      </g>
     </g>
     <g id="text_18">
      <!-- 0.8 -->
      <g transform="translate(21.8875 131.959625) scale(0.1 -0.1)">
       <use xlink:href="#SimHei-30"/>
       <use xlink:href="#SimHei-2e" transform="translate(50 0)"/>
       <use xlink:href="#SimHei-38" transform="translate(100 0)"/>
      </g>
     </g>
    </g>
    <g id="ytick_6">
     <g id="line2d_58">
      <g>
       <use xlink:href="#m44dd593440" x="43.8875" y="79.13625" style="stroke: #000000; stroke-width: 0.8"/>
      </g>
     </g>
     <g id="text_19">
      <!-- 1.0 -->
      <g transform="translate(21.8875 82.57375) scale(0.1 -0.1)">
       <use xlink:href="#SimHei-31"/>
       <use xlink:href="#SimHei-2e" transform="translate(50 0)"/>
       <use xlink:href="#SimHei-30" transform="translate(100 0)"/>
      </g>
     </g>
    </g>
    <g id="text_20">
     <!-- 值 -->
     <g transform="translate(16.3875 208.600937) rotate(-90) scale(0.12 -0.12)">
      <defs>
       <path id="SimHei-503c" d="M 3675 4450 
L 3675 5100 
Q 3975 5075 4350 5050 
Q 4225 4875 4200 4450 
L 5125 4450 
Q 5550 4450 5875 4475 
L 5875 4025 
Q 5525 4050 5125 4050 
L 4175 4050 
L 4125 3500 
L 5400 3500 
Q 5375 3200 5375 2700 
L 5375 150 
Q 5875 150 6100 175 
L 6100 -275 
Q 5775 -250 5200 -250 
L 2850 -250 
Q 2275 -250 1900 -275 
L 1900 175 
Q 2125 150 2600 150 
L 2600 2700 
Q 2600 3175 2575 3500 
L 3600 3500 
L 3650 4050 
L 3200 4050 
Q 2575 4050 2225 4025 
L 2225 4475 
Q 2550 4450 3200 4450 
L 3675 4450 
z
M 2225 4900 
Q 2025 4675 1650 3750 
L 1650 450 
Q 1650 -75 1675 -550 
L 1150 -550 
Q 1175 -125 1175 375 
L 1175 2950 
Q 875 2450 625 2150 
Q 425 2425 250 2575 
Q 500 2825 937 3537 
Q 1375 4250 1625 5150 
Q 1975 4975 2225 4900 
z
M 4925 2650 
L 4925 3150 
L 3075 3150 
L 3075 2650 
L 4925 2650 
z
M 4925 150 
L 4925 625 
L 3075 625 
L 3075 150 
L 4925 150 
z
M 4925 1000 
L 4925 1450 
L 3075 1450 
L 3075 1000 
L 4925 1000 
z
M 4925 1825 
L 4925 2275 
L 3075 2275 
L 3075 1825 
L 4925 1825 
z
" transform="scale(0.015625)"/>
      </defs>
      <use xlink:href="#SimHei-503c"/>
     </g>
    </g>
   </g>
   <g id="patch_15">
    <path d="M 43.8875 326.065625 
L 43.8875 79.13625 
" style="fill: none; stroke: #000000; stroke-width: 0.8; stroke-linejoin: miter; stroke-linecap: square"/>
   </g>
   <g id="patch_16">
    <path d="M 43.8875 326.065625 
L 705.64875 326.065625 
" style="fill: none; stroke: #000000; stroke-width: 0.8; stroke-linejoin: miter; stroke-linecap: square"/>
   </g>
   <g id="text_21">
    <!-- 0.35 -->
    <g transform="translate(71.24499 218.635994) scale(0.1 -0.1)">
     <use xlink:href="#SimHei-30"/>
     <use xlink:href="#SimHei-2e" transform="translate(50 0)"/>
     <use xlink:href="#SimHei-33" transform="translate(100 0)"/>
     <use xlink:href="#SimHei-35" transform="translate(150 0)"/>
    </g>
   </g>
   <g id="text_22">
    <!-- 0.68 -->
    <g transform="translate(124.612833 137.1493) scale(0.1 -0.1)">
     <use xlink:href="#SimHei-30"/>
     <use xlink:href="#SimHei-2e" transform="translate(50 0)"/>
     <use xlink:href="#SimHei-36" transform="translate(100 0)"/>
     <use xlink:href="#SimHei-38" transform="translate(150 0)"/>
    </g>
   </g>
   <g id="text_23">
    <!-- 0.82 -->
    <g transform="translate(177.980675 112.456362) scale(0.1 -0.1)">
     <use xlink:href="#SimHei-30"/>
     <use xlink:href="#SimHei-2e" transform="translate(50 0)"/>
     <use xlink:href="#SimHei-38" transform="translate(100 0)"/>
     <use xlink:href="#SimHei-32" transform="translate(150 0)"/>
    </g>
   </g>
   <g id="text_24">
    <!-- 0.18 -->
    <g transform="translate(231.348518 260.613987) scale(0.1 -0.1)">
     <use xlink:href="#SimHei-30"/>
     <use xlink:href="#SimHei-2e" transform="translate(50 0)"/>
     <use xlink:href="#SimHei-31" transform="translate(100 0)"/>
     <use xlink:href="#SimHei-38" transform="translate(150 0)"/>
    </g>
   </g>
   <g id="text_25">
    <!-- 0.35 -->
    <g transform="translate(284.716361 218.635994) scale(0.1 -0.1)">
     <use xlink:href="#SimHei-30"/>
     <use xlink:href="#SimHei-2e" transform="translate(50 0)"/>
     <use xlink:href="#SimHei-33" transform="translate(100 0)"/>
     <use xlink:href="#SimHei-35" transform="translate(150 0)"/>
    </g>
   </g>
   <g id="text_26">
    <!-- 0.68 -->
    <g transform="translate(338.084204 137.1493) scale(0.1 -0.1)">
     <use xlink:href="#SimHei-30"/>
     <use xlink:href="#SimHei-2e" transform="translate(50 0)"/>
     <use xlink:href="#SimHei-36" transform="translate(100 0)"/>
     <use xlink:href="#SimHei-38" transform="translate(150 0)"/>
    </g>
   </g>
   <g id="text_27">
    <!-- 0.82 -->
    <g transform="translate(391.452046 112.456362) scale(0.1 -0.1)">
     <use xlink:href="#SimHei-30"/>
     <use xlink:href="#SimHei-2e" transform="translate(50 0)"/>
     <use xlink:href="#SimHei-38" transform="translate(100 0)"/>
     <use xlink:href="#SimHei-32" transform="translate(150 0)"/>
    </g>
   </g>
   <g id="text_28">
    <!-- 0.18 -->
    <g transform="translate(444.819889 260.613987) scale(0.1 -0.1)">
     <use xlink:href="#SimHei-30"/>
     <use xlink:href="#SimHei-2e" transform="translate(50 0)"/>
     <use xlink:href="#SimHei-31" transform="translate(100 0)"/>
     <use xlink:href="#SimHei-38" transform="translate(150 0)"/>
    </g>
   </g>
   <g id="text_29">
    <!-- 0.35 -->
    <g transform="translate(498.187732 218.635994) scale(0.1 -0.1)">
     <use xlink:href="#SimHei-30"/>
     <use xlink:href="#SimHei-2e" transform="translate(50 0)"/>
     <use xlink:href="#SimHei-33" transform="translate(100 0)"/>
     <use xlink:href="#SimHei-35" transform="translate(150 0)"/>
    </g>
   </g>
   <g id="text_30">
    <!-- 0.68 -->
    <g transform="translate(551.555575 137.1493) scale(0.1 -0.1)">
     <use xlink:href="#SimHei-30"/>
     <use xlink:href="#SimHei-2e" transform="translate(50 0)"/>
     <use xlink:href="#SimHei-36" transform="translate(100 0)"/>
     <use xlink:href="#SimHei-38" transform="translate(150 0)"/>
    </g>
   </g>
   <g id="text_31">
    <!-- 0.82 -->
    <g transform="translate(604.923417 112.456362) scale(0.1 -0.1)">
     <use xlink:href="#SimHei-30"/>
     <use xlink:href="#SimHei-2e" transform="translate(50 0)"/>
     <use xlink:href="#SimHei-38" transform="translate(100 0)"/>
     <use xlink:href="#SimHei-32" transform="translate(150 0)"/>
    </g>
   </g>
   <g id="text_32">
    <!-- 0.18 -->
    <g transform="translate(658.29126 260.613987) scale(0.1 -0.1)">
     <use xlink:href="#SimHei-30"/>
     <use xlink:href="#SimHei-2e" transform="translate(50 0)"/>
     <use xlink:href="#SimHei-31" transform="translate(100 0)"/>
     <use xlink:href="#SimHei-38" transform="translate(150 0)"/>
    </g>
   </g>
   <g id="text_33">
    <!-- (a) 直方条 -->
    <g transform="translate(344.768125 73.13625) scale(0.12 -0.12)">
     <defs>
      <path id="SimHei-28" d="M 2975 -200 
L 2700 -475 
Q 2075 125 1762 775 
Q 1450 1425 1450 2250 
Q 1450 3075 1762 3725 
Q 2075 4375 2700 5000 
L 2975 4725 
Q 2400 4175 2112 3587 
Q 1825 3000 1825 2250 
Q 1825 1500 2112 912 
Q 2400 325 2975 -200 
z
" transform="scale(0.015625)"/>
      <path id="SimHei-61" d="M 2875 125 
L 2275 125 
Q 2225 175 2200 262 
Q 2175 350 2175 475 
Q 2000 275 1750 175 
Q 1500 75 1225 75 
Q 825 75 550 275 
Q 275 475 275 850 
Q 275 1225 525 1450 
Q 775 1675 1300 1750 
Q 1650 1800 1912 1875 
Q 2175 1950 2175 2075 
Q 2175 2225 2062 2375 
Q 1950 2525 1575 2525 
Q 1275 2525 1137 2412 
Q 1000 2300 950 2100 
L 400 2100 
Q 450 2500 762 2737 
Q 1075 2975 1575 2975 
Q 2125 2975 2400 2725 
Q 2675 2475 2675 2025 
L 2675 650 
Q 2675 500 2725 375 
Q 2775 250 2875 125 
z
M 2175 1050 
L 2175 1550 
Q 2025 1500 1887 1462 
Q 1750 1425 1425 1375 
Q 1050 1325 937 1200 
Q 825 1075 825 900 
Q 825 750 937 637 
Q 1050 525 1275 525 
Q 1500 525 1762 650 
Q 2025 775 2175 1050 
z
" transform="scale(0.015625)"/>
      <path id="SimHei-29" d="M 1675 2250 
Q 1675 1425 1362 775 
Q 1050 125 425 -475 
L 150 -200 
Q 725 325 1012 912 
Q 1300 1500 1300 2250 
Q 1300 3000 1012 3587 
Q 725 4175 150 4725 
L 425 5000 
Q 1050 4375 1362 3725 
Q 1675 3075 1675 2250 
z
" transform="scale(0.015625)"/>
      <path id="SimHei-20" transform="scale(0.015625)"/>
      <path id="SimHei-76f4" d="M 3550 5025 
Q 3475 4875 3400 4525 
L 4825 4525 
Q 5225 4525 5775 4550 
L 5775 4100 
Q 5250 4125 4825 4125 
L 3350 4125 
Q 3300 3775 3275 3525 
L 5100 3525 
Q 5075 3075 5075 2525 
L 5075 100 
L 5300 100 
Q 5650 100 6100 125 
L 6100 -350 
Q 5675 -325 5300 -325 
L 1225 -325 
Q 800 -325 325 -350 
L 325 125 
Q 825 100 1225 100 
L 1375 100 
L 1375 2525 
Q 1375 3175 1350 3525 
L 2775 3525 
Q 2825 3825 2850 4125 
L 1550 4125 
Q 1075 4125 600 4100 
L 600 4550 
Q 1075 4525 1525 4525 
L 2875 4525 
Q 2900 4800 2875 5075 
Q 3275 5025 3550 5025 
z
M 4600 975 
L 4600 1450 
L 1850 1450 
L 1850 975 
L 4600 975 
z
M 4600 100 
L 4600 575 
L 1850 575 
L 1850 100 
L 4600 100 
z
M 4600 2650 
L 4600 3125 
L 1850 3125 
L 1850 2650 
L 4600 2650 
z
M 4600 1825 
L 4600 2275 
L 1850 2275 
L 1850 1825 
L 4600 1825 
z
" transform="scale(0.015625)"/>
      <path id="SimHei-65b9" d="M 425 3975 
Q 825 3950 1300 3950 
L 5025 3950 
Q 5625 3950 6000 3975 
L 6000 3475 
Q 5675 3500 5100 3500 
L 2525 3500 
Q 2525 3225 2500 2500 
L 5300 2500 
Q 5250 2175 5200 1550 
L 5050 175 
Q 5000 -275 4625 -412 
Q 4250 -550 3525 -625 
Q 3500 -300 3325 -50 
Q 3900 -75 4200 0 
Q 4500 75 4575 425 
L 4725 2050 
L 2475 2050 
Q 2375 1350 2162 875 
Q 1950 400 1575 0 
Q 1200 -400 825 -700 
Q 725 -550 375 -350 
Q 700 -175 1062 200 
Q 1425 575 1662 1050 
Q 1900 1525 1962 2100 
Q 2025 2675 2025 3500 
L 1325 3500 
Q 775 3500 425 3475 
L 425 3975 
z
M 3075 4075 
Q 2850 4575 2575 5000 
Q 2800 5125 3025 5275 
Q 3300 4850 3575 4350 
Q 3325 4250 3075 4075 
z
" transform="scale(0.015625)"/>
      <path id="SimHei-6761" d="M 2700 5075 
Q 2600 5000 2400 4700 
L 5225 4700 
Q 4975 4300 4625 3875 
Q 4275 3450 3750 3050 
Q 4100 2850 4750 2687 
Q 5400 2525 6200 2525 
Q 5950 2275 5925 2000 
Q 5000 2100 4387 2300 
Q 3775 2500 3275 2825 
Q 2500 2375 1837 2175 
Q 1175 1975 575 1850 
Q 500 2125 275 2300 
Q 1250 2400 1912 2625 
Q 2575 2850 2825 3075 
Q 2400 3425 1925 3975 
Q 1600 3550 1150 3075 
Q 925 3300 725 3350 
Q 1225 3775 1625 4350 
Q 2025 4925 2125 5300 
Q 2525 5125 2700 5075 
z
M 2950 1775 
Q 2950 2000 2925 2400 
L 3475 2400 
Q 3450 1975 3450 1775 
L 4500 1775 
Q 5025 1775 5550 1800 
L 5550 1325 
Q 5025 1350 4525 1350 
L 3450 1350 
L 3450 -50 
Q 3475 -575 2450 -625 
Q 2375 -375 2225 -75 
Q 2975 -150 2950 200 
L 2950 1350 
L 1850 1350 
Q 1350 1350 825 1325 
L 825 1800 
Q 1350 1775 1850 1775 
L 2950 1775 
z
M 3300 3300 
Q 4025 3775 4325 4275 
L 2250 4275 
Q 2700 3675 3300 3300 
z
M 4200 1000 
Q 4950 575 5800 0 
Q 5650 -175 5500 -400 
Q 5150 -150 4787 100 
Q 4425 350 3925 600 
Q 4075 775 4200 1000 
z
M 2375 700 
Q 2275 600 1800 250 
Q 1325 -100 850 -400 
Q 700 -200 500 -50 
Q 825 100 1287 437 
Q 1750 775 1950 1050 
L 2375 700 
z
" transform="scale(0.015625)"/>
     </defs>
     <use xlink:href="#SimHei-28"/>
     <use xlink:href="#SimHei-61" transform="translate(50 0)"/>
     <use xlink:href="#SimHei-29" transform="translate(100 0)"/>
     <use xlink:href="#SimHei-20" transform="translate(150 0)"/>
     <use xlink:href="#SimHei-76f4" transform="translate(200 0)"/>
     <use xlink:href="#SimHei-65b9" transform="translate(300 0)"/>
     <use xlink:href="#SimHei-6761" transform="translate(400 0)"/>
    </g>
   </g>
  </g>
  <g id="axes_2">
   <g id="patch_17">
    <path d="M 393.762692 574.456298 
C 393.762692 566.399113 389.757545 558.663688 382.635932 552.966398 
C 375.51432 547.269108 365.845039 544.06499 355.773558 544.06499 
C 345.702077 544.06499 336.032795 547.269108 328.911183 552.966398 
C 321.789571 558.663688 317.784423 566.399113 317.784423 574.456298 
" clip-path="url(#pbd587c4d57)" style="fill: none; stroke: #000000; stroke-width: 1.5; stroke-linejoin: miter"/>
   </g>
   <g id="patch_18">
    <path d="M 279.795288 574.456298 
C 279.795288 570.427706 277.792715 566.559993 274.231909 563.711348 
C 270.671102 560.862703 265.836462 559.260644 260.800721 559.260644 
C 255.764981 559.260644 250.93034 560.862703 247.369534 563.711348 
C 243.808728 566.559993 241.806154 570.427706 241.806154 574.456298 
" clip-path="url(#pbd587c4d57)" style="fill: none; stroke: #000000; stroke-width: 1.5; stroke-linejoin: miter"/>
   </g>
   <g id="patch_19">
    <path d="M 393.762692 574.456298 
C 393.762692 558.341929 385.752397 542.871078 371.509172 531.476499 
C 357.265948 520.081919 337.927385 513.673683 317.784423 513.673683 
C 297.641461 513.673683 278.302898 520.081919 264.059674 531.476499 
C 249.816449 542.871078 241.806154 558.341929 241.806154 574.456298 
" clip-path="url(#pbd587c4d57)" style="fill: none; stroke: #000000; stroke-width: 1.5; stroke-linejoin: miter"/>
   </g>
   <g id="patch_20">
    <path d="M 355.773558 574.456298 
C 355.773558 570.427706 353.770984 566.559993 350.210178 563.711348 
C 346.649372 560.862703 341.814731 559.260644 336.77899 559.260644 
C 331.74325 559.260644 326.908609 560.862703 323.347803 563.711348 
C 319.786997 566.559993 317.784423 570.427706 317.784423 574.456298 
" clip-path="url(#pbd587c4d57)" style="fill: none; stroke: #000000; stroke-width: 1.5; stroke-linejoin: miter"/>
   </g>
   <g id="patch_21">
    <path d="M 507.730096 574.456298 
C 507.730096 566.399113 503.724949 558.663688 496.603336 552.966398 
C 489.481724 547.269108 479.812442 544.06499 469.740962 544.06499 
C 459.669481 544.06499 450.000199 547.269108 442.878587 552.966398 
C 435.756974 558.663688 431.751827 566.399113 431.751827 574.456298 
" clip-path="url(#pbd587c4d57)" style="fill: none; stroke: #000000; stroke-width: 1.5; stroke-linejoin: miter"/>
   </g>
   <g id="patch_22">
    <path d="M 469.740962 574.456298 
C 469.740962 570.427706 467.738388 566.559993 464.177582 563.711348 
C 460.616775 560.862703 455.782135 559.260644 450.746394 559.260644 
C 445.710654 559.260644 440.876013 560.862703 437.315207 563.711348 
C 433.754401 566.559993 431.751827 570.427706 431.751827 574.456298 
" clip-path="url(#pbd587c4d57)" style="fill: none; stroke: #000000; stroke-width: 1.5; stroke-linejoin: miter"/>
   </g>
   <g id="patch_23">
    <path d="M 583.708365 574.456298 
C 583.708365 570.427706 581.705792 566.559993 578.144985 563.711348 
C 574.584179 560.862703 569.749538 559.260644 564.713798 559.260644 
C 559.678058 559.260644 554.843417 560.862703 551.282611 563.711348 
C 547.721805 566.559993 545.719231 570.427706 545.719231 574.456298 
" clip-path="url(#pbd587c4d57)" style="fill: none; stroke: #000000; stroke-width: 1.5; stroke-linejoin: miter"/>
   </g>
   <g id="patch_24">
    <path d="M 317.784423 574.456298 
C 317.784423 570.427706 315.781849 566.559993 312.221043 563.711348 
C 308.660237 560.862703 303.825596 559.260644 298.789856 559.260644 
C 293.754115 559.260644 288.919475 560.862703 285.358668 563.711348 
C 281.797862 566.559993 279.795288 570.427706 279.795288 574.456298 
" clip-path="url(#pbd587c4d57)" style="fill: none; stroke: #000000; stroke-width: 1.5; stroke-linejoin: miter"/>
   </g>
   <g id="patch_25">
    <path d="M 507.730096 574.456298 
C 507.730096 562.370521 501.722375 550.767383 491.039956 542.221448 
C 480.357538 533.675514 465.853615 528.869337 450.746394 528.869337 
C 435.639173 528.869337 421.135251 533.675514 410.452832 542.221448 
C 399.770414 550.767383 393.762692 562.370521 393.762692 574.456298 
" clip-path="url(#pbd587c4d57)" style="fill: none; stroke: #000000; stroke-width: 1.5; stroke-linejoin: miter"/>
   </g>
   <g id="patch_26">
    <path d="M 545.719231 574.456298 
C 545.719231 562.370521 539.711509 550.767383 529.029091 542.221448 
C 518.346672 533.675514 503.84275 528.869337 488.735529 528.869337 
C 473.628308 528.869337 459.124385 533.675514 448.441967 542.221448 
C 437.759548 550.767383 431.751827 562.370521 431.751827 574.456298 
" clip-path="url(#pbd587c4d57)" style="fill: none; stroke: #000000; stroke-width: 1.5; stroke-linejoin: miter"/>
   </g>
   <g id="patch_27">
    <path d="M 241.806154 574.456298 
C 241.806154 566.399113 237.801006 558.663688 230.679394 552.966398 
C 223.557782 547.269108 213.8885 544.06499 203.817019 544.06499 
C 193.745538 544.06499 184.076257 547.269108 176.954645 552.966398 
C 169.833032 558.663688 165.827885 566.399113 165.827885 574.456298 
" clip-path="url(#pbd587c4d57)" style="fill: none; stroke: #000000; stroke-width: 1.5; stroke-linejoin: miter"/>
   </g>
   <g id="patch_28">
    <path d="M 545.719231 574.456298 
C 545.719231 566.399113 541.714083 558.663688 534.592471 552.966398 
C 527.470858 547.269108 517.801577 544.06499 507.730096 544.06499 
C 497.658615 544.06499 487.989334 547.269108 480.867721 552.966398 
C 473.746109 558.663688 469.740962 566.399113 469.740962 574.456298 
" clip-path="url(#pbd587c4d57)" style="fill: none; stroke: #000000; stroke-width: 1.5; stroke-linejoin: miter"/>
   </g>
   <g id="patch_29">
    <path d="M 317.784423 574.456298 
C 317.784423 566.399113 313.779276 558.663688 306.657663 552.966398 
C 299.536051 547.269108 289.866769 544.06499 279.795288 544.06499 
C 269.723808 544.06499 260.054526 547.269108 252.932914 552.966398 
C 245.811301 558.663688 241.806154 566.399113 241.806154 574.456298 
" clip-path="url(#pbd587c4d57)" style="fill: none; stroke: #000000; stroke-width: 1.5; stroke-linejoin: miter"/>
   </g>
   <g id="patch_30">
    <path d="M 393.762692 574.456298 
C 393.762692 570.427706 391.760119 566.559993 388.199312 563.711348 
C 384.638506 560.862703 379.803865 559.260644 374.768125 559.260644 
C 369.732385 559.260644 364.897744 560.862703 361.336938 563.711348 
C 357.776131 566.559993 355.773558 570.427706 355.773558 574.456298 
" clip-path="url(#pbd587c4d57)" style="fill: none; stroke: #000000; stroke-width: 1.5; stroke-linejoin: miter"/>
   </g>
   <g id="patch_31">
    <path d="M 583.708365 574.456298 
C 583.708365 566.399113 579.703218 558.663688 572.581605 552.966398 
C 565.459993 547.269108 555.790712 544.06499 545.719231 544.06499 
C 535.64775 544.06499 525.978468 547.269108 518.856856 552.966398 
C 511.735244 558.663688 507.730096 566.399113 507.730096 574.456298 
" clip-path="url(#pbd587c4d57)" style="fill: none; stroke: #000000; stroke-width: 1.5; stroke-linejoin: miter"/>
   </g>
   <g id="patch_32">
    <path d="M 355.773558 574.456298 
C 355.773558 566.399113 351.76841 558.663688 344.646798 552.966398 
C 337.525185 547.269108 327.855904 544.06499 317.784423 544.06499 
C 307.712942 544.06499 298.043661 547.269108 290.922048 552.966398 
C 283.800436 558.663688 279.795288 566.399113 279.795288 574.456298 
" clip-path="url(#pbd587c4d57)" style="fill: none; stroke: #000000; stroke-width: 1.5; stroke-linejoin: miter"/>
   </g>
   <g id="patch_33">
    <path d="M 279.795288 574.456298 
C 279.795288 566.399113 275.790141 558.663688 268.668529 552.966398 
C 261.546916 547.269108 251.877635 544.06499 241.806154 544.06499 
C 231.734673 544.06499 222.065392 547.269108 214.943779 552.966398 
C 207.822167 558.663688 203.817019 566.399113 203.817019 574.456298 
" clip-path="url(#pbd587c4d57)" style="fill: none; stroke: #000000; stroke-width: 1.5; stroke-linejoin: miter"/>
   </g>
   <g id="patch_34">
    <path d="M 203.817019 574.456298 
C 203.817019 570.427706 201.814445 566.559993 198.253639 563.711348 
C 194.692833 560.862703 189.858192 559.260644 184.822452 559.260644 
C 179.786712 559.260644 174.952071 560.862703 171.391265 563.711348 
C 167.830458 566.559993 165.827885 570.427706 165.827885 574.456298 
" clip-path="url(#pbd587c4d57)" style="fill: none; stroke: #000000; stroke-width: 1.5; stroke-linejoin: miter"/>
   </g>
   <g id="patch_35">
    <path d="M 393.762692 574.456298 
C 393.762692 562.370521 387.754971 550.767383 377.072552 542.221448 
C 366.390134 533.675514 351.886212 528.869337 336.77899 528.869337 
C 321.671769 528.869337 307.167847 533.675514 296.485428 542.221448 
C 285.80301 550.767383 279.795288 562.370521 279.795288 574.456298 
" clip-path="url(#pbd587c4d57)" style="fill: none; stroke: #000000; stroke-width: 1.5; stroke-linejoin: miter"/>
   </g>
   <g id="patch_36">
    <path d="M 431.751827 574.456298 
C 431.751827 570.427706 429.749253 566.559993 426.188447 563.711348 
C 422.627641 560.862703 417.793 559.260644 412.75726 559.260644 
C 407.721519 559.260644 402.886878 560.862703 399.326072 563.711348 
C 395.765266 566.559993 393.762692 570.427706 393.762692 574.456298 
" clip-path="url(#pbd587c4d57)" style="fill: none; stroke: #000000; stroke-width: 1.5; stroke-linejoin: miter"/>
   </g>
   <g id="patch_37">
    <path d="M 469.740962 574.456298 
C 469.740962 566.399113 465.735814 558.663688 458.614202 552.966398 
C 451.492589 547.269108 441.823308 544.06499 431.751827 544.06499 
C 421.680346 544.06499 412.011065 547.269108 404.889452 552.966398 
C 397.76784 558.663688 393.762692 566.399113 393.762692 574.456298 
" clip-path="url(#pbd587c4d57)" style="fill: none; stroke: #000000; stroke-width: 1.5; stroke-linejoin: miter"/>
   </g>
   <g id="patch_38">
    <path d="M 431.751827 574.456298 
C 431.751827 566.399113 427.746679 558.663688 420.625067 552.966398 
C 413.503455 547.269108 403.834173 544.06499 393.762692 544.06499 
C 383.691211 544.06499 374.02193 547.269108 366.900318 552.966398 
C 359.778705 558.663688 355.773558 566.399113 355.773558 574.456298 
" clip-path="url(#pbd587c4d57)" style="fill: none; stroke: #000000; stroke-width: 1.5; stroke-linejoin: miter"/>
   </g>
   <g id="patch_39">
    <path d="M 545.719231 574.456298 
C 545.719231 570.427706 543.716657 566.559993 540.155851 563.711348 
C 536.595045 560.862703 531.760404 559.260644 526.724663 559.260644 
C 521.688923 559.260644 516.854282 560.862703 513.293476 563.711348 
C 509.73267 566.559993 507.730096 570.427706 507.730096 574.456298 
" clip-path="url(#pbd587c4d57)" style="fill: none; stroke: #000000; stroke-width: 1.5; stroke-linejoin: miter"/>
   </g>
   <g id="patch_40">
    <path d="M 241.806154 574.456298 
C 241.806154 570.427706 239.80358 566.559993 236.242774 563.711348 
C 232.681968 560.862703 227.847327 559.260644 222.811587 559.260644 
C 217.775846 559.260644 212.941205 560.862703 209.380399 563.711348 
C 205.819593 566.559993 203.817019 570.427706 203.817019 574.456298 
" clip-path="url(#pbd587c4d57)" style="fill: none; stroke: #000000; stroke-width: 1.5; stroke-linejoin: miter"/>
   </g>
   <g id="patch_41">
    <path d="M 507.730096 574.456298 
C 507.730096 570.427706 505.727522 566.559993 502.166716 563.711348 
C 498.60591 560.862703 493.771269 559.260644 488.735529 559.260644 
C 483.699788 559.260644 478.865148 560.862703 475.304341 563.711348 
C 471.743535 566.559993 469.740962 570.427706 469.740962 574.456298 
" clip-path="url(#pbd587c4d57)" style="fill: none; stroke: #000000; stroke-width: 1.5; stroke-linejoin: miter"/>
   </g>
   <g id="patch_42">
    <path d="M 545.719231 574.456298 
C 545.719231 558.341929 537.708936 542.871078 523.465711 531.476499 
C 509.222486 520.081919 489.883923 513.673683 469.740962 513.673683 
C 449.598 513.673683 430.259437 520.081919 416.016212 531.476499 
C 401.772987 542.871078 393.762692 558.341929 393.762692 574.456298 
" clip-path="url(#pbd587c4d57)" style="fill: none; stroke: #000000; stroke-width: 1.5; stroke-linejoin: miter"/>
   </g>
   <g id="patch_43">
    <path d="M 355.773558 574.456298 
C 355.773558 562.370521 349.765836 550.767383 339.083418 542.221448 
C 328.400999 533.675514 313.897077 528.869337 298.789856 528.869337 
C 283.682635 528.869337 269.178712 533.675514 258.496294 542.221448 
C 247.813875 550.767383 241.806154 562.370521 241.806154 574.456298 
" clip-path="url(#pbd587c4d57)" style="fill: none; stroke: #000000; stroke-width: 1.5; stroke-linejoin: miter"/>
   </g>
   <g id="patch_44">
    <path d="M 317.784423 574.456298 
C 317.784423 562.370521 311.776702 550.767383 301.094283 542.221448 
C 290.411865 533.675514 275.907942 528.869337 260.800721 528.869337 
C 245.6935 528.869337 231.189578 533.675514 220.507159 542.221448 
C 209.824741 550.767383 203.817019 562.370521 203.817019 574.456298 
" clip-path="url(#pbd587c4d57)" style="fill: none; stroke-dasharray: 5.55,2.4; stroke-dashoffset: 0; stroke: #0000ff; stroke-width: 1.5; stroke-linejoin: miter"/>
   </g>
   <g id="patch_45">
    <path d="M 583.708365 574.456298 
C 583.708365 562.370521 577.700644 550.767383 567.018226 542.221448 
C 556.335807 533.675514 541.831885 528.869337 526.724663 528.869337 
C 511.617442 528.869337 497.11352 533.675514 486.431101 542.221448 
C 475.748683 550.767383 469.740962 562.370521 469.740962 574.456298 
" clip-path="url(#pbd587c4d57)" style="fill: none; stroke-dasharray: 5.55,2.4; stroke-dashoffset: 0; stroke: #0000ff; stroke-width: 1.5; stroke-linejoin: miter"/>
   </g>
   <g id="patch_46">
    <path d="M 545.719231 574.456298 
C 545.719231 542.227559 529.698641 511.285859 501.212191 488.496699 
C 472.725742 465.707539 434.048616 452.891067 393.762692 452.891067 
C 353.476769 452.891067 314.799643 465.707539 286.313194 488.496699 
C 257.826744 511.285859 241.806154 542.227559 241.806154 574.456298 
" clip-path="url(#pbd587c4d57)" style="fill: none; stroke-dasharray: 5.55,2.4; stroke-dashoffset: 0; stroke: #0000ff; stroke-width: 1.5; stroke-linejoin: miter"/>
   </g>
   <g id="patch_47">
    <path d="M 279.795288 574.456298 
C 279.795288 562.370521 273.787567 550.767383 263.105149 542.221448 
C 252.42273 533.675514 237.918808 528.869337 222.811587 528.869337 
C 207.704365 528.869337 193.200443 533.675514 182.518024 542.221448 
C 171.835606 550.767383 165.827885 562.370521 165.827885 574.456298 
" clip-path="url(#pbd587c4d57)" style="fill: none; stroke-dasharray: 5.55,2.4; stroke-dashoffset: 0; stroke: #0000ff; stroke-width: 1.5; stroke-linejoin: miter"/>
   </g>
   <g id="patch_48">
    <path d="M 583.708365 574.456298 
C 583.708365 554.313336 573.695497 534.974773 555.891466 520.731549 
C 538.087435 506.488324 513.914231 498.478029 488.735529 498.478029 
C 463.556827 498.478029 439.383623 506.488324 421.579592 520.731549 
C 403.775561 534.974773 393.762692 554.313336 393.762692 574.456298 
" clip-path="url(#pbd587c4d57)" style="fill: none; stroke-dasharray: 5.55,2.4; stroke-dashoffset: 0; stroke: #0000ff; stroke-width: 1.5; stroke-linejoin: miter"/>
   </g>
   <g id="patch_49">
    <path d="M 355.773558 574.456298 
C 355.773558 558.341929 347.763263 542.871078 333.520038 531.476499 
C 319.276813 520.081919 299.93825 513.673683 279.795288 513.673683 
C 259.652327 513.673683 240.313764 520.081919 226.070539 531.476499 
C 211.827314 542.871078 203.817019 558.341929 203.817019 574.456298 
" clip-path="url(#pbd587c4d57)" style="fill: none; stroke-dasharray: 5.55,2.4; stroke-dashoffset: 0; stroke: #0000ff; stroke-width: 1.5; stroke-linejoin: miter"/>
   </g>
   <g id="patch_50">
    <path d="M 545.719231 574.456298 
C 545.719231 554.313336 535.706362 534.974773 517.902331 520.731549 
C 500.0983 506.488324 475.925096 498.478029 450.746394 498.478029 
C 425.567692 498.478029 401.394488 506.488324 383.590457 520.731549 
C 365.786427 534.974773 355.773558 554.313336 355.773558 574.456298 
" clip-path="url(#pbd587c4d57)" style="fill: none; stroke-dasharray: 5.55,2.4; stroke-dashoffset: 0; stroke: #0000ff; stroke-width: 1.5; stroke-linejoin: miter"/>
   </g>
   <g id="patch_51">
    <path d="M 393.762692 574.456298 
C 393.762692 554.313336 383.749823 534.974773 365.945793 520.731549 
C 348.141762 506.488324 323.968558 498.478029 298.789856 498.478029 
C 273.611154 498.478029 249.43795 506.488324 231.633919 520.731549 
C 213.829888 534.974773 203.817019 554.313336 203.817019 574.456298 
" clip-path="url(#pbd587c4d57)" style="fill: none; stroke-dasharray: 5.55,2.4; stroke-dashoffset: 0; stroke: #0000ff; stroke-width: 1.5; stroke-linejoin: miter"/>
   </g>
   <g id="patch_52">
    <path d="M 431.751827 574.456298 
C 431.751827 554.313336 421.738958 534.974773 403.934927 520.731549 
C 386.130896 506.488324 361.957692 498.478029 336.77899 498.478029 
C 311.600288 498.478029 287.427085 506.488324 269.623054 520.731549 
C 251.819023 534.974773 241.806154 554.313336 241.806154 574.456298 
" clip-path="url(#pbd587c4d57)" style="fill: none; stroke-dasharray: 5.55,2.4; stroke-dashoffset: 0; stroke: #0000ff; stroke-width: 1.5; stroke-linejoin: miter"/>
   </g>
   <g id="patch_53">
    <path d="M 507.730096 574.456298 
C 507.730096 546.256152 493.71208 519.182164 468.786436 499.241649 
C 443.860793 479.301134 410.018308 468.086721 374.768125 468.086721 
C 339.517942 468.086721 305.675457 479.301134 280.749814 499.241649 
C 255.82417 519.182164 241.806154 546.256152 241.806154 574.456298 
" clip-path="url(#pbd587c4d57)" style="fill: none; stroke-dasharray: 5.55,2.4; stroke-dashoffset: 0; stroke: #0000ff; stroke-width: 1.5; stroke-linejoin: miter"/>
   </g>
   <g id="patch_54">
    <path d="M 507.730096 574.456298 
C 507.730096 558.341929 499.719801 542.871078 485.476576 531.476499 
C 471.233352 520.081919 451.894789 513.673683 431.751827 513.673683 
C 411.608865 513.673683 392.270302 520.081919 378.027078 531.476499 
C 363.783853 542.871078 355.773558 558.341929 355.773558 574.456298 
" clip-path="url(#pbd587c4d57)" style="fill: none; stroke-dasharray: 5.55,2.4; stroke-dashoffset: 0; stroke: #0000ff; stroke-width: 1.5; stroke-linejoin: miter"/>
   </g>
   <g id="patch_55">
    <path d="M 469.740962 574.456298 
C 469.740962 562.370521 463.73324 550.767383 453.050822 542.221448 
C 442.368403 533.675514 427.864481 528.869337 412.75726 528.869337 
C 397.650038 528.869337 383.146116 533.675514 372.463698 542.221448 
C 361.781279 550.767383 355.773558 562.370521 355.773558 574.456298 
" clip-path="url(#pbd587c4d57)" style="fill: none; stroke-dasharray: 5.55,2.4; stroke-dashoffset: 0; stroke: #0000ff; stroke-width: 1.5; stroke-linejoin: miter"/>
   </g>
   <g id="patch_56">
    <path d="M 431.751827 574.456298 
C 431.751827 562.370521 425.744106 550.767383 415.061687 542.221448 
C 404.379268 533.675514 389.875346 528.869337 374.768125 528.869337 
C 359.660904 528.869337 345.156982 533.675514 334.474563 542.221448 
C 323.792144 550.767383 317.784423 562.370521 317.784423 574.456298 
" clip-path="url(#pbd587c4d57)" style="fill: none; stroke-dasharray: 5.55,2.4; stroke-dashoffset: 0; stroke: #0000ff; stroke-width: 1.5; stroke-linejoin: miter"/>
   </g>
   <g id="line2d_59">
    <defs>
     <path id="m0057597784" d="M 0 3 
C 0.795609 3 1.55874 2.683901 2.12132 2.12132 
C 2.683901 1.55874 3 0.795609 3 0 
C 3 -0.795609 2.683901 -1.55874 2.12132 -2.12132 
C 1.55874 -2.683901 0.795609 -3 0 -3 
C -0.795609 -3 -1.55874 -2.683901 -2.12132 -2.12132 
C -2.683901 -1.55874 -3 -0.795609 -3 0 
C -3 0.795609 -2.683901 1.55874 -2.12132 2.12132 
C -1.55874 2.683901 -0.795609 3 0 3 
z
" style="stroke: #000000"/>
    </defs>
    <g clip-path="url(#pbd587c4d57)">
     <use xlink:href="#m0057597784" x="165.827885" y="574.456298" style="stroke: #000000"/>
     <use xlink:href="#m0057597784" x="203.817019" y="574.456298" style="stroke: #000000"/>
     <use xlink:href="#m0057597784" x="241.806154" y="574.456298" style="stroke: #000000"/>
     <use xlink:href="#m0057597784" x="279.795288" y="574.456298" style="stroke: #000000"/>
     <use xlink:href="#m0057597784" x="317.784423" y="574.456298" style="stroke: #000000"/>
     <use xlink:href="#m0057597784" x="355.773558" y="574.456298" style="stroke: #000000"/>
     <use xlink:href="#m0057597784" x="393.762692" y="574.456298" style="stroke: #000000"/>
     <use xlink:href="#m0057597784" x="431.751827" y="574.456298" style="stroke: #000000"/>
     <use xlink:href="#m0057597784" x="469.740962" y="574.456298" style="stroke: #000000"/>
     <use xlink:href="#m0057597784" x="507.730096" y="574.456298" style="stroke: #000000"/>
     <use xlink:href="#m0057597784" x="545.719231" y="574.456298" style="stroke: #000000"/>
     <use xlink:href="#m0057597784" x="583.708365" y="574.456298" style="stroke: #000000"/>
    </g>
   </g>
   <g id="text_34">
    <!-- (b) 网络连边 -->
    <g transform="translate(338.768125 378.510625) scale(0.12 -0.12)">
     <defs>
      <path id="SimHei-62" d="M 2825 1525 
Q 2825 800 2475 437 
Q 2125 75 1625 75 
Q 1350 75 1150 175 
Q 950 275 800 500 
L 800 125 
L 300 125 
L 300 4400 
L 800 4400 
L 800 2550 
Q 950 2775 1150 2887 
Q 1350 3000 1625 3000 
Q 2125 3000 2475 2625 
Q 2825 2250 2825 1525 
z
M 2275 1525 
Q 2275 2000 2087 2275 
Q 1900 2550 1525 2550 
Q 1225 2550 1012 2275 
Q 800 2000 800 1525 
Q 800 1050 1012 787 
Q 1225 525 1525 525 
Q 1900 525 2087 787 
Q 2275 1050 2275 1525 
z
" transform="scale(0.015625)"/>
      <path id="SimHei-7f51" d="M 5875 4900 
Q 5825 4575 5825 3975 
L 5825 0 
Q 5825 -400 5537 -462 
Q 5250 -525 4775 -600 
Q 4725 -350 4525 -50 
Q 5025 -75 5175 -25 
Q 5325 25 5325 250 
L 5325 4475 
L 1100 4475 
L 1100 -600 
L 550 -600 
Q 600 -100 600 250 
L 600 3975 
Q 600 4375 550 4900 
L 5875 4900 
z
M 3675 3525 
Q 4050 2800 4175 2600 
Q 4475 3625 4550 4050 
Q 4825 3900 5100 3775 
Q 4975 3600 4825 3150 
Q 4675 2700 4450 2100 
Q 4725 1575 5125 875 
Q 4850 800 4625 675 
L 4175 1575 
Q 4000 1225 3825 962 
Q 3650 700 3350 300 
Q 3175 500 2850 575 
Q 3075 800 3337 1125 
Q 3600 1450 3925 2075 
Q 3575 2800 3200 3300 
Q 3400 3375 3675 3525 
z
M 1725 3800 
Q 1875 3525 2037 3237 
Q 2200 2950 2375 2675 
Q 2675 3675 2725 4050 
Q 3000 3950 3325 3850 
Q 3175 3675 3050 3312 
Q 2925 2950 2650 2200 
Q 2875 1850 3200 1300 
Q 2950 1150 2775 975 
Q 2525 1500 2400 1700 
Q 1950 775 1600 325 
Q 1400 500 1175 575 
Q 1575 1000 2150 2175 
Q 1550 3250 1250 3600 
Q 1475 3700 1725 3800 
z
" transform="scale(0.015625)"/>
      <path id="SimHei-7edc" d="M 2400 3100 
Q 2675 3400 2850 3700 
Q 3025 4000 3187 4362 
Q 3350 4725 3450 5200 
Q 3725 5075 4050 5025 
Q 3900 4800 3725 4450 
L 5750 4450 
Q 5375 3700 5125 3325 
Q 4875 2950 4600 2650 
Q 4925 2425 5375 2275 
Q 5825 2125 6200 2050 
Q 6075 1850 5950 1525 
Q 5700 1600 5500 1675 
Q 5450 1325 5450 1025 
L 5450 125 
Q 5450 -250 5475 -650 
L 5000 -650 
L 5000 -175 
L 3500 -175 
L 3500 -700 
L 3025 -700 
Q 3050 -325 3050 0 
L 3050 1000 
Q 3050 1200 3025 1675 
Q 2875 1600 2600 1500 
Q 2500 1775 2325 1975 
Q 2700 2075 3162 2262 
Q 3625 2450 3900 2675 
Q 3575 3100 3350 3625 
Q 3075 3200 2800 2825 
Q 2650 2975 2400 3100 
z
M 1825 4725 
Q 1650 4500 1425 4037 
Q 1200 3575 900 3050 
L 1600 3050 
Q 1875 3575 2000 3975 
Q 2250 3775 2500 3650 
Q 2350 3475 2050 2937 
Q 1750 2400 1225 1525 
Q 1975 1650 2300 1700 
Q 2275 1375 2300 1225 
Q 1700 1150 1375 1087 
Q 1050 1025 625 925 
Q 550 1200 450 1400 
Q 700 1500 937 1850 
Q 1175 2200 1425 2700 
Q 750 2675 400 2525 
Q 325 2750 225 3025 
Q 525 3175 825 3787 
Q 1125 4400 1275 5000 
Q 1550 4825 1825 4725 
z
M 5000 225 
L 5000 1300 
L 3500 1300 
L 3500 225 
L 5000 225 
z
M 2375 700 
Q 2425 450 2425 250 
Q 2150 200 1637 25 
Q 1125 -150 650 -350 
Q 550 -50 425 200 
Q 1050 325 1462 425 
Q 1875 525 2375 700 
z
M 4275 2975 
Q 4425 3125 4637 3425 
Q 4850 3725 5000 4050 
L 3650 4050 
Q 3900 3425 4275 2975 
z
M 5475 1700 
Q 5125 1850 4812 2000 
Q 4500 2150 4225 2350 
Q 3925 2150 3662 2000 
Q 3400 1850 3075 1700 
L 5475 1700 
z
" transform="scale(0.015625)"/>
      <path id="SimHei-8fde" d="M 3175 4350 
Q 3425 4925 3475 5200 
Q 3875 5025 4050 4975 
Q 3925 4875 3675 4350 
L 5025 4350 
Q 5550 4350 5850 4375 
L 5850 3925 
Q 5525 3950 5100 3950 
L 3475 3950 
Q 3350 3700 2875 2925 
L 3875 2925 
Q 3875 3400 3850 3725 
L 4350 3725 
Q 4325 3450 4325 2925 
Q 5575 2925 5650 2950 
L 5650 2475 
Q 5500 2525 4325 2525 
L 4325 1700 
L 5250 1700 
Q 5800 1700 5950 1725 
L 5950 1275 
Q 5650 1300 5250 1300 
L 4325 1300 
Q 4325 600 4350 75 
L 3850 75 
Q 3875 600 3875 1300 
Q 2150 1300 1975 1275 
L 1975 1725 
Q 2650 1700 3875 1700 
L 3875 2525 
L 3075 2525 
Q 2525 2500 2375 2450 
L 2200 2900 
Q 2400 3025 2587 3275 
Q 2775 3525 2975 3950 
Q 2325 3950 1975 3925 
L 1975 4375 
Q 2300 4350 3175 4350 
z
M 1625 2925 
Q 1600 2425 1600 2100 
L 1600 550 
Q 2325 -75 3825 -75 
Q 5350 -75 6175 0 
Q 6025 -250 5975 -550 
Q 4975 -550 4175 -537 
Q 3375 -525 2750 -412 
Q 2125 -300 1762 -50 
Q 1400 200 1175 -12 
Q 950 -225 675 -550 
Q 525 -350 275 -175 
Q 850 300 1100 475 
L 1100 2525 
Q 775 2525 400 2500 
L 400 2950 
Q 800 2925 1125 2925 
L 1625 2925 
z
M 975 4950 
Q 1450 4275 1775 3750 
Q 1550 3675 1300 3500 
Q 1175 3875 550 4650 
Q 775 4850 975 4950 
z
" transform="scale(0.015625)"/>
      <path id="SimHei-8fb9" d="M 3450 3950 
Q 3450 4750 3425 5250 
Q 3800 5175 4050 5175 
Q 3975 4825 3950 3950 
L 5725 3950 
Q 5650 3525 5625 3100 
L 5500 1150 
Q 5475 725 5062 612 
Q 4650 500 4300 400 
Q 4275 725 4050 1050 
Q 4650 1075 4837 1137 
Q 5025 1200 5050 1450 
L 5175 3500 
L 3925 3500 
Q 3825 2500 3525 1837 
Q 3225 1175 2625 500 
Q 2400 725 2075 900 
Q 2625 1275 2987 1937 
Q 3350 2600 3425 3500 
Q 2825 3500 2275 3450 
L 2275 3975 
Q 2725 3950 3450 3950 
z
M 1625 2900 
Q 1600 2475 1600 2125 
L 1600 675 
Q 2225 50 3775 0 
Q 5325 -50 6200 50 
Q 5950 -150 5925 -550 
Q 5125 -550 4350 -525 
Q 3575 -500 2925 -387 
Q 2275 -275 1850 75 
Q 1425 425 1187 175 
Q 950 -75 725 -550 
Q 500 -325 225 -150 
Q 875 350 1100 625 
L 1100 2450 
Q 650 2450 225 2425 
L 225 2925 
Q 725 2900 1150 2900 
L 1625 2900 
z
M 1150 5075 
Q 1600 4200 1700 3900 
Q 1450 3825 1175 3675 
Q 1150 3925 650 4875 
Q 925 4975 1150 5075 
z
" transform="scale(0.015625)"/>
     </defs>
     <use xlink:href="#SimHei-28"/>
     <use xlink:href="#SimHei-62" transform="translate(50 0)"/>
     <use xlink:href="#SimHei-29" transform="translate(100 0)"/>
     <use xlink:href="#SimHei-20" transform="translate(150 0)"/>
     <use xlink:href="#SimHei-7f51" transform="translate(200 0)"/>
     <use xlink:href="#SimHei-7edc" transform="translate(300 0)"/>
     <use xlink:href="#SimHei-8fde" transform="translate(400 0)"/>
     <use xlink:href="#SimHei-8fb9" transform="translate(500 0)"/>
    </g>
   </g>
  </g>
  <g id="text_35">
   <!-- 有限穿越可视图 (LPVG, N=1) - O(n^2) 算法实现 -->
   <g transform="translate(180.44875 20.1375) scale(0.16 -0.16)">
    <defs>
     <path id="SimHei-6709" d="M 275 1625 
Q 850 1975 1400 2537 
Q 1950 3100 2400 3925 
L 1500 3925 
Q 1150 3925 625 3900 
L 625 4375 
Q 1275 4350 1600 4350 
L 2550 4350 
Q 2750 4950 2775 5225 
Q 3150 5125 3375 5075 
Q 3300 5000 3125 4350 
L 5150 4350 
Q 5575 4350 6025 4375 
L 6025 3900 
Q 5575 3925 5225 3925 
L 2975 3925 
Q 2800 3600 2600 3275 
L 5475 3275 
Q 5450 2650 5450 2150 
L 5450 125 
Q 5450 -225 5250 -387 
Q 5050 -550 4400 -600 
Q 4375 -325 4225 0 
Q 4600 -50 4775 -25 
Q 4950 0 4950 250 
L 4950 750 
L 2350 750 
L 2350 -575 
L 1800 -575 
Q 1825 50 1825 500 
L 1825 2275 
Q 1300 1675 725 1225 
Q 625 1400 275 1625 
z
M 4950 2175 
L 4950 2875 
L 2350 2875 
L 2350 2175 
L 4950 2175 
z
M 4950 1150 
L 4950 1775 
L 2350 1775 
L 2350 1150 
L 4950 1150 
z
" transform="scale(0.015625)"/>
     <path id="SimHei-9650" d="M 5550 4950 
Q 5525 4500 5525 3700 
Q 5525 2925 5550 2475 
L 4375 2475 
Q 4375 2000 4625 1475 
Q 5275 1900 5475 2250 
Q 5675 1950 5850 1800 
Q 5400 1575 4750 1150 
Q 5025 775 5325 500 
Q 5625 225 6200 25 
Q 5900 -125 5750 -450 
Q 5150 -75 4812 312 
Q 4475 700 4262 1212 
Q 4050 1725 3975 2475 
L 3400 2475 
L 3400 200 
Q 3800 400 4125 675 
Q 4150 450 4225 150 
Q 4000 25 3637 -175 
Q 3275 -375 3025 -575 
Q 2925 -375 2750 -125 
Q 2900 25 2950 325 
L 2950 3850 
Q 2950 4350 2925 4950 
L 5550 4950 
z
M 2500 4950 
Q 2050 3475 1875 2950 
Q 2375 2350 2450 1850 
Q 2525 1350 2237 1025 
Q 1950 700 1525 575 
Q 1500 900 1300 1150 
Q 1750 1150 1875 1325 
Q 2000 1500 1975 1887 
Q 1950 2275 1375 2925 
Q 1775 4050 1875 4550 
L 1125 4550 
L 1125 -500 
L 650 -500 
Q 675 200 675 875 
L 675 3800 
Q 675 4250 650 4950 
L 2500 4950 
z
M 5075 2875 
L 5075 3550 
L 3400 3550 
L 3400 2875 
L 5075 2875 
z
M 5075 3925 
L 5075 4550 
L 3400 4550 
L 3400 3925 
L 5075 3925 
z
" transform="scale(0.015625)"/>
     <path id="SimHei-7a7f" d="M 4825 2900 
Q 5100 2900 5600 2925 
L 5600 2475 
Q 5100 2500 4825 2500 
L 4525 2500 
L 4525 1700 
L 5100 1700 
Q 5525 1700 6000 1725 
L 6000 1275 
Q 5425 1300 5100 1300 
L 4525 1300 
L 4525 0 
Q 4525 -425 4212 -500 
Q 3900 -575 3425 -625 
Q 3375 -325 3200 0 
Q 3725 -25 3875 0 
Q 4025 25 4025 400 
L 4025 1300 
L 3850 1300 
Q 3525 975 3225 737 
Q 2925 500 2562 300 
Q 2200 100 1775 -62 
Q 1350 -225 725 -425 
Q 575 -200 350 50 
Q 825 100 1262 237 
Q 1700 375 2050 537 
Q 2400 700 2687 887 
Q 2975 1075 3200 1300 
Q 2525 1300 2025 1287 
Q 1525 1275 1150 1200 
Q 1050 1450 950 1675 
Q 1200 1775 1337 2025 
Q 1475 2275 1575 2500 
Q 1250 2500 825 2475 
L 825 2925 
Q 1225 2900 1550 2900 
L 4825 2900 
z
M 3325 5275 
Q 3425 5000 3575 4550 
L 5950 4550 
Q 5925 4300 5925 4025 
Q 5925 3775 5950 3475 
L 5450 3475 
L 5450 4150 
L 1125 4150 
L 1125 3500 
L 600 3500 
Q 625 3800 625 4050 
Q 625 4325 600 4550 
L 3000 4550 
Q 2950 4775 2800 5100 
Q 3050 5150 3325 5275 
z
M 4025 1700 
L 4025 2500 
L 2125 2500 
Q 1825 1950 1650 1700 
L 4025 1700 
z
M 4000 4050 
Q 4325 3900 4650 3762 
Q 4975 3625 5375 3450 
Q 5225 3250 5050 3000 
Q 4800 3150 4475 3325 
Q 4150 3500 3700 3700 
Q 3875 3875 4000 4050 
z
M 2875 3625 
Q 2675 3575 2287 3387 
Q 1900 3200 1475 2975 
Q 1300 3225 1175 3400 
Q 1675 3550 1950 3700 
Q 2225 3850 2475 4050 
Q 2625 3875 2875 3625 
z
" transform="scale(0.015625)"/>
     <path id="SimHei-8d8a" d="M 1275 1875 
Q 1225 1525 1175 1125 
Q 1400 825 1750 600 
L 1750 2550 
Q 975 2550 500 2525 
L 500 2925 
Q 975 2900 1625 2900 
L 1625 3850 
Q 1075 3850 700 3825 
L 700 4225 
Q 1075 4200 1625 4200 
Q 1625 4700 1600 5125 
L 2075 5125 
Q 2050 4750 2050 4200 
Q 2475 4200 2850 4225 
L 2850 3825 
Q 2475 3850 2050 3850 
L 2050 2900 
Q 2450 2900 2900 2925 
L 2900 2525 
Q 2475 2550 2175 2550 
L 2175 1700 
Q 2450 1700 2800 1725 
L 2800 1350 
Q 2450 1375 2175 1375 
L 2175 350 
Q 2925 0 4162 -25 
Q 5400 -50 6025 50 
Q 5850 -250 5825 -475 
Q 4900 -475 4137 -462 
Q 3375 -450 2825 -312 
Q 2275 -175 1850 50 
Q 1425 275 1100 650 
Q 925 -75 675 -525 
Q 450 -325 350 -250 
Q 575 175 662 537 
Q 750 900 787 1287 
Q 825 1675 825 2000 
Q 1075 1900 1275 1875 
z
M 4600 5000 
Q 4550 4725 4550 4500 
L 4550 3975 
Q 5350 3975 5825 4000 
L 5825 3625 
Q 5350 3650 4575 3650 
Q 4600 3400 4650 2837 
Q 4700 2275 4800 1875 
Q 5100 2550 5225 3200 
Q 5425 3050 5675 2950 
Q 5550 2800 5400 2387 
Q 5250 1975 5000 1375 
Q 5100 1125 5300 937 
Q 5500 750 5600 1425 
Q 5800 1200 6000 1125 
Q 5800 500 5525 350 
Q 5250 200 4725 1025 
Q 4375 600 4000 225 
Q 3825 400 3625 475 
Q 3850 625 4087 850 
Q 4325 1075 4500 1425 
Q 4300 2075 4175 3650 
L 3550 3650 
L 3550 1525 
Q 3750 1650 4025 1900 
Q 4075 1675 4175 1475 
Q 3975 1325 3737 1150 
Q 3500 975 3250 775 
Q 3150 950 3000 1150 
Q 3150 1250 3150 1475 
L 3150 3200 
Q 3150 3525 3125 3975 
L 4150 3975 
Q 4125 4650 4100 5075 
Q 4375 5000 4600 5000 
z
M 5100 4975 
Q 5300 4800 5750 4425 
Q 5600 4325 5475 4125 
Q 5150 4475 4825 4700 
Q 4975 4825 5100 4975 
z
" transform="scale(0.015625)"/>
     <path id="SimHei-53ef" d="M 3600 3500 
Q 3575 3175 3575 2775 
L 3575 1550 
Q 3575 1125 3600 825 
L 3075 825 
L 3075 1275 
L 1650 1275 
L 1650 600 
L 1150 600 
Q 1175 775 1175 1175 
L 1175 2775 
Q 1175 3175 1150 3500 
L 3600 3500 
z
M 5200 4675 
Q 5600 4675 6050 4700 
L 6050 4225 
Q 5650 4250 5225 4250 
L 5075 4250 
L 5075 125 
Q 5075 -325 4812 -462 
Q 4550 -600 3750 -675 
Q 3700 -350 3550 -75 
Q 4075 -100 4300 -50 
Q 4525 0 4525 225 
L 4525 4250 
L 1525 4250 
Q 875 4250 350 4225 
L 350 4700 
Q 875 4675 1500 4675 
L 5200 4675 
z
M 3075 1700 
L 3075 3075 
L 1650 3075 
L 1650 1700 
L 3075 1700 
z
" transform="scale(0.015625)"/>
     <path id="SimHei-89c6" d="M 4500 3875 
Q 4400 3700 4375 3187 
Q 4350 2675 4225 1750 
L 4675 1750 
Q 4650 1500 4650 1075 
L 4650 400 
Q 4650 25 4825 12 
Q 5000 0 5225 0 
Q 5475 0 5537 100 
Q 5600 200 5650 725 
Q 5925 550 6175 500 
Q 6000 -425 5600 -425 
L 4600 -425 
Q 4200 -400 4200 100 
L 4200 1600 
Q 3900 800 3525 325 
Q 3150 -150 2500 -650 
Q 2300 -425 2050 -325 
Q 2750 100 3150 625 
Q 3550 1150 3712 1725 
Q 3875 2300 3900 2875 
Q 3925 3450 3875 3975 
Q 4175 3925 4500 3875 
z
M 5525 4875 
Q 5500 4475 5500 3925 
L 5500 2550 
Q 5500 2100 5525 1625 
L 5050 1625 
L 5050 4475 
L 3275 4475 
L 3275 1600 
L 2800 1600 
Q 2825 2025 2825 2525 
L 2825 3900 
Q 2825 4425 2800 4875 
L 5525 4875 
z
M 2275 3900 
Q 2200 3650 2062 3287 
Q 1925 2925 1650 2475 
L 1650 475 
Q 1650 25 1675 -625 
L 1175 -625 
Q 1200 75 1200 500 
L 1200 1875 
Q 950 1525 500 1125 
Q 350 1375 200 1525 
Q 725 1925 1100 2475 
Q 1475 3025 1650 3500 
L 1025 3500 
Q 650 3500 350 3475 
L 350 3925 
Q 725 3900 1025 3900 
L 2275 3900 
z
M 1350 5225 
Q 1675 4750 1900 4400 
Q 1725 4275 1450 4100 
Q 1250 4550 950 4950 
Q 1175 5075 1350 5225 
z
M 2025 2500 
Q 2325 2075 2550 1675 
Q 2350 1575 2150 1375 
Q 1925 1825 1675 2225 
Q 1850 2350 2025 2500 
z
" transform="scale(0.015625)"/>
     <path id="SimHei-56fe" d="M 5800 4975 
Q 5775 4350 5775 3600 
L 5775 925 
Q 5775 150 5800 -600 
L 5300 -600 
L 5300 -275 
L 1125 -275 
L 1125 -650 
L 625 -650 
Q 650 125 650 950 
L 650 3600 
Q 650 4325 625 4975 
L 5800 4975 
z
M 5300 150 
L 5300 4575 
L 1125 4575 
L 1125 150 
L 5300 150 
z
M 3225 4250 
Q 3075 4100 2950 3925 
L 4625 3925 
Q 4525 3700 4300 3375 
Q 4075 3050 3600 2600 
Q 4350 2225 5075 2150 
Q 4900 1925 4775 1675 
Q 3850 1950 3225 2350 
Q 2500 1875 1675 1650 
Q 1600 1875 1400 2075 
Q 2200 2200 2875 2600 
Q 2525 2925 2375 3150 
Q 2150 2900 1900 2650 
Q 1725 2850 1525 2950 
Q 1950 3300 2250 3737 
Q 2550 4175 2675 4475 
Q 2925 4350 3225 4250 
z
M 2450 1275 
Q 3550 950 4100 725 
Q 3975 525 3850 300 
Q 2825 725 2275 850 
Q 2375 1050 2450 1275 
z
M 2925 2050 
Q 3775 1700 4075 1600 
Q 3950 1400 3850 1150 
Q 3000 1550 2700 1650 
Q 2825 1825 2925 2050 
z
M 2625 3450 
Q 3000 3025 3275 2850 
Q 3600 3100 3875 3525 
L 2675 3525 
L 2625 3450 
z
" transform="scale(0.015625)"/>
     <path id="SimHei-4c" d="M 2900 125 
L 300 125 
L 300 4400 
L 875 4400 
L 875 600 
L 2900 600 
L 2900 125 
z
" transform="scale(0.015625)"/>
     <path id="SimHei-50" d="M 2950 3100 
Q 2950 2500 2600 2150 
Q 2250 1800 1625 1800 
L 900 1800 
L 900 125 
L 325 125 
L 325 4400 
L 1625 4400 
Q 2250 4400 2600 4050 
Q 2950 3700 2950 3100 
z
M 2375 3100 
Q 2375 3575 2150 3750 
Q 1925 3925 1475 3925 
L 900 3925 
L 900 2275 
L 1475 2275 
Q 1925 2275 2150 2450 
Q 2375 2625 2375 3100 
z
" transform="scale(0.015625)"/>
     <path id="SimHei-56" d="M 3050 4400 
L 1800 75 
L 1300 75 
L 50 4400 
L 650 4400 
L 1525 1125 
L 1575 1125 
L 2450 4400 
L 3050 4400 
z
" transform="scale(0.015625)"/>
     <path id="SimHei-47" d="M 2850 75 
L 2425 75 
L 2350 425 
Q 2250 275 2037 175 
Q 1825 75 1575 75 
Q 1050 75 637 562 
Q 225 1050 225 2125 
Q 225 3300 600 3875 
Q 975 4450 1625 4450 
Q 2200 4450 2525 4025 
Q 2850 3600 2850 2925 
L 2300 2925 
Q 2300 3450 2125 3712 
Q 1950 3975 1625 3975 
Q 1225 3975 1025 3562 
Q 825 3150 825 2175 
Q 825 1250 1075 900 
Q 1325 550 1650 550 
Q 1975 550 2162 787 
Q 2350 1025 2350 1525 
L 2350 1800 
L 1575 1800 
L 1575 2275 
L 2850 2275 
L 2850 75 
z
" transform="scale(0.015625)"/>
     <path id="SimHei-2c" d="M 1100 125 
L 775 -550 
L 525 -550 
L 775 125 
L 525 125 
L 525 675 
L 1100 675 
L 1100 125 
z
" transform="scale(0.015625)"/>
     <path id="SimHei-4e" d="M 2850 125 
L 2225 125 
L 850 3225 
L 825 3225 
L 825 125 
L 250 125 
L 250 4400 
L 875 4400 
L 2250 1300 
L 2275 1300 
L 2275 4400 
L 2850 4400 
L 2850 125 
z
" transform="scale(0.015625)"/>
     <path id="SimHei-3d" d="M 2975 2900 
L 125 2900 
L 125 3300 
L 2975 3300 
L 2975 2900 
z
M 2975 1375 
L 125 1375 
L 125 1775 
L 2975 1775 
L 2975 1375 
z
" transform="scale(0.015625)"/>
     <path id="SimHei-2d" d="M 2975 2125 
L 125 2125 
L 125 2525 
L 2975 2525 
L 2975 2125 
z
" transform="scale(0.015625)"/>
     <path id="SimHei-4f" d="M 2950 2275 
Q 2950 1100 2587 587 
Q 2225 75 1575 75 
Q 925 75 550 587 
Q 175 1100 175 2275 
Q 175 3450 550 3950 
Q 925 4450 1575 4450 
Q 2225 4450 2587 3950 
Q 2950 3450 2950 2275 
z
M 2350 2275 
Q 2350 3325 2125 3650 
Q 1900 3975 1575 3975 
Q 1250 3975 1012 3650 
Q 775 3325 775 2275 
Q 775 1225 1012 887 
Q 1250 550 1575 550 
Q 1900 550 2125 887 
Q 2350 1225 2350 2275 
z
" transform="scale(0.015625)"/>
     <path id="SimHei-6e" d="M 2800 125 
L 2300 125 
L 2300 1925 
Q 2300 2225 2150 2400 
Q 2000 2575 1750 2575 
Q 1425 2575 1137 2237 
Q 850 1900 850 1400 
L 850 125 
L 350 125 
L 350 2925 
L 850 2925 
L 850 2400 
Q 1050 2675 1287 2825 
Q 1525 2975 1900 2975 
Q 2350 2975 2575 2725 
Q 2800 2475 2800 2100 
L 2800 125 
z
" transform="scale(0.015625)"/>
     <path id="SimHei-5e" d="M 2750 4125 
L 2300 4125 
L 1550 4750 
L 800 4125 
L 350 4125 
L 1250 5150 
L 1850 5150 
L 2750 4125 
z
" transform="scale(0.015625)"/>
     <path id="SimHei-7b97" d="M 5175 3650 
Q 5150 3200 5150 2500 
Q 5150 1800 5175 1325 
L 4575 1325 
L 4575 875 
L 5250 875 
Q 5650 875 6150 900 
L 6150 475 
Q 5650 500 5250 500 
L 4575 500 
Q 4575 -75 4600 -625 
L 4050 -625 
Q 4075 -75 4075 500 
L 2650 500 
Q 2475 100 2125 -175 
Q 1775 -450 1075 -675 
Q 925 -425 700 -250 
Q 1250 -150 1600 37 
Q 1950 225 2125 500 
L 1225 500 
Q 800 500 300 475 
L 300 900 
Q 825 875 1225 875 
L 2200 875 
Q 2250 1075 2250 1325 
L 1250 1325 
Q 1275 1775 1275 2475 
Q 1275 3200 1250 3650 
L 5175 3650 
z
M 1825 5100 
Q 1625 4900 1475 4725 
L 2425 4725 
Q 2750 4725 3175 4750 
L 3175 4325 
Q 2750 4350 2200 4350 
Q 2250 4175 2350 3875 
Q 2075 3850 1825 3750 
Q 1750 4075 1675 4350 
L 1200 4350 
Q 1075 4125 775 3775 
Q 525 3925 250 4000 
Q 500 4225 762 4537 
Q 1025 4850 1275 5300 
Q 1500 5175 1825 5100 
z
M 4525 5100 
Q 4325 4950 4175 4725 
L 5225 4725 
Q 5500 4725 5950 4750 
L 5950 4325 
Q 5550 4350 4975 4350 
L 5175 3950 
Q 4925 3925 4650 3825 
Q 4575 4100 4500 4350 
L 3900 4350 
Q 3700 4025 3525 3775 
Q 3250 3950 3025 4000 
Q 3325 4300 3550 4612 
Q 3775 4925 3900 5275 
Q 4175 5175 4525 5100 
z
M 4650 1675 
L 4650 2000 
L 1775 2000 
L 1775 1675 
L 4650 1675 
z
M 4650 2350 
L 4650 2650 
L 1775 2650 
L 1775 2350 
L 4650 2350 
z
M 4650 3000 
L 4650 3300 
L 1775 3300 
L 1775 3000 
L 4650 3000 
z
M 4075 875 
L 4075 1325 
L 2725 1325 
Q 2725 1075 2700 875 
L 4075 875 
z
" transform="scale(0.015625)"/>
     <path id="SimHei-6cd5" d="M 6075 -300 
Q 5850 -425 5625 -625 
Q 5450 -300 5325 -125 
Q 4525 -175 3587 -262 
Q 2650 -350 2325 -450 
Q 2250 -150 2125 75 
Q 2450 175 2825 725 
Q 3200 1275 3500 2100 
L 2800 2100 
Q 2350 2100 1950 2075 
L 1950 2525 
Q 2350 2500 2825 2500 
L 3725 2500 
L 3725 3600 
L 3150 3600 
Q 2675 3600 2325 3575 
L 2325 4025 
Q 2725 4000 3125 4000 
L 3725 4000 
Q 3725 4700 3700 5150 
L 4250 5150 
Q 4225 4775 4225 4000 
L 4975 4000 
Q 5350 4000 5750 4025 
L 5750 3575 
Q 5350 3600 5025 3600 
L 4225 3600 
L 4225 2500 
L 5125 2500 
Q 5575 2500 6025 2525 
L 6025 2075 
Q 5575 2100 5125 2100 
L 3850 2100 
L 4100 1950 
Q 3950 1775 3625 1200 
Q 3300 625 2900 100 
Q 4000 150 5075 225 
Q 4775 675 4450 1025 
Q 4650 1175 4825 1350 
Q 5275 800 6075 -300 
z
M 300 -250 
Q 650 100 1012 625 
Q 1375 1150 1725 1725 
Q 1850 1500 2075 1375 
Q 1850 1075 1500 487 
Q 1150 -100 850 -625 
Q 650 -425 300 -250 
z
M 675 3425 
Q 1200 3100 1800 2650 
Q 1575 2500 1400 2250 
Q 925 2675 350 3050 
Q 525 3200 675 3425 
z
M 1050 4900 
Q 1550 4575 2100 4125 
Q 1900 3975 1725 3725 
Q 1250 4175 725 4525 
Q 900 4700 1050 4900 
z
" transform="scale(0.015625)"/>
     <path id="SimHei-5b9e" d="M 4125 3500 
Q 4050 3200 4000 2675 
Q 3950 2150 3850 1550 
L 5025 1550 
Q 5475 1550 5975 1575 
L 5975 1100 
Q 5450 1125 5000 1125 
L 3725 1125 
Q 3500 625 3050 250 
Q 2600 -125 2000 -337 
Q 1400 -550 925 -675 
Q 825 -375 500 -200 
Q 1225 -125 2050 212 
Q 2875 550 3200 1125 
L 1425 1125 
Q 975 1125 425 1100 
L 425 1575 
Q 1000 1550 1425 1550 
L 3375 1550 
Q 3450 1975 3487 2462 
Q 3525 2950 3500 3650 
Q 3800 3550 4125 3500 
z
M 3250 5250 
Q 3450 4850 3600 4375 
L 5775 4375 
Q 5750 4100 5750 3825 
Q 5750 3575 5775 3275 
L 5200 3275 
L 5200 3975 
L 1225 3975 
L 1225 3225 
L 675 3225 
Q 700 3525 700 3800 
Q 700 4100 675 4375 
L 2975 4375 
Q 2900 4675 2700 5075 
Q 2900 5150 3250 5250 
z
M 4000 825 
Q 4550 525 5050 262 
Q 5550 0 5925 -225 
Q 5750 -425 5550 -650 
Q 5100 -325 4575 -37 
Q 4050 250 3675 400 
Q 3875 650 4000 825 
z
M 1175 2750 
Q 1600 2550 2350 2050 
Q 2250 1900 2050 1650 
Q 1350 2175 925 2350 
Q 1075 2500 1175 2750 
z
M 3150 2825 
Q 2975 2625 2850 2425 
Q 2050 3000 1675 3125 
Q 1800 3300 1950 3525 
L 3150 2825 
z
" transform="scale(0.015625)"/>
     <path id="SimHei-73b0" d="M 4650 3850 
Q 4550 3575 4512 2975 
Q 4475 2375 4350 1700 
L 4850 1700 
Q 4825 1450 4825 1025 
L 4825 225 
Q 4825 -150 4962 -175 
Q 5100 -200 5275 -187 
Q 5450 -175 5525 -12 
Q 5600 150 5625 575 
Q 5875 425 6175 375 
Q 6050 -150 5925 -337 
Q 5800 -525 5400 -575 
L 4900 -575 
Q 4350 -575 4350 -100 
L 4350 1650 
Q 4125 850 3700 312 
Q 3275 -225 2425 -675 
Q 2300 -475 2000 -325 
Q 2800 0 3175 387 
Q 3550 775 3775 1375 
Q 4000 1975 4037 2625 
Q 4075 3275 4050 3925 
Q 4375 3875 4650 3850 
z
M 1850 4625 
Q 2125 4625 2525 4650 
L 2525 4175 
Q 2125 4200 1675 4200 
L 1675 2825 
Q 2025 2825 2425 2850 
L 2425 2375 
Q 2025 2400 1675 2400 
L 1675 875 
Q 2100 975 2550 1125 
Q 2525 850 2525 650 
Q 1700 450 1200 275 
Q 700 100 450 -25 
Q 375 325 250 575 
Q 650 625 1225 750 
L 1225 2400 
Q 825 2400 450 2375 
L 450 2850 
Q 825 2825 1225 2825 
L 1225 4200 
Q 775 4200 425 4175 
L 425 4650 
Q 725 4625 1000 4625 
L 1850 4625 
z
M 5750 4875 
Q 5725 4475 5725 4075 
L 5725 2400 
Q 5725 1925 5750 1575 
L 5275 1575 
L 5275 4475 
L 3375 4475 
L 3375 1550 
L 2900 1550 
Q 2925 1975 2925 2500 
L 2925 3875 
Q 2925 4425 2900 4875 
L 5750 4875 
z
" transform="scale(0.015625)"/>
    </defs>
    <use xlink:href="#SimHei-6709"/>
    <use xlink:href="#SimHei-9650" transform="translate(100 0)"/>
    <use xlink:href="#SimHei-7a7f" transform="translate(200 0)"/>
    <use xlink:href="#SimHei-8d8a" transform="translate(300 0)"/>
    <use xlink:href="#SimHei-53ef" transform="translate(400 0)"/>
    <use xlink:href="#SimHei-89c6" transform="translate(500 0)"/>
    <use xlink:href="#SimHei-56fe" transform="translate(600 0)"/>
    <use xlink:href="#SimHei-20" transform="translate(700 0)"/>
    <use xlink:href="#SimHei-28" transform="translate(750 0)"/>
    <use xlink:href="#SimHei-4c" transform="translate(800 0)"/>
    <use xlink:href="#SimHei-50" transform="translate(850 0)"/>
    <use xlink:href="#SimHei-56" transform="translate(900 0)"/>
    <use xlink:href="#SimHei-47" transform="translate(950 0)"/>
    <use xlink:href="#SimHei-2c" transform="translate(1000 0)"/>
    <use xlink:href="#SimHei-20" transform="translate(1050 0)"/>
    <use xlink:href="#SimHei-4e" transform="translate(1100 0)"/>
    <use xlink:href="#SimHei-3d" transform="translate(1150 0)"/>
    <use xlink:href="#SimHei-31" transform="translate(1200 0)"/>
    <use xlink:href="#SimHei-29" transform="translate(1250 0)"/>
    <use xlink:href="#SimHei-20" transform="translate(1300 0)"/>
    <use xlink:href="#SimHei-2d" transform="translate(1350 0)"/>
    <use xlink:href="#SimHei-20" transform="translate(1400 0)"/>
    <use xlink:href="#SimHei-4f" transform="translate(1450 0)"/>
    <use xlink:href="#SimHei-28" transform="translate(1500 0)"/>
    <use xlink:href="#SimHei-6e" transform="translate(1550 0)"/>
    <use xlink:href="#SimHei-5e" transform="translate(1600 0)"/>
    <use xlink:href="#SimHei-32" transform="translate(1650 0)"/>
    <use xlink:href="#SimHei-29" transform="translate(1700 0)"/>
    <use xlink:href="#SimHei-20" transform="translate(1750 0)"/>
    <use xlink:href="#SimHei-7b97" transform="translate(1800 0)"/>
    <use xlink:href="#SimHei-6cd5" transform="translate(1900 0)"/>
    <use xlink:href="#SimHei-5b9e" transform="translate(2000 0)"/>
    <use xlink:href="#SimHei-73b0" transform="translate(2100 0)"/>
   </g>
  </g>
 </g>
 <defs>
  <clipPath id="p04c41038a3">
   <rect x="43.8875" y="79.13625" width="661.76125" height="246.929375"/>
  </clipPath>
  <clipPath id="pbd587c4d57">
   <rect x="139.23549" y="384.510625" width="471.065269" height="246.929375"/>
  </clipPath>
 </defs>
</svg>
