<?xml version="1.0" encoding="utf-8" standalone="no"?>
<!DOCTYPE svg PUBLIC "-//W3C//DTD SVG 1.1//EN"
  "http://www.w3.org/Graphics/SVG/1.1/DTD/svg11.dtd">
<svg xmlns:xlink="http://www.w3.org/1999/xlink" width="712.79875pt" height="638.64pt" viewBox="0 0 712.79875 638.64" xmlns="http://www.w3.org/2000/svg" version="1.1">
 <metadata>
  <rdf:RDF xmlns:dc="http://purl.org/dc/elements/1.1/" xmlns:cc="http://creativecommons.org/ns#" xmlns:rdf="http://www.w3.org/1999/02/22-rdf-syntax-ns#">
   <cc:Work>
    <dc:type rdf:resource="http://purl.org/dc/dcmitype/StillImage"/>
    <dc:date>2025-10-24T12:53:11.402923</dc:date>
    <dc:format>image/svg+xml</dc:format>
    <dc:creator>
     <cc:Agent>
      <dc:title>Matplotlib v3.10.6, https://matplotlib.org/</dc:title>
     </cc:Agent>
    </dc:creator>
   </cc:Work>
  </rdf:RDF>
 </metadata>
 <defs>
  <style type="text/css">*{stroke-linejoin: round; stroke-linecap: butt}</style>
 </defs>
 <g id="figure_1">
  <g id="patch_1">
   <path d="M 0 638.64 
L 712.79875 638.64 
L 712.79875 0 
L 0 0 
z
" style="fill: #ffffff"/>
  </g>
  <g id="axes_1">
   <g id="patch_2">
    <path d="M 38.8875 326.009375 
L 705.59875 326.009375 
L 705.59875 79.02375 
L 38.8875 79.02375 
z
" style="fill: #ffffff"/>
   </g>
   <g id="patch_3">
    <path d="M 79.430752 326.009375 
L 124.478809 326.009375 
L 124.478809 162.100733 
L 79.430752 162.100733 
z
" clip-path="url(#p8bb9b9c81f)" style="fill: #d3d3d3; stroke: #696969; stroke-linejoin: miter"/>
   </g>
   <g id="patch_4">
    <path d="M 169.526867 326.009375 
L 214.574924 326.009375 
L 214.574924 213.743182 
L 169.526867 213.743182 
z
" clip-path="url(#p8bb9b9c81f)" style="fill: #d3d3d3; stroke: #696969; stroke-linejoin: miter"/>
   </g>
   <g id="patch_5">
    <path d="M 259.622981 326.009375 
L 304.671039 326.009375 
L 304.671039 186.799295 
L 259.622981 186.799295 
z
" clip-path="url(#p8bb9b9c81f)" style="fill: #d3d3d3; stroke: #696969; stroke-linejoin: miter"/>
   </g>
   <g id="patch_6">
    <path d="M 349.719096 326.009375 
L 394.767154 326.009375 
L 394.767154 177.818 
L 349.719096 177.818 
z
" clip-path="url(#p8bb9b9c81f)" style="fill: #d3d3d3; stroke: #696969; stroke-linejoin: miter"/>
   </g>
   <g id="patch_7">
    <path d="M 439.815211 326.009375 
L 484.863269 326.009375 
L 484.863269 278.857574 
L 439.815211 278.857574 
z
" clip-path="url(#p8bb9b9c81f)" style="fill: #d3d3d3; stroke: #696969; stroke-linejoin: miter"/>
   </g>
   <g id="patch_8">
    <path d="M 529.911326 326.009375 
L 574.959383 326.009375 
L 574.959383 213.743182 
L 529.911326 213.743182 
z
" clip-path="url(#p8bb9b9c81f)" style="fill: #d3d3d3; stroke: #696969; stroke-linejoin: miter"/>
   </g>
   <g id="patch_9">
    <path d="M 620.007441 326.009375 
L 665.055498 326.009375 
L 665.055498 121.684903 
L 620.007441 121.684903 
z
" clip-path="url(#p8bb9b9c81f)" style="fill: #d3d3d3; stroke: #696969; stroke-linejoin: miter"/>
   </g>
   <g id="matplotlib.axis_1">
    <g id="xtick_1">
     <g id="line2d_1">
      <defs>
       <path id="m80834f91b3" d="M 0 0 
L 0 3.5 
" style="stroke: #000000; stroke-width: 0.8"/>
      </defs>
      <g>
       <use xlink:href="#m80834f91b3" x="101.95478" y="326.009375" style="stroke: #000000; stroke-width: 0.8"/>
      </g>
     </g>
     <g id="text_1">
      <!-- 1 -->
      <g transform="translate(99.45478 339.884375) scale(0.1 -0.1)">
       <defs>
        <path id="SimHei-31" d="M 1400 3600 
Q 1075 3275 575 2975 
L 575 3450 
Q 1200 3875 1600 4450 
L 1900 4450 
L 1900 150 
L 1400 150 
L 1400 3600 
z
" transform="scale(0.015625)"/>
       </defs>
       <use xlink:href="#SimHei-31"/>
      </g>
     </g>
    </g>
    <g id="xtick_2">
     <g id="line2d_2">
      <g>
       <use xlink:href="#m80834f91b3" x="192.050895" y="326.009375" style="stroke: #000000; stroke-width: 0.8"/>
      </g>
     </g>
     <g id="text_2">
      <!-- 2 -->
      <g transform="translate(189.550895 339.884375) scale(0.1 -0.1)">
       <defs>
        <path id="SimHei-32" d="M 300 250 
Q 325 625 650 925 
Q 975 1225 1475 1862 
Q 1975 2500 2125 2850 
Q 2275 3200 2237 3450 
Q 2200 3700 2000 3862 
Q 1800 4025 1537 4000 
Q 1275 3975 1037 3800 
Q 800 3625 675 3275 
L 200 3350 
Q 400 3925 712 4187 
Q 1025 4450 1450 4475 
Q 1700 4500 1900 4462 
Q 2100 4425 2312 4287 
Q 2525 4150 2662 3875 
Q 2800 3600 2762 3212 
Q 2725 2825 2375 2287 
Q 2025 1750 1025 600 
L 2825 600 
L 2825 150 
L 300 150 
L 300 250 
z
" transform="scale(0.015625)"/>
       </defs>
       <use xlink:href="#SimHei-32"/>
      </g>
     </g>
    </g>
    <g id="xtick_3">
     <g id="line2d_3">
      <g>
       <use xlink:href="#m80834f91b3" x="282.14701" y="326.009375" style="stroke: #000000; stroke-width: 0.8"/>
      </g>
     </g>
     <g id="text_3">
      <!-- 3 -->
      <g transform="translate(279.64701 339.884375) scale(0.1 -0.1)">
       <defs>
        <path id="SimHei-33" d="M 250 1225 
L 700 1300 
Q 800 975 1025 762 
Q 1250 550 1587 562 
Q 1925 575 2125 837 
Q 2325 1100 2300 1437 
Q 2275 1775 2037 1962 
Q 1800 2150 1275 2225 
L 1275 2550 
Q 1800 2600 2037 2825 
Q 2275 3050 2250 3412 
Q 2225 3775 1925 3937 
Q 1625 4100 1287 3975 
Q 950 3850 750 3275 
L 300 3350 
Q 450 3800 712 4100 
Q 975 4400 1425 4450 
Q 1875 4500 2212 4337 
Q 2550 4175 2687 3837 
Q 2825 3500 2725 3100 
Q 2625 2700 2150 2400 
Q 2500 2250 2687 1950 
Q 2875 1650 2812 1162 
Q 2750 675 2375 375 
Q 2000 75 1525 87 
Q 1050 100 700 387 
Q 350 675 250 1225 
z
" transform="scale(0.015625)"/>
       </defs>
       <use xlink:href="#SimHei-33"/>
      </g>
     </g>
    </g>
    <g id="xtick_4">
     <g id="line2d_4">
      <g>
       <use xlink:href="#m80834f91b3" x="372.243125" y="326.009375" style="stroke: #000000; stroke-width: 0.8"/>
      </g>
     </g>
     <g id="text_4">
      <!-- 4 -->
      <g transform="translate(369.743125 339.884375) scale(0.1 -0.1)">
       <defs>
        <path id="SimHei-34" d="M 2000 1100 
L 75 1100 
L 75 1525 
L 2100 4450 
L 2475 4450 
L 2475 1525 
L 3075 1525 
L 3075 1100 
L 2475 1100 
L 2475 150 
L 2000 150 
L 2000 1100 
z
M 2000 1525 
L 2000 3500 
L 600 1525 
L 2000 1525 
z
" transform="scale(0.015625)"/>
       </defs>
       <use xlink:href="#SimHei-34"/>
      </g>
     </g>
    </g>
    <g id="xtick_5">
     <g id="line2d_5">
      <g>
       <use xlink:href="#m80834f91b3" x="462.33924" y="326.009375" style="stroke: #000000; stroke-width: 0.8"/>
      </g>
     </g>
     <g id="text_5">
      <!-- 5 -->
      <g transform="translate(459.83924 339.884375) scale(0.1 -0.1)">
       <defs>
        <path id="SimHei-35" d="M 550 1325 
Q 725 650 1150 575 
Q 1575 500 1837 662 
Q 2100 825 2212 1087 
Q 2325 1350 2312 1675 
Q 2300 2000 2137 2225 
Q 1975 2450 1725 2525 
Q 1475 2600 1162 2525 
Q 850 2450 650 2175 
L 225 2225 
Q 275 2375 700 4375 
L 2675 4375 
L 2675 3925 
L 1075 3925 
Q 950 3250 825 2850 
Q 1200 3025 1525 3012 
Q 1850 3000 2150 2862 
Q 2450 2725 2587 2487 
Q 2725 2250 2787 2012 
Q 2850 1775 2837 1500 
Q 2825 1225 2725 937 
Q 2625 650 2425 462 
Q 2225 275 1937 162 
Q 1650 50 1275 75 
Q 900 100 562 350 
Q 225 600 100 1200 
L 550 1325 
z
" transform="scale(0.015625)"/>
       </defs>
       <use xlink:href="#SimHei-35"/>
      </g>
     </g>
    </g>
    <g id="xtick_6">
     <g id="line2d_6">
      <g>
       <use xlink:href="#m80834f91b3" x="552.435355" y="326.009375" style="stroke: #000000; stroke-width: 0.8"/>
      </g>
     </g>
     <g id="text_6">
      <!-- 6 -->
      <g transform="translate(549.935355 339.884375) scale(0.1 -0.1)">
       <defs>
        <path id="SimHei-36" d="M 250 1612 
Q 275 1975 387 2225 
Q 500 2475 725 2850 
L 1750 4450 
L 2325 4450 
L 1275 2800 
Q 1950 2975 2350 2750 
Q 2750 2525 2887 2237 
Q 3025 1950 3037 1612 
Q 3050 1275 2937 950 
Q 2825 625 2537 362 
Q 2250 100 1737 75 
Q 1225 50 862 262 
Q 500 475 362 862 
Q 225 1250 250 1612 
z
M 1025 787 
Q 1250 550 1625 525 
Q 2000 500 2250 775 
Q 2500 1050 2500 1575 
Q 2500 2100 2187 2300 
Q 1875 2500 1487 2450 
Q 1100 2400 925 2075 
Q 750 1750 775 1387 
Q 800 1025 1025 787 
z
" transform="scale(0.015625)"/>
       </defs>
       <use xlink:href="#SimHei-36"/>
      </g>
     </g>
    </g>
    <g id="xtick_7">
     <g id="line2d_7">
      <g>
       <use xlink:href="#m80834f91b3" x="642.53147" y="326.009375" style="stroke: #000000; stroke-width: 0.8"/>
      </g>
     </g>
     <g id="text_7">
      <!-- 7 -->
      <g transform="translate(640.03147 339.884375) scale(0.1 -0.1)">
       <defs>
        <path id="SimHei-37" d="M 850 150 
Q 1300 2050 2425 3925 
L 275 3925 
L 275 4375 
L 2950 4375 
L 2950 3950 
Q 1775 2050 1400 150 
L 850 150 
z
" transform="scale(0.015625)"/>
       </defs>
       <use xlink:href="#SimHei-37"/>
      </g>
     </g>
    </g>
    <g id="text_8">
     <!-- 序号 -->
     <g transform="translate(360.243125 354.696875) scale(0.12 -0.12)">
      <defs>
       <path id="SimHei-5e8f" d="M 4000 2075 
L 5975 2075 
Q 5750 1525 5575 1025 
Q 5325 1100 5050 1150 
Q 5175 1450 5275 1700 
L 4050 1700 
L 4050 150 
Q 4050 -375 3762 -462 
Q 3475 -550 2950 -575 
Q 2875 -300 2750 0 
Q 3350 -75 3475 25 
Q 3600 125 3575 375 
L 3575 1700 
L 2450 1700 
Q 2050 1700 1675 1675 
L 1675 2100 
Q 2100 2075 2425 2075 
L 3675 2075 
Q 3325 2400 2875 2775 
Q 2975 2875 3250 3100 
Q 3400 2975 3725 2725 
L 4575 3275 
L 3000 3275 
Q 2400 3275 1950 3250 
L 1950 3700 
Q 2400 3675 3000 3675 
L 5400 3675 
L 5400 3250 
Q 4700 2875 4025 2450 
L 4275 2250 
L 4000 2075 
z
M 3725 5275 
Q 3825 4925 3925 4525 
L 4850 4525 
Q 5425 4525 6000 4550 
L 6000 4125 
Q 5425 4150 4850 4150 
L 1400 4150 
Q 1400 2750 1362 2137 
Q 1325 1525 1200 887 
Q 1075 250 775 -350 
Q 625 -250 250 -125 
Q 475 300 600 700 
Q 725 1100 800 1637 
Q 875 2175 875 2825 
Q 875 3500 850 4525 
L 3350 4525 
Q 3275 4825 3150 5150 
Q 3425 5200 3725 5275 
z
" transform="scale(0.015625)"/>
       <path id="SimHei-53f7" d="M 5025 4925 
Q 5000 4550 5000 4075 
Q 5000 3600 5025 3175 
L 1400 3175 
Q 1425 3525 1425 4000 
Q 1425 4500 1400 4925 
L 5025 4925 
z
M 5175 2625 
Q 5650 2625 6025 2650 
L 6025 2200 
Q 5650 2225 5175 2225 
L 2450 2225 
Q 2350 1875 2225 1450 
L 5175 1450 
Q 5100 1050 5062 775 
Q 5025 500 4950 112 
Q 4875 -275 4650 -412 
Q 4425 -550 3225 -625 
Q 3125 -350 2975 -50 
Q 3875 -75 4112 -50 
Q 4350 -25 4425 212 
Q 4500 450 4575 1025 
L 1600 1025 
Q 1825 1625 1950 2225 
L 1350 2225 
Q 825 2225 375 2200 
L 375 2650 
Q 825 2625 1350 2625 
L 5175 2625 
z
M 4525 3575 
L 4525 4525 
L 1900 4525 
L 1900 3575 
L 4525 3575 
z
" transform="scale(0.015625)"/>
      </defs>
      <use xlink:href="#SimHei-5e8f"/>
      <use xlink:href="#SimHei-53f7" transform="translate(100 0)"/>
     </g>
    </g>
   </g>
   <g id="matplotlib.axis_2">
    <g id="ytick_1">
     <g id="line2d_8">
      <defs>
       <path id="m20ecc5a65b" d="M 0 0 
L -3.5 0 
" style="stroke: #000000; stroke-width: 0.8"/>
      </defs>
      <g>
       <use xlink:href="#m20ecc5a65b" x="38.8875" y="326.009375" style="stroke: #000000; stroke-width: 0.8"/>
      </g>
     </g>
     <g id="text_9">
      <!-- 0 -->
      <g transform="translate(26.8875 329.446875) scale(0.1 -0.1)">
       <defs>
        <path id="SimHei-30" d="M 225 2537 
Q 250 3200 412 3587 
Q 575 3975 875 4225 
Q 1175 4475 1612 4475 
Q 2050 4475 2375 4112 
Q 2700 3750 2800 3200 
Q 2900 2650 2862 1937 
Q 2825 1225 2612 775 
Q 2400 325 1975 150 
Q 1550 -25 1125 187 
Q 700 400 525 750 
Q 350 1100 275 1487 
Q 200 1875 225 2537 
z
M 750 2687 
Q 675 2000 800 1462 
Q 925 925 1212 700 
Q 1500 475 1800 612 
Q 2100 750 2237 1162 
Q 2375 1575 2375 2062 
Q 2375 2550 2337 2950 
Q 2300 3350 2112 3675 
Q 1925 4000 1612 4012 
Q 1300 4025 1062 3700 
Q 825 3375 750 2687 
z
" transform="scale(0.015625)"/>
       </defs>
       <use xlink:href="#SimHei-30"/>
      </g>
     </g>
    </g>
    <g id="ytick_2">
     <g id="line2d_9">
      <g>
       <use xlink:href="#m20ecc5a65b" x="38.8875" y="281.102898" style="stroke: #000000; stroke-width: 0.8"/>
      </g>
     </g>
     <g id="text_10">
      <!-- 2 -->
      <g transform="translate(26.8875 284.540398) scale(0.1 -0.1)">
       <use xlink:href="#SimHei-32"/>
      </g>
     </g>
    </g>
    <g id="ytick_3">
     <g id="line2d_10">
      <g>
       <use xlink:href="#m20ecc5a65b" x="38.8875" y="236.19642" style="stroke: #000000; stroke-width: 0.8"/>
      </g>
     </g>
     <g id="text_11">
      <!-- 4 -->
      <g transform="translate(26.8875 239.63392) scale(0.1 -0.1)">
       <use xlink:href="#SimHei-34"/>
      </g>
     </g>
    </g>
    <g id="ytick_4">
     <g id="line2d_11">
      <g>
       <use xlink:href="#m20ecc5a65b" x="38.8875" y="191.289943" style="stroke: #000000; stroke-width: 0.8"/>
      </g>
     </g>
     <g id="text_12">
      <!-- 6 -->
      <g transform="translate(26.8875 194.727443) scale(0.1 -0.1)">
       <use xlink:href="#SimHei-36"/>
      </g>
     </g>
    </g>
    <g id="ytick_5">
     <g id="line2d_12">
      <g>
       <use xlink:href="#m20ecc5a65b" x="38.8875" y="146.383466" style="stroke: #000000; stroke-width: 0.8"/>
      </g>
     </g>
     <g id="text_13">
      <!-- 8 -->
      <g transform="translate(26.8875 149.820966) scale(0.1 -0.1)">
       <defs>
        <path id="SimHei-38" d="M 175 1375 
Q 175 1675 325 1962 
Q 475 2250 825 2425 
Q 525 2600 425 2812 
Q 325 3025 312 3300 
Q 300 3575 387 3775 
Q 475 3975 650 4150 
Q 825 4325 1037 4387 
Q 1250 4450 1500 4450 
Q 1750 4450 1950 4400 
Q 2150 4350 2375 4187 
Q 2600 4025 2700 3725 
Q 2800 3425 2687 3025 
Q 2575 2625 2100 2400 
Q 2525 2275 2700 2012 
Q 2875 1750 2875 1375 
Q 2875 1000 2762 775 
Q 2650 550 2512 400 
Q 2375 250 2137 162 
Q 1900 75 1537 75 
Q 1175 75 912 162 
Q 650 250 475 425 
Q 300 600 237 837 
Q 175 1075 175 1375 
z
M 687 1400 
Q 675 1100 787 875 
Q 900 650 1200 587 
Q 1500 525 1825 600 
Q 2150 675 2275 950 
Q 2400 1225 2362 1500 
Q 2325 1775 2050 1962 
Q 1775 2150 1450 2125 
Q 1125 2100 912 1900 
Q 700 1700 687 1400 
z
M 775 3350 
Q 775 3100 950 2875 
Q 1125 2650 1500 2650 
Q 1875 2650 2062 2875 
Q 2250 3100 2237 3412 
Q 2225 3725 2012 3875 
Q 1800 4025 1437 4000 
Q 1075 3975 925 3787 
Q 775 3600 775 3350 
z
" transform="scale(0.015625)"/>
       </defs>
       <use xlink:href="#SimHei-38"/>
      </g>
     </g>
    </g>
    <g id="ytick_6">
     <g id="line2d_13">
      <g>
       <use xlink:href="#m20ecc5a65b" x="38.8875" y="101.476989" style="stroke: #000000; stroke-width: 0.8"/>
      </g>
     </g>
     <g id="text_14">
      <!-- 10 -->
      <g transform="translate(21.8875 104.914489) scale(0.1 -0.1)">
       <use xlink:href="#SimHei-31"/>
       <use xlink:href="#SimHei-30" transform="translate(50 0)"/>
      </g>
     </g>
    </g>
    <g id="text_15">
     <!-- 值 -->
     <g transform="translate(16.3875 208.516562) rotate(-90) scale(0.12 -0.12)">
      <defs>
       <path id="SimHei-503c" d="M 3675 4450 
L 3675 5100 
Q 3975 5075 4350 5050 
Q 4225 4875 4200 4450 
L 5125 4450 
Q 5550 4450 5875 4475 
L 5875 4025 
Q 5525 4050 5125 4050 
L 4175 4050 
L 4125 3500 
L 5400 3500 
Q 5375 3200 5375 2700 
L 5375 150 
Q 5875 150 6100 175 
L 6100 -275 
Q 5775 -250 5200 -250 
L 2850 -250 
Q 2275 -250 1900 -275 
L 1900 175 
Q 2125 150 2600 150 
L 2600 2700 
Q 2600 3175 2575 3500 
L 3600 3500 
L 3650 4050 
L 3200 4050 
Q 2575 4050 2225 4025 
L 2225 4475 
Q 2550 4450 3200 4450 
L 3675 4450 
z
M 2225 4900 
Q 2025 4675 1650 3750 
L 1650 450 
Q 1650 -75 1675 -550 
L 1150 -550 
Q 1175 -125 1175 375 
L 1175 2950 
Q 875 2450 625 2150 
Q 425 2425 250 2575 
Q 500 2825 937 3537 
Q 1375 4250 1625 5150 
Q 1975 4975 2225 4900 
z
M 4925 2650 
L 4925 3150 
L 3075 3150 
L 3075 2650 
L 4925 2650 
z
M 4925 150 
L 4925 625 
L 3075 625 
L 3075 150 
L 4925 150 
z
M 4925 1000 
L 4925 1450 
L 3075 1450 
L 3075 1000 
L 4925 1000 
z
M 4925 1825 
L 4925 2275 
L 3075 2275 
L 3075 1825 
L 4925 1825 
z
" transform="scale(0.015625)"/>
      </defs>
      <use xlink:href="#SimHei-503c"/>
     </g>
    </g>
   </g>
   <g id="line2d_14">
    <path d="M 101.95478 162.100733 
L 192.050895 213.743182 
" clip-path="url(#p8bb9b9c81f)" style="fill: none; stroke-dasharray: 5.55,2.4; stroke-dashoffset: 0; stroke: #0000ff; stroke-width: 1.5"/>
   </g>
   <g id="line2d_15">
    <path d="M 101.95478 162.100733 
L 282.14701 186.799295 
" clip-path="url(#p8bb9b9c81f)" style="fill: none; stroke-dasharray: 5.55,2.4; stroke-dashoffset: 0; stroke: #0000ff; stroke-width: 1.5"/>
   </g>
   <g id="line2d_16">
    <path d="M 101.95478 162.100733 
L 372.243125 177.818 
" clip-path="url(#p8bb9b9c81f)" style="fill: none; stroke-dasharray: 5.55,2.4; stroke-dashoffset: 0; stroke: #0000ff; stroke-width: 1.5"/>
   </g>
   <g id="line2d_17">
    <path d="M 372.243125 177.818 
L 462.33924 278.857574 
" clip-path="url(#p8bb9b9c81f)" style="fill: none; stroke-dasharray: 5.55,2.4; stroke-dashoffset: 0; stroke: #0000ff; stroke-width: 1.5"/>
   </g>
   <g id="line2d_18">
    <path d="M 372.243125 177.818 
L 552.435355 213.743182 
" clip-path="url(#p8bb9b9c81f)" style="fill: none; stroke-dasharray: 5.55,2.4; stroke-dashoffset: 0; stroke: #0000ff; stroke-width: 1.5"/>
   </g>
   <g id="patch_10">
    <path d="M 38.8875 326.009375 
L 38.8875 79.02375 
" style="fill: none; stroke: #000000; stroke-width: 0.8; stroke-linejoin: miter; stroke-linecap: square"/>
   </g>
   <g id="patch_11">
    <path d="M 705.59875 326.009375 
L 705.59875 79.02375 
" style="fill: none; stroke: #000000; stroke-width: 0.8; stroke-linejoin: miter; stroke-linecap: square"/>
   </g>
   <g id="patch_12">
    <path d="M 38.8875 326.009375 
L 705.59875 326.009375 
" style="fill: none; stroke: #000000; stroke-width: 0.8; stroke-linejoin: miter; stroke-linecap: square"/>
   </g>
   <g id="patch_13">
    <path d="M 38.8875 79.02375 
L 705.59875 79.02375 
" style="fill: none; stroke: #000000; stroke-width: 0.8; stroke-linejoin: miter; stroke-linecap: square"/>
   </g>
   <g id="text_16">
    <!-- 7.3 -->
    <g transform="translate(94.45478 154.114761) scale(0.1 -0.1)">
     <defs>
      <path id="SimHei-2e" d="M 1075 125 
L 500 125 
L 500 675 
L 1075 675 
L 1075 125 
z
" transform="scale(0.015625)"/>
     </defs>
     <use xlink:href="#SimHei-37"/>
     <use xlink:href="#SimHei-2e" transform="translate(50 0)"/>
     <use xlink:href="#SimHei-33" transform="translate(100 0)"/>
    </g>
   </g>
   <g id="text_17">
    <!-- 5.0 -->
    <g transform="translate(184.550895 205.75721) scale(0.1 -0.1)">
     <use xlink:href="#SimHei-35"/>
     <use xlink:href="#SimHei-2e" transform="translate(50 0)"/>
     <use xlink:href="#SimHei-30" transform="translate(100 0)"/>
    </g>
   </g>
   <g id="text_18">
    <!-- 6.2 -->
    <g transform="translate(274.64701 178.813324) scale(0.1 -0.1)">
     <use xlink:href="#SimHei-36"/>
     <use xlink:href="#SimHei-2e" transform="translate(50 0)"/>
     <use xlink:href="#SimHei-32" transform="translate(100 0)"/>
    </g>
   </g>
   <g id="text_19">
    <!-- 6.6 -->
    <g transform="translate(364.743125 169.832028) scale(0.1 -0.1)">
     <use xlink:href="#SimHei-36"/>
     <use xlink:href="#SimHei-2e" transform="translate(50 0)"/>
     <use xlink:href="#SimHei-36" transform="translate(100 0)"/>
    </g>
   </g>
   <g id="text_20">
    <!-- 2.1 -->
    <g transform="translate(454.83924 270.871602) scale(0.1 -0.1)">
     <use xlink:href="#SimHei-32"/>
     <use xlink:href="#SimHei-2e" transform="translate(50 0)"/>
     <use xlink:href="#SimHei-31" transform="translate(100 0)"/>
    </g>
   </g>
   <g id="text_21">
    <!-- 5.0 -->
    <g transform="translate(544.935355 205.75721) scale(0.1 -0.1)">
     <use xlink:href="#SimHei-35"/>
     <use xlink:href="#SimHei-2e" transform="translate(50 0)"/>
     <use xlink:href="#SimHei-30" transform="translate(100 0)"/>
    </g>
   </g>
   <g id="text_22">
    <!-- 9.1 -->
    <g transform="translate(635.03147 113.698932) scale(0.1 -0.1)">
     <defs>
      <path id="SimHei-39" d="M 800 75 
Q 1350 1000 1700 1750 
Q 1075 1650 662 1912 
Q 250 2175 162 2625 
Q 75 3075 175 3437 
Q 275 3800 487 4037 
Q 700 4275 1000 4375 
Q 1300 4475 1537 4475 
Q 1775 4475 2025 4375 
Q 2275 4275 2475 4075 
Q 2675 3875 2750 3662 
Q 2825 3450 2825 3112 
Q 2825 2775 2575 2250 
Q 2325 1725 1350 75 
L 800 75 
z
M 662 2875 
Q 700 2550 937 2337 
Q 1175 2125 1450 2150 
Q 1725 2175 1887 2300 
Q 2050 2425 2200 2725 
Q 2300 3100 2250 3362 
Q 2200 3625 1987 3800 
Q 1775 3975 1525 3975 
Q 1375 4000 1137 3900 
Q 900 3800 762 3500 
Q 625 3200 662 2875 
z
" transform="scale(0.015625)"/>
     </defs>
     <use xlink:href="#SimHei-39"/>
     <use xlink:href="#SimHei-2e" transform="translate(50 0)"/>
     <use xlink:href="#SimHei-31" transform="translate(100 0)"/>
    </g>
   </g>
   <g id="text_23">
    <!-- (a) 直方条 -->
    <g transform="translate(342.243125 73.02375) scale(0.12 -0.12)">
     <defs>
      <path id="SimHei-28" d="M 2975 -200 
L 2700 -475 
Q 2075 125 1762 775 
Q 1450 1425 1450 2250 
Q 1450 3075 1762 3725 
Q 2075 4375 2700 5000 
L 2975 4725 
Q 2400 4175 2112 3587 
Q 1825 3000 1825 2250 
Q 1825 1500 2112 912 
Q 2400 325 2975 -200 
z
" transform="scale(0.015625)"/>
      <path id="SimHei-61" d="M 2875 125 
L 2275 125 
Q 2225 175 2200 262 
Q 2175 350 2175 475 
Q 2000 275 1750 175 
Q 1500 75 1225 75 
Q 825 75 550 275 
Q 275 475 275 850 
Q 275 1225 525 1450 
Q 775 1675 1300 1750 
Q 1650 1800 1912 1875 
Q 2175 1950 2175 2075 
Q 2175 2225 2062 2375 
Q 1950 2525 1575 2525 
Q 1275 2525 1137 2412 
Q 1000 2300 950 2100 
L 400 2100 
Q 450 2500 762 2737 
Q 1075 2975 1575 2975 
Q 2125 2975 2400 2725 
Q 2675 2475 2675 2025 
L 2675 650 
Q 2675 500 2725 375 
Q 2775 250 2875 125 
z
M 2175 1050 
L 2175 1550 
Q 2025 1500 1887 1462 
Q 1750 1425 1425 1375 
Q 1050 1325 937 1200 
Q 825 1075 825 900 
Q 825 750 937 637 
Q 1050 525 1275 525 
Q 1500 525 1762 650 
Q 2025 775 2175 1050 
z
" transform="scale(0.015625)"/>
      <path id="SimHei-29" d="M 1675 2250 
Q 1675 1425 1362 775 
Q 1050 125 425 -475 
L 150 -200 
Q 725 325 1012 912 
Q 1300 1500 1300 2250 
Q 1300 3000 1012 3587 
Q 725 4175 150 4725 
L 425 5000 
Q 1050 4375 1362 3725 
Q 1675 3075 1675 2250 
z
" transform="scale(0.015625)"/>
      <path id="SimHei-20" transform="scale(0.015625)"/>
      <path id="SimHei-76f4" d="M 3550 5025 
Q 3475 4875 3400 4525 
L 4825 4525 
Q 5225 4525 5775 4550 
L 5775 4100 
Q 5250 4125 4825 4125 
L 3350 4125 
Q 3300 3775 3275 3525 
L 5100 3525 
Q 5075 3075 5075 2525 
L 5075 100 
L 5300 100 
Q 5650 100 6100 125 
L 6100 -350 
Q 5675 -325 5300 -325 
L 1225 -325 
Q 800 -325 325 -350 
L 325 125 
Q 825 100 1225 100 
L 1375 100 
L 1375 2525 
Q 1375 3175 1350 3525 
L 2775 3525 
Q 2825 3825 2850 4125 
L 1550 4125 
Q 1075 4125 600 4100 
L 600 4550 
Q 1075 4525 1525 4525 
L 2875 4525 
Q 2900 4800 2875 5075 
Q 3275 5025 3550 5025 
z
M 4600 975 
L 4600 1450 
L 1850 1450 
L 1850 975 
L 4600 975 
z
M 4600 100 
L 4600 575 
L 1850 575 
L 1850 100 
L 4600 100 
z
M 4600 2650 
L 4600 3125 
L 1850 3125 
L 1850 2650 
L 4600 2650 
z
M 4600 1825 
L 4600 2275 
L 1850 2275 
L 1850 1825 
L 4600 1825 
z
" transform="scale(0.015625)"/>
      <path id="SimHei-65b9" d="M 425 3975 
Q 825 3950 1300 3950 
L 5025 3950 
Q 5625 3950 6000 3975 
L 6000 3475 
Q 5675 3500 5100 3500 
L 2525 3500 
Q 2525 3225 2500 2500 
L 5300 2500 
Q 5250 2175 5200 1550 
L 5050 175 
Q 5000 -275 4625 -412 
Q 4250 -550 3525 -625 
Q 3500 -300 3325 -50 
Q 3900 -75 4200 0 
Q 4500 75 4575 425 
L 4725 2050 
L 2475 2050 
Q 2375 1350 2162 875 
Q 1950 400 1575 0 
Q 1200 -400 825 -700 
Q 725 -550 375 -350 
Q 700 -175 1062 200 
Q 1425 575 1662 1050 
Q 1900 1525 1962 2100 
Q 2025 2675 2025 3500 
L 1325 3500 
Q 775 3500 425 3475 
L 425 3975 
z
M 3075 4075 
Q 2850 4575 2575 5000 
Q 2800 5125 3025 5275 
Q 3300 4850 3575 4350 
Q 3325 4250 3075 4075 
z
" transform="scale(0.015625)"/>
      <path id="SimHei-6761" d="M 2700 5075 
Q 2600 5000 2400 4700 
L 5225 4700 
Q 4975 4300 4625 3875 
Q 4275 3450 3750 3050 
Q 4100 2850 4750 2687 
Q 5400 2525 6200 2525 
Q 5950 2275 5925 2000 
Q 5000 2100 4387 2300 
Q 3775 2500 3275 2825 
Q 2500 2375 1837 2175 
Q 1175 1975 575 1850 
Q 500 2125 275 2300 
Q 1250 2400 1912 2625 
Q 2575 2850 2825 3075 
Q 2400 3425 1925 3975 
Q 1600 3550 1150 3075 
Q 925 3300 725 3350 
Q 1225 3775 1625 4350 
Q 2025 4925 2125 5300 
Q 2525 5125 2700 5075 
z
M 2950 1775 
Q 2950 2000 2925 2400 
L 3475 2400 
Q 3450 1975 3450 1775 
L 4500 1775 
Q 5025 1775 5550 1800 
L 5550 1325 
Q 5025 1350 4525 1350 
L 3450 1350 
L 3450 -50 
Q 3475 -575 2450 -625 
Q 2375 -375 2225 -75 
Q 2975 -150 2950 200 
L 2950 1350 
L 1850 1350 
Q 1350 1350 825 1325 
L 825 1800 
Q 1350 1775 1850 1775 
L 2950 1775 
z
M 3300 3300 
Q 4025 3775 4325 4275 
L 2250 4275 
Q 2700 3675 3300 3300 
z
M 4200 1000 
Q 4950 575 5800 0 
Q 5650 -175 5500 -400 
Q 5150 -150 4787 100 
Q 4425 350 3925 600 
Q 4075 775 4200 1000 
z
M 2375 700 
Q 2275 600 1800 250 
Q 1325 -100 850 -400 
Q 700 -200 500 -50 
Q 825 100 1287 437 
Q 1750 775 1950 1050 
L 2375 700 
z
" transform="scale(0.015625)"/>
     </defs>
     <use xlink:href="#SimHei-28"/>
     <use xlink:href="#SimHei-61" transform="translate(50 0)"/>
     <use xlink:href="#SimHei-29" transform="translate(100 0)"/>
     <use xlink:href="#SimHei-20" transform="translate(150 0)"/>
     <use xlink:href="#SimHei-76f4" transform="translate(200 0)"/>
     <use xlink:href="#SimHei-65b9" transform="translate(300 0)"/>
     <use xlink:href="#SimHei-6761" transform="translate(400 0)"/>
    </g>
   </g>
   <g id="patch_14">
    <path d="M 642.53147 121.684903 
L 627.213854 124.588254 
L 625.285129 122.986035 
L 101.967725 162.111486 
L 101.941836 162.08998 
L 625.25924 122.964528 
L 623.330515 121.362309 
z
" clip-path="url(#p8bb9b9c81f)" style="fill: #ff0000; stroke: #ff0000; stroke-width: 1.5; stroke-linejoin: miter"/>
   </g>
   <g id="patch_15">
    <path d="M 282.14701 186.799295 
L 275.802416 191.327173 
L 270.645992 190.256294 
L 192.085502 213.750369 
L 192.016288 213.735995 
L 270.576778 190.241919 
L 265.420353 189.171041 
z
" clip-path="url(#p8bb9b9c81f)" style="fill: #ff0000; stroke: #ff0000; stroke-width: 1.5; stroke-linejoin: miter"/>
   </g>
   <g id="patch_16">
    <path d="M 372.243125 177.818 
L 358.022261 181.049333 
L 355.529427 179.496208 
L 282.163741 186.809719 
L 282.13028 186.788872 
L 355.495966 179.475361 
L 353.003132 177.922237 
z
" clip-path="url(#p8bb9b9c81f)" style="fill: #ff0000; stroke: #ff0000; stroke-width: 1.5; stroke-linejoin: miter"/>
   </g>
   <g id="patch_17">
    <path d="M 642.53147 121.684903 
L 631.909181 125.684146 
L 627.96936 124.329857 
L 282.173452 186.808385 
L 282.120568 186.790206 
L 627.916477 124.311679 
L 623.976656 122.95739 
z
" clip-path="url(#p8bb9b9c81f)" style="fill: #ff0000; stroke: #ff0000; stroke-width: 1.5; stroke-linejoin: miter"/>
   </g>
   <g id="patch_18">
    <path d="M 642.53147 121.684903 
L 633.014579 125.853425 
L 628.717558 124.568371 
L 372.271964 177.826625 
L 372.214286 177.809375 
L 628.65988 124.551122 
L 624.36286 123.266067 
z
" clip-path="url(#p8bb9b9c81f)" style="fill: #ff0000; stroke: #ff0000; stroke-width: 1.5; stroke-linejoin: miter"/>
   </g>
   <g id="patch_19">
    <path d="M 552.435355 213.743182 
L 552.949338 218.537485 
L 546.603843 217.992179 
L 462.381827 278.861234 
L 462.296653 278.853914 
L 546.518669 217.984859 
L 540.173173 217.439553 
z
" clip-path="url(#p8bb9b9c81f)" style="fill: #ff0000; stroke: #ff0000; stroke-width: 1.5; stroke-linejoin: miter"/>
   </g>
   <g id="patch_20">
    <path d="M 642.53147 121.684903 
L 644.078426 126.465397 
L 637.624523 126.005853 
L 462.382555 278.860658 
L 462.295925 278.85449 
L 637.537894 125.999685 
L 631.08399 125.54014 
z
" clip-path="url(#p8bb9b9c81f)" style="fill: #ff0000; stroke: #ff0000; stroke-width: 1.5; stroke-linejoin: miter"/>
   </g>
   <g id="patch_21">
    <path d="M 642.53147 121.684903 
L 644.826469 126.446692 
L 638.305468 126.050319 
L 552.47912 213.745842 
L 552.39159 213.740522 
L 638.217938 126.044999 
L 631.696938 125.648626 
z
" clip-path="url(#p8bb9b9c81f)" style="fill: #ff0000; stroke: #ff0000; stroke-width: 1.5; stroke-linejoin: miter"/>
   </g>
  </g>
  <g id="axes_2">
   <g id="patch_22">
    <path d="M 225.618776 533.892743 
Q 372.245018 649.953356 517.556308 534.930611 
" clip-path="url(#p97392eaf91)" style="fill: none; stroke: #ff0000; stroke-width: 1.5; stroke-linecap: round"/>
    <path d="M 510.989835 536.302264 
L 517.556308 534.930611 
L 514.713747 541.006781 
" clip-path="url(#p97392eaf91)" style="fill: none; stroke: #ff0000; stroke-width: 1.5; stroke-linecap: round"/>
   </g>
   <g id="patch_23">
    <path d="M 225.618776 531.398757 
Q 372.245018 415.338144 518.87126 531.401755 
" clip-path="url(#p97392eaf91)" style="fill: none; stroke: #0000ff; stroke-width: 1.5; stroke-linecap: round"/>
   </g>
   <g id="patch_24">
    <path d="M 275.03173 533.871458 
Q 298.149451 551.1804 319.924797 534.873694 
" clip-path="url(#p97392eaf91)" style="fill: none; stroke: #ff0000; stroke-width: 1.5; stroke-linecap: round"/>
    <path d="M 313.323924 536.06888 
L 319.924797 534.873694 
L 316.920422 540.871504 
" clip-path="url(#p97392eaf91)" style="fill: none; stroke: #ff0000; stroke-width: 1.5; stroke-linecap: round"/>
   </g>
   <g id="patch_25">
    <path d="M 275.03173 531.420042 
Q 298.149451 514.1111 321.267172 531.423057 
" clip-path="url(#p97392eaf91)" style="fill: none; stroke: #0000ff; stroke-width: 1.5; stroke-linecap: round"/>
   </g>
   <g id="patch_26">
    <path d="M 324.428855 533.871458 
Q 347.546576 551.1804 369.321922 534.873694 
" clip-path="url(#p97392eaf91)" style="fill: none; stroke: #ff0000; stroke-width: 1.5; stroke-linecap: round"/>
    <path d="M 362.721049 536.06888 
L 369.321922 534.873694 
L 366.317547 540.871504 
" clip-path="url(#p97392eaf91)" style="fill: none; stroke: #ff0000; stroke-width: 1.5; stroke-linecap: round"/>
   </g>
   <g id="patch_27">
    <path d="M 324.428855 531.420042 
Q 347.546576 514.1111 370.664297 531.423057 
" clip-path="url(#p97392eaf91)" style="fill: none; stroke: #0000ff; stroke-width: 1.5; stroke-linecap: round"/>
   </g>
   <g id="patch_28">
    <path d="M 324.410765 533.887648 
Q 421.640464 610.43942 517.552503 534.924748 
" clip-path="url(#p97392eaf91)" style="fill: none; stroke: #ff0000; stroke-width: 1.5; stroke-linecap: round"/>
    <path d="M 510.98248 536.279292 
L 517.552503 534.924748 
L 514.694124 540.993493 
" clip-path="url(#p97392eaf91)" style="fill: none; stroke: #ff0000; stroke-width: 1.5; stroke-linecap: round"/>
   </g>
   <g id="patch_29">
    <path d="M 324.410765 531.403852 
Q 421.640464 454.85208 518.870163 531.404188 
" clip-path="url(#p97392eaf91)" style="fill: none; stroke: #0000ff; stroke-width: 1.5; stroke-linecap: round"/>
   </g>
   <g id="patch_30">
    <path d="M 373.810151 533.886115 
Q 446.338148 590.681415 517.545753 534.92111 
" clip-path="url(#p97392eaf91)" style="fill: none; stroke: #ff0000; stroke-width: 1.5; stroke-linecap: round"/>
    <path d="M 510.972178 536.258312 
L 517.545753 534.92111 
L 514.671369 540.982291 
" clip-path="url(#p97392eaf91)" style="fill: none; stroke: #ff0000; stroke-width: 1.5; stroke-linecap: round"/>
   </g>
   <g id="patch_31">
    <path d="M 373.810151 531.405385 
Q 446.338148 474.610085 518.866146 531.404345 
" clip-path="url(#p97392eaf91)" style="fill: none; stroke: #0000ff; stroke-width: 1.5; stroke-linecap: round"/>
   </g>
   <g id="patch_32">
    <path d="M 423.223105 533.871458 
Q 446.340826 551.1804 468.116172 534.873694 
" clip-path="url(#p97392eaf91)" style="fill: none; stroke: #ff0000; stroke-width: 1.5; stroke-linecap: round"/>
    <path d="M 461.515299 536.06888 
L 468.116172 534.873694 
L 465.111797 540.871504 
" clip-path="url(#p97392eaf91)" style="fill: none; stroke: #ff0000; stroke-width: 1.5; stroke-linecap: round"/>
   </g>
   <g id="patch_33">
    <path d="M 423.223105 531.420042 
Q 446.340826 514.1111 469.458547 531.423057 
" clip-path="url(#p97392eaf91)" style="fill: none; stroke: #0000ff; stroke-width: 1.5; stroke-linecap: round"/>
   </g>
   <g id="patch_34">
    <path d="M 423.211045 533.882406 
Q 471.037994 570.927274 517.539109 534.908413 
" clip-path="url(#p97392eaf91)" style="fill: none; stroke: #ff0000; stroke-width: 1.5; stroke-linecap: round"/>
    <path d="M 510.958562 536.210873 
L 517.539109 534.908413 
L 514.632749 540.954326 
" clip-path="url(#p97392eaf91)" style="fill: none; stroke: #ff0000; stroke-width: 1.5; stroke-linecap: round"/>
   </g>
   <g id="patch_35">
    <path d="M 423.211045 531.409094 
Q 471.037994 494.364226 518.864944 531.410054 
" clip-path="url(#p97392eaf91)" style="fill: none; stroke: #0000ff; stroke-width: 1.5; stroke-linecap: round"/>
   </g>
   <g id="patch_36">
    <path d="M 472.62023 533.871458 
Q 495.737951 551.1804 517.513297 534.873694 
" clip-path="url(#p97392eaf91)" style="fill: none; stroke: #ff0000; stroke-width: 1.5; stroke-linecap: round"/>
    <path d="M 510.912424 536.06888 
L 517.513297 534.873694 
L 514.508922 540.871504 
" clip-path="url(#p97392eaf91)" style="fill: none; stroke: #ff0000; stroke-width: 1.5; stroke-linecap: round"/>
   </g>
   <g id="patch_37">
    <path d="M 472.62023 531.420042 
Q 495.737951 514.1111 518.855672 531.423057 
" clip-path="url(#p97392eaf91)" style="fill: none; stroke: #0000ff; stroke-width: 1.5; stroke-linecap: round"/>
   </g>
   <g id="line2d_19">
    <defs>
     <path id="m64a65f461c" d="M 0 3 
C 0.795609 3 1.55874 2.683901 2.12132 2.12132 
C 2.683901 1.55874 3 0.795609 3 0 
C 3 -0.795609 2.683901 -1.55874 2.12132 -2.12132 
C 1.55874 -2.683901 0.795609 -3 0 -3 
C -0.795609 -3 -1.55874 -2.683901 -2.12132 -2.12132 
C -2.683901 -1.55874 -3 -0.795609 -3 0 
C -3 0.795609 -2.683901 1.55874 -2.12132 2.12132 
C -1.55874 2.683901 -0.795609 3 0 3 
z
" style="stroke: #000000"/>
    </defs>
    <g clip-path="url(#p97392eaf91)">
     <use xlink:href="#m64a65f461c" x="224.05175" y="532.64575" style="stroke: #000000"/>
     <use xlink:href="#m64a65f461c" x="273.448875" y="532.64575" style="stroke: #000000"/>
     <use xlink:href="#m64a65f461c" x="322.846" y="532.64575" style="stroke: #000000"/>
     <use xlink:href="#m64a65f461c" x="372.243125" y="532.64575" style="stroke: #000000"/>
     <use xlink:href="#m64a65f461c" x="421.64025" y="532.64575" style="stroke: #000000"/>
     <use xlink:href="#m64a65f461c" x="471.037375" y="532.64575" style="stroke: #000000"/>
     <use xlink:href="#m64a65f461c" x="520.4345" y="532.64575" style="stroke: #000000"/>
    </g>
   </g>
   <g id="text_24">
    <!-- (b) 网络连边 -->
    <g transform="translate(336.243125 378.454375) scale(0.12 -0.12)">
     <defs>
      <path id="SimHei-62" d="M 2825 1525 
Q 2825 800 2475 437 
Q 2125 75 1625 75 
Q 1350 75 1150 175 
Q 950 275 800 500 
L 800 125 
L 300 125 
L 300 4400 
L 800 4400 
L 800 2550 
Q 950 2775 1150 2887 
Q 1350 3000 1625 3000 
Q 2125 3000 2475 2625 
Q 2825 2250 2825 1525 
z
M 2275 1525 
Q 2275 2000 2087 2275 
Q 1900 2550 1525 2550 
Q 1225 2550 1012 2275 
Q 800 2000 800 1525 
Q 800 1050 1012 787 
Q 1225 525 1525 525 
Q 1900 525 2087 787 
Q 2275 1050 2275 1525 
z
" transform="scale(0.015625)"/>
      <path id="SimHei-7f51" d="M 5875 4900 
Q 5825 4575 5825 3975 
L 5825 0 
Q 5825 -400 5537 -462 
Q 5250 -525 4775 -600 
Q 4725 -350 4525 -50 
Q 5025 -75 5175 -25 
Q 5325 25 5325 250 
L 5325 4475 
L 1100 4475 
L 1100 -600 
L 550 -600 
Q 600 -100 600 250 
L 600 3975 
Q 600 4375 550 4900 
L 5875 4900 
z
M 3675 3525 
Q 4050 2800 4175 2600 
Q 4475 3625 4550 4050 
Q 4825 3900 5100 3775 
Q 4975 3600 4825 3150 
Q 4675 2700 4450 2100 
Q 4725 1575 5125 875 
Q 4850 800 4625 675 
L 4175 1575 
Q 4000 1225 3825 962 
Q 3650 700 3350 300 
Q 3175 500 2850 575 
Q 3075 800 3337 1125 
Q 3600 1450 3925 2075 
Q 3575 2800 3200 3300 
Q 3400 3375 3675 3525 
z
M 1725 3800 
Q 1875 3525 2037 3237 
Q 2200 2950 2375 2675 
Q 2675 3675 2725 4050 
Q 3000 3950 3325 3850 
Q 3175 3675 3050 3312 
Q 2925 2950 2650 2200 
Q 2875 1850 3200 1300 
Q 2950 1150 2775 975 
Q 2525 1500 2400 1700 
Q 1950 775 1600 325 
Q 1400 500 1175 575 
Q 1575 1000 2150 2175 
Q 1550 3250 1250 3600 
Q 1475 3700 1725 3800 
z
" transform="scale(0.015625)"/>
      <path id="SimHei-7edc" d="M 2400 3100 
Q 2675 3400 2850 3700 
Q 3025 4000 3187 4362 
Q 3350 4725 3450 5200 
Q 3725 5075 4050 5025 
Q 3900 4800 3725 4450 
L 5750 4450 
Q 5375 3700 5125 3325 
Q 4875 2950 4600 2650 
Q 4925 2425 5375 2275 
Q 5825 2125 6200 2050 
Q 6075 1850 5950 1525 
Q 5700 1600 5500 1675 
Q 5450 1325 5450 1025 
L 5450 125 
Q 5450 -250 5475 -650 
L 5000 -650 
L 5000 -175 
L 3500 -175 
L 3500 -700 
L 3025 -700 
Q 3050 -325 3050 0 
L 3050 1000 
Q 3050 1200 3025 1675 
Q 2875 1600 2600 1500 
Q 2500 1775 2325 1975 
Q 2700 2075 3162 2262 
Q 3625 2450 3900 2675 
Q 3575 3100 3350 3625 
Q 3075 3200 2800 2825 
Q 2650 2975 2400 3100 
z
M 1825 4725 
Q 1650 4500 1425 4037 
Q 1200 3575 900 3050 
L 1600 3050 
Q 1875 3575 2000 3975 
Q 2250 3775 2500 3650 
Q 2350 3475 2050 2937 
Q 1750 2400 1225 1525 
Q 1975 1650 2300 1700 
Q 2275 1375 2300 1225 
Q 1700 1150 1375 1087 
Q 1050 1025 625 925 
Q 550 1200 450 1400 
Q 700 1500 937 1850 
Q 1175 2200 1425 2700 
Q 750 2675 400 2525 
Q 325 2750 225 3025 
Q 525 3175 825 3787 
Q 1125 4400 1275 5000 
Q 1550 4825 1825 4725 
z
M 5000 225 
L 5000 1300 
L 3500 1300 
L 3500 225 
L 5000 225 
z
M 2375 700 
Q 2425 450 2425 250 
Q 2150 200 1637 25 
Q 1125 -150 650 -350 
Q 550 -50 425 200 
Q 1050 325 1462 425 
Q 1875 525 2375 700 
z
M 4275 2975 
Q 4425 3125 4637 3425 
Q 4850 3725 5000 4050 
L 3650 4050 
Q 3900 3425 4275 2975 
z
M 5475 1700 
Q 5125 1850 4812 2000 
Q 4500 2150 4225 2350 
Q 3925 2150 3662 2000 
Q 3400 1850 3075 1700 
L 5475 1700 
z
" transform="scale(0.015625)"/>
      <path id="SimHei-8fde" d="M 3175 4350 
Q 3425 4925 3475 5200 
Q 3875 5025 4050 4975 
Q 3925 4875 3675 4350 
L 5025 4350 
Q 5550 4350 5850 4375 
L 5850 3925 
Q 5525 3950 5100 3950 
L 3475 3950 
Q 3350 3700 2875 2925 
L 3875 2925 
Q 3875 3400 3850 3725 
L 4350 3725 
Q 4325 3450 4325 2925 
Q 5575 2925 5650 2950 
L 5650 2475 
Q 5500 2525 4325 2525 
L 4325 1700 
L 5250 1700 
Q 5800 1700 5950 1725 
L 5950 1275 
Q 5650 1300 5250 1300 
L 4325 1300 
Q 4325 600 4350 75 
L 3850 75 
Q 3875 600 3875 1300 
Q 2150 1300 1975 1275 
L 1975 1725 
Q 2650 1700 3875 1700 
L 3875 2525 
L 3075 2525 
Q 2525 2500 2375 2450 
L 2200 2900 
Q 2400 3025 2587 3275 
Q 2775 3525 2975 3950 
Q 2325 3950 1975 3925 
L 1975 4375 
Q 2300 4350 3175 4350 
z
M 1625 2925 
Q 1600 2425 1600 2100 
L 1600 550 
Q 2325 -75 3825 -75 
Q 5350 -75 6175 0 
Q 6025 -250 5975 -550 
Q 4975 -550 4175 -537 
Q 3375 -525 2750 -412 
Q 2125 -300 1762 -50 
Q 1400 200 1175 -12 
Q 950 -225 675 -550 
Q 525 -350 275 -175 
Q 850 300 1100 475 
L 1100 2525 
Q 775 2525 400 2500 
L 400 2950 
Q 800 2925 1125 2925 
L 1625 2925 
z
M 975 4950 
Q 1450 4275 1775 3750 
Q 1550 3675 1300 3500 
Q 1175 3875 550 4650 
Q 775 4850 975 4950 
z
" transform="scale(0.015625)"/>
      <path id="SimHei-8fb9" d="M 3450 3950 
Q 3450 4750 3425 5250 
Q 3800 5175 4050 5175 
Q 3975 4825 3950 3950 
L 5725 3950 
Q 5650 3525 5625 3100 
L 5500 1150 
Q 5475 725 5062 612 
Q 4650 500 4300 400 
Q 4275 725 4050 1050 
Q 4650 1075 4837 1137 
Q 5025 1200 5050 1450 
L 5175 3500 
L 3925 3500 
Q 3825 2500 3525 1837 
Q 3225 1175 2625 500 
Q 2400 725 2075 900 
Q 2625 1275 2987 1937 
Q 3350 2600 3425 3500 
Q 2825 3500 2275 3450 
L 2275 3975 
Q 2725 3950 3450 3950 
z
M 1625 2900 
Q 1600 2475 1600 2125 
L 1600 675 
Q 2225 50 3775 0 
Q 5325 -50 6200 50 
Q 5950 -150 5925 -550 
Q 5125 -550 4350 -525 
Q 3575 -500 2925 -387 
Q 2275 -275 1850 75 
Q 1425 425 1187 175 
Q 950 -75 725 -550 
Q 500 -325 225 -150 
Q 875 350 1100 625 
L 1100 2450 
Q 650 2450 225 2425 
L 225 2925 
Q 725 2900 1150 2900 
L 1625 2900 
z
M 1150 5075 
Q 1600 4200 1700 3900 
Q 1450 3825 1175 3675 
Q 1150 3925 650 4875 
Q 925 4975 1150 5075 
z
" transform="scale(0.015625)"/>
     </defs>
     <use xlink:href="#SimHei-28"/>
     <use xlink:href="#SimHei-62" transform="translate(50 0)"/>
     <use xlink:href="#SimHei-29" transform="translate(100 0)"/>
     <use xlink:href="#SimHei-20" transform="translate(150 0)"/>
     <use xlink:href="#SimHei-7f51" transform="translate(200 0)"/>
     <use xlink:href="#SimHei-7edc" transform="translate(300 0)"/>
     <use xlink:href="#SimHei-8fde" transform="translate(400 0)"/>
     <use xlink:href="#SimHei-8fb9" transform="translate(500 0)"/>
    </g>
   </g>
  </g>
  <g id="text_25">
   <!-- 参数自然可视图 (PNVG, α=90°) -->
   <g transform="translate(236.39875 19.95) scale(0.16 -0.16)">
    <defs>
     <path id="SimHei-53c2" d="M 3325 4850 
Q 3100 4725 2850 4500 
Q 2600 4275 2175 3925 
Q 2850 3950 3275 3950 
Q 3700 3950 4200 3975 
Q 3950 4200 3600 4450 
Q 3800 4625 3925 4775 
Q 4900 4100 5325 3675 
Q 5100 3475 4925 3300 
Q 4750 3475 4550 3625 
Q 3625 3600 3200 3575 
Q 3025 3250 2925 3125 
L 5075 3125 
Q 5575 3125 5950 3150 
L 5950 2700 
Q 5600 2725 5075 2725 
L 4325 2725 
Q 4675 2350 5187 2075 
Q 5700 1800 6150 1700 
Q 5850 1550 5675 1225 
Q 5100 1525 4612 1900 
Q 4125 2275 3800 2725 
L 2725 2725 
Q 2325 2300 1812 1962 
Q 1300 1625 650 1325 
Q 525 1525 250 1700 
Q 725 1825 1237 2100 
Q 1750 2375 2100 2725 
L 1475 2725 
Q 950 2725 375 2700 
L 375 3150 
Q 875 3125 1475 3125 
L 2400 3125 
L 2550 3350 
L 2650 3550 
Q 1925 3500 1775 3475 
Q 1625 3450 1500 3425 
Q 1375 3725 1300 3875 
Q 1600 3950 2050 4337 
Q 2500 4725 2825 5225 
Q 3025 5050 3325 4850 
z
M 5350 800 
Q 5025 650 4612 437 
Q 4200 225 3850 75 
Q 3500 -75 3062 -212 
Q 2625 -350 2150 -450 
Q 1675 -550 1225 -600 
Q 1150 -350 900 -150 
Q 1675 -125 2362 25 
Q 3050 175 3512 387 
Q 3975 600 4312 800 
Q 4650 1000 4900 1250 
Q 5100 1025 5350 800 
z
M 4550 1450 
Q 4350 1375 4037 1200 
Q 3725 1025 3350 862 
Q 2975 700 2512 550 
Q 2050 400 1575 325 
Q 1450 575 1250 775 
Q 1775 800 2175 900 
Q 2575 1000 3075 1212 
Q 3575 1425 4125 1850 
Q 4300 1675 4550 1450 
z
M 3900 2075 
Q 3575 1950 3350 1825 
Q 3125 1700 2687 1525 
Q 2250 1350 1750 1200 
Q 1625 1425 1450 1600 
Q 2025 1700 2587 1937 
Q 3150 2175 3500 2500 
Q 3700 2275 3900 2075 
z
" transform="scale(0.015625)"/>
     <path id="SimHei-6570" d="M 4525 4925 
Q 4475 4800 4400 4587 
Q 4325 4375 4175 3825 
L 5325 3825 
Q 5575 3825 5925 3850 
L 5925 3400 
Q 5650 3425 5500 3425 
Q 5500 3025 5362 2162 
Q 5225 1300 4875 675 
Q 5125 375 5437 137 
Q 5750 -100 6025 -200 
Q 5725 -425 5625 -625 
Q 5325 -450 5075 -225 
Q 4825 0 4575 325 
Q 4300 25 3987 -187 
Q 3675 -400 3200 -650 
Q 3075 -425 2850 -300 
Q 3225 -150 3650 125 
Q 4075 400 4300 675 
Q 4125 1025 3962 1425 
Q 3800 1825 3675 2475 
Q 3600 2275 3425 1950 
Q 3250 2050 3000 2150 
Q 3400 2850 3650 3675 
Q 3900 4500 3975 5100 
Q 4275 4975 4525 4925 
z
M 2100 2250 
Q 2000 2150 1875 1925 
L 3250 1925 
Q 3100 1300 2725 675 
Q 3125 525 3350 400 
Q 3225 225 3125 25 
Q 2900 175 2450 325 
Q 1950 -225 725 -650 
Q 600 -375 400 -275 
Q 1575 0 2000 475 
Q 1300 650 850 775 
Q 1000 1000 1250 1525 
Q 1000 1525 425 1500 
L 425 1950 
Q 900 1925 1400 1925 
Q 1500 2150 1550 2425 
Q 1825 2325 2100 2250 
z
M 1775 3950 
Q 1775 4550 1750 5100 
L 2250 5100 
Q 2225 4575 2225 3950 
Q 3075 3950 3425 3975 
L 3425 3525 
Q 3075 3550 2225 3550 
Q 2225 2825 2250 2425 
L 1750 2425 
Q 1775 2775 1775 3300 
Q 1650 3100 1300 2787 
Q 950 2475 650 2300 
Q 525 2525 275 2625 
Q 500 2700 875 2975 
Q 1250 3250 1450 3550 
Q 950 3550 500 3525 
L 500 3975 
Q 925 3950 1775 3950 
z
M 3975 3175 
Q 4200 1700 4600 1125 
Q 4850 1700 4937 2287 
Q 5025 2875 5050 3425 
L 4075 3425 
L 3975 3175 
z
M 1450 1000 
Q 1750 925 2275 800 
Q 2475 1050 2650 1525 
L 1725 1525 
Q 1600 1275 1450 1000 
z
M 3325 4825 
Q 3200 4625 3125 4450 
Q 3050 4275 2925 4025 
Q 2725 4125 2525 4175 
Q 2725 4500 2900 5000 
Q 3150 4875 3325 4825 
z
M 2575 3375 
Q 2900 3050 3200 2725 
Q 3050 2600 2875 2425 
Q 2525 2850 2300 3100 
Q 2450 3225 2575 3375 
z
M 925 5000 
Q 1275 4650 1500 4300 
L 1125 4075 
Q 950 4425 600 4725 
Q 825 4875 925 5000 
z
" transform="scale(0.015625)"/>
     <path id="SimHei-81ea" d="M 3200 5075 
Q 3050 4850 2900 4225 
L 5400 4225 
Q 5375 3650 5375 3175 
L 5375 375 
Q 5375 -75 5400 -525 
L 4900 -525 
L 4900 75 
L 1550 75 
L 1550 -525 
L 1050 -525 
Q 1075 -50 1075 350 
L 1075 3200 
Q 1075 3650 1050 4225 
L 2425 4225 
Q 2525 4900 2550 5225 
Q 2850 5125 3200 5075 
z
M 4900 475 
L 4900 1375 
L 1550 1375 
L 1550 475 
L 4900 475 
z
M 4900 2975 
L 4900 3800 
L 1550 3800 
L 1550 2975 
L 4900 2975 
z
M 4900 1775 
L 4900 2575 
L 1550 2575 
L 1550 1775 
L 4900 1775 
z
" transform="scale(0.015625)"/>
     <path id="SimHei-7136" d="M 2025 4950 
Q 1875 4750 1650 4325 
L 3100 4325 
Q 3025 3850 2837 3187 
Q 2650 2525 2087 1862 
Q 1525 1200 900 825 
Q 750 1025 450 1150 
Q 1050 1450 1475 1925 
Q 1300 2175 850 2500 
Q 1025 2650 1150 2850 
Q 1550 2525 1800 2250 
Q 1975 2450 2125 2700 
Q 1775 3050 1400 3300 
Q 1550 3475 1650 3650 
Q 2075 3350 2325 3100 
Q 2475 3425 2550 3925 
L 1475 3925 
Q 1175 3400 675 2725 
Q 475 2900 200 2975 
Q 675 3475 987 4087 
Q 1300 4700 1450 5150 
Q 1700 5025 2025 4950 
z
M 5775 3100 
Q 5425 3125 4525 3125 
Q 4700 2500 5112 2025 
Q 5525 1550 6125 1300 
Q 5800 1100 5625 875 
Q 5100 1225 4775 1650 
Q 4450 2075 4225 2625 
Q 4050 2150 3725 1675 
Q 3400 1200 2900 800 
Q 2725 1000 2425 1175 
Q 2900 1425 3275 1912 
Q 3650 2400 3875 3125 
Q 3375 3125 3000 3100 
L 3000 3525 
Q 3475 3500 3925 3500 
Q 3950 4700 3900 5050 
Q 4200 5000 4450 5000 
Q 4400 4575 4400 3500 
Q 5350 3500 5775 3525 
L 5775 3100 
z
M 5600 -625 
Q 5325 -75 4750 600 
Q 4975 700 5175 875 
Q 5750 150 6050 -350 
Q 5800 -425 5600 -625 
z
M 1525 450 
Q 1150 -75 775 -675 
Q 625 -525 325 -425 
Q 675 25 1075 750 
Q 1225 625 1525 450 
z
M 4025 -550 
Q 3850 -75 3400 525 
L 3800 775 
Q 4325 50 4475 -325 
Q 4150 -475 4025 -550 
z
M 2475 -600 
Q 2375 -200 2050 500 
Q 2325 550 2500 675 
Q 2800 125 2950 -425 
Q 2600 -525 2475 -600 
z
M 5475 3725 
Q 5125 4200 4725 4550 
Q 4850 4650 5025 4850 
Q 5450 4500 5825 4025 
Q 5650 3900 5475 3725 
z
" transform="scale(0.015625)"/>
     <path id="SimHei-53ef" d="M 3600 3500 
Q 3575 3175 3575 2775 
L 3575 1550 
Q 3575 1125 3600 825 
L 3075 825 
L 3075 1275 
L 1650 1275 
L 1650 600 
L 1150 600 
Q 1175 775 1175 1175 
L 1175 2775 
Q 1175 3175 1150 3500 
L 3600 3500 
z
M 5200 4675 
Q 5600 4675 6050 4700 
L 6050 4225 
Q 5650 4250 5225 4250 
L 5075 4250 
L 5075 125 
Q 5075 -325 4812 -462 
Q 4550 -600 3750 -675 
Q 3700 -350 3550 -75 
Q 4075 -100 4300 -50 
Q 4525 0 4525 225 
L 4525 4250 
L 1525 4250 
Q 875 4250 350 4225 
L 350 4700 
Q 875 4675 1500 4675 
L 5200 4675 
z
M 3075 1700 
L 3075 3075 
L 1650 3075 
L 1650 1700 
L 3075 1700 
z
" transform="scale(0.015625)"/>
     <path id="SimHei-89c6" d="M 4500 3875 
Q 4400 3700 4375 3187 
Q 4350 2675 4225 1750 
L 4675 1750 
Q 4650 1500 4650 1075 
L 4650 400 
Q 4650 25 4825 12 
Q 5000 0 5225 0 
Q 5475 0 5537 100 
Q 5600 200 5650 725 
Q 5925 550 6175 500 
Q 6000 -425 5600 -425 
L 4600 -425 
Q 4200 -400 4200 100 
L 4200 1600 
Q 3900 800 3525 325 
Q 3150 -150 2500 -650 
Q 2300 -425 2050 -325 
Q 2750 100 3150 625 
Q 3550 1150 3712 1725 
Q 3875 2300 3900 2875 
Q 3925 3450 3875 3975 
Q 4175 3925 4500 3875 
z
M 5525 4875 
Q 5500 4475 5500 3925 
L 5500 2550 
Q 5500 2100 5525 1625 
L 5050 1625 
L 5050 4475 
L 3275 4475 
L 3275 1600 
L 2800 1600 
Q 2825 2025 2825 2525 
L 2825 3900 
Q 2825 4425 2800 4875 
L 5525 4875 
z
M 2275 3900 
Q 2200 3650 2062 3287 
Q 1925 2925 1650 2475 
L 1650 475 
Q 1650 25 1675 -625 
L 1175 -625 
Q 1200 75 1200 500 
L 1200 1875 
Q 950 1525 500 1125 
Q 350 1375 200 1525 
Q 725 1925 1100 2475 
Q 1475 3025 1650 3500 
L 1025 3500 
Q 650 3500 350 3475 
L 350 3925 
Q 725 3900 1025 3900 
L 2275 3900 
z
M 1350 5225 
Q 1675 4750 1900 4400 
Q 1725 4275 1450 4100 
Q 1250 4550 950 4950 
Q 1175 5075 1350 5225 
z
M 2025 2500 
Q 2325 2075 2550 1675 
Q 2350 1575 2150 1375 
Q 1925 1825 1675 2225 
Q 1850 2350 2025 2500 
z
" transform="scale(0.015625)"/>
     <path id="SimHei-56fe" d="M 5800 4975 
Q 5775 4350 5775 3600 
L 5775 925 
Q 5775 150 5800 -600 
L 5300 -600 
L 5300 -275 
L 1125 -275 
L 1125 -650 
L 625 -650 
Q 650 125 650 950 
L 650 3600 
Q 650 4325 625 4975 
L 5800 4975 
z
M 5300 150 
L 5300 4575 
L 1125 4575 
L 1125 150 
L 5300 150 
z
M 3225 4250 
Q 3075 4100 2950 3925 
L 4625 3925 
Q 4525 3700 4300 3375 
Q 4075 3050 3600 2600 
Q 4350 2225 5075 2150 
Q 4900 1925 4775 1675 
Q 3850 1950 3225 2350 
Q 2500 1875 1675 1650 
Q 1600 1875 1400 2075 
Q 2200 2200 2875 2600 
Q 2525 2925 2375 3150 
Q 2150 2900 1900 2650 
Q 1725 2850 1525 2950 
Q 1950 3300 2250 3737 
Q 2550 4175 2675 4475 
Q 2925 4350 3225 4250 
z
M 2450 1275 
Q 3550 950 4100 725 
Q 3975 525 3850 300 
Q 2825 725 2275 850 
Q 2375 1050 2450 1275 
z
M 2925 2050 
Q 3775 1700 4075 1600 
Q 3950 1400 3850 1150 
Q 3000 1550 2700 1650 
Q 2825 1825 2925 2050 
z
M 2625 3450 
Q 3000 3025 3275 2850 
Q 3600 3100 3875 3525 
L 2675 3525 
L 2625 3450 
z
" transform="scale(0.015625)"/>
     <path id="SimHei-50" d="M 2950 3100 
Q 2950 2500 2600 2150 
Q 2250 1800 1625 1800 
L 900 1800 
L 900 125 
L 325 125 
L 325 4400 
L 1625 4400 
Q 2250 4400 2600 4050 
Q 2950 3700 2950 3100 
z
M 2375 3100 
Q 2375 3575 2150 3750 
Q 1925 3925 1475 3925 
L 900 3925 
L 900 2275 
L 1475 2275 
Q 1925 2275 2150 2450 
Q 2375 2625 2375 3100 
z
" transform="scale(0.015625)"/>
     <path id="SimHei-4e" d="M 2850 125 
L 2225 125 
L 850 3225 
L 825 3225 
L 825 125 
L 250 125 
L 250 4400 
L 875 4400 
L 2250 1300 
L 2275 1300 
L 2275 4400 
L 2850 4400 
L 2850 125 
z
" transform="scale(0.015625)"/>
     <path id="SimHei-56" d="M 3050 4400 
L 1800 75 
L 1300 75 
L 50 4400 
L 650 4400 
L 1525 1125 
L 1575 1125 
L 2450 4400 
L 3050 4400 
z
" transform="scale(0.015625)"/>
     <path id="SimHei-47" d="M 2850 75 
L 2425 75 
L 2350 425 
Q 2250 275 2037 175 
Q 1825 75 1575 75 
Q 1050 75 637 562 
Q 225 1050 225 2125 
Q 225 3300 600 3875 
Q 975 4450 1625 4450 
Q 2200 4450 2525 4025 
Q 2850 3600 2850 2925 
L 2300 2925 
Q 2300 3450 2125 3712 
Q 1950 3975 1625 3975 
Q 1225 3975 1025 3562 
Q 825 3150 825 2175 
Q 825 1250 1075 900 
Q 1325 550 1650 550 
Q 1975 550 2162 787 
Q 2350 1025 2350 1525 
L 2350 1800 
L 1575 1800 
L 1575 2275 
L 2850 2275 
L 2850 75 
z
" transform="scale(0.015625)"/>
     <path id="SimHei-2c" d="M 1100 125 
L 775 -550 
L 525 -550 
L 775 125 
L 525 125 
L 525 675 
L 1100 675 
L 1100 125 
z
" transform="scale(0.015625)"/>
     <path id="SimHei-3b1" d="M 2950 3250 
Q 3300 3300 3800 2825 
L 3800 3250 
L 4200 3250 
L 4200 650 
Q 4150 550 4450 575 
L 4675 575 
L 4675 175 
L 4075 175 
Q 3825 200 3775 625 
Q 3350 75 2775 175 
Q 1675 375 1675 1800 
Q 1750 2900 2600 3200 
L 2950 3250 
z
M 2925 2825 
Q 2100 2775 2075 1675 
Q 2125 800 2775 600 
L 3075 575 
Q 3850 825 3800 1900 
Q 3675 2675 3075 2825 
L 2925 2825 
z
" transform="scale(0.015625)"/>
     <path id="SimHei-3d" d="M 2975 2900 
L 125 2900 
L 125 3300 
L 2975 3300 
L 2975 2900 
z
M 2975 1375 
L 125 1375 
L 125 1775 
L 2975 1775 
L 2975 1375 
z
" transform="scale(0.015625)"/>
     <path id="SimHei-b0" d="M 1512 3225 
Q 1200 3250 1012 3450 
Q 825 3650 837 3950 
Q 850 4250 1000 4412 
Q 1150 4575 1375 4637 
Q 1600 4700 1812 4650 
Q 2025 4600 2175 4387 
Q 2325 4175 2287 3850 
Q 2250 3525 2037 3362 
Q 1825 3200 1512 3225 
z
M 1100 4000 
Q 1075 3825 1162 3675 
Q 1250 3525 1487 3487 
Q 1725 3450 1875 3587 
Q 2025 3725 2025 3962 
Q 2025 4200 1875 4325 
Q 1725 4450 1550 4425 
Q 1375 4400 1250 4287 
Q 1125 4175 1100 4000 
z
" transform="scale(0.015625)"/>
    </defs>
    <use xlink:href="#SimHei-53c2"/>
    <use xlink:href="#SimHei-6570" transform="translate(100 0)"/>
    <use xlink:href="#SimHei-81ea" transform="translate(200 0)"/>
    <use xlink:href="#SimHei-7136" transform="translate(300 0)"/>
    <use xlink:href="#SimHei-53ef" transform="translate(400 0)"/>
    <use xlink:href="#SimHei-89c6" transform="translate(500 0)"/>
    <use xlink:href="#SimHei-56fe" transform="translate(600 0)"/>
    <use xlink:href="#SimHei-20" transform="translate(700 0)"/>
    <use xlink:href="#SimHei-28" transform="translate(750 0)"/>
    <use xlink:href="#SimHei-50" transform="translate(800 0)"/>
    <use xlink:href="#SimHei-4e" transform="translate(850 0)"/>
    <use xlink:href="#SimHei-56" transform="translate(900 0)"/>
    <use xlink:href="#SimHei-47" transform="translate(950 0)"/>
    <use xlink:href="#SimHei-2c" transform="translate(1000 0)"/>
    <use xlink:href="#SimHei-20" transform="translate(1050 0)"/>
    <use xlink:href="#SimHei-3b1" transform="translate(1100 0)"/>
    <use xlink:href="#SimHei-3d" transform="translate(1200 0)"/>
    <use xlink:href="#SimHei-39" transform="translate(1250 0)"/>
    <use xlink:href="#SimHei-30" transform="translate(1300 0)"/>
    <use xlink:href="#SimHei-b0" transform="translate(1350 0)"/>
    <use xlink:href="#SimHei-29" transform="translate(1450 0)"/>
   </g>
  </g>
 </g>
 <defs>
  <clipPath id="p8bb9b9c81f">
   <rect x="38.8875" y="79.02375" width="666.71125" height="246.985625"/>
  </clipPath>
  <clipPath id="p97392eaf91">
   <rect x="189.473762" y="384.454375" width="365.538725" height="246.985625"/>
  </clipPath>
 </defs>
</svg>
