<?xml version="1.0" encoding="utf-8" standalone="no"?>
<!DOCTYPE svg PUBLIC "-//W3C//DTD SVG 1.1//EN"
  "http://www.w3.org/Graphics/SVG/1.1/DTD/svg11.dtd">
<svg xmlns:xlink="http://www.w3.org/1999/xlink" width="712.84875pt" height="638.64pt" viewBox="0 0 712.84875 638.64" xmlns="http://www.w3.org/2000/svg" version="1.1">
 <metadata>
  <rdf:RDF xmlns:dc="http://purl.org/dc/elements/1.1/" xmlns:cc="http://creativecommons.org/ns#" xmlns:rdf="http://www.w3.org/1999/02/22-rdf-syntax-ns#">
   <cc:Work>
    <dc:type rdf:resource="http://purl.org/dc/dcmitype/StillImage"/>
    <dc:date>2025-10-24T12:53:27.388802</dc:date>
    <dc:format>image/svg+xml</dc:format>
    <dc:creator>
     <cc:Agent>
      <dc:title>Matplotlib v3.10.6, https://matplotlib.org/</dc:title>
     </cc:Agent>
    </dc:creator>
   </cc:Work>
  </rdf:RDF>
 </metadata>
 <defs>
  <style type="text/css">*{stroke-linejoin: round; stroke-linecap: butt}</style>
 </defs>
 <g id="figure_1">
  <g id="patch_1">
   <path d="M 0 638.64 
L 712.84875 638.64 
L 712.84875 0 
L 0 0 
z
" style="fill: #ffffff"/>
  </g>
  <g id="axes_1">
   <g id="patch_2">
    <path d="M 43.8875 326.189375 
L 705.64875 326.189375 
L 705.64875 79.38375 
L 43.8875 79.38375 
z
" style="fill: #ffffff"/>
   </g>
   <g id="line2d_1">
    <path d="M 81.24499 239.807406 
L 134.612833 158.36155 
" clip-path="url(#p61eb612a33)" style="fill: none; stroke: #696969; stroke-width: 1.2; stroke-linecap: square"/>
   </g>
   <g id="line2d_2">
    <path d="M 134.612833 158.36155 
L 187.980675 123.808762 
" clip-path="url(#p61eb612a33)" style="fill: none; stroke: #696969; stroke-width: 1.2; stroke-linecap: square"/>
   </g>
   <g id="line2d_3">
    <path d="M 187.980675 123.808762 
L 241.348518 281.764362 
" clip-path="url(#p61eb612a33)" style="fill: none; stroke: #696969; stroke-width: 1.2; stroke-linecap: square"/>
   </g>
   <g id="line2d_4">
    <path d="M 187.980675 123.808762 
L 294.716361 239.807406 
" clip-path="url(#p61eb612a33)" style="fill: none; stroke: #696969; stroke-width: 1.2; stroke-linecap: square"/>
   </g>
   <g id="line2d_5">
    <path d="M 187.980675 123.808762 
L 348.084204 158.36155 
" clip-path="url(#p61eb612a33)" style="fill: none; stroke: #696969; stroke-width: 1.2; stroke-linecap: square"/>
   </g>
   <g id="line2d_6">
    <path d="M 187.980675 123.808762 
L 401.452046 123.808762 
" clip-path="url(#p61eb612a33)" style="fill: none; stroke: #696969; stroke-width: 1.2; stroke-linecap: square"/>
   </g>
   <g id="line2d_7">
    <path d="M 241.348518 281.764362 
L 294.716361 239.807406 
" clip-path="url(#p61eb612a33)" style="fill: none; stroke: #696969; stroke-width: 1.2; stroke-linecap: square"/>
   </g>
   <g id="line2d_8">
    <path d="M 241.348518 281.764362 
L 348.084204 158.36155 
" clip-path="url(#p61eb612a33)" style="fill: none; stroke: #696969; stroke-width: 1.2; stroke-linecap: square"/>
   </g>
   <g id="line2d_9">
    <path d="M 294.716361 239.807406 
L 348.084204 158.36155 
" clip-path="url(#p61eb612a33)" style="fill: none; stroke: #696969; stroke-width: 1.2; stroke-linecap: square"/>
   </g>
   <g id="line2d_10">
    <path d="M 348.084204 158.36155 
L 401.452046 123.808762 
" clip-path="url(#p61eb612a33)" style="fill: none; stroke: #696969; stroke-width: 1.2; stroke-linecap: square"/>
   </g>
   <g id="line2d_11">
    <path d="M 401.452046 123.808762 
L 454.819889 281.764362 
" clip-path="url(#p61eb612a33)" style="fill: none; stroke: #696969; stroke-width: 1.2; stroke-linecap: square"/>
   </g>
   <g id="line2d_12">
    <path d="M 401.452046 123.808762 
L 508.187732 239.807406 
" clip-path="url(#p61eb612a33)" style="fill: none; stroke: #696969; stroke-width: 1.2; stroke-linecap: square"/>
   </g>
   <g id="line2d_13">
    <path d="M 401.452046 123.808762 
L 561.555575 158.36155 
" clip-path="url(#p61eb612a33)" style="fill: none; stroke: #696969; stroke-width: 1.2; stroke-linecap: square"/>
   </g>
   <g id="line2d_14">
    <path d="M 401.452046 123.808762 
L 614.923417 123.808762 
" clip-path="url(#p61eb612a33)" style="fill: none; stroke: #696969; stroke-width: 1.2; stroke-linecap: square"/>
   </g>
   <g id="line2d_15">
    <path d="M 454.819889 281.764362 
L 508.187732 239.807406 
" clip-path="url(#p61eb612a33)" style="fill: none; stroke: #696969; stroke-width: 1.2; stroke-linecap: square"/>
   </g>
   <g id="line2d_16">
    <path d="M 454.819889 281.764362 
L 561.555575 158.36155 
" clip-path="url(#p61eb612a33)" style="fill: none; stroke: #696969; stroke-width: 1.2; stroke-linecap: square"/>
   </g>
   <g id="line2d_17">
    <path d="M 508.187732 239.807406 
L 561.555575 158.36155 
" clip-path="url(#p61eb612a33)" style="fill: none; stroke: #696969; stroke-width: 1.2; stroke-linecap: square"/>
   </g>
   <g id="line2d_18">
    <path d="M 561.555575 158.36155 
L 614.923417 123.808762 
" clip-path="url(#p61eb612a33)" style="fill: none; stroke: #696969; stroke-width: 1.2; stroke-linecap: square"/>
   </g>
   <g id="line2d_19">
    <path d="M 614.923417 123.808762 
L 668.29126 281.764362 
" clip-path="url(#p61eb612a33)" style="fill: none; stroke: #696969; stroke-width: 1.2; stroke-linecap: square"/>
   </g>
   <g id="patch_3">
    <path d="M 67.903029 326.189375 
L 94.586951 326.189375 
L 94.586951 239.807406 
L 67.903029 239.807406 
z
" clip-path="url(#p61eb612a33)" style="fill: #d3d3d3; stroke: #696969; stroke-linejoin: miter"/>
   </g>
   <g id="patch_4">
    <path d="M 121.270872 326.189375 
L 147.954793 326.189375 
L 147.954793 158.36155 
L 121.270872 158.36155 
z
" clip-path="url(#p61eb612a33)" style="fill: #d3d3d3; stroke: #696969; stroke-linejoin: miter"/>
   </g>
   <g id="patch_5">
    <path d="M 174.638715 326.189375 
L 201.322636 326.189375 
L 201.322636 123.808762 
L 174.638715 123.808762 
z
" clip-path="url(#p61eb612a33)" style="fill: #d3d3d3; stroke: #696969; stroke-linejoin: miter"/>
   </g>
   <g id="patch_6">
    <path d="M 228.006557 326.189375 
L 254.690479 326.189375 
L 254.690479 281.764362 
L 228.006557 281.764362 
z
" clip-path="url(#p61eb612a33)" style="fill: #d3d3d3; stroke: #696969; stroke-linejoin: miter"/>
   </g>
   <g id="patch_7">
    <path d="M 281.3744 326.189375 
L 308.058322 326.189375 
L 308.058322 239.807406 
L 281.3744 239.807406 
z
" clip-path="url(#p61eb612a33)" style="fill: #d3d3d3; stroke: #696969; stroke-linejoin: miter"/>
   </g>
   <g id="patch_8">
    <path d="M 334.742243 326.189375 
L 361.426164 326.189375 
L 361.426164 158.36155 
L 334.742243 158.36155 
z
" clip-path="url(#p61eb612a33)" style="fill: #d3d3d3; stroke: #696969; stroke-linejoin: miter"/>
   </g>
   <g id="patch_9">
    <path d="M 388.110086 326.189375 
L 414.794007 326.189375 
L 414.794007 123.808762 
L 388.110086 123.808762 
z
" clip-path="url(#p61eb612a33)" style="fill: #d3d3d3; stroke: #696969; stroke-linejoin: miter"/>
   </g>
   <g id="patch_10">
    <path d="M 441.477928 326.189375 
L 468.16185 326.189375 
L 468.16185 281.764362 
L 441.477928 281.764362 
z
" clip-path="url(#p61eb612a33)" style="fill: #d3d3d3; stroke: #696969; stroke-linejoin: miter"/>
   </g>
   <g id="patch_11">
    <path d="M 494.845771 326.189375 
L 521.529693 326.189375 
L 521.529693 239.807406 
L 494.845771 239.807406 
z
" clip-path="url(#p61eb612a33)" style="fill: #d3d3d3; stroke: #696969; stroke-linejoin: miter"/>
   </g>
   <g id="patch_12">
    <path d="M 548.213614 326.189375 
L 574.897535 326.189375 
L 574.897535 158.36155 
L 548.213614 158.36155 
z
" clip-path="url(#p61eb612a33)" style="fill: #d3d3d3; stroke: #696969; stroke-linejoin: miter"/>
   </g>
   <g id="patch_13">
    <path d="M 601.581457 326.189375 
L 628.265378 326.189375 
L 628.265378 123.808762 
L 601.581457 123.808762 
z
" clip-path="url(#p61eb612a33)" style="fill: #d3d3d3; stroke: #696969; stroke-linejoin: miter"/>
   </g>
   <g id="patch_14">
    <path d="M 654.949299 326.189375 
L 681.633221 326.189375 
L 681.633221 281.764362 
L 654.949299 281.764362 
z
" clip-path="url(#p61eb612a33)" style="fill: #d3d3d3; stroke: #696969; stroke-linejoin: miter"/>
   </g>
   <g id="matplotlib.axis_1">
    <g id="xtick_1">
     <g id="line2d_20">
      <defs>
       <path id="m1b9615928b" d="M 0 0 
L 0 3.5 
" style="stroke: #000000; stroke-width: 0.8"/>
      </defs>
      <g>
       <use xlink:href="#m1b9615928b" x="81.24499" y="326.189375" style="stroke: #000000; stroke-width: 0.8"/>
      </g>
     </g>
     <g id="text_1">
      <!-- 1 -->
      <g transform="translate(78.74499 340.064375) scale(0.1 -0.1)">
       <defs>
        <path id="SimHei-31" d="M 1400 3600 
Q 1075 3275 575 2975 
L 575 3450 
Q 1200 3875 1600 4450 
L 1900 4450 
L 1900 150 
L 1400 150 
L 1400 3600 
z
" transform="scale(0.015625)"/>
       </defs>
       <use xlink:href="#SimHei-31"/>
      </g>
     </g>
    </g>
    <g id="xtick_2">
     <g id="line2d_21">
      <g>
       <use xlink:href="#m1b9615928b" x="134.612833" y="326.189375" style="stroke: #000000; stroke-width: 0.8"/>
      </g>
     </g>
     <g id="text_2">
      <!-- 2 -->
      <g transform="translate(132.112833 340.064375) scale(0.1 -0.1)">
       <defs>
        <path id="SimHei-32" d="M 300 250 
Q 325 625 650 925 
Q 975 1225 1475 1862 
Q 1975 2500 2125 2850 
Q 2275 3200 2237 3450 
Q 2200 3700 2000 3862 
Q 1800 4025 1537 4000 
Q 1275 3975 1037 3800 
Q 800 3625 675 3275 
L 200 3350 
Q 400 3925 712 4187 
Q 1025 4450 1450 4475 
Q 1700 4500 1900 4462 
Q 2100 4425 2312 4287 
Q 2525 4150 2662 3875 
Q 2800 3600 2762 3212 
Q 2725 2825 2375 2287 
Q 2025 1750 1025 600 
L 2825 600 
L 2825 150 
L 300 150 
L 300 250 
z
" transform="scale(0.015625)"/>
       </defs>
       <use xlink:href="#SimHei-32"/>
      </g>
     </g>
    </g>
    <g id="xtick_3">
     <g id="line2d_22">
      <g>
       <use xlink:href="#m1b9615928b" x="187.980675" y="326.189375" style="stroke: #000000; stroke-width: 0.8"/>
      </g>
     </g>
     <g id="text_3">
      <!-- 3 -->
      <g transform="translate(185.480675 340.064375) scale(0.1 -0.1)">
       <defs>
        <path id="SimHei-33" d="M 250 1225 
L 700 1300 
Q 800 975 1025 762 
Q 1250 550 1587 562 
Q 1925 575 2125 837 
Q 2325 1100 2300 1437 
Q 2275 1775 2037 1962 
Q 1800 2150 1275 2225 
L 1275 2550 
Q 1800 2600 2037 2825 
Q 2275 3050 2250 3412 
Q 2225 3775 1925 3937 
Q 1625 4100 1287 3975 
Q 950 3850 750 3275 
L 300 3350 
Q 450 3800 712 4100 
Q 975 4400 1425 4450 
Q 1875 4500 2212 4337 
Q 2550 4175 2687 3837 
Q 2825 3500 2725 3100 
Q 2625 2700 2150 2400 
Q 2500 2250 2687 1950 
Q 2875 1650 2812 1162 
Q 2750 675 2375 375 
Q 2000 75 1525 87 
Q 1050 100 700 387 
Q 350 675 250 1225 
z
" transform="scale(0.015625)"/>
       </defs>
       <use xlink:href="#SimHei-33"/>
      </g>
     </g>
    </g>
    <g id="xtick_4">
     <g id="line2d_23">
      <g>
       <use xlink:href="#m1b9615928b" x="241.348518" y="326.189375" style="stroke: #000000; stroke-width: 0.8"/>
      </g>
     </g>
     <g id="text_4">
      <!-- 4 -->
      <g transform="translate(238.848518 340.064375) scale(0.1 -0.1)">
       <defs>
        <path id="SimHei-34" d="M 2000 1100 
L 75 1100 
L 75 1525 
L 2100 4450 
L 2475 4450 
L 2475 1525 
L 3075 1525 
L 3075 1100 
L 2475 1100 
L 2475 150 
L 2000 150 
L 2000 1100 
z
M 2000 1525 
L 2000 3500 
L 600 1525 
L 2000 1525 
z
" transform="scale(0.015625)"/>
       </defs>
       <use xlink:href="#SimHei-34"/>
      </g>
     </g>
    </g>
    <g id="xtick_5">
     <g id="line2d_24">
      <g>
       <use xlink:href="#m1b9615928b" x="294.716361" y="326.189375" style="stroke: #000000; stroke-width: 0.8"/>
      </g>
     </g>
     <g id="text_5">
      <!-- 5 -->
      <g transform="translate(292.216361 340.064375) scale(0.1 -0.1)">
       <defs>
        <path id="SimHei-35" d="M 550 1325 
Q 725 650 1150 575 
Q 1575 500 1837 662 
Q 2100 825 2212 1087 
Q 2325 1350 2312 1675 
Q 2300 2000 2137 2225 
Q 1975 2450 1725 2525 
Q 1475 2600 1162 2525 
Q 850 2450 650 2175 
L 225 2225 
Q 275 2375 700 4375 
L 2675 4375 
L 2675 3925 
L 1075 3925 
Q 950 3250 825 2850 
Q 1200 3025 1525 3012 
Q 1850 3000 2150 2862 
Q 2450 2725 2587 2487 
Q 2725 2250 2787 2012 
Q 2850 1775 2837 1500 
Q 2825 1225 2725 937 
Q 2625 650 2425 462 
Q 2225 275 1937 162 
Q 1650 50 1275 75 
Q 900 100 562 350 
Q 225 600 100 1200 
L 550 1325 
z
" transform="scale(0.015625)"/>
       </defs>
       <use xlink:href="#SimHei-35"/>
      </g>
     </g>
    </g>
    <g id="xtick_6">
     <g id="line2d_25">
      <g>
       <use xlink:href="#m1b9615928b" x="348.084204" y="326.189375" style="stroke: #000000; stroke-width: 0.8"/>
      </g>
     </g>
     <g id="text_6">
      <!-- 6 -->
      <g transform="translate(345.584204 340.064375) scale(0.1 -0.1)">
       <defs>
        <path id="SimHei-36" d="M 250 1612 
Q 275 1975 387 2225 
Q 500 2475 725 2850 
L 1750 4450 
L 2325 4450 
L 1275 2800 
Q 1950 2975 2350 2750 
Q 2750 2525 2887 2237 
Q 3025 1950 3037 1612 
Q 3050 1275 2937 950 
Q 2825 625 2537 362 
Q 2250 100 1737 75 
Q 1225 50 862 262 
Q 500 475 362 862 
Q 225 1250 250 1612 
z
M 1025 787 
Q 1250 550 1625 525 
Q 2000 500 2250 775 
Q 2500 1050 2500 1575 
Q 2500 2100 2187 2300 
Q 1875 2500 1487 2450 
Q 1100 2400 925 2075 
Q 750 1750 775 1387 
Q 800 1025 1025 787 
z
" transform="scale(0.015625)"/>
       </defs>
       <use xlink:href="#SimHei-36"/>
      </g>
     </g>
    </g>
    <g id="xtick_7">
     <g id="line2d_26">
      <g>
       <use xlink:href="#m1b9615928b" x="401.452046" y="326.189375" style="stroke: #000000; stroke-width: 0.8"/>
      </g>
     </g>
     <g id="text_7">
      <!-- 7 -->
      <g transform="translate(398.952046 340.064375) scale(0.1 -0.1)">
       <defs>
        <path id="SimHei-37" d="M 850 150 
Q 1300 2050 2425 3925 
L 275 3925 
L 275 4375 
L 2950 4375 
L 2950 3950 
Q 1775 2050 1400 150 
L 850 150 
z
" transform="scale(0.015625)"/>
       </defs>
       <use xlink:href="#SimHei-37"/>
      </g>
     </g>
    </g>
    <g id="xtick_8">
     <g id="line2d_27">
      <g>
       <use xlink:href="#m1b9615928b" x="454.819889" y="326.189375" style="stroke: #000000; stroke-width: 0.8"/>
      </g>
     </g>
     <g id="text_8">
      <!-- 8 -->
      <g transform="translate(452.319889 340.064375) scale(0.1 -0.1)">
       <defs>
        <path id="SimHei-38" d="M 175 1375 
Q 175 1675 325 1962 
Q 475 2250 825 2425 
Q 525 2600 425 2812 
Q 325 3025 312 3300 
Q 300 3575 387 3775 
Q 475 3975 650 4150 
Q 825 4325 1037 4387 
Q 1250 4450 1500 4450 
Q 1750 4450 1950 4400 
Q 2150 4350 2375 4187 
Q 2600 4025 2700 3725 
Q 2800 3425 2687 3025 
Q 2575 2625 2100 2400 
Q 2525 2275 2700 2012 
Q 2875 1750 2875 1375 
Q 2875 1000 2762 775 
Q 2650 550 2512 400 
Q 2375 250 2137 162 
Q 1900 75 1537 75 
Q 1175 75 912 162 
Q 650 250 475 425 
Q 300 600 237 837 
Q 175 1075 175 1375 
z
M 687 1400 
Q 675 1100 787 875 
Q 900 650 1200 587 
Q 1500 525 1825 600 
Q 2150 675 2275 950 
Q 2400 1225 2362 1500 
Q 2325 1775 2050 1962 
Q 1775 2150 1450 2125 
Q 1125 2100 912 1900 
Q 700 1700 687 1400 
z
M 775 3350 
Q 775 3100 950 2875 
Q 1125 2650 1500 2650 
Q 1875 2650 2062 2875 
Q 2250 3100 2237 3412 
Q 2225 3725 2012 3875 
Q 1800 4025 1437 4000 
Q 1075 3975 925 3787 
Q 775 3600 775 3350 
z
" transform="scale(0.015625)"/>
       </defs>
       <use xlink:href="#SimHei-38"/>
      </g>
     </g>
    </g>
    <g id="xtick_9">
     <g id="line2d_28">
      <g>
       <use xlink:href="#m1b9615928b" x="508.187732" y="326.189375" style="stroke: #000000; stroke-width: 0.8"/>
      </g>
     </g>
     <g id="text_9">
      <!-- 9 -->
      <g transform="translate(505.687732 340.064375) scale(0.1 -0.1)">
       <defs>
        <path id="SimHei-39" d="M 800 75 
Q 1350 1000 1700 1750 
Q 1075 1650 662 1912 
Q 250 2175 162 2625 
Q 75 3075 175 3437 
Q 275 3800 487 4037 
Q 700 4275 1000 4375 
Q 1300 4475 1537 4475 
Q 1775 4475 2025 4375 
Q 2275 4275 2475 4075 
Q 2675 3875 2750 3662 
Q 2825 3450 2825 3112 
Q 2825 2775 2575 2250 
Q 2325 1725 1350 75 
L 800 75 
z
M 662 2875 
Q 700 2550 937 2337 
Q 1175 2125 1450 2150 
Q 1725 2175 1887 2300 
Q 2050 2425 2200 2725 
Q 2300 3100 2250 3362 
Q 2200 3625 1987 3800 
Q 1775 3975 1525 3975 
Q 1375 4000 1137 3900 
Q 900 3800 762 3500 
Q 625 3200 662 2875 
z
" transform="scale(0.015625)"/>
       </defs>
       <use xlink:href="#SimHei-39"/>
      </g>
     </g>
    </g>
    <g id="xtick_10">
     <g id="line2d_29">
      <g>
       <use xlink:href="#m1b9615928b" x="561.555575" y="326.189375" style="stroke: #000000; stroke-width: 0.8"/>
      </g>
     </g>
     <g id="text_10">
      <!-- 10 -->
      <g transform="translate(556.555575 340.064375) scale(0.1 -0.1)">
       <defs>
        <path id="SimHei-30" d="M 225 2537 
Q 250 3200 412 3587 
Q 575 3975 875 4225 
Q 1175 4475 1612 4475 
Q 2050 4475 2375 4112 
Q 2700 3750 2800 3200 
Q 2900 2650 2862 1937 
Q 2825 1225 2612 775 
Q 2400 325 1975 150 
Q 1550 -25 1125 187 
Q 700 400 525 750 
Q 350 1100 275 1487 
Q 200 1875 225 2537 
z
M 750 2687 
Q 675 2000 800 1462 
Q 925 925 1212 700 
Q 1500 475 1800 612 
Q 2100 750 2237 1162 
Q 2375 1575 2375 2062 
Q 2375 2550 2337 2950 
Q 2300 3350 2112 3675 
Q 1925 4000 1612 4012 
Q 1300 4025 1062 3700 
Q 825 3375 750 2687 
z
" transform="scale(0.015625)"/>
       </defs>
       <use xlink:href="#SimHei-31"/>
       <use xlink:href="#SimHei-30" transform="translate(50 0)"/>
      </g>
     </g>
    </g>
    <g id="xtick_11">
     <g id="line2d_30">
      <g>
       <use xlink:href="#m1b9615928b" x="614.923417" y="326.189375" style="stroke: #000000; stroke-width: 0.8"/>
      </g>
     </g>
     <g id="text_11">
      <!-- 11 -->
      <g transform="translate(609.923417 340.064375) scale(0.1 -0.1)">
       <use xlink:href="#SimHei-31"/>
       <use xlink:href="#SimHei-31" transform="translate(50 0)"/>
      </g>
     </g>
    </g>
    <g id="xtick_12">
     <g id="line2d_31">
      <g>
       <use xlink:href="#m1b9615928b" x="668.29126" y="326.189375" style="stroke: #000000; stroke-width: 0.8"/>
      </g>
     </g>
     <g id="text_12">
      <!-- 12 -->
      <g transform="translate(663.29126 340.064375) scale(0.1 -0.1)">
       <use xlink:href="#SimHei-31"/>
       <use xlink:href="#SimHei-32" transform="translate(50 0)"/>
      </g>
     </g>
    </g>
    <g id="text_13">
     <!-- 序号 -->
     <g transform="translate(362.768125 354.876875) scale(0.12 -0.12)">
      <defs>
       <path id="SimHei-5e8f" d="M 4000 2075 
L 5975 2075 
Q 5750 1525 5575 1025 
Q 5325 1100 5050 1150 
Q 5175 1450 5275 1700 
L 4050 1700 
L 4050 150 
Q 4050 -375 3762 -462 
Q 3475 -550 2950 -575 
Q 2875 -300 2750 0 
Q 3350 -75 3475 25 
Q 3600 125 3575 375 
L 3575 1700 
L 2450 1700 
Q 2050 1700 1675 1675 
L 1675 2100 
Q 2100 2075 2425 2075 
L 3675 2075 
Q 3325 2400 2875 2775 
Q 2975 2875 3250 3100 
Q 3400 2975 3725 2725 
L 4575 3275 
L 3000 3275 
Q 2400 3275 1950 3250 
L 1950 3700 
Q 2400 3675 3000 3675 
L 5400 3675 
L 5400 3250 
Q 4700 2875 4025 2450 
L 4275 2250 
L 4000 2075 
z
M 3725 5275 
Q 3825 4925 3925 4525 
L 4850 4525 
Q 5425 4525 6000 4550 
L 6000 4125 
Q 5425 4150 4850 4150 
L 1400 4150 
Q 1400 2750 1362 2137 
Q 1325 1525 1200 887 
Q 1075 250 775 -350 
Q 625 -250 250 -125 
Q 475 300 600 700 
Q 725 1100 800 1637 
Q 875 2175 875 2825 
Q 875 3500 850 4525 
L 3350 4525 
Q 3275 4825 3150 5150 
Q 3425 5200 3725 5275 
z
" transform="scale(0.015625)"/>
       <path id="SimHei-53f7" d="M 5025 4925 
Q 5000 4550 5000 4075 
Q 5000 3600 5025 3175 
L 1400 3175 
Q 1425 3525 1425 4000 
Q 1425 4500 1400 4925 
L 5025 4925 
z
M 5175 2625 
Q 5650 2625 6025 2650 
L 6025 2200 
Q 5650 2225 5175 2225 
L 2450 2225 
Q 2350 1875 2225 1450 
L 5175 1450 
Q 5100 1050 5062 775 
Q 5025 500 4950 112 
Q 4875 -275 4650 -412 
Q 4425 -550 3225 -625 
Q 3125 -350 2975 -50 
Q 3875 -75 4112 -50 
Q 4350 -25 4425 212 
Q 4500 450 4575 1025 
L 1600 1025 
Q 1825 1625 1950 2225 
L 1350 2225 
Q 825 2225 375 2200 
L 375 2650 
Q 825 2625 1350 2625 
L 5175 2625 
z
M 4525 3575 
L 4525 4525 
L 1900 4525 
L 1900 3575 
L 4525 3575 
z
" transform="scale(0.015625)"/>
      </defs>
      <use xlink:href="#SimHei-5e8f"/>
      <use xlink:href="#SimHei-53f7" transform="translate(100 0)"/>
     </g>
    </g>
   </g>
   <g id="matplotlib.axis_2">
    <g id="ytick_1">
     <g id="line2d_32">
      <defs>
       <path id="me71301e454" d="M 0 0 
L -3.5 0 
" style="stroke: #000000; stroke-width: 0.8"/>
      </defs>
      <g>
       <use xlink:href="#me71301e454" x="43.8875" y="326.189375" style="stroke: #000000; stroke-width: 0.8"/>
      </g>
     </g>
     <g id="text_14">
      <!-- 0.0 -->
      <g transform="translate(21.8875 329.626875) scale(0.1 -0.1)">
       <defs>
        <path id="SimHei-2e" d="M 1075 125 
L 500 125 
L 500 675 
L 1075 675 
L 1075 125 
z
" transform="scale(0.015625)"/>
       </defs>
       <use xlink:href="#SimHei-30"/>
       <use xlink:href="#SimHei-2e" transform="translate(50 0)"/>
       <use xlink:href="#SimHei-30" transform="translate(100 0)"/>
      </g>
     </g>
    </g>
    <g id="ytick_2">
     <g id="line2d_33">
      <g>
       <use xlink:href="#me71301e454" x="43.8875" y="276.82825" style="stroke: #000000; stroke-width: 0.8"/>
      </g>
     </g>
     <g id="text_15">
      <!-- 0.2 -->
      <g transform="translate(21.8875 280.26575) scale(0.1 -0.1)">
       <use xlink:href="#SimHei-30"/>
       <use xlink:href="#SimHei-2e" transform="translate(50 0)"/>
       <use xlink:href="#SimHei-32" transform="translate(100 0)"/>
      </g>
     </g>
    </g>
    <g id="ytick_3">
     <g id="line2d_34">
      <g>
       <use xlink:href="#me71301e454" x="43.8875" y="227.467125" style="stroke: #000000; stroke-width: 0.8"/>
      </g>
     </g>
     <g id="text_16">
      <!-- 0.4 -->
      <g transform="translate(21.8875 230.904625) scale(0.1 -0.1)">
       <use xlink:href="#SimHei-30"/>
       <use xlink:href="#SimHei-2e" transform="translate(50 0)"/>
       <use xlink:href="#SimHei-34" transform="translate(100 0)"/>
      </g>
     </g>
    </g>
    <g id="ytick_4">
     <g id="line2d_35">
      <g>
       <use xlink:href="#me71301e454" x="43.8875" y="178.106" style="stroke: #000000; stroke-width: 0.8"/>
      </g>
     </g>
     <g id="text_17">
      <!-- 0.6 -->
      <g transform="translate(21.8875 181.5435) scale(0.1 -0.1)">
       <use xlink:href="#SimHei-30"/>
       <use xlink:href="#SimHei-2e" transform="translate(50 0)"/>
       <use xlink:href="#SimHei-36" transform="translate(100 0)"/>
      </g>
     </g>
    </g>
    <g id="ytick_5">
     <g id="line2d_36">
      <g>
       <use xlink:href="#me71301e454" x="43.8875" y="128.744875" style="stroke: #000000; stroke-width: 0.8"/>
      </g>
     </g>
     <g id="text_18">
      <!-- 0.8 -->
      <g transform="translate(21.8875 132.182375) scale(0.1 -0.1)">
       <use xlink:href="#SimHei-30"/>
       <use xlink:href="#SimHei-2e" transform="translate(50 0)"/>
       <use xlink:href="#SimHei-38" transform="translate(100 0)"/>
      </g>
     </g>
    </g>
    <g id="ytick_6">
     <g id="line2d_37">
      <g>
       <use xlink:href="#me71301e454" x="43.8875" y="79.38375" style="stroke: #000000; stroke-width: 0.8"/>
      </g>
     </g>
     <g id="text_19">
      <!-- 1.0 -->
      <g transform="translate(21.8875 82.82125) scale(0.1 -0.1)">
       <use xlink:href="#SimHei-31"/>
       <use xlink:href="#SimHei-2e" transform="translate(50 0)"/>
       <use xlink:href="#SimHei-30" transform="translate(100 0)"/>
      </g>
     </g>
    </g>
    <g id="text_20">
     <!-- 值 -->
     <g transform="translate(16.3875 208.786562) rotate(-90) scale(0.12 -0.12)">
      <defs>
       <path id="SimHei-503c" d="M 3675 4450 
L 3675 5100 
Q 3975 5075 4350 5050 
Q 4225 4875 4200 4450 
L 5125 4450 
Q 5550 4450 5875 4475 
L 5875 4025 
Q 5525 4050 5125 4050 
L 4175 4050 
L 4125 3500 
L 5400 3500 
Q 5375 3200 5375 2700 
L 5375 150 
Q 5875 150 6100 175 
L 6100 -275 
Q 5775 -250 5200 -250 
L 2850 -250 
Q 2275 -250 1900 -275 
L 1900 175 
Q 2125 150 2600 150 
L 2600 2700 
Q 2600 3175 2575 3500 
L 3600 3500 
L 3650 4050 
L 3200 4050 
Q 2575 4050 2225 4025 
L 2225 4475 
Q 2550 4450 3200 4450 
L 3675 4450 
z
M 2225 4900 
Q 2025 4675 1650 3750 
L 1650 450 
Q 1650 -75 1675 -550 
L 1150 -550 
Q 1175 -125 1175 375 
L 1175 2950 
Q 875 2450 625 2150 
Q 425 2425 250 2575 
Q 500 2825 937 3537 
Q 1375 4250 1625 5150 
Q 1975 4975 2225 4900 
z
M 4925 2650 
L 4925 3150 
L 3075 3150 
L 3075 2650 
L 4925 2650 
z
M 4925 150 
L 4925 625 
L 3075 625 
L 3075 150 
L 4925 150 
z
M 4925 1000 
L 4925 1450 
L 3075 1450 
L 3075 1000 
L 4925 1000 
z
M 4925 1825 
L 4925 2275 
L 3075 2275 
L 3075 1825 
L 4925 1825 
z
" transform="scale(0.015625)"/>
      </defs>
      <use xlink:href="#SimHei-503c"/>
     </g>
    </g>
   </g>
   <g id="patch_15">
    <path d="M 43.8875 326.189375 
L 43.8875 79.38375 
" style="fill: none; stroke: #000000; stroke-width: 0.8; stroke-linejoin: miter; stroke-linecap: square"/>
   </g>
   <g id="patch_16">
    <path d="M 43.8875 326.189375 
L 705.64875 326.189375 
" style="fill: none; stroke: #000000; stroke-width: 0.8; stroke-linejoin: miter; stroke-linecap: square"/>
   </g>
   <g id="text_21">
    <!-- 0.35 -->
    <g transform="translate(71.24499 218.812956) scale(0.1 -0.1)">
     <use xlink:href="#SimHei-30"/>
     <use xlink:href="#SimHei-2e" transform="translate(50 0)"/>
     <use xlink:href="#SimHei-33" transform="translate(100 0)"/>
     <use xlink:href="#SimHei-35" transform="translate(150 0)"/>
    </g>
   </g>
   <g id="text_22">
    <!-- 0.68 -->
    <g transform="translate(124.612833 137.3671) scale(0.1 -0.1)">
     <use xlink:href="#SimHei-30"/>
     <use xlink:href="#SimHei-2e" transform="translate(50 0)"/>
     <use xlink:href="#SimHei-36" transform="translate(100 0)"/>
     <use xlink:href="#SimHei-38" transform="translate(150 0)"/>
    </g>
   </g>
   <g id="text_23">
    <!-- 0.82 -->
    <g transform="translate(177.980675 112.686537) scale(0.1 -0.1)">
     <use xlink:href="#SimHei-30"/>
     <use xlink:href="#SimHei-2e" transform="translate(50 0)"/>
     <use xlink:href="#SimHei-38" transform="translate(100 0)"/>
     <use xlink:href="#SimHei-32" transform="translate(150 0)"/>
    </g>
   </g>
   <g id="text_24">
    <!-- 0.18 -->
    <g transform="translate(231.348518 260.769912) scale(0.1 -0.1)">
     <use xlink:href="#SimHei-30"/>
     <use xlink:href="#SimHei-2e" transform="translate(50 0)"/>
     <use xlink:href="#SimHei-31" transform="translate(100 0)"/>
     <use xlink:href="#SimHei-38" transform="translate(150 0)"/>
    </g>
   </g>
   <g id="text_25">
    <!-- 0.35 -->
    <g transform="translate(284.716361 218.812956) scale(0.1 -0.1)">
     <use xlink:href="#SimHei-30"/>
     <use xlink:href="#SimHei-2e" transform="translate(50 0)"/>
     <use xlink:href="#SimHei-33" transform="translate(100 0)"/>
     <use xlink:href="#SimHei-35" transform="translate(150 0)"/>
    </g>
   </g>
   <g id="text_26">
    <!-- 0.68 -->
    <g transform="translate(338.084204 137.3671) scale(0.1 -0.1)">
     <use xlink:href="#SimHei-30"/>
     <use xlink:href="#SimHei-2e" transform="translate(50 0)"/>
     <use xlink:href="#SimHei-36" transform="translate(100 0)"/>
     <use xlink:href="#SimHei-38" transform="translate(150 0)"/>
    </g>
   </g>
   <g id="text_27">
    <!-- 0.82 -->
    <g transform="translate(391.452046 112.686537) scale(0.1 -0.1)">
     <use xlink:href="#SimHei-30"/>
     <use xlink:href="#SimHei-2e" transform="translate(50 0)"/>
     <use xlink:href="#SimHei-38" transform="translate(100 0)"/>
     <use xlink:href="#SimHei-32" transform="translate(150 0)"/>
    </g>
   </g>
   <g id="text_28">
    <!-- 0.18 -->
    <g transform="translate(444.819889 260.769912) scale(0.1 -0.1)">
     <use xlink:href="#SimHei-30"/>
     <use xlink:href="#SimHei-2e" transform="translate(50 0)"/>
     <use xlink:href="#SimHei-31" transform="translate(100 0)"/>
     <use xlink:href="#SimHei-38" transform="translate(150 0)"/>
    </g>
   </g>
   <g id="text_29">
    <!-- 0.35 -->
    <g transform="translate(498.187732 218.812956) scale(0.1 -0.1)">
     <use xlink:href="#SimHei-30"/>
     <use xlink:href="#SimHei-2e" transform="translate(50 0)"/>
     <use xlink:href="#SimHei-33" transform="translate(100 0)"/>
     <use xlink:href="#SimHei-35" transform="translate(150 0)"/>
    </g>
   </g>
   <g id="text_30">
    <!-- 0.68 -->
    <g transform="translate(551.555575 137.3671) scale(0.1 -0.1)">
     <use xlink:href="#SimHei-30"/>
     <use xlink:href="#SimHei-2e" transform="translate(50 0)"/>
     <use xlink:href="#SimHei-36" transform="translate(100 0)"/>
     <use xlink:href="#SimHei-38" transform="translate(150 0)"/>
    </g>
   </g>
   <g id="text_31">
    <!-- 0.82 -->
    <g transform="translate(604.923417 112.686537) scale(0.1 -0.1)">
     <use xlink:href="#SimHei-30"/>
     <use xlink:href="#SimHei-2e" transform="translate(50 0)"/>
     <use xlink:href="#SimHei-38" transform="translate(100 0)"/>
     <use xlink:href="#SimHei-32" transform="translate(150 0)"/>
    </g>
   </g>
   <g id="text_32">
    <!-- 0.18 -->
    <g transform="translate(658.29126 260.769912) scale(0.1 -0.1)">
     <use xlink:href="#SimHei-30"/>
     <use xlink:href="#SimHei-2e" transform="translate(50 0)"/>
     <use xlink:href="#SimHei-31" transform="translate(100 0)"/>
     <use xlink:href="#SimHei-38" transform="translate(150 0)"/>
    </g>
   </g>
   <g id="text_33">
    <!-- (a) 直方条 -->
    <g transform="translate(344.768125 73.38375) scale(0.12 -0.12)">
     <defs>
      <path id="SimHei-28" d="M 2975 -200 
L 2700 -475 
Q 2075 125 1762 775 
Q 1450 1425 1450 2250 
Q 1450 3075 1762 3725 
Q 2075 4375 2700 5000 
L 2975 4725 
Q 2400 4175 2112 3587 
Q 1825 3000 1825 2250 
Q 1825 1500 2112 912 
Q 2400 325 2975 -200 
z
" transform="scale(0.015625)"/>
      <path id="SimHei-61" d="M 2875 125 
L 2275 125 
Q 2225 175 2200 262 
Q 2175 350 2175 475 
Q 2000 275 1750 175 
Q 1500 75 1225 75 
Q 825 75 550 275 
Q 275 475 275 850 
Q 275 1225 525 1450 
Q 775 1675 1300 1750 
Q 1650 1800 1912 1875 
Q 2175 1950 2175 2075 
Q 2175 2225 2062 2375 
Q 1950 2525 1575 2525 
Q 1275 2525 1137 2412 
Q 1000 2300 950 2100 
L 400 2100 
Q 450 2500 762 2737 
Q 1075 2975 1575 2975 
Q 2125 2975 2400 2725 
Q 2675 2475 2675 2025 
L 2675 650 
Q 2675 500 2725 375 
Q 2775 250 2875 125 
z
M 2175 1050 
L 2175 1550 
Q 2025 1500 1887 1462 
Q 1750 1425 1425 1375 
Q 1050 1325 937 1200 
Q 825 1075 825 900 
Q 825 750 937 637 
Q 1050 525 1275 525 
Q 1500 525 1762 650 
Q 2025 775 2175 1050 
z
" transform="scale(0.015625)"/>
      <path id="SimHei-29" d="M 1675 2250 
Q 1675 1425 1362 775 
Q 1050 125 425 -475 
L 150 -200 
Q 725 325 1012 912 
Q 1300 1500 1300 2250 
Q 1300 3000 1012 3587 
Q 725 4175 150 4725 
L 425 5000 
Q 1050 4375 1362 3725 
Q 1675 3075 1675 2250 
z
" transform="scale(0.015625)"/>
      <path id="SimHei-20" transform="scale(0.015625)"/>
      <path id="SimHei-76f4" d="M 3550 5025 
Q 3475 4875 3400 4525 
L 4825 4525 
Q 5225 4525 5775 4550 
L 5775 4100 
Q 5250 4125 4825 4125 
L 3350 4125 
Q 3300 3775 3275 3525 
L 5100 3525 
Q 5075 3075 5075 2525 
L 5075 100 
L 5300 100 
Q 5650 100 6100 125 
L 6100 -350 
Q 5675 -325 5300 -325 
L 1225 -325 
Q 800 -325 325 -350 
L 325 125 
Q 825 100 1225 100 
L 1375 100 
L 1375 2525 
Q 1375 3175 1350 3525 
L 2775 3525 
Q 2825 3825 2850 4125 
L 1550 4125 
Q 1075 4125 600 4100 
L 600 4550 
Q 1075 4525 1525 4525 
L 2875 4525 
Q 2900 4800 2875 5075 
Q 3275 5025 3550 5025 
z
M 4600 975 
L 4600 1450 
L 1850 1450 
L 1850 975 
L 4600 975 
z
M 4600 100 
L 4600 575 
L 1850 575 
L 1850 100 
L 4600 100 
z
M 4600 2650 
L 4600 3125 
L 1850 3125 
L 1850 2650 
L 4600 2650 
z
M 4600 1825 
L 4600 2275 
L 1850 2275 
L 1850 1825 
L 4600 1825 
z
" transform="scale(0.015625)"/>
      <path id="SimHei-65b9" d="M 425 3975 
Q 825 3950 1300 3950 
L 5025 3950 
Q 5625 3950 6000 3975 
L 6000 3475 
Q 5675 3500 5100 3500 
L 2525 3500 
Q 2525 3225 2500 2500 
L 5300 2500 
Q 5250 2175 5200 1550 
L 5050 175 
Q 5000 -275 4625 -412 
Q 4250 -550 3525 -625 
Q 3500 -300 3325 -50 
Q 3900 -75 4200 0 
Q 4500 75 4575 425 
L 4725 2050 
L 2475 2050 
Q 2375 1350 2162 875 
Q 1950 400 1575 0 
Q 1200 -400 825 -700 
Q 725 -550 375 -350 
Q 700 -175 1062 200 
Q 1425 575 1662 1050 
Q 1900 1525 1962 2100 
Q 2025 2675 2025 3500 
L 1325 3500 
Q 775 3500 425 3475 
L 425 3975 
z
M 3075 4075 
Q 2850 4575 2575 5000 
Q 2800 5125 3025 5275 
Q 3300 4850 3575 4350 
Q 3325 4250 3075 4075 
z
" transform="scale(0.015625)"/>
      <path id="SimHei-6761" d="M 2700 5075 
Q 2600 5000 2400 4700 
L 5225 4700 
Q 4975 4300 4625 3875 
Q 4275 3450 3750 3050 
Q 4100 2850 4750 2687 
Q 5400 2525 6200 2525 
Q 5950 2275 5925 2000 
Q 5000 2100 4387 2300 
Q 3775 2500 3275 2825 
Q 2500 2375 1837 2175 
Q 1175 1975 575 1850 
Q 500 2125 275 2300 
Q 1250 2400 1912 2625 
Q 2575 2850 2825 3075 
Q 2400 3425 1925 3975 
Q 1600 3550 1150 3075 
Q 925 3300 725 3350 
Q 1225 3775 1625 4350 
Q 2025 4925 2125 5300 
Q 2525 5125 2700 5075 
z
M 2950 1775 
Q 2950 2000 2925 2400 
L 3475 2400 
Q 3450 1975 3450 1775 
L 4500 1775 
Q 5025 1775 5550 1800 
L 5550 1325 
Q 5025 1350 4525 1350 
L 3450 1350 
L 3450 -50 
Q 3475 -575 2450 -625 
Q 2375 -375 2225 -75 
Q 2975 -150 2950 200 
L 2950 1350 
L 1850 1350 
Q 1350 1350 825 1325 
L 825 1800 
Q 1350 1775 1850 1775 
L 2950 1775 
z
M 3300 3300 
Q 4025 3775 4325 4275 
L 2250 4275 
Q 2700 3675 3300 3300 
z
M 4200 1000 
Q 4950 575 5800 0 
Q 5650 -175 5500 -400 
Q 5150 -150 4787 100 
Q 4425 350 3925 600 
Q 4075 775 4200 1000 
z
M 2375 700 
Q 2275 600 1800 250 
Q 1325 -100 850 -400 
Q 700 -200 500 -50 
Q 825 100 1287 437 
Q 1750 775 1950 1050 
L 2375 700 
z
" transform="scale(0.015625)"/>
     </defs>
     <use xlink:href="#SimHei-28"/>
     <use xlink:href="#SimHei-61" transform="translate(50 0)"/>
     <use xlink:href="#SimHei-29" transform="translate(100 0)"/>
     <use xlink:href="#SimHei-20" transform="translate(150 0)"/>
     <use xlink:href="#SimHei-76f4" transform="translate(200 0)"/>
     <use xlink:href="#SimHei-65b9" transform="translate(300 0)"/>
     <use xlink:href="#SimHei-6761" transform="translate(400 0)"/>
    </g>
   </g>
  </g>
  <g id="axes_2">
   <g id="patch_17">
    <path d="M 203.902692 574.484856 
C 203.902692 570.458282 201.901122 566.592508 198.3421 563.745291 
C 194.783079 560.898073 189.950861 559.296817 184.917644 559.296817 
C 179.884428 559.296817 175.05221 560.898073 171.493188 563.745291 
C 167.934166 566.592508 165.932596 570.458282 165.932596 574.484856 
" clip-path="url(#pe2a39a8422)" style="fill: none; stroke: #000000; stroke-width: 1.5; stroke-linejoin: miter"/>
   </g>
   <g id="patch_18">
    <path d="M 241.872788 574.484856 
C 241.872788 570.458282 239.871218 566.592508 236.312197 563.745291 
C 232.753175 560.898073 227.920957 559.296817 222.88774 559.296817 
C 217.854524 559.296817 213.022306 560.898073 209.463284 563.745291 
C 205.904262 566.592508 203.902692 570.458282 203.902692 574.484856 
" clip-path="url(#pe2a39a8422)" style="fill: none; stroke: #000000; stroke-width: 1.5; stroke-linejoin: miter"/>
   </g>
   <g id="patch_19">
    <path d="M 279.842885 574.484856 
C 279.842885 570.458282 277.841314 566.592508 274.282293 563.745291 
C 270.723271 560.898073 265.891053 559.296817 260.857837 559.296817 
C 255.82462 559.296817 250.992402 560.898073 247.43338 563.745291 
C 243.874359 566.592508 241.872788 570.458282 241.872788 574.484856 
" clip-path="url(#pe2a39a8422)" style="fill: none; stroke: #000000; stroke-width: 1.5; stroke-linejoin: miter"/>
   </g>
   <g id="patch_20">
    <path d="M 317.812981 574.484856 
C 317.812981 566.431709 313.80984 558.70016 306.691797 553.005726 
C 299.573754 547.311291 289.909318 544.108779 279.842885 544.108779 
C 269.776451 544.108779 260.112015 547.311291 252.993972 553.005726 
C 245.875929 558.70016 241.872788 566.431709 241.872788 574.484856 
" clip-path="url(#pe2a39a8422)" style="fill: none; stroke: #000000; stroke-width: 1.5; stroke-linejoin: miter"/>
   </g>
   <g id="patch_21">
    <path d="M 355.783077 574.484856 
C 355.783077 562.405136 349.778366 550.807813 339.101301 542.266161 
C 328.424236 533.724509 313.927583 528.92074 298.827933 528.92074 
C 283.728283 528.92074 269.231629 533.724509 258.554564 542.266161 
C 247.877499 550.807813 241.872788 562.405136 241.872788 574.484856 
" clip-path="url(#pe2a39a8422)" style="fill: none; stroke: #000000; stroke-width: 1.5; stroke-linejoin: miter"/>
   </g>
   <g id="patch_22">
    <path d="M 393.753173 574.484856 
C 393.753173 558.378562 385.746892 542.915465 371.510806 531.526596 
C 357.274719 520.137726 337.945848 513.732702 317.812981 513.732702 
C 297.680114 513.732702 278.351243 520.137726 264.115156 531.526596 
C 249.879069 542.915465 241.872788 558.378562 241.872788 574.484856 
" clip-path="url(#pe2a39a8422)" style="fill: none; stroke: #000000; stroke-width: 1.5; stroke-linejoin: miter"/>
   </g>
   <g id="patch_23">
    <path d="M 317.812981 574.484856 
C 317.812981 570.458282 315.811411 566.592508 312.252389 563.745291 
C 308.693367 560.898073 303.861149 559.296817 298.827933 559.296817 
C 293.794716 559.296817 288.962498 560.898073 285.403476 563.745291 
C 281.844455 566.592508 279.842885 570.458282 279.842885 574.484856 
" clip-path="url(#pe2a39a8422)" style="fill: none; stroke: #000000; stroke-width: 1.5; stroke-linejoin: miter"/>
   </g>
   <g id="patch_24">
    <path d="M 355.783077 574.484856 
C 355.783077 566.431709 351.779937 558.70016 344.661893 553.005726 
C 337.54385 547.311291 327.879414 544.108779 317.812981 544.108779 
C 307.746547 544.108779 298.082112 547.311291 290.964068 553.005726 
C 283.846025 558.70016 279.842885 566.431709 279.842885 574.484856 
" clip-path="url(#pe2a39a8422)" style="fill: none; stroke: #000000; stroke-width: 1.5; stroke-linejoin: miter"/>
   </g>
   <g id="patch_25">
    <path d="M 355.783077 574.484856 
C 355.783077 570.458282 353.781507 566.592508 350.222485 563.745291 
C 346.663463 560.898073 341.831246 559.296817 336.798029 559.296817 
C 331.764812 559.296817 326.932594 560.898073 323.373573 563.745291 
C 319.814551 566.592508 317.812981 570.458282 317.812981 574.484856 
" clip-path="url(#pe2a39a8422)" style="fill: none; stroke: #000000; stroke-width: 1.5; stroke-linejoin: miter"/>
   </g>
   <g id="patch_26">
    <path d="M 393.753173 574.484856 
C 393.753173 570.458282 391.751603 566.592508 388.192581 563.745291 
C 384.63356 560.898073 379.801342 559.296817 374.768125 559.296817 
C 369.734908 559.296817 364.90269 560.898073 361.343669 563.745291 
C 357.784647 566.592508 355.783077 570.458282 355.783077 574.484856 
" clip-path="url(#pe2a39a8422)" style="fill: none; stroke: #000000; stroke-width: 1.5; stroke-linejoin: miter"/>
   </g>
   <g id="patch_27">
    <path d="M 431.723269 574.484856 
C 431.723269 570.458282 429.721699 566.592508 426.162677 563.745291 
C 422.603656 560.898073 417.771438 559.296817 412.738221 559.296817 
C 407.705004 559.296817 402.872787 560.898073 399.313765 563.745291 
C 395.754743 566.592508 393.753173 570.458282 393.753173 574.484856 
" clip-path="url(#pe2a39a8422)" style="fill: none; stroke: #000000; stroke-width: 1.5; stroke-linejoin: miter"/>
   </g>
   <g id="patch_28">
    <path d="M 469.693365 574.484856 
C 469.693365 566.431709 465.690225 558.70016 458.572182 553.005726 
C 451.454138 547.311291 441.789703 544.108779 431.723269 544.108779 
C 421.656836 544.108779 411.9924 547.311291 404.874357 553.005726 
C 397.756313 558.70016 393.753173 566.431709 393.753173 574.484856 
" clip-path="url(#pe2a39a8422)" style="fill: none; stroke: #000000; stroke-width: 1.5; stroke-linejoin: miter"/>
   </g>
   <g id="patch_29">
    <path d="M 507.663462 574.484856 
C 507.663462 562.405136 501.658751 550.807813 490.981686 542.266161 
C 480.304621 533.724509 465.807967 528.92074 450.708317 528.92074 
C 435.608667 528.92074 421.112014 533.724509 410.434949 542.266161 
C 399.757884 550.807813 393.753173 562.405136 393.753173 574.484856 
" clip-path="url(#pe2a39a8422)" style="fill: none; stroke: #000000; stroke-width: 1.5; stroke-linejoin: miter"/>
   </g>
   <g id="patch_30">
    <path d="M 545.633558 574.484856 
C 545.633558 558.378562 537.627277 542.915465 523.39119 531.526596 
C 509.155104 520.137726 489.826232 513.732702 469.693365 513.732702 
C 449.560499 513.732702 430.231627 520.137726 415.99554 531.526596 
C 401.759454 542.915465 393.753173 558.378562 393.753173 574.484856 
" clip-path="url(#pe2a39a8422)" style="fill: none; stroke: #000000; stroke-width: 1.5; stroke-linejoin: miter"/>
   </g>
   <g id="patch_31">
    <path d="M 469.693365 574.484856 
C 469.693365 570.458282 467.691795 566.592508 464.132774 563.745291 
C 460.573752 560.898073 455.741534 559.296817 450.708317 559.296817 
C 445.675101 559.296817 440.842883 560.898073 437.283861 563.745291 
C 433.724839 566.592508 431.723269 570.458282 431.723269 574.484856 
" clip-path="url(#pe2a39a8422)" style="fill: none; stroke: #000000; stroke-width: 1.5; stroke-linejoin: miter"/>
   </g>
   <g id="patch_32">
    <path d="M 507.663462 574.484856 
C 507.663462 566.431709 503.660321 558.70016 496.542278 553.005726 
C 489.424235 547.311291 479.759799 544.108779 469.693365 544.108779 
C 459.626932 544.108779 449.962496 547.311291 442.844453 553.005726 
C 435.72641 558.70016 431.723269 566.431709 431.723269 574.484856 
" clip-path="url(#pe2a39a8422)" style="fill: none; stroke: #000000; stroke-width: 1.5; stroke-linejoin: miter"/>
   </g>
   <g id="patch_33">
    <path d="M 507.663462 574.484856 
C 507.663462 570.458282 505.661891 566.592508 502.10287 563.745291 
C 498.543848 560.898073 493.71163 559.296817 488.678413 559.296817 
C 483.645197 559.296817 478.812979 560.898073 475.253957 563.745291 
C 471.694936 566.592508 469.693365 570.458282 469.693365 574.484856 
" clip-path="url(#pe2a39a8422)" style="fill: none; stroke: #000000; stroke-width: 1.5; stroke-linejoin: miter"/>
   </g>
   <g id="patch_34">
    <path d="M 545.633558 574.484856 
C 545.633558 570.458282 543.631988 566.592508 540.072966 563.745291 
C 536.513944 560.898073 531.681726 559.296817 526.64851 559.296817 
C 521.615293 559.296817 516.783075 560.898073 513.224053 563.745291 
C 509.665032 566.592508 507.663462 570.458282 507.663462 574.484856 
" clip-path="url(#pe2a39a8422)" style="fill: none; stroke: #000000; stroke-width: 1.5; stroke-linejoin: miter"/>
   </g>
   <g id="patch_35">
    <path d="M 583.603654 574.484856 
C 583.603654 570.458282 581.602084 566.592508 578.043062 563.745291 
C 574.48404 560.898073 569.651822 559.296817 564.618606 559.296817 
C 559.585389 559.296817 554.753171 560.898073 551.19415 563.745291 
C 547.635128 566.592508 545.633558 570.458282 545.633558 574.484856 
" clip-path="url(#pe2a39a8422)" style="fill: none; stroke: #000000; stroke-width: 1.5; stroke-linejoin: miter"/>
   </g>
   <g id="line2d_38">
    <defs>
     <path id="m49697ca7aa" d="M 0 3 
C 0.795609 3 1.55874 2.683901 2.12132 2.12132 
C 2.683901 1.55874 3 0.795609 3 0 
C 3 -0.795609 2.683901 -1.55874 2.12132 -2.12132 
C 1.55874 -2.683901 0.795609 -3 0 -3 
C -0.795609 -3 -1.55874 -2.683901 -2.12132 -2.12132 
C -2.683901 -1.55874 -3 -0.795609 -3 0 
C -3 0.795609 -2.683901 1.55874 -2.12132 2.12132 
C -1.55874 2.683901 -0.795609 3 0 3 
z
" style="stroke: #000000"/>
    </defs>
    <g clip-path="url(#pe2a39a8422)">
     <use xlink:href="#m49697ca7aa" x="165.932596" y="574.484856" style="stroke: #000000"/>
     <use xlink:href="#m49697ca7aa" x="203.902692" y="574.484856" style="stroke: #000000"/>
     <use xlink:href="#m49697ca7aa" x="241.872788" y="574.484856" style="stroke: #000000"/>
     <use xlink:href="#m49697ca7aa" x="279.842885" y="574.484856" style="stroke: #000000"/>
     <use xlink:href="#m49697ca7aa" x="317.812981" y="574.484856" style="stroke: #000000"/>
     <use xlink:href="#m49697ca7aa" x="355.783077" y="574.484856" style="stroke: #000000"/>
     <use xlink:href="#m49697ca7aa" x="393.753173" y="574.484856" style="stroke: #000000"/>
     <use xlink:href="#m49697ca7aa" x="431.723269" y="574.484856" style="stroke: #000000"/>
     <use xlink:href="#m49697ca7aa" x="469.693365" y="574.484856" style="stroke: #000000"/>
     <use xlink:href="#m49697ca7aa" x="507.663462" y="574.484856" style="stroke: #000000"/>
     <use xlink:href="#m49697ca7aa" x="545.633558" y="574.484856" style="stroke: #000000"/>
     <use xlink:href="#m49697ca7aa" x="583.603654" y="574.484856" style="stroke: #000000"/>
    </g>
   </g>
   <g id="text_34">
    <!-- (b) 网络连边 -->
    <g transform="translate(338.768125 378.634375) scale(0.12 -0.12)">
     <defs>
      <path id="SimHei-62" d="M 2825 1525 
Q 2825 800 2475 437 
Q 2125 75 1625 75 
Q 1350 75 1150 175 
Q 950 275 800 500 
L 800 125 
L 300 125 
L 300 4400 
L 800 4400 
L 800 2550 
Q 950 2775 1150 2887 
Q 1350 3000 1625 3000 
Q 2125 3000 2475 2625 
Q 2825 2250 2825 1525 
z
M 2275 1525 
Q 2275 2000 2087 2275 
Q 1900 2550 1525 2550 
Q 1225 2550 1012 2275 
Q 800 2000 800 1525 
Q 800 1050 1012 787 
Q 1225 525 1525 525 
Q 1900 525 2087 787 
Q 2275 1050 2275 1525 
z
" transform="scale(0.015625)"/>
      <path id="SimHei-7f51" d="M 5875 4900 
Q 5825 4575 5825 3975 
L 5825 0 
Q 5825 -400 5537 -462 
Q 5250 -525 4775 -600 
Q 4725 -350 4525 -50 
Q 5025 -75 5175 -25 
Q 5325 25 5325 250 
L 5325 4475 
L 1100 4475 
L 1100 -600 
L 550 -600 
Q 600 -100 600 250 
L 600 3975 
Q 600 4375 550 4900 
L 5875 4900 
z
M 3675 3525 
Q 4050 2800 4175 2600 
Q 4475 3625 4550 4050 
Q 4825 3900 5100 3775 
Q 4975 3600 4825 3150 
Q 4675 2700 4450 2100 
Q 4725 1575 5125 875 
Q 4850 800 4625 675 
L 4175 1575 
Q 4000 1225 3825 962 
Q 3650 700 3350 300 
Q 3175 500 2850 575 
Q 3075 800 3337 1125 
Q 3600 1450 3925 2075 
Q 3575 2800 3200 3300 
Q 3400 3375 3675 3525 
z
M 1725 3800 
Q 1875 3525 2037 3237 
Q 2200 2950 2375 2675 
Q 2675 3675 2725 4050 
Q 3000 3950 3325 3850 
Q 3175 3675 3050 3312 
Q 2925 2950 2650 2200 
Q 2875 1850 3200 1300 
Q 2950 1150 2775 975 
Q 2525 1500 2400 1700 
Q 1950 775 1600 325 
Q 1400 500 1175 575 
Q 1575 1000 2150 2175 
Q 1550 3250 1250 3600 
Q 1475 3700 1725 3800 
z
" transform="scale(0.015625)"/>
      <path id="SimHei-7edc" d="M 2400 3100 
Q 2675 3400 2850 3700 
Q 3025 4000 3187 4362 
Q 3350 4725 3450 5200 
Q 3725 5075 4050 5025 
Q 3900 4800 3725 4450 
L 5750 4450 
Q 5375 3700 5125 3325 
Q 4875 2950 4600 2650 
Q 4925 2425 5375 2275 
Q 5825 2125 6200 2050 
Q 6075 1850 5950 1525 
Q 5700 1600 5500 1675 
Q 5450 1325 5450 1025 
L 5450 125 
Q 5450 -250 5475 -650 
L 5000 -650 
L 5000 -175 
L 3500 -175 
L 3500 -700 
L 3025 -700 
Q 3050 -325 3050 0 
L 3050 1000 
Q 3050 1200 3025 1675 
Q 2875 1600 2600 1500 
Q 2500 1775 2325 1975 
Q 2700 2075 3162 2262 
Q 3625 2450 3900 2675 
Q 3575 3100 3350 3625 
Q 3075 3200 2800 2825 
Q 2650 2975 2400 3100 
z
M 1825 4725 
Q 1650 4500 1425 4037 
Q 1200 3575 900 3050 
L 1600 3050 
Q 1875 3575 2000 3975 
Q 2250 3775 2500 3650 
Q 2350 3475 2050 2937 
Q 1750 2400 1225 1525 
Q 1975 1650 2300 1700 
Q 2275 1375 2300 1225 
Q 1700 1150 1375 1087 
Q 1050 1025 625 925 
Q 550 1200 450 1400 
Q 700 1500 937 1850 
Q 1175 2200 1425 2700 
Q 750 2675 400 2525 
Q 325 2750 225 3025 
Q 525 3175 825 3787 
Q 1125 4400 1275 5000 
Q 1550 4825 1825 4725 
z
M 5000 225 
L 5000 1300 
L 3500 1300 
L 3500 225 
L 5000 225 
z
M 2375 700 
Q 2425 450 2425 250 
Q 2150 200 1637 25 
Q 1125 -150 650 -350 
Q 550 -50 425 200 
Q 1050 325 1462 425 
Q 1875 525 2375 700 
z
M 4275 2975 
Q 4425 3125 4637 3425 
Q 4850 3725 5000 4050 
L 3650 4050 
Q 3900 3425 4275 2975 
z
M 5475 1700 
Q 5125 1850 4812 2000 
Q 4500 2150 4225 2350 
Q 3925 2150 3662 2000 
Q 3400 1850 3075 1700 
L 5475 1700 
z
" transform="scale(0.015625)"/>
      <path id="SimHei-8fde" d="M 3175 4350 
Q 3425 4925 3475 5200 
Q 3875 5025 4050 4975 
Q 3925 4875 3675 4350 
L 5025 4350 
Q 5550 4350 5850 4375 
L 5850 3925 
Q 5525 3950 5100 3950 
L 3475 3950 
Q 3350 3700 2875 2925 
L 3875 2925 
Q 3875 3400 3850 3725 
L 4350 3725 
Q 4325 3450 4325 2925 
Q 5575 2925 5650 2950 
L 5650 2475 
Q 5500 2525 4325 2525 
L 4325 1700 
L 5250 1700 
Q 5800 1700 5950 1725 
L 5950 1275 
Q 5650 1300 5250 1300 
L 4325 1300 
Q 4325 600 4350 75 
L 3850 75 
Q 3875 600 3875 1300 
Q 2150 1300 1975 1275 
L 1975 1725 
Q 2650 1700 3875 1700 
L 3875 2525 
L 3075 2525 
Q 2525 2500 2375 2450 
L 2200 2900 
Q 2400 3025 2587 3275 
Q 2775 3525 2975 3950 
Q 2325 3950 1975 3925 
L 1975 4375 
Q 2300 4350 3175 4350 
z
M 1625 2925 
Q 1600 2425 1600 2100 
L 1600 550 
Q 2325 -75 3825 -75 
Q 5350 -75 6175 0 
Q 6025 -250 5975 -550 
Q 4975 -550 4175 -537 
Q 3375 -525 2750 -412 
Q 2125 -300 1762 -50 
Q 1400 200 1175 -12 
Q 950 -225 675 -550 
Q 525 -350 275 -175 
Q 850 300 1100 475 
L 1100 2525 
Q 775 2525 400 2500 
L 400 2950 
Q 800 2925 1125 2925 
L 1625 2925 
z
M 975 4950 
Q 1450 4275 1775 3750 
Q 1550 3675 1300 3500 
Q 1175 3875 550 4650 
Q 775 4850 975 4950 
z
" transform="scale(0.015625)"/>
      <path id="SimHei-8fb9" d="M 3450 3950 
Q 3450 4750 3425 5250 
Q 3800 5175 4050 5175 
Q 3975 4825 3950 3950 
L 5725 3950 
Q 5650 3525 5625 3100 
L 5500 1150 
Q 5475 725 5062 612 
Q 4650 500 4300 400 
Q 4275 725 4050 1050 
Q 4650 1075 4837 1137 
Q 5025 1200 5050 1450 
L 5175 3500 
L 3925 3500 
Q 3825 2500 3525 1837 
Q 3225 1175 2625 500 
Q 2400 725 2075 900 
Q 2625 1275 2987 1937 
Q 3350 2600 3425 3500 
Q 2825 3500 2275 3450 
L 2275 3975 
Q 2725 3950 3450 3950 
z
M 1625 2900 
Q 1600 2475 1600 2125 
L 1600 675 
Q 2225 50 3775 0 
Q 5325 -50 6200 50 
Q 5950 -150 5925 -550 
Q 5125 -550 4350 -525 
Q 3575 -500 2925 -387 
Q 2275 -275 1850 75 
Q 1425 425 1187 175 
Q 950 -75 725 -550 
Q 500 -325 225 -150 
Q 875 350 1100 625 
L 1100 2450 
Q 650 2450 225 2425 
L 225 2925 
Q 725 2900 1150 2900 
L 1625 2900 
z
M 1150 5075 
Q 1600 4200 1700 3900 
Q 1450 3825 1175 3675 
Q 1150 3925 650 4875 
Q 925 4975 1150 5075 
z
" transform="scale(0.015625)"/>
     </defs>
     <use xlink:href="#SimHei-28"/>
     <use xlink:href="#SimHei-62" transform="translate(50 0)"/>
     <use xlink:href="#SimHei-29" transform="translate(100 0)"/>
     <use xlink:href="#SimHei-20" transform="translate(150 0)"/>
     <use xlink:href="#SimHei-7f51" transform="translate(200 0)"/>
     <use xlink:href="#SimHei-7edc" transform="translate(300 0)"/>
     <use xlink:href="#SimHei-8fde" transform="translate(400 0)"/>
     <use xlink:href="#SimHei-8fb9" transform="translate(500 0)"/>
    </g>
   </g>
  </g>
  <g id="text_35">
   <!-- 经典可视图 (Classic Visibility Graph) O3实现 -->
   <g transform="translate(180.44875 20.325) scale(0.16 -0.16)">
    <defs>
     <path id="SimHei-7ecf" d="M 2025 4750 
Q 1875 4550 1650 4175 
Q 1425 3800 925 3050 
Q 1100 3050 1900 3100 
Q 2175 3500 2375 3925 
Q 2575 3725 2850 3625 
Q 2600 3325 2250 2850 
Q 1900 2375 1200 1525 
Q 2175 1650 2600 1750 
Q 2575 1600 2575 1325 
Q 2350 1275 1750 1200 
Q 1150 1125 625 1000 
Q 600 1175 450 1450 
Q 725 1575 1012 1900 
Q 1300 2225 1625 2700 
Q 1350 2700 1037 2662 
Q 725 2625 525 2575 
Q 475 2750 325 3025 
Q 600 3200 950 3800 
Q 1300 4400 1525 5025 
Q 1700 4875 2025 4750 
z
M 4925 1875 
Q 5325 1875 5675 1900 
L 5675 1450 
Q 5350 1475 4950 1475 
L 4550 1475 
L 4550 0 
L 5275 0 
Q 5625 0 6025 25 
L 6025 -425 
Q 5625 -400 5275 -400 
L 3325 -400 
Q 3000 -400 2475 -425 
L 2475 25 
Q 3000 0 3325 0 
L 4075 0 
L 4075 1475 
L 3725 1475 
Q 3300 1475 2900 1450 
L 2900 1900 
Q 3300 1875 3725 1875 
L 4925 1875 
z
M 5500 4650 
Q 5375 4400 5175 4100 
Q 4975 3800 4650 3425 
Q 5750 2700 6100 2475 
Q 5900 2275 5725 2050 
Q 5400 2375 4400 3125 
Q 4075 2825 3737 2587 
Q 3400 2350 2825 2000 
Q 2675 2250 2475 2425 
Q 2900 2575 3237 2775 
Q 3575 2975 4025 3400 
Q 4475 3825 4750 4250 
L 3675 4250 
Q 3225 4250 2825 4225 
L 2825 4675 
Q 3225 4650 3675 4650 
L 5500 4650 
z
M 2650 650 
Q 2650 500 2675 225 
Q 2225 150 1637 25 
Q 1050 -100 575 -225 
Q 450 75 350 300 
Q 1050 375 1400 437 
Q 1750 500 2650 650 
z
" transform="scale(0.015625)"/>
     <path id="SimHei-5178" d="M 5350 4250 
Q 5325 3900 5325 3450 
L 5325 1525 
Q 5875 1525 6100 1550 
L 6100 1075 
Q 5775 1100 5200 1100 
L 1000 1100 
Q 625 1100 375 1075 
L 375 1550 
Q 625 1525 1075 1525 
L 1075 3375 
Q 1075 3900 1050 4250 
L 2350 4250 
Q 2350 4925 2325 5150 
L 2875 5150 
Q 2850 4925 2825 4250 
L 3600 4250 
Q 3600 4900 3575 5175 
L 4125 5175 
Q 4100 4950 4075 4250 
L 5350 4250 
z
M 5500 -525 
Q 5150 -200 3725 500 
L 4075 900 
Q 4375 750 4950 450 
Q 5525 150 5900 -75 
Q 5700 -275 5500 -525 
z
M 2800 425 
Q 1475 -350 950 -625 
Q 775 -400 550 -225 
Q 1150 0 1575 250 
Q 2000 500 2325 825 
Q 2550 625 2800 425 
z
M 2350 1525 
L 2350 2550 
L 1575 2550 
L 1575 1525 
L 2350 1525 
z
M 3600 1525 
L 3600 2550 
L 2825 2550 
L 2825 1525 
L 3600 1525 
z
M 4825 1525 
L 4825 2550 
L 4075 2550 
L 4075 1525 
L 4825 1525 
z
M 3600 2975 
L 3600 3825 
L 2825 3825 
L 2825 2975 
L 3600 2975 
z
M 2350 2975 
L 2350 3825 
L 1575 3825 
L 1575 2975 
L 2350 2975 
z
M 4825 2975 
L 4825 3825 
L 4075 3825 
L 4075 2975 
L 4825 2975 
z
" transform="scale(0.015625)"/>
     <path id="SimHei-53ef" d="M 3600 3500 
Q 3575 3175 3575 2775 
L 3575 1550 
Q 3575 1125 3600 825 
L 3075 825 
L 3075 1275 
L 1650 1275 
L 1650 600 
L 1150 600 
Q 1175 775 1175 1175 
L 1175 2775 
Q 1175 3175 1150 3500 
L 3600 3500 
z
M 5200 4675 
Q 5600 4675 6050 4700 
L 6050 4225 
Q 5650 4250 5225 4250 
L 5075 4250 
L 5075 125 
Q 5075 -325 4812 -462 
Q 4550 -600 3750 -675 
Q 3700 -350 3550 -75 
Q 4075 -100 4300 -50 
Q 4525 0 4525 225 
L 4525 4250 
L 1525 4250 
Q 875 4250 350 4225 
L 350 4700 
Q 875 4675 1500 4675 
L 5200 4675 
z
M 3075 1700 
L 3075 3075 
L 1650 3075 
L 1650 1700 
L 3075 1700 
z
" transform="scale(0.015625)"/>
     <path id="SimHei-89c6" d="M 4500 3875 
Q 4400 3700 4375 3187 
Q 4350 2675 4225 1750 
L 4675 1750 
Q 4650 1500 4650 1075 
L 4650 400 
Q 4650 25 4825 12 
Q 5000 0 5225 0 
Q 5475 0 5537 100 
Q 5600 200 5650 725 
Q 5925 550 6175 500 
Q 6000 -425 5600 -425 
L 4600 -425 
Q 4200 -400 4200 100 
L 4200 1600 
Q 3900 800 3525 325 
Q 3150 -150 2500 -650 
Q 2300 -425 2050 -325 
Q 2750 100 3150 625 
Q 3550 1150 3712 1725 
Q 3875 2300 3900 2875 
Q 3925 3450 3875 3975 
Q 4175 3925 4500 3875 
z
M 5525 4875 
Q 5500 4475 5500 3925 
L 5500 2550 
Q 5500 2100 5525 1625 
L 5050 1625 
L 5050 4475 
L 3275 4475 
L 3275 1600 
L 2800 1600 
Q 2825 2025 2825 2525 
L 2825 3900 
Q 2825 4425 2800 4875 
L 5525 4875 
z
M 2275 3900 
Q 2200 3650 2062 3287 
Q 1925 2925 1650 2475 
L 1650 475 
Q 1650 25 1675 -625 
L 1175 -625 
Q 1200 75 1200 500 
L 1200 1875 
Q 950 1525 500 1125 
Q 350 1375 200 1525 
Q 725 1925 1100 2475 
Q 1475 3025 1650 3500 
L 1025 3500 
Q 650 3500 350 3475 
L 350 3925 
Q 725 3900 1025 3900 
L 2275 3900 
z
M 1350 5225 
Q 1675 4750 1900 4400 
Q 1725 4275 1450 4100 
Q 1250 4550 950 4950 
Q 1175 5075 1350 5225 
z
M 2025 2500 
Q 2325 2075 2550 1675 
Q 2350 1575 2150 1375 
Q 1925 1825 1675 2225 
Q 1850 2350 2025 2500 
z
" transform="scale(0.015625)"/>
     <path id="SimHei-56fe" d="M 5800 4975 
Q 5775 4350 5775 3600 
L 5775 925 
Q 5775 150 5800 -600 
L 5300 -600 
L 5300 -275 
L 1125 -275 
L 1125 -650 
L 625 -650 
Q 650 125 650 950 
L 650 3600 
Q 650 4325 625 4975 
L 5800 4975 
z
M 5300 150 
L 5300 4575 
L 1125 4575 
L 1125 150 
L 5300 150 
z
M 3225 4250 
Q 3075 4100 2950 3925 
L 4625 3925 
Q 4525 3700 4300 3375 
Q 4075 3050 3600 2600 
Q 4350 2225 5075 2150 
Q 4900 1925 4775 1675 
Q 3850 1950 3225 2350 
Q 2500 1875 1675 1650 
Q 1600 1875 1400 2075 
Q 2200 2200 2875 2600 
Q 2525 2925 2375 3150 
Q 2150 2900 1900 2650 
Q 1725 2850 1525 2950 
Q 1950 3300 2250 3737 
Q 2550 4175 2675 4475 
Q 2925 4350 3225 4250 
z
M 2450 1275 
Q 3550 950 4100 725 
Q 3975 525 3850 300 
Q 2825 725 2275 850 
Q 2375 1050 2450 1275 
z
M 2925 2050 
Q 3775 1700 4075 1600 
Q 3950 1400 3850 1150 
Q 3000 1550 2700 1650 
Q 2825 1825 2925 2050 
z
M 2625 3450 
Q 3000 3025 3275 2850 
Q 3600 3100 3875 3525 
L 2675 3525 
L 2625 3450 
z
" transform="scale(0.015625)"/>
     <path id="SimHei-43" d="M 2975 1825 
Q 2950 875 2575 475 
Q 2200 75 1675 75 
Q 1075 75 650 562 
Q 225 1050 225 2125 
Q 225 3300 637 3875 
Q 1050 4450 1700 4450 
Q 2250 4450 2612 4037 
Q 2975 3625 2950 2875 
L 2400 2875 
Q 2400 3425 2225 3700 
Q 2050 3975 1700 3975 
Q 1300 3975 1062 3562 
Q 825 3150 825 2175 
Q 825 1275 1062 912 
Q 1300 550 1675 550 
Q 1950 550 2175 812 
Q 2400 1075 2400 1825 
L 2975 1825 
z
" transform="scale(0.015625)"/>
     <path id="SimHei-6c" d="M 1825 125 
L 1325 125 
L 1325 4400 
L 1825 4400 
L 1825 125 
z
" transform="scale(0.015625)"/>
     <path id="SimHei-73" d="M 2750 900 
Q 2750 500 2437 287 
Q 2125 75 1650 75 
Q 1050 75 725 312 
Q 400 550 400 1000 
L 900 1000 
Q 900 700 1112 600 
Q 1325 500 1625 500 
Q 1925 500 2075 612 
Q 2225 725 2225 900 
Q 2225 1025 2100 1150 
Q 1975 1275 1475 1350 
Q 900 1425 687 1637 
Q 475 1850 475 2200 
Q 475 2500 762 2737 
Q 1050 2975 1600 2975 
Q 2100 2975 2387 2750 
Q 2675 2525 2675 2150 
L 2175 2150 
Q 2175 2375 2012 2462 
Q 1850 2550 1600 2550 
Q 1275 2550 1137 2437 
Q 1000 2325 1000 2175 
Q 1000 2000 1125 1900 
Q 1250 1800 1650 1750 
Q 2300 1650 2525 1437 
Q 2750 1225 2750 900 
z
" transform="scale(0.015625)"/>
     <path id="SimHei-69" d="M 1800 3725 
L 1300 3725 
L 1300 4375 
L 1800 4375 
L 1800 3725 
z
M 1800 125 
L 1300 125 
L 1300 2925 
L 1800 2925 
L 1800 125 
z
" transform="scale(0.015625)"/>
     <path id="SimHei-63" d="M 2850 1250 
Q 2850 725 2487 400 
Q 2125 75 1575 75 
Q 1025 75 625 462 
Q 225 850 225 1525 
Q 225 2200 625 2587 
Q 1025 2975 1575 2975 
Q 2125 2975 2450 2687 
Q 2775 2400 2775 2000 
L 2225 2000 
Q 2200 2300 2012 2412 
Q 1825 2525 1575 2525 
Q 1275 2525 1025 2287 
Q 775 2050 775 1525 
Q 775 1000 1025 762 
Q 1275 525 1575 525 
Q 1900 525 2100 700 
Q 2300 875 2300 1250 
L 2850 1250 
z
" transform="scale(0.015625)"/>
     <path id="SimHei-56" d="M 3050 4400 
L 1800 75 
L 1300 75 
L 50 4400 
L 650 4400 
L 1525 1125 
L 1575 1125 
L 2450 4400 
L 3050 4400 
z
" transform="scale(0.015625)"/>
     <path id="SimHei-74" d="M 2750 200 
Q 2625 150 2462 112 
Q 2300 75 2025 75 
Q 1575 75 1300 325 
Q 1025 575 1025 1025 
L 1025 2525 
L 175 2525 
L 175 2925 
L 1025 2925 
L 1025 3900 
L 1525 3900 
L 1525 2925 
L 2550 2925 
L 2550 2525 
L 1525 2525 
L 1525 1000 
Q 1525 800 1625 662 
Q 1725 525 2000 525 
Q 2275 525 2450 575 
Q 2625 625 2750 700 
L 2750 200 
z
" transform="scale(0.015625)"/>
     <path id="SimHei-79" d="M 2900 2925 
L 1750 -100 
Q 1650 -450 1450 -625 
Q 1250 -800 950 -800 
Q 825 -800 712 -787 
Q 600 -775 500 -725 
L 500 -225 
Q 600 -275 700 -300 
Q 800 -325 875 -325 
Q 1075 -325 1150 -262 
Q 1225 -200 1300 25 
L 200 2925 
L 750 2925 
L 1550 725 
L 1575 725 
L 2350 2925 
L 2900 2925 
z
" transform="scale(0.015625)"/>
     <path id="SimHei-47" d="M 2850 75 
L 2425 75 
L 2350 425 
Q 2250 275 2037 175 
Q 1825 75 1575 75 
Q 1050 75 637 562 
Q 225 1050 225 2125 
Q 225 3300 600 3875 
Q 975 4450 1625 4450 
Q 2200 4450 2525 4025 
Q 2850 3600 2850 2925 
L 2300 2925 
Q 2300 3450 2125 3712 
Q 1950 3975 1625 3975 
Q 1225 3975 1025 3562 
Q 825 3150 825 2175 
Q 825 1250 1075 900 
Q 1325 550 1650 550 
Q 1975 550 2162 787 
Q 2350 1025 2350 1525 
L 2350 1800 
L 1575 1800 
L 1575 2275 
L 2850 2275 
L 2850 75 
z
" transform="scale(0.015625)"/>
     <path id="SimHei-72" d="M 2500 2425 
Q 2025 2500 1700 2287 
Q 1375 2075 1150 1550 
L 1150 125 
L 650 125 
L 650 2925 
L 1150 2925 
L 1150 2200 
Q 1375 2600 1712 2787 
Q 2050 2975 2500 2975 
L 2500 2425 
z
" transform="scale(0.015625)"/>
     <path id="SimHei-70" d="M 2825 1525 
Q 2825 800 2475 425 
Q 2125 50 1625 50 
Q 1350 50 1150 162 
Q 950 275 800 500 
L 800 -800 
L 300 -800 
L 300 2925 
L 800 2925 
L 800 2550 
Q 950 2775 1150 2875 
Q 1350 2975 1625 2975 
Q 2125 2975 2475 2612 
Q 2825 2250 2825 1525 
z
M 2275 1525 
Q 2275 2000 2087 2262 
Q 1900 2525 1525 2525 
Q 1225 2525 1012 2262 
Q 800 2000 800 1525 
Q 800 1050 1012 775 
Q 1225 500 1525 500 
Q 1900 500 2087 775 
Q 2275 1050 2275 1525 
z
" transform="scale(0.015625)"/>
     <path id="SimHei-68" d="M 2800 125 
L 2300 125 
L 2300 1925 
Q 2300 2225 2150 2400 
Q 2000 2575 1750 2575 
Q 1425 2575 1137 2237 
Q 850 1900 850 1400 
L 850 125 
L 350 125 
L 350 4400 
L 850 4400 
L 850 2400 
Q 1050 2675 1287 2825 
Q 1525 2975 1900 2975 
Q 2350 2975 2575 2725 
Q 2800 2475 2800 2100 
L 2800 125 
z
" transform="scale(0.015625)"/>
     <path id="SimHei-4f" d="M 2950 2275 
Q 2950 1100 2587 587 
Q 2225 75 1575 75 
Q 925 75 550 587 
Q 175 1100 175 2275 
Q 175 3450 550 3950 
Q 925 4450 1575 4450 
Q 2225 4450 2587 3950 
Q 2950 3450 2950 2275 
z
M 2350 2275 
Q 2350 3325 2125 3650 
Q 1900 3975 1575 3975 
Q 1250 3975 1012 3650 
Q 775 3325 775 2275 
Q 775 1225 1012 887 
Q 1250 550 1575 550 
Q 1900 550 2125 887 
Q 2350 1225 2350 2275 
z
" transform="scale(0.015625)"/>
     <path id="SimHei-5b9e" d="M 4125 3500 
Q 4050 3200 4000 2675 
Q 3950 2150 3850 1550 
L 5025 1550 
Q 5475 1550 5975 1575 
L 5975 1100 
Q 5450 1125 5000 1125 
L 3725 1125 
Q 3500 625 3050 250 
Q 2600 -125 2000 -337 
Q 1400 -550 925 -675 
Q 825 -375 500 -200 
Q 1225 -125 2050 212 
Q 2875 550 3200 1125 
L 1425 1125 
Q 975 1125 425 1100 
L 425 1575 
Q 1000 1550 1425 1550 
L 3375 1550 
Q 3450 1975 3487 2462 
Q 3525 2950 3500 3650 
Q 3800 3550 4125 3500 
z
M 3250 5250 
Q 3450 4850 3600 4375 
L 5775 4375 
Q 5750 4100 5750 3825 
Q 5750 3575 5775 3275 
L 5200 3275 
L 5200 3975 
L 1225 3975 
L 1225 3225 
L 675 3225 
Q 700 3525 700 3800 
Q 700 4100 675 4375 
L 2975 4375 
Q 2900 4675 2700 5075 
Q 2900 5150 3250 5250 
z
M 4000 825 
Q 4550 525 5050 262 
Q 5550 0 5925 -225 
Q 5750 -425 5550 -650 
Q 5100 -325 4575 -37 
Q 4050 250 3675 400 
Q 3875 650 4000 825 
z
M 1175 2750 
Q 1600 2550 2350 2050 
Q 2250 1900 2050 1650 
Q 1350 2175 925 2350 
Q 1075 2500 1175 2750 
z
M 3150 2825 
Q 2975 2625 2850 2425 
Q 2050 3000 1675 3125 
Q 1800 3300 1950 3525 
L 3150 2825 
z
" transform="scale(0.015625)"/>
     <path id="SimHei-73b0" d="M 4650 3850 
Q 4550 3575 4512 2975 
Q 4475 2375 4350 1700 
L 4850 1700 
Q 4825 1450 4825 1025 
L 4825 225 
Q 4825 -150 4962 -175 
Q 5100 -200 5275 -187 
Q 5450 -175 5525 -12 
Q 5600 150 5625 575 
Q 5875 425 6175 375 
Q 6050 -150 5925 -337 
Q 5800 -525 5400 -575 
L 4900 -575 
Q 4350 -575 4350 -100 
L 4350 1650 
Q 4125 850 3700 312 
Q 3275 -225 2425 -675 
Q 2300 -475 2000 -325 
Q 2800 0 3175 387 
Q 3550 775 3775 1375 
Q 4000 1975 4037 2625 
Q 4075 3275 4050 3925 
Q 4375 3875 4650 3850 
z
M 1850 4625 
Q 2125 4625 2525 4650 
L 2525 4175 
Q 2125 4200 1675 4200 
L 1675 2825 
Q 2025 2825 2425 2850 
L 2425 2375 
Q 2025 2400 1675 2400 
L 1675 875 
Q 2100 975 2550 1125 
Q 2525 850 2525 650 
Q 1700 450 1200 275 
Q 700 100 450 -25 
Q 375 325 250 575 
Q 650 625 1225 750 
L 1225 2400 
Q 825 2400 450 2375 
L 450 2850 
Q 825 2825 1225 2825 
L 1225 4200 
Q 775 4200 425 4175 
L 425 4650 
Q 725 4625 1000 4625 
L 1850 4625 
z
M 5750 4875 
Q 5725 4475 5725 4075 
L 5725 2400 
Q 5725 1925 5750 1575 
L 5275 1575 
L 5275 4475 
L 3375 4475 
L 3375 1550 
L 2900 1550 
Q 2925 1975 2925 2500 
L 2925 3875 
Q 2925 4425 2900 4875 
L 5750 4875 
z
" transform="scale(0.015625)"/>
    </defs>
    <use xlink:href="#SimHei-7ecf"/>
    <use xlink:href="#SimHei-5178" transform="translate(100 0)"/>
    <use xlink:href="#SimHei-53ef" transform="translate(200 0)"/>
    <use xlink:href="#SimHei-89c6" transform="translate(300 0)"/>
    <use xlink:href="#SimHei-56fe" transform="translate(400 0)"/>
    <use xlink:href="#SimHei-20" transform="translate(500 0)"/>
    <use xlink:href="#SimHei-28" transform="translate(550 0)"/>
    <use xlink:href="#SimHei-43" transform="translate(600 0)"/>
    <use xlink:href="#SimHei-6c" transform="translate(650 0)"/>
    <use xlink:href="#SimHei-61" transform="translate(700 0)"/>
    <use xlink:href="#SimHei-73" transform="translate(750 0)"/>
    <use xlink:href="#SimHei-73" transform="translate(800 0)"/>
    <use xlink:href="#SimHei-69" transform="translate(850 0)"/>
    <use xlink:href="#SimHei-63" transform="translate(900 0)"/>
    <use xlink:href="#SimHei-20" transform="translate(950 0)"/>
    <use xlink:href="#SimHei-56" transform="translate(1000 0)"/>
    <use xlink:href="#SimHei-69" transform="translate(1050 0)"/>
    <use xlink:href="#SimHei-73" transform="translate(1100 0)"/>
    <use xlink:href="#SimHei-69" transform="translate(1150 0)"/>
    <use xlink:href="#SimHei-62" transform="translate(1200 0)"/>
    <use xlink:href="#SimHei-69" transform="translate(1250 0)"/>
    <use xlink:href="#SimHei-6c" transform="translate(1300 0)"/>
    <use xlink:href="#SimHei-69" transform="translate(1350 0)"/>
    <use xlink:href="#SimHei-74" transform="translate(1400 0)"/>
    <use xlink:href="#SimHei-79" transform="translate(1450 0)"/>
    <use xlink:href="#SimHei-20" transform="translate(1500 0)"/>
    <use xlink:href="#SimHei-47" transform="translate(1550 0)"/>
    <use xlink:href="#SimHei-72" transform="translate(1600 0)"/>
    <use xlink:href="#SimHei-61" transform="translate(1650 0)"/>
    <use xlink:href="#SimHei-70" transform="translate(1700 0)"/>
    <use xlink:href="#SimHei-68" transform="translate(1750 0)"/>
    <use xlink:href="#SimHei-29" transform="translate(1800 0)"/>
    <use xlink:href="#SimHei-20" transform="translate(1850 0)"/>
    <use xlink:href="#SimHei-4f" transform="translate(1900 0)"/>
    <use xlink:href="#SimHei-33" transform="translate(1950 0)"/>
    <use xlink:href="#SimHei-5b9e" transform="translate(2000 0)"/>
    <use xlink:href="#SimHei-73b0" transform="translate(2100 0)"/>
   </g>
  </g>
 </g>
 <defs>
  <clipPath id="p61eb612a33">
   <rect x="43.8875" y="79.38375" width="661.76125" height="246.805625"/>
  </clipPath>
  <clipPath id="pe2a39a8422">
   <rect x="139.353529" y="384.634375" width="470.829192" height="246.805625"/>
  </clipPath>
 </defs>
</svg>
